#N canvas 0 22 962 663 10;
#X obj 485 297 inlet;
#X obj 488 396 f;
#X obj 525 396 + 1;
#X obj 505 363 f 0;
#X obj 573 315 inlet;
#X obj 487 327 t b;
#X obj 489 560 outlet;
#X text 451 99 simple counter.;
#X text 443 268 bang to increment;
#X text 573 295 bang to reset;
#X connect 0 0 5 0;
#X connect 1 0 2 0;
#X connect 1 0 6 0;
#X connect 2 0 1 1;
#X connect 3 0 1 1;
#X connect 4 0 3 0;
#X connect 5 0 1 0;
