#N canvas 180 58 1174 785 10;
#N canvas 264 62 903 680 clock 0;
#X msg 156 109 play;
#X obj 288 324 s~ metro;
#X obj 152 268 route clock;
#X obj 117 -400 r onOff;
#X obj 117 -207 sel 0 1;
#X msg 236 121 stop;
#X obj 153 356 s \$0-clock;
#X obj 201 72 t b b;
#X msg 189 145 reset;
#X obj 464 120 r setTempo;
#X msg 459 159 tempo \$1;
#X obj 513 239 s \$0-detectedTempo;
#X obj 625 24 r divisions;
#X msg 621 138 divisions \$1;
#X obj 719 28 r beats;
#X msg 714 142 beats \$1;
#X obj 789 28 r measures;
#X msg 781 142 measures \$1;
#X obj 623 86 t b f;
#X obj 715 84 t b f;
#X obj 786 83 t b f;
#X obj 516 38 r swing;
#X obj 154 240 birdClock 8 4 2 120 1;
#X obj 187 -79 r rewindClock;
#X obj 304 154 r \$0-detectedTempo;
#X obj 511 73 t b f;
#X msg 561 101 swing \$1;
#X connect 0 0 22 0;
#X connect 2 0 6 0;
#X connect 3 0 4 0;
#X connect 4 0 7 0;
#X connect 4 1 0 0;
#X connect 5 0 22 0;
#X connect 7 0 8 0;
#X connect 7 1 5 0;
#X connect 8 0 22 0;
#X connect 9 0 10 0;
#X connect 10 0 22 1;
#X connect 10 0 11 0;
#X connect 12 0 18 0;
#X connect 13 0 22 1;
#X connect 14 0 19 0;
#X connect 15 0 22 1;
#X connect 16 0 20 0;
#X connect 17 0 22 1;
#X connect 18 0 0 0;
#X connect 18 1 13 0;
#X connect 19 0 0 0;
#X connect 19 1 15 0;
#X connect 20 0 0 0;
#X connect 20 1 17 0;
#X connect 21 0 25 0;
#X connect 22 0 2 0;
#X connect 22 1 1 0;
#X connect 23 0 8 0;
#X connect 24 0 22 1;
#X connect 25 0 0 0;
#X connect 25 1 26 0;
#X connect 26 0 22 1;
#X restore 685 -45 pd clock;
#N canvas 338 54 911 714 drums 0;
#N canvas 207 23 1440 752 kick 0;
#X obj 492 587 soundfiler;
#X obj 143 716 outlet~;
#X obj 492 613 t b;
#X obj 492 644 \$0;
#X obj 142 673 *~;
#X obj 150 252 t b b b;
#X obj 152 441 del;
#X obj 177 479 * 0.01;
#X obj 177 420 random 45;
#X obj 177 451 + 70;
#X obj 494 261 \$0;
#X obj 37 580 s \$0-kickHits;
#X obj 237 213 mod 8;
#X obj 282 233 r \$0-accent;
#X obj 215 258 == 0;
#X obj 205 312 sel 0 1;
#X msg 245 341 90;
#X msg 204 342 60;
#X obj 23 13 table \$0-kickArray0;
#X obj 25 33 table \$0-kickArray1;
#X obj 26 55 table \$0-kickArray2;
#X obj 28 75 table \$0-kickArray3;
#X obj 151 522 tabplay~ \$0-kickArray0;
#X obj 299 440 \$0;
#X obj 299 416 route 0 1 2 3;
#X obj 312 486 \$0;
#X obj 327 534 \$0;
#X obj 340 580 \$0;
#X msg 298 466 set \$1-kickArray0;
#X msg 311 512 set \$1-kickArray1;
#X msg 331 554 set \$1-kickArray2;
#X msg 339 606 set \$1-kickArray3;
#X obj 301 372 r \$0-changeKick;
#X obj 673 588 soundfiler;
#X obj 673 614 t b;
#X obj 673 645 \$0;
#X obj 832 586 soundfiler;
#X obj 832 612 t b;
#X obj 832 643 \$0;
#X obj 990 589 soundfiler;
#X obj 990 615 t b;
#X obj 990 646 \$0;
#X msg 492 671 \; \$1-kickArray0 normalize 1;
#X msg 673 672 \; \$1-kickArray1 normalize 1;
#X msg 832 670 \; \$1-kickArray2 normalize 1;
#X msg 990 673 \; \$1-kickArray3 normalize 1;
#X obj 494 229 loadbang;
#X obj 295 322 random 4;
#X obj 170 640 *~;
#X obj 174 587 lop~ 1;
#X obj 193 374 random 10;
#N canvas 603 144 450 300 mdb 0;
#X obj 63 42 inlet;
#X obj 66 79 spigot;
#X obj 66 103 t b b;
#X msg 99 133 0;
#X msg 133 53 1;
#X obj 133 21 loadbang;
#X obj 72 162 outlet;
#X msg 194 64 1;
#X obj 197 25 inlet;
#X connect 0 0 1 0;
#X connect 1 0 2 0;
#X connect 2 0 6 0;
#X connect 2 1 3 0;
#X connect 3 0 1 1;
#X connect 4 0 1 1;
#X connect 5 0 4 0;
#X connect 7 0 1 1;
#X connect 8 0 7 0;
#X restore 130 189 pd mdb;
#X obj 213 99 random 100;
#X obj 214 127 <;
#X obj 192 160 spigot;
#X obj 284 -25 r notes;
#X obj 287 22 list prepend read;
#X obj 286 45 list trim;
#X obj 287 0 route 4;
#N canvas 485 86 555 465 switch 0;
#X obj 178 222 spigot;
#X obj 215 199 == 0;
#X obj 246 224 spigot;
#X obj 283 201 == 1;
#X obj 245 21 loadbang;
#X obj 137 6 inlet;
#X obj 182 408 outlet;
#X obj 137 72 t a b;
#X msg 271 72 seed 50;
#X obj 221 119 random 2;
#X obj 221 143 t f f;
#X obj 138 118 t a a;
#X msg 172 269 read -resize AC_Kick-1.aif \$1-kickArray3;
#X msg 235 301 read -resize kick-1.wav \$1-kickArray3;
#X connect 0 0 12 0;
#X connect 1 0 0 1;
#X connect 2 0 13 0;
#X connect 3 0 2 1;
#X connect 4 0 8 0;
#X connect 5 0 7 0;
#X connect 7 0 11 0;
#X connect 7 1 9 0;
#X connect 8 0 9 0;
#X connect 9 0 10 0;
#X connect 10 0 1 0;
#X connect 10 1 3 0;
#X connect 11 0 0 0;
#X connect 11 1 2 0;
#X connect 12 0 6 0;
#X connect 13 0 6 0;
#X restore 993 444 pd switch;
#X obj 494 286 t a a a a;
#X obj 693 264 \$0;
#N canvas 485 86 555 465 switch 0;
#X obj 178 222 spigot;
#X obj 215 199 == 0;
#X obj 246 224 spigot;
#X obj 283 201 == 1;
#X obj 308 225 spigot;
#X obj 345 202 == 2;
#X obj 245 21 loadbang;
#X obj 244 47 t b b;
#X obj 137 6 inlet;
#X obj 182 408 outlet;
#X obj 221 119 random 4;
#X obj 221 143 t f f f f;
#X obj 369 226 spigot;
#X obj 406 203 == 3;
#X obj 138 118 t a a a a;
#X obj 137 72 t a b;
#X obj 236 408 outlet;
#X obj 300 410 outlet;
#X obj 370 412 outlet;
#X msg 271 72 seed 49;
#X connect 0 0 9 0;
#X connect 1 0 0 1;
#X connect 2 0 16 0;
#X connect 3 0 2 1;
#X connect 4 0 17 0;
#X connect 5 0 4 1;
#X connect 6 0 7 0;
#X connect 7 0 10 0;
#X connect 7 1 19 0;
#X connect 8 0 15 0;
#X connect 10 0 11 0;
#X connect 11 0 1 0;
#X connect 11 1 3 0;
#X connect 11 2 5 0;
#X connect 11 3 13 0;
#X connect 12 0 18 0;
#X connect 13 0 12 1;
#X connect 14 0 0 0;
#X connect 14 1 2 0;
#X connect 14 2 4 0;
#X connect 14 3 12 0;
#X connect 15 0 14 0;
#X connect 15 1 10 0;
#X connect 19 0 10 0;
#X restore 693 287 pd switch;
#N canvas 485 86 555 465 switch 0;
#X obj 178 222 spigot;
#X obj 215 199 == 0;
#X obj 246 224 spigot;
#X obj 283 201 == 1;
#X obj 245 21 loadbang;
#X obj 137 6 inlet;
#X obj 182 408 outlet;
#X obj 137 72 t a b;
#X msg 271 72 seed 50;
#X obj 221 119 random 2;
#X obj 221 143 t f f;
#X obj 138 118 t a a;
#X msg 177 263 read -resize Kick-3.wav \$1-kickArray2;
#X msg 240 299 read -resize 808_BD1.aif \$1-kickArray2;
#X connect 0 0 12 0;
#X connect 1 0 0 1;
#X connect 2 0 13 0;
#X connect 3 0 2 1;
#X connect 4 0 8 0;
#X connect 5 0 7 0;
#X connect 7 0 11 0;
#X connect 7 1 9 0;
#X connect 8 0 9 0;
#X connect 9 0 10 0;
#X connect 10 0 1 0;
#X connect 10 1 3 0;
#X connect 11 0 0 0;
#X connect 11 1 2 0;
#X connect 12 0 6 0;
#X connect 13 0 6 0;
#X restore 834 442 pd switch;
#N canvas 485 86 555 465 switch 0;
#X obj 178 222 spigot;
#X obj 215 199 == 0;
#X obj 246 224 spigot;
#X obj 283 201 == 1;
#X obj 245 21 loadbang;
#X obj 137 6 inlet;
#X obj 182 408 outlet;
#X obj 137 72 t a b;
#X msg 271 72 seed 50;
#X obj 221 119 random 2;
#X obj 221 143 t f f;
#X obj 138 118 t a a;
#X msg 185 267 read -resize Kick-4.wav \$1-kickArray1;
#X msg 239 310 read -resize Kick-5.wav \$1-kickArray1;
#X connect 0 0 12 0;
#X connect 1 0 0 1;
#X connect 2 0 13 0;
#X connect 3 0 2 1;
#X connect 4 0 8 0;
#X connect 5 0 7 0;
#X connect 7 0 11 0;
#X connect 7 1 9 0;
#X connect 8 0 9 0;
#X connect 9 0 10 0;
#X connect 10 0 1 0;
#X connect 10 1 3 0;
#X connect 11 0 0 0;
#X connect 11 1 2 0;
#X connect 12 0 6 0;
#X connect 13 0 6 0;
#X restore 668 436 pd switch;
#N canvas 485 86 555 465 switch 0;
#X obj 172 234 spigot;
#X obj 215 199 == 0;
#X obj 246 224 spigot;
#X obj 283 201 == 1;
#X obj 236 14 loadbang;
#X obj 137 6 inlet;
#X obj 182 408 outlet;
#X obj 137 72 t a b;
#X msg 271 72 seed 50;
#X obj 221 119 random 2;
#X obj 221 143 t f f;
#X obj 138 118 t a a;
#X msg 241 338 read -resize Kick-2.wav \$1-kickArray0;
#X msg 165 279 read -resize AC_Tom-1.aif \$1-kickArray0;
#X connect 0 0 13 0;
#X connect 1 0 0 1;
#X connect 2 0 12 0;
#X connect 3 0 2 1;
#X connect 4 0 8 0;
#X connect 5 0 7 0;
#X connect 7 0 11 0;
#X connect 7 1 9 0;
#X connect 8 0 9 0;
#X connect 9 0 10 0;
#X connect 10 0 1 0;
#X connect 10 1 3 0;
#X connect 11 0 0 0;
#X connect 11 1 2 0;
#X connect 12 0 6 0;
#X connect 13 0 6 0;
#X restore 492 437 pd switch;
#X obj 189 24 inlet;
#X obj 190 49 t f b f f;
#X obj 693 170 r onOff;
#X obj 692 204 sel 1;
#X floatatom 261 140 5 0 0 0 - - -;
#X obj 327 112 s dumps;
#X obj 362 63 r dump;
#X obj 229 73 mm_pattern_writer 4;
#X obj 36 153 r drumMonitor;
#X obj 40 183 sel 4;
#X connect 0 0 2 0;
#X connect 2 0 3 0;
#X connect 3 0 42 0;
#X connect 4 0 1 0;
#X connect 5 0 6 0;
#X connect 5 1 8 0;
#X connect 5 2 47 0;
#X connect 5 2 50 0;
#X connect 6 0 22 0;
#X connect 6 0 11 0;
#X connect 7 0 49 0;
#X connect 8 0 9 0;
#X connect 9 0 7 0;
#X connect 10 0 60 0;
#X connect 12 0 14 0;
#X connect 13 0 14 1;
#X connect 14 0 15 0;
#X connect 15 0 17 0;
#X connect 15 1 16 0;
#X connect 16 0 9 1;
#X connect 17 0 9 1;
#X connect 22 0 4 0;
#X connect 22 1 51 1;
#X connect 23 0 28 0;
#X connect 24 0 23 0;
#X connect 24 1 25 0;
#X connect 24 2 26 0;
#X connect 24 3 27 0;
#X connect 25 0 29 0;
#X connect 26 0 30 0;
#X connect 27 0 31 0;
#X connect 28 0 22 0;
#X connect 29 0 22 0;
#X connect 30 0 22 0;
#X connect 31 0 22 0;
#X connect 32 0 24 0;
#X connect 33 0 34 0;
#X connect 34 0 35 0;
#X connect 35 0 43 0;
#X connect 36 0 37 0;
#X connect 37 0 38 0;
#X connect 38 0 44 0;
#X connect 39 0 40 0;
#X connect 40 0 41 0;
#X connect 41 0 45 0;
#X connect 46 0 10 0;
#X connect 47 0 24 0;
#X connect 48 0 4 1;
#X connect 49 0 48 1;
#X connect 49 0 48 0;
#X connect 50 0 6 1;
#X connect 52 0 53 0;
#X connect 53 0 54 1;
#X connect 54 0 51 0;
#X connect 54 0 5 0;
#X connect 55 0 58 0;
#X connect 56 0 57 0;
#X connect 57 0 73 1;
#X connect 58 0 56 0;
#X connect 59 0 39 0;
#X connect 60 0 65 0;
#X connect 60 1 64 0;
#X connect 60 2 63 0;
#X connect 60 3 59 0;
#X connect 61 0 62 0;
#X connect 62 0 65 0;
#X connect 62 1 64 0;
#X connect 62 2 63 0;
#X connect 62 3 59 0;
#X connect 63 0 36 0;
#X connect 64 0 33 0;
#X connect 65 0 0 0;
#X connect 66 0 67 0;
#X connect 67 0 54 0;
#X connect 67 1 52 0;
#X connect 67 2 73 0;
#X connect 67 3 12 0;
#X connect 68 0 69 0;
#X connect 69 0 61 0;
#X connect 72 0 73 1;
#X connect 73 0 53 1;
#X connect 73 0 70 0;
#X connect 73 1 53 1;
#X connect 73 1 70 0;
#X connect 73 2 71 0;
#X connect 74 0 75 0;
#X connect 75 0 5 0;
#X restore 177 181 pd kick;
#X obj 176 687 throw~ outputR;
#X obj 243 723 throw~ outputL;
#N canvas 0 23 1440 752 sn 0;
#X obj 731 473 soundfiler;
#X obj 150 663 outlet~;
#X obj 731 502 t b;
#X obj 731 533 \$0;
#X obj 149 614 *~;
#X obj 154 210 t b b b;
#X obj 151 365 del;
#X obj 177 349 * 0.01;
#X obj 177 297 random 45;
#X obj 177 321 + 60;
#X obj 225 174 mod 8;
#X obj 302 152 r \$0-accent;
#X obj 225 199 == 0;
#X obj 225 231 sel 0 1;
#X msg 224 261 50;
#X msg 265 260 80;
#X obj 6 36 table \$0-snareArray1;
#X obj 7 59 table \$0-snareArray2;
#X obj 7 82 table \$0-snareArray3;
#X obj 6 13 table \$0-snareArray0;
#X obj 289 389 \$0;
#X obj 291 321 r \$0-changeSnare;
#X msg 288 415 set \$1-snareArray0;
#X obj 289 365 route 0 1 2 3;
#X obj 302 435 \$0;
#X msg 301 461 set \$1-snareArray1;
#X obj 317 483 \$0;
#X obj 330 529 \$0;
#X msg 316 509 set \$1-snareArray2;
#X msg 329 555 set \$1-snareArray3;
#X obj 149 528 tabplay~ \$0-snareArray0;
#X obj 900 471 soundfiler;
#X obj 900 500 t b;
#X obj 900 531 \$0;
#X obj 1068 470 soundfiler;
#X obj 1068 499 t b;
#X obj 1068 530 \$0;
#X obj 1237 468 soundfiler;
#X obj 1237 497 t b;
#X obj 1237 528 \$0;
#X msg 731 560 \; \$1-snareArray0 normalize 1;
#X msg 900 558 \; \$1-snareArray1 normalize 1;
#X msg 1068 557 \; \$1-snareArray2 normalize 1;
#X msg 1237 555 \; \$1-snareArray3 normalize 1;
#X obj 339 288 random 4;
#X obj 168 404 s \$0-snareHits;
#X obj 167 554 lop~ 1;
#X obj 168 581 *~;
#X obj 214 321 random 12;
#N canvas 603 144 450 300 mdb 0;
#X obj 63 42 inlet;
#X obj 66 79 spigot;
#X obj 66 103 t b b;
#X msg 99 133 0;
#X msg 133 53 1;
#X obj 133 21 loadbang;
#X obj 72 162 outlet;
#X msg 194 64 1;
#X obj 197 25 inlet;
#X connect 0 0 1 0;
#X connect 1 0 2 0;
#X connect 2 0 6 0;
#X connect 2 1 3 0;
#X connect 3 0 1 1;
#X connect 4 0 1 1;
#X connect 5 0 4 0;
#X connect 7 0 1 1;
#X connect 8 0 7 0;
#X restore 154 170 pd mdb;
#X obj 179 27 random 100;
#X obj 180 50 <;
#X obj 158 83 spigot;
#X obj 250 -102 r notes;
#X obj 253 -55 list prepend read;
#X obj 252 -32 list trim;
#X obj 253 -77 route 5;
#N canvas 485 86 555 465 switch 0;
#X obj 178 222 spigot;
#X obj 215 199 == 0;
#X obj 246 224 spigot;
#X obj 283 201 == 1;
#X obj 245 21 loadbang;
#X obj 244 47 t b b;
#X obj 137 6 inlet;
#X obj 182 408 outlet;
#X obj 137 72 t a b;
#X msg 271 72 seed 48;
#X msg 185 286 read -resize Snare-5.wav \$1-snareArray0;
#X msg 195 319 read -resize AC_Snare-1.aif \$1-snareArray0;
#X obj 221 119 random 2;
#X obj 221 143 t f f;
#X obj 138 118 t a a;
#X connect 0 0 10 0;
#X connect 1 0 0 1;
#X connect 2 0 11 0;
#X connect 3 0 2 1;
#X connect 4 0 5 0;
#X connect 5 0 12 0;
#X connect 5 1 9 0;
#X connect 6 0 8 0;
#X connect 8 0 14 0;
#X connect 8 1 12 0;
#X connect 9 0 12 0;
#X connect 10 0 7 0;
#X connect 11 0 7 0;
#X connect 12 0 13 0;
#X connect 13 0 1 0;
#X connect 13 1 3 0;
#X connect 14 0 0 0;
#X connect 14 1 2 0;
#X restore 737 417 pd switch;
#N canvas 485 86 555 465 switch 0;
#X obj 178 222 spigot;
#X obj 215 199 == 0;
#X obj 246 224 spigot;
#X obj 283 201 == 1;
#X obj 245 21 loadbang;
#X obj 244 47 t b b;
#X obj 137 6 inlet;
#X obj 182 408 outlet;
#X obj 137 72 t a b;
#X msg 271 72 seed 49;
#X msg 164 283 read -resize Snare.wav \$1-snareArray1;
#X obj 221 119 random 2;
#X obj 138 118 t a a;
#X obj 221 143 t f f;
#X msg 188 311 read -resize snare-1.wav \$1-snareArray1;
#X connect 0 0 10 0;
#X connect 1 0 0 1;
#X connect 2 0 14 0;
#X connect 3 0 2 1;
#X connect 4 0 5 0;
#X connect 5 0 11 0;
#X connect 5 1 9 0;
#X connect 6 0 8 0;
#X connect 8 0 12 0;
#X connect 8 1 11 0;
#X connect 9 0 11 0;
#X connect 10 0 7 0;
#X connect 11 0 13 0;
#X connect 12 0 0 0;
#X connect 12 1 2 0;
#X connect 13 0 1 0;
#X connect 13 1 3 0;
#X connect 14 0 7 0;
#X restore 899 413 pd switch;
#N canvas 485 86 555 465 switch 0;
#X obj 178 222 spigot;
#X obj 215 199 == 0;
#X obj 246 224 spigot;
#X obj 283 201 == 1;
#X obj 245 21 loadbang;
#X obj 244 47 t b b;
#X obj 137 6 inlet;
#X obj 204 449 outlet;
#X obj 137 72 t a b;
#X msg 271 72 seed 59;
#X msg 178 296 read -resize Clap-4.wav \$1-snareArray2;
#X msg 203 324 read -resize 808_SD1.aif \$1-snareArray2;
#X obj 221 119 random 2;
#X obj 221 143 t f f;
#X obj 138 118 t a a;
#X connect 0 0 10 0;
#X connect 1 0 0 1;
#X connect 2 0 11 0;
#X connect 3 0 2 1;
#X connect 4 0 5 0;
#X connect 5 0 12 0;
#X connect 5 1 9 0;
#X connect 6 0 8 0;
#X connect 8 0 14 0;
#X connect 8 1 12 0;
#X connect 9 0 12 0;
#X connect 10 0 7 0;
#X connect 11 0 7 0;
#X connect 12 0 13 0;
#X connect 13 0 1 0;
#X connect 13 1 3 0;
#X connect 14 0 0 0;
#X connect 14 1 2 0;
#X restore 1041 407 pd switch;
#N canvas 485 86 555 465 switch 0;
#X obj 178 222 spigot;
#X obj 215 199 == 0;
#X obj 246 224 spigot;
#X obj 283 201 == 1;
#X obj 245 21 loadbang;
#X obj 244 47 t b b;
#X obj 137 6 inlet;
#X obj 204 449 outlet;
#X obj 137 72 t a b;
#X msg 271 72 seed 43;
#X msg 174 278 read -resize Snare-2.wav \$1-snareArray3;
#X msg 194 314 read -resize 808_Clap.aif \$1-snareArray3;
#X obj 221 143 t f f;
#X obj 221 119 random 2;
#X obj 138 118 t a a;
#X connect 0 0 10 0;
#X connect 1 0 0 1;
#X connect 2 0 11 0;
#X connect 3 0 2 1;
#X connect 4 0 5 0;
#X connect 5 0 13 0;
#X connect 5 1 9 0;
#X connect 6 0 8 0;
#X connect 8 0 14 0;
#X connect 8 1 13 0;
#X connect 9 0 13 0;
#X connect 10 0 7 0;
#X connect 11 0 7 0;
#X connect 12 0 1 0;
#X connect 12 1 3 0;
#X connect 13 0 12 0;
#X connect 14 0 0 0;
#X connect 14 1 2 0;
#X restore 1203 407 pd switch;
#X obj 728 225 \$0;
#X obj 728 193 loadbang;
#X obj 728 250 t a a a a;
#X obj 927 228 \$0;
#N canvas 485 86 555 465 switch 0;
#X obj 178 222 spigot;
#X obj 215 199 == 0;
#X obj 246 224 spigot;
#X obj 283 201 == 1;
#X obj 308 225 spigot;
#X obj 345 202 == 2;
#X obj 245 21 loadbang;
#X obj 244 47 t b b;
#X obj 137 6 inlet;
#X obj 182 408 outlet;
#X obj 221 119 random 4;
#X obj 221 143 t f f f f;
#X obj 369 226 spigot;
#X obj 406 203 == 3;
#X obj 138 118 t a a a a;
#X obj 137 72 t a b;
#X obj 236 408 outlet;
#X obj 300 410 outlet;
#X obj 370 412 outlet;
#X msg 271 72 seed 49;
#X connect 0 0 9 0;
#X connect 1 0 0 1;
#X connect 2 0 16 0;
#X connect 3 0 2 1;
#X connect 4 0 17 0;
#X connect 5 0 4 1;
#X connect 6 0 7 0;
#X connect 7 0 10 0;
#X connect 7 1 19 0;
#X connect 8 0 15 0;
#X connect 10 0 11 0;
#X connect 11 0 1 0;
#X connect 11 1 3 0;
#X connect 11 2 5 0;
#X connect 11 3 13 0;
#X connect 12 0 18 0;
#X connect 13 0 12 1;
#X connect 14 0 0 0;
#X connect 14 1 2 0;
#X connect 14 2 4 0;
#X connect 14 3 12 0;
#X connect 15 0 14 0;
#X connect 15 1 10 0;
#X connect 19 0 10 0;
#X restore 927 251 pd switch;
#X obj 156 -28 t f b f f;
#X obj 155 -53 inlet;
#X obj 928 142 r onOff;
#X obj 928 182 sel 1;
#X obj 299 29 s dumps;
#X obj 329 -25 r dump;
#X obj 195 -4 mm_pattern_writer 5;
#X obj 46 163 r drumMonitor;
#X obj 50 193 sel 5;
#X connect 0 0 2 0;
#X connect 2 0 3 0;
#X connect 3 0 40 0;
#X connect 4 0 1 0;
#X connect 5 0 6 0;
#X connect 5 1 8 0;
#X connect 5 2 44 0;
#X connect 5 2 48 0;
#X connect 6 0 45 0;
#X connect 6 0 30 0;
#X connect 7 0 46 0;
#X connect 8 0 9 0;
#X connect 9 0 7 0;
#X connect 10 0 12 0;
#X connect 11 0 12 1;
#X connect 12 0 13 0;
#X connect 13 0 14 0;
#X connect 13 1 15 0;
#X connect 14 0 9 1;
#X connect 15 0 9 1;
#X connect 20 0 22 0;
#X connect 21 0 23 0;
#X connect 22 0 30 0;
#X connect 23 0 20 0;
#X connect 23 1 24 0;
#X connect 23 2 26 0;
#X connect 23 3 27 0;
#X connect 24 0 25 0;
#X connect 25 0 30 0;
#X connect 26 0 28 0;
#X connect 27 0 29 0;
#X connect 28 0 30 0;
#X connect 29 0 30 0;
#X connect 30 0 4 0;
#X connect 30 1 49 1;
#X connect 31 0 32 0;
#X connect 32 0 33 0;
#X connect 33 0 41 0;
#X connect 34 0 35 0;
#X connect 35 0 36 0;
#X connect 36 0 42 0;
#X connect 37 0 38 0;
#X connect 38 0 39 0;
#X connect 39 0 43 0;
#X connect 44 0 23 0;
#X connect 46 0 47 1;
#X connect 46 0 47 0;
#X connect 47 0 4 1;
#X connect 48 0 6 1;
#X connect 49 0 5 0;
#X connect 50 0 51 0;
#X connect 51 0 52 1;
#X connect 52 0 49 0;
#X connect 53 0 56 0;
#X connect 54 0 55 0;
#X connect 55 0 72 1;
#X connect 56 0 54 0;
#X connect 57 0 0 0;
#X connect 58 0 31 0;
#X connect 59 0 34 0;
#X connect 60 0 37 0;
#X connect 61 0 63 0;
#X connect 62 0 61 0;
#X connect 63 0 57 0;
#X connect 63 1 58 0;
#X connect 63 2 59 0;
#X connect 63 3 60 0;
#X connect 64 0 65 0;
#X connect 65 0 57 0;
#X connect 65 1 58 0;
#X connect 65 2 59 0;
#X connect 65 3 60 0;
#X connect 66 0 52 0;
#X connect 66 1 50 0;
#X connect 66 2 72 0;
#X connect 66 3 10 0;
#X connect 67 0 66 0;
#X connect 68 0 69 0;
#X connect 69 0 64 0;
#X connect 71 0 72 1;
#X connect 72 0 51 1;
#X connect 72 1 51 1;
#X connect 72 2 70 0;
#X connect 73 0 74 0;
#X connect 74 0 5 0;
#X restore 272 182 pd sn;
#X obj 268 546 lop~ 1;
#N canvas 99 32 1440 752 perc 0;
#X obj 738 563 soundfiler;
#X obj 362 591 outlet~;
#X obj 740 590 t b;
#X obj 738 623 \$0;
#X obj 327 557 *~;
#X obj 330 277 t b b b;
#X obj 330 416 del;
#X obj 356 400 * 0.01;
#X obj 356 348 random 45;
#X obj 356 372 + 55;
#X obj 414 219 mod 8;
#X obj 491 197 r \$0-accent;
#X obj 414 244 == 0;
#X obj 414 276 sel 0 1;
#X msg 413 306 50;
#X msg 454 305 80;
#X obj 22 42 table \$0-percArray0;
#X obj 22 65 table \$0-percArray1;
#X obj 23 88 table \$0-percArray2;
#X obj 23 111 table \$0-percArray3;
#X obj 501 364 \$0;
#X obj 501 340 route 0 1 2 3;
#X obj 514 410 \$0;
#X obj 529 458 \$0;
#X obj 542 504 \$0;
#X obj 331 444 tabplay~ \$0-percArray0;
#X msg 500 390 set \$1-percArray0;
#X msg 513 436 set \$1-percArray1;
#X msg 528 486 set \$1-percArray2;
#X msg 541 530 set \$1-percArray3;
#X obj 503 296 r \$0-changePerc;
#X obj 899 564 soundfiler;
#X obj 899 593 t b;
#X obj 899 624 \$0;
#X obj 1057 561 soundfiler;
#X obj 1057 590 t b;
#X obj 1057 621 \$0;
#X obj 1218 562 soundfiler;
#X obj 1218 591 t b;
#X obj 1218 622 \$0;
#X msg 738 650 \; \$1-percArray0 normalize 1;
#X msg 899 651 \; \$1-percArray1 normalize 1;
#X msg 1057 648 \; \$1-percArray2 normalize 1;
#X msg 1218 649 \; \$1-percArray3 normalize 1;
#X obj 223 447 s \$0-percHits;
#X obj 351 508 *~;
#X obj 349 467 lop~ 1;
#N canvas 603 144 450 300 mdb 0;
#X obj 63 42 inlet;
#X obj 66 79 spigot;
#X obj 66 103 t b b;
#X msg 99 133 0;
#X msg 133 53 1;
#X obj 133 21 loadbang;
#X obj 72 162 outlet;
#X msg 194 64 1;
#X obj 197 25 inlet;
#X connect 0 0 1 0;
#X connect 1 0 2 0;
#X connect 2 0 6 0;
#X connect 2 1 3 0;
#X connect 3 0 1 1;
#X connect 4 0 1 1;
#X connect 5 0 4 0;
#X connect 7 0 1 1;
#X connect 8 0 7 0;
#X restore 330 234 pd mdb;
#X obj 393 372 random 5;
#X obj 340 96 random 100;
#X obj 341 119 <;
#X obj 319 152 spigot;
#X obj 411 -33 r notes;
#X obj 414 14 list prepend read;
#X obj 413 37 list trim;
#X obj 414 -8 route 6;
#N canvas 485 86 555 465 switch 0;
#X obj 178 222 spigot;
#X obj 215 199 == 0;
#X obj 246 224 spigot;
#X obj 283 201 == 1;
#X obj 308 225 spigot;
#X obj 345 202 == 2;
#X obj 245 21 loadbang;
#X msg 271 72 seed 53;
#X obj 244 47 t b b;
#X obj 137 6 inlet;
#X obj 182 408 outlet;
#X msg 177 268 read -resize Hat-6.aif \$1-percArray0;
#X msg 307 331 read -resize 808_HH2.aif \$1-percArray0;
#X obj 221 119 random 4;
#X obj 221 143 t f f f f;
#X obj 369 226 spigot;
#X obj 406 203 == 3;
#X obj 138 118 t a a a a;
#X obj 137 72 t a b;
#X msg 243 297 read -resize AC_Hat-1.aif \$1-percArray0;
#X msg 368 366 read -resize conga-1.wav \$1-percArray0;
#X connect 0 0 11 0;
#X connect 1 0 0 1;
#X connect 2 0 19 0;
#X connect 3 0 2 1;
#X connect 4 0 12 0;
#X connect 5 0 4 1;
#X connect 6 0 8 0;
#X connect 7 0 13 0;
#X connect 8 0 13 0;
#X connect 8 1 7 0;
#X connect 9 0 18 0;
#X connect 11 0 10 0;
#X connect 12 0 10 0;
#X connect 13 0 14 0;
#X connect 14 0 1 0;
#X connect 14 1 3 0;
#X connect 14 2 5 0;
#X connect 14 3 16 0;
#X connect 15 0 20 0;
#X connect 16 0 15 1;
#X connect 17 0 0 0;
#X connect 17 1 2 0;
#X connect 17 2 4 0;
#X connect 17 3 15 0;
#X connect 18 0 17 0;
#X connect 18 1 13 0;
#X connect 19 0 10 0;
#X connect 20 0 10 0;
#X restore 740 526 pd switch;
#N canvas 485 86 555 465 switch 0;
#X obj 178 222 spigot;
#X obj 215 199 == 0;
#X obj 246 224 spigot;
#X obj 283 201 == 1;
#X obj 308 225 spigot;
#X obj 345 202 == 2;
#X obj 245 21 loadbang;
#X obj 244 47 t b b;
#X obj 137 6 inlet;
#X obj 182 408 outlet;
#X obj 137 72 t a b;
#X obj 378 227 spigot;
#X obj 415 204 == 3;
#X obj 221 119 random 4;
#X obj 221 143 t f f f f;
#X obj 138 118 t a a a a;
#X msg 271 72 seed 52;
#X msg 313 323 read -resize conga-2.wav \$1-percArray1;
#X msg 179 259 read -resize Perc.wav \$1-percArray1;
#X msg 246 287 read -resize Tamb.wav \$1-percArray1;
#X msg 379 363 read -resize conga-1.wav \$1-percArray1;
#X connect 0 0 18 0;
#X connect 1 0 0 1;
#X connect 2 0 19 0;
#X connect 3 0 2 1;
#X connect 4 0 17 0;
#X connect 5 0 4 1;
#X connect 6 0 7 0;
#X connect 7 0 13 0;
#X connect 7 1 16 0;
#X connect 8 0 10 0;
#X connect 10 0 15 0;
#X connect 10 1 13 0;
#X connect 11 0 20 0;
#X connect 12 0 11 1;
#X connect 13 0 14 0;
#X connect 14 0 1 0;
#X connect 14 1 3 0;
#X connect 14 2 5 0;
#X connect 14 3 12 0;
#X connect 15 0 0 0;
#X connect 15 1 2 0;
#X connect 15 2 4 0;
#X connect 15 3 11 0;
#X connect 16 0 13 0;
#X connect 17 0 9 0;
#X connect 18 0 9 0;
#X connect 19 0 9 0;
#X connect 20 0 9 0;
#X restore 898 521 pd switch;
#N canvas 485 86 555 465 switch 0;
#X obj 178 222 spigot;
#X obj 215 199 == 0;
#X obj 246 224 spigot;
#X obj 283 201 == 1;
#X obj 308 225 spigot;
#X obj 345 202 == 2;
#X obj 245 21 loadbang;
#X obj 244 47 t b b;
#X obj 137 6 inlet;
#X obj 204 449 outlet;
#X obj 137 72 t a b;
#X obj 378 227 spigot;
#X obj 415 204 == 3;
#X obj 221 119 random 4;
#X obj 221 143 t f f f f;
#X obj 138 118 t a a a a;
#X msg 270 341 read -resize conga-4.wav \$1-percArray2;
#X msg 182 266 read -resize Hat-7.aif \$1-percArray2;
#X msg 255 301 read -resize conga-5.wav \$1-percArray2;
#X msg 286 378 read -resize conga-3.wav \$1-percArray2;
#X msg 271 72 seed 51;
#X connect 0 0 17 0;
#X connect 1 0 0 1;
#X connect 2 0 18 0;
#X connect 3 0 2 1;
#X connect 4 0 16 0;
#X connect 5 0 4 1;
#X connect 6 0 7 0;
#X connect 7 0 13 0;
#X connect 7 1 20 0;
#X connect 8 0 10 0;
#X connect 10 0 15 0;
#X connect 10 1 13 0;
#X connect 11 0 19 0;
#X connect 12 0 11 1;
#X connect 13 0 14 0;
#X connect 14 0 1 0;
#X connect 14 1 3 0;
#X connect 14 2 5 0;
#X connect 14 3 12 0;
#X connect 15 0 0 0;
#X connect 15 1 2 0;
#X connect 15 2 4 0;
#X connect 15 3 11 0;
#X connect 16 0 9 0;
#X connect 17 0 9 0;
#X connect 18 0 9 0;
#X connect 19 0 9 0;
#X connect 20 0 13 0;
#X restore 1057 513 pd switch;
#N canvas 485 86 555 465 switch 0;
#X obj 178 222 spigot;
#X obj 215 199 == 0;
#X obj 246 224 spigot;
#X obj 283 201 == 1;
#X obj 308 225 spigot;
#X obj 345 202 == 2;
#X obj 245 21 loadbang;
#X obj 244 47 t b b;
#X obj 137 6 inlet;
#X obj 204 449 outlet;
#X obj 137 72 t a b;
#X obj 378 227 spigot;
#X obj 415 204 == 3;
#X obj 221 119 random 4;
#X obj 221 143 t f f f f;
#X obj 138 118 t a a a a;
#X msg 271 72 seed 51;
#X msg 182 266 read -resize AC_Tom-1.aif \$1-percArray3;
#X msg 255 301 read -resize AC_Tom-2.aif \$1-percArray3;
#X msg 270 341 read -resize AC_Hat-1.aif \$1-percArray3;
#X msg 286 378 read -resize 808_Clap.aif \$1-percArray3;
#X connect 0 0 17 0;
#X connect 1 0 0 1;
#X connect 2 0 18 0;
#X connect 3 0 2 1;
#X connect 4 0 19 0;
#X connect 5 0 4 1;
#X connect 6 0 7 0;
#X connect 7 0 13 0;
#X connect 7 1 16 0;
#X connect 8 0 10 0;
#X connect 10 0 15 0;
#X connect 10 1 13 0;
#X connect 11 0 20 0;
#X connect 12 0 11 1;
#X connect 13 0 14 0;
#X connect 14 0 1 0;
#X connect 14 1 3 0;
#X connect 14 2 5 0;
#X connect 14 3 12 0;
#X connect 15 0 0 0;
#X connect 15 1 2 0;
#X connect 15 2 4 0;
#X connect 15 3 11 0;
#X connect 16 0 13 0;
#X connect 17 0 9 0;
#X connect 18 0 9 0;
#X connect 19 0 9 0;
#X connect 20 0 9 0;
#X restore 1219 513 pd switch;
#X obj 318 20 t f b f f;
#X obj 721 262 \$0;
#X obj 721 230 loadbang;
#X obj 721 287 t a a a a;
#X obj 920 265 \$0;
#N canvas 485 86 555 465 switch 0;
#X obj 178 222 spigot;
#X obj 215 199 == 0;
#X obj 246 224 spigot;
#X obj 283 201 == 1;
#X obj 308 225 spigot;
#X obj 345 202 == 2;
#X obj 245 21 loadbang;
#X obj 244 47 t b b;
#X obj 137 6 inlet;
#X obj 182 408 outlet;
#X obj 221 119 random 4;
#X obj 221 143 t f f f f;
#X obj 369 226 spigot;
#X obj 406 203 == 3;
#X obj 138 118 t a a a a;
#X obj 137 72 t a b;
#X obj 236 408 outlet;
#X obj 300 410 outlet;
#X obj 370 412 outlet;
#X msg 271 72 seed 49;
#X connect 0 0 9 0;
#X connect 1 0 0 1;
#X connect 2 0 16 0;
#X connect 3 0 2 1;
#X connect 4 0 17 0;
#X connect 5 0 4 1;
#X connect 6 0 7 0;
#X connect 7 0 10 0;
#X connect 7 1 19 0;
#X connect 8 0 15 0;
#X connect 10 0 11 0;
#X connect 11 0 1 0;
#X connect 11 1 3 0;
#X connect 11 2 5 0;
#X connect 11 3 13 0;
#X connect 12 0 18 0;
#X connect 13 0 12 1;
#X connect 14 0 0 0;
#X connect 14 1 2 0;
#X connect 14 2 4 0;
#X connect 14 3 12 0;
#X connect 15 0 14 0;
#X connect 15 1 10 0;
#X connect 19 0 10 0;
#X restore 920 288 pd switch;
#X obj 317 -13 inlet;
#X obj 921 131 r onOff;
#X obj 922 167 sel 1;
#X obj 463 98 s dumps;
#X obj 502 44 r dump;
#X obj 361 62 mm_pattern_writer 6;
#X obj 56 173 r drumMonitor;
#X obj 60 203 sel 6;
#X connect 0 0 2 0;
#X connect 2 0 3 0;
#X connect 3 0 40 0;
#X connect 4 0 1 0;
#X connect 5 0 6 0;
#X connect 5 1 8 0;
#X connect 5 2 48 0;
#X connect 6 0 25 0;
#X connect 6 0 44 0;
#X connect 7 0 46 0;
#X connect 8 0 9 0;
#X connect 9 0 7 0;
#X connect 10 0 12 0;
#X connect 11 0 12 1;
#X connect 12 0 13 0;
#X connect 13 0 14 0;
#X connect 13 1 15 0;
#X connect 14 0 9 1;
#X connect 15 0 9 1;
#X connect 20 0 26 0;
#X connect 21 0 20 0;
#X connect 21 1 22 0;
#X connect 21 2 23 0;
#X connect 21 3 24 0;
#X connect 22 0 27 0;
#X connect 23 0 28 0;
#X connect 24 0 29 0;
#X connect 25 0 4 0;
#X connect 25 1 47 1;
#X connect 26 0 25 0;
#X connect 27 0 25 0;
#X connect 28 0 25 0;
#X connect 29 0 25 0;
#X connect 30 0 21 0;
#X connect 31 0 32 0;
#X connect 32 0 33 0;
#X connect 33 0 41 0;
#X connect 34 0 35 0;
#X connect 35 0 36 0;
#X connect 36 0 42 0;
#X connect 37 0 38 0;
#X connect 38 0 39 0;
#X connect 39 0 43 0;
#X connect 45 0 4 1;
#X connect 46 0 45 1;
#X connect 46 0 45 0;
#X connect 47 0 5 0;
#X connect 48 0 6 1;
#X connect 49 0 50 0;
#X connect 50 0 51 1;
#X connect 51 0 47 0;
#X connect 52 0 55 0;
#X connect 53 0 54 0;
#X connect 54 0 71 1;
#X connect 55 0 53 0;
#X connect 56 0 0 0;
#X connect 57 0 31 0;
#X connect 58 0 34 0;
#X connect 59 0 37 0;
#X connect 60 0 51 0;
#X connect 60 1 49 0;
#X connect 60 2 71 0;
#X connect 60 3 10 0;
#X connect 61 0 63 0;
#X connect 62 0 61 0;
#X connect 63 0 56 0;
#X connect 63 1 57 0;
#X connect 63 2 58 0;
#X connect 63 3 59 0;
#X connect 64 0 65 0;
#X connect 65 0 56 0;
#X connect 65 1 57 0;
#X connect 65 2 58 0;
#X connect 65 3 59 0;
#X connect 66 0 60 0;
#X connect 67 0 68 0;
#X connect 68 0 64 0;
#X connect 70 0 71 1;
#X connect 71 0 50 1;
#X connect 71 1 50 1;
#X connect 71 2 69 0;
#X connect 72 0 73 0;
#X connect 73 0 5 0;
#X restore 89 187 pd perc;
#X obj 424 220 r \$0-detectedTempo;
#X obj 158 262 r \$0-detectedTempo;
#N canvas 501 222 450 300 toFuzz 0;
#X obj 75 -66 inlet~;
#X obj 76 197 throw~ toFuzz;
#X obj 76 167 *~;
#X obj 101 144 lop~ 1;
#X obj 154 44 random 100;
#X obj 152 67 * 0.01;
#X obj 152 91 *;
#X obj 37 36 r onOff;
#X obj 37 63 sel 0;
#X msg 36 90 0;
#X obj 152 -20 r randomize;
#X obj 154 13 t b;
#X connect 0 0 2 0;
#X connect 2 0 1 0;
#X connect 3 0 2 1;
#X connect 4 0 5 0;
#X connect 5 0 6 1;
#X connect 5 0 6 0;
#X connect 6 0 3 0;
#X connect 7 0 8 0;
#X connect 8 0 9 0;
#X connect 9 0 3 0;
#X connect 10 0 11 0;
#X connect 11 0 4 0;
#X restore 443 709 pd toFuzz;
#X obj 225 473 r drumsVolume;
#X obj 329 429 loadbang;
#X obj 371 264 r randomize;
#X obj 222 616 r randomize;
#X obj 180 284 r randomize;
#X obj 91 77 r \$0-clock;
#X msg 316 488 0.25;
#X obj 295 306 mm_randFilter~;
#X obj 39 390 mm_randFilter~;
#X msg 360 403 0;
#X obj 326 646 *~;
#X obj 171 588 *~;
#N canvas 710 242 450 300 toTremelo 0;
#X obj 75 -66 inlet~;
#X obj 76 167 *~;
#X obj 101 144 lop~ 1;
#X obj 154 44 random 100;
#X obj 152 67 * 0.01;
#X obj 152 91 *;
#X obj 37 36 r onOff;
#X obj 37 63 sel 0;
#X obj 155 15 t b;
#X obj 156 -9 r randomize2;
#X obj 76 208 throw~ toTremelo;
#X msg 39 92 0;
#X connect 0 0 1 0;
#X connect 1 0 10 0;
#X connect 2 0 1 1;
#X connect 3 0 4 0;
#X connect 4 0 5 1;
#X connect 4 0 5 0;
#X connect 5 0 2 0;
#X connect 6 0 7 0;
#X connect 7 0 11 0;
#X connect 8 0 3 0;
#X connect 9 0 8 0;
#X connect 11 0 2 0;
#X restore 116 716 pd toTremelo;
#N canvas 710 242 450 300 toTremelo 0;
#X obj 75 -66 inlet~;
#X obj 76 167 *~;
#X obj 101 144 lop~ 1;
#X obj 154 44 random 100;
#X obj 152 67 * 0.01;
#X obj 152 91 *;
#X obj 37 36 r onOff;
#X obj 37 63 sel 0;
#X obj 155 15 t b;
#X obj 76 208 throw~ toTremelo;
#X msg 39 92 0;
#X obj 156 -9 r randomize3;
#X connect 0 0 1 0;
#X connect 1 0 9 0;
#X connect 2 0 1 1;
#X connect 3 0 4 0;
#X connect 4 0 5 1;
#X connect 4 0 5 0;
#X connect 5 0 2 0;
#X connect 6 0 7 0;
#X connect 7 0 10 0;
#X connect 8 0 3 0;
#X connect 10 0 2 0;
#X connect 11 0 8 0;
#X restore 427 680 pd toTremelo;
#N canvas 501 222 450 300 toFuzz 0;
#X obj 75 -66 inlet~;
#X obj 76 197 throw~ toFuzz;
#X obj 76 167 *~;
#X obj 101 144 lop~ 1;
#X obj 154 44 random 100;
#X obj 152 67 * 0.01;
#X obj 152 91 *;
#X obj 37 36 r onOff;
#X obj 37 63 sel 0;
#X msg 36 90 0;
#X obj 154 13 t b;
#X obj 152 -20 r randomize2;
#X connect 0 0 2 0;
#X connect 2 0 1 0;
#X connect 3 0 2 1;
#X connect 4 0 5 0;
#X connect 5 0 6 1;
#X connect 5 0 6 0;
#X connect 6 0 3 0;
#X connect 7 0 8 0;
#X connect 8 0 9 0;
#X connect 9 0 3 0;
#X connect 10 0 4 0;
#X connect 11 0 10 0;
#X restore 48 704 pd toFuzz;
#X obj 465 55 r drumPattern;
#X obj 465 94 t b;
#X obj 465 125 random 8;
#X obj 466 157 s \$0-accent;
#X obj 563 57 loadbang;
#X obj 370 340 r \$0-detectedTempo;
#X obj 381 365 r randomize1;
#X obj 91 464 mm_monoSyncDelay;
#X obj 197 420 r \$0-detectedTempo;
#X obj 176 393 r randomize2;
#X msg 513 357 feedback 0.6;
#X obj 515 328 loadbang;
#X obj 224 513 mm_xfade;
#X obj 162 310 r randomize1;
#X obj 169 333 r randomize3;
#X obj 305 346 *~ 0.5;
#X obj 319 512 f;
#X obj 348 468 r resetVolume;
#X obj 269 379 mm_monoSyncDelay;
#X obj 328 249 bng 15 250 50 0 empty empty empty 17 7 0 10 -262144
-1 -1;
#X obj 326 621 *~ 1;
#X obj 128 540 *~ 1;
#X obj 93 494 *~ 0.5;
#X obj 281 410 *~ 0.5;
#X obj 39 430 *~ 0.5;
#X obj 425 514 *~ 1.1;
#X obj 345 722 scope drumScope;
#X obj 81 214 scope percScope;
#X obj 178 233 scope kickScope;
#X obj 298 218 scope snareScope;
#X obj 92 120 t f f f;
#X obj 326 568 *~ 1.5;
#X obj 185 206 *~ 0.9;
#X obj 176 650 birdPan~;
#X connect 0 0 55 0;
#X connect 0 0 56 0;
#X connect 3 0 16 0;
#X connect 3 0 42 0;
#X connect 3 0 49 0;
#X connect 3 0 53 0;
#X connect 4 0 19 1;
#X connect 4 0 20 1;
#X connect 5 0 17 0;
#X connect 5 0 31 0;
#X connect 5 0 45 0;
#X connect 5 0 51 0;
#X connect 6 0 16 1;
#X connect 7 0 17 1;
#X connect 9 0 36 0;
#X connect 9 0 40 1;
#X connect 10 0 15 0;
#X connect 11 0 16 1;
#X connect 12 0 57 1;
#X connect 13 0 17 1;
#X connect 13 0 16 1;
#X connect 13 0 42 1;
#X connect 14 0 54 0;
#X connect 15 0 36 0;
#X connect 15 0 40 1;
#X connect 16 0 39 0;
#X connect 17 0 48 0;
#X connect 18 0 36 0;
#X connect 19 0 8 0;
#X connect 19 0 22 0;
#X connect 19 0 2 0;
#X connect 19 0 1 0;
#X connect 19 0 50 0;
#X connect 20 0 21 0;
#X connect 20 0 23 0;
#X connect 20 0 57 0;
#X connect 24 0 25 0;
#X connect 25 0 26 0;
#X connect 26 0 27 0;
#X connect 28 0 26 0;
#X connect 29 0 42 1;
#X connect 30 0 42 1;
#X connect 31 0 46 0;
#X connect 32 0 31 1;
#X connect 33 0 31 1;
#X connect 34 0 31 1;
#X connect 34 0 42 1;
#X connect 35 0 34 0;
#X connect 36 2 4 0;
#X connect 37 0 17 1;
#X connect 37 0 16 1;
#X connect 38 0 17 1;
#X connect 38 0 16 1;
#X connect 38 0 31 1;
#X connect 39 0 49 0;
#X connect 40 0 36 0;
#X connect 41 0 40 0;
#X connect 42 0 47 0;
#X connect 43 0 16 1;
#X connect 44 0 19 0;
#X connect 45 0 20 0;
#X connect 46 0 45 0;
#X connect 47 0 49 0;
#X connect 48 0 45 0;
#X connect 49 0 19 0;
#X connect 54 0 5 0;
#X connect 54 1 0 0;
#X connect 54 2 3 0;
#X connect 55 0 44 0;
#X connect 56 0 52 0;
#X connect 57 0 1 0;
#X connect 57 0 50 0;
#X connect 57 1 2 0;
#X connect 57 1 50 0;
#X restore 685 -17 pd drums;
#N canvas 484 163 914 637 out 0;
#X obj 108 430 dac~;
#X obj 210 -133 r~ toDacL;
#X obj -1 -137 r~ toDacR;
#X obj 159 135 hip~ 4;
#X obj 77 135 hip~ 4;
#X obj 158 329 clip~ -1 1;
#X obj 80 329 clip~ -1 1;
#X obj 262 -65 r~ metro;
#X obj 82 220 lop~ 8500;
#X obj 175 221 lop~ 8500;
#X obj 247 -8 hip~ 1;
#X obj 143 396 *~ 0.8;
#X obj 87 392 *~ 0.8;
#X obj 290 19 lop~ 1;
#X obj 303 -15 r clickTrack;
#X obj 242 40 *~;
#X connect 1 0 3 0;
#X connect 2 0 4 0;
#X connect 3 0 9 0;
#X connect 4 0 8 0;
#X connect 5 0 11 0;
#X connect 6 0 12 0;
#X connect 7 0 10 0;
#X connect 8 0 6 0;
#X connect 9 0 5 0;
#X connect 10 0 15 0;
#X connect 11 0 0 1;
#X connect 12 0 0 0;
#X connect 13 0 15 1;
#X connect 14 0 13 0;
#X connect 15 0 3 0;
#X connect 15 0 4 0;
#X restore 749 -21 pd out;
#N canvas 805 219 556 476 taptempo 0;
#X obj 184 -192 r tapTempo;
#X obj 159 95 er_contAvg;
#X obj 182 -39 timer;
#X obj 182 -63 t b b;
#X obj 181 -18 t f f;
#X obj 208 26 t f f;
#X obj 235 53 sel 1;
#X obj 159 74 spigot;
#N canvas 695 279 450 300 inv 0;
#X obj 98 49 inlet;
#X obj 100 88 swap 1;
#X obj 102 115 -;
#X obj 97 145 outlet;
#X connect 0 0 1 0;
#X connect 1 0 2 0;
#X connect 1 1 2 1;
#X connect 2 0 3 0;
#X restore 193 53 pd inv;
#X obj 159 121 swap 60000;
#X obj 178 145 /;
#X obj 183 228 int;
#X obj 317 266 s \$0-detectedTempo;
#X obj 64 -84 bng 15 250 50 0 empty empty empty 17 7 0 10 -262144 -1
-1;
#X obj 181 278 s detectedTempo;
#X msg 318 235 tempo \$1;
#N canvas 695 279 450 300 inv 0;
#X obj 98 49 inlet;
#X obj 100 88 swap 1;
#X obj 102 115 -;
#X obj 97 145 outlet;
#X connect 0 0 1 0;
#X connect 1 0 2 0;
#X connect 1 1 2 1;
#X connect 2 0 3 0;
#X restore 224 -141 pd inv;
#X obj 186 -110 spigot;
#X obj 223 -172 r lockTempo;
#X msg 340 -161 0;
#X obj 358 -190 loadbang;
#X obj 297 -38 print tapTempo;
#X obj 208 3 > 5000;
#X connect 0 0 17 0;
#X connect 1 0 9 0;
#X connect 2 0 4 0;
#X connect 3 0 2 0;
#X connect 3 1 2 1;
#X connect 4 0 7 0;
#X connect 4 1 22 0;
#X connect 5 0 8 0;
#X connect 5 1 6 0;
#X connect 6 0 1 1;
#X connect 7 0 1 0;
#X connect 8 0 7 1;
#X connect 9 0 10 0;
#X connect 9 1 10 1;
#X connect 10 0 11 0;
#X connect 11 0 14 0;
#X connect 11 0 15 0;
#X connect 13 0 3 0;
#X connect 15 0 12 0;
#X connect 16 0 17 1;
#X connect 17 0 3 0;
#X connect 17 0 21 0;
#X connect 18 0 16 0;
#X connect 19 0 16 0;
#X connect 20 0 19 0;
#X connect 22 0 5 0;
#X restore 683 -75 pd taptempo;
#N canvas 80 23 1440 754 fx 0;
#X obj 246 -22 catch~ outputR;
#X obj 330 6 catch~ outputL;
#X obj 432 136 loadbang;
#X obj 565 695 s~ toDacL;
#X obj 209 703 s~ toDacR;
#X obj 337 76 r \$0-detectedTempo;
#X obj 28 35 catch~ toFuzz;
#N canvas 420 196 721 606 fuzz 0;
#X obj 63 -146 inlet~;
#X obj 64 162 expr~ atan($v1);
#X obj 64 131 *~;
#X obj 102 -59 t f f b;
#X obj 99 98 vline~;
#X msg 101 74 \$2 \, \$1 \$3;
#X obj 192 -94 r \$0-detectedTempo;
#X obj 191 -47 swap 60000;
#X obj 210 -21 /;
#X obj 209 3 * 4;
#X obj 102 49 pack f f f;
#X obj 125 -20 f 10;
#X obj 110 -162 random 100;
#X obj 210 115 r \$0-clock;
#X obj 207 166 sel 0;
#X msg 206 190 randomize;
#X obj 114 265 throw~ outputL;
#X obj 66 300 throw~ outputR;
#X obj 192 -69 route tempo;
#X obj 109 -212 r randomize;
#X obj 110 -187 t b;
#X obj 111 -139 * 0.01;
#X obj 110 -114 *;
#X obj 104 -85 * 100;
#X obj 209 143 mod 16;
#X obj 63 195 *~ 0.055;
#X obj 359 270 scope fuzzScope;
#X obj 62 232 birdPan~;
#X connect 0 0 2 0;
#X connect 1 0 25 0;
#X connect 2 0 1 0;
#X connect 3 0 10 0;
#X connect 3 1 11 1;
#X connect 3 2 11 0;
#X connect 4 0 2 1;
#X connect 5 0 4 0;
#X connect 6 0 18 0;
#X connect 7 0 8 0;
#X connect 7 1 8 1;
#X connect 8 0 9 0;
#X connect 9 0 10 2;
#X connect 10 0 5 0;
#X connect 11 0 10 1;
#X connect 12 0 21 0;
#X connect 13 0 24 0;
#X connect 14 0 15 0;
#X connect 15 0 27 1;
#X connect 18 0 7 0;
#X connect 19 0 20 0;
#X connect 20 0 12 0;
#X connect 21 0 22 1;
#X connect 21 0 22 0;
#X connect 22 0 23 0;
#X connect 23 0 3 0;
#X connect 24 0 14 0;
#X connect 25 0 27 0;
#X connect 27 0 17 0;
#X connect 27 0 26 0;
#X connect 27 1 16 0;
#X connect 27 1 26 0;
#X restore 29 72 pd fuzz;
#X obj 479 73 r randomize;
#X obj 491 118 r randomize2;
#X obj 236 198 mm_stereoChorus;
#X obj -9 413 catch~ toTremelo;
#N canvas 154 77 721 606 tremelo 0;
#X obj 47 -549 inlet~;
#X obj 52 -41 *~;
#X obj 127 -469 r \$0-detectedTempo;
#X obj 333 120 r \$0-clock;
#X obj 330 171 sel 0;
#X msg 329 195 randomize;
#X obj 103 411 throw~ outputL;
#X obj 55 441 throw~ outputR;
#X obj 125 -404 route tempo;
#X obj 332 148 mod 16;
#X obj 121 -215 osc~;
#X obj 126 -375 / 60;
#X obj 125 -312 * 1;
#X obj 122 -271 t f b;
#X msg 146 -241 0;
#X obj 159 -341 t b f;
#X floatatom 171 -371 5 0 0 0 - - -;
#X obj 238 -440 r \$0-clock;
#X obj 237 -415 mod 32;
#X obj 237 -391 sel 0;
#X obj 121 -191 +~ 1;
#X obj 120 -167 *~ 0.5;
#X obj 119 -77 pow~ 2;
#X obj 181 -108 sig~;
#X obj 182 -226 r \$0-clock;
#X obj 181 -201 mod 32;
#X obj 181 -177 sel 0;
#X obj 180 -157 random 8;
#X obj 180 -132 + 1;
#X obj 237 -368 random 8;
#X obj 237 -343 + 1;
#X obj 52 -7 *~ 1.2;
#X obj 301 395 scope tremeloScope;
#X obj 51 253 birdPan~;
#X connect 0 0 1 0;
#X connect 1 0 31 0;
#X connect 2 0 8 0;
#X connect 3 0 9 0;
#X connect 4 0 5 0;
#X connect 5 0 33 1;
#X connect 8 0 11 0;
#X connect 9 0 4 0;
#X connect 10 0 20 0;
#X connect 11 0 12 0;
#X connect 12 0 13 0;
#X connect 13 0 10 0;
#X connect 13 1 14 0;
#X connect 14 0 10 1;
#X connect 15 0 12 0;
#X connect 15 1 12 1;
#X connect 16 0 15 0;
#X connect 17 0 18 0;
#X connect 18 0 19 0;
#X connect 19 0 29 0;
#X connect 20 0 21 0;
#X connect 21 0 22 0;
#X connect 22 0 1 1;
#X connect 23 0 22 1;
#X connect 24 0 25 0;
#X connect 25 0 26 0;
#X connect 26 0 27 0;
#X connect 27 0 28 0;
#X connect 28 0 23 0;
#X connect 29 0 30 0;
#X connect 30 0 15 0;
#X connect 31 0 33 0;
#X connect 33 0 7 0;
#X connect 33 0 32 0;
#X connect 33 1 6 0;
#X connect 33 1 32 0;
#X restore 10 469 pd tremelo;
#X obj 224 356 mm_compressor;
#X obj 350 352 mm_compressor;
#X obj 492 97 r randomize1;
#X obj 493 141 r randomize3;
#N canvas 0 22 450 278 (subpatch) 0;
#X array array1 100 float 3;
#A 0 -3.89629e-05 -3.86288e-05 -3.84932e-05 -3.89189e-05 -4.02564e-05
-4.28198e-05 -4.58072e-05 -4.82176e-05 -4.89252e-05 -4.70028e-05 -4.1956e-05
-3.37832e-05 -2.26361e-05 -9.79505e-06 3.54509e-06 1.61527e-05 2.68821e-05
3.57876e-05 4.2069e-05 4.65599e-05 5.05392e-05 5.40161e-05 5.79609e-05
6.26689e-05 6.77576e-05 7.22616e-05 7.54571e-05 7.64447e-05 7.3521e-05
6.6174e-05 5.43658e-05 3.8555e-05 1.95516e-05 -8.39897e-07 -2.11855e-05
-3.97479e-05 -5.47803e-05 -6.55799e-05 -7.1681e-05 -7.2594e-05 -6.88145e-05
-6.18228e-05 -5.23938e-05 -4.07787e-05 -2.87299e-05 -1.6401e-05 -4.51773e-06
7.83099e-06 1.98388e-05 3.18239e-05 4.36443e-05 5.6003e-05 6.76981e-05
7.8561e-05 8.79076e-05 9.48336e-05 9.97215e-05 0.000101043 9.90232e-05
9.33738e-05 8.44852e-05 7.25573e-05 5.82113e-05 4.20663e-05 2.53026e-05
8.59656e-06 -7.52873e-06 -2.2031e-05 -3.44499e-05 -4.5027e-05 -5.39743e-05
-6.06028e-05 -6.62677e-05 -7.10955e-05 -7.55267e-05 -7.98909e-05 -8.40914e-05
-8.81032e-05 -9.12278e-05 -9.33391e-05 -9.37024e-05 -9.13715e-05 -8.61029e-05
-7.70898e-05 -6.38528e-05 -4.70727e-05 -2.69291e-05 -4.32781e-06 1.90879e-05
4.18384e-05 6.21207e-05 7.81785e-05 8.86768e-05 9.26771e-05 8.96407e-05
8.04412e-05 6.59003e-05 4.7522e-05 2.70143e-05 6.23735e-06;
#X coords 0 1 99 -1 200 140 1;
#X restore 986 -18 graph;
#X obj 344 434 hip~ 4;
#X obj 225 432 hip~ 4;
#X obj 227 508 clip~ -1 1;
#X obj 347 515 clip~ -1 1;
#X obj 394 308 *~ 0.6;
#X obj 340 309 *~ 0.4;
#X obj 248 283 *~ 0.6;
#X obj 224 258 *~ 0.4;
#X obj 286 603 env~ 44100;
#X obj 345 476 *~ 1;
#X obj 224 467 *~ 1;
#X obj 361 707 s rms;
#X obj 328 642 clip 0 100;
#X obj 228 559 *~ 1.2;
#X obj 351 553 *~ 1.2;
#X msg 435 181 switch 1 \, threshold 80 \, ratio 10;
#X obj 437 7 catch~ directOut;
#X connect 0 0 10 0;
#X connect 0 0 24 0;
#X connect 0 0 19 0;
#X connect 1 0 10 1;
#X connect 1 0 22 0;
#X connect 1 0 18 0;
#X connect 2 0 33 0;
#X connect 5 0 10 2;
#X connect 6 0 7 0;
#X connect 8 0 10 2;
#X connect 9 0 10 2;
#X connect 10 0 25 0;
#X connect 10 1 23 0;
#X connect 11 0 12 0;
#X connect 13 0 19 0;
#X connect 14 0 18 0;
#X connect 15 0 10 2;
#X connect 16 0 10 2;
#X connect 18 0 27 0;
#X connect 19 0 28 0;
#X connect 20 0 26 0;
#X connect 20 0 31 0;
#X connect 21 0 32 0;
#X connect 22 0 14 0;
#X connect 23 0 14 0;
#X connect 24 0 13 0;
#X connect 25 0 13 0;
#X connect 26 0 30 0;
#X connect 27 0 21 0;
#X connect 28 0 20 0;
#X connect 30 0 29 0;
#X connect 31 0 4 0;
#X connect 32 0 3 0;
#X connect 32 0 26 0;
#X connect 33 0 13 1;
#X connect 33 0 14 1;
#X connect 34 0 14 0;
#X connect 34 0 13 0;
#X restore 688 6 pd fx;
#N canvas 133 23 1429 845 bass 0;
#X obj 446 1279 throw~ outputL;
#X obj 544 1278 throw~ outputR;
#N canvas 710 242 450 300 toFuzz 0;
#X obj 75 -66 inlet~;
#X obj 76 197 throw~ toFuzz;
#X obj 76 167 *~;
#X obj 101 144 lop~ 1;
#X obj 154 44 random 100;
#X obj 152 91 *;
#X obj 99 22 r onOff;
#X obj 99 49 sel 0;
#X msg 98 76 0;
#X obj 155 18 t b;
#X obj 157 -7 r randomize2;
#X obj 152 67 * 0.0075;
#X connect 0 0 2 0;
#X connect 2 0 1 0;
#X connect 3 0 2 1;
#X connect 4 0 11 0;
#X connect 5 0 3 0;
#X connect 6 0 7 0;
#X connect 7 0 8 0;
#X connect 8 0 3 0;
#X connect 9 0 4 0;
#X connect 10 0 9 0;
#X connect 11 0 5 1;
#X connect 11 0 5 0;
#X restore 665 1258 pd toFuzz;
#X obj 504 1176 *~;
#X obj 611 1049 lop~ 1;
#X obj 648 960 r bassVolume;
#X obj 743 960 loadbang;
#X obj 895 133 r randomize3;
#X obj 555 1191 r randomize1;
#X obj 554 1162 r \$0-detectedTempo;
#X obj 650 990 mm_xfade;
#X msg 609 1011 0;
#X obj 634 508 r \$0-detectedTempo;
#X obj 883 225 mm_rlist 7;
#X obj 883 249 list prepend randomlist;
#X obj 882 271 list trim;
#X obj 880 180 bng 15 250 50 0 empty empty empty 17 7 0 10 -262144
-1 -1;
#X obj 880 201 t b b b;
#X obj 873 107 r randomize1;
#X obj 985 79 r \$0-timer;
#X msg 987 176 seed \$1;
#X obj 986 154 mod 140;
#X obj 919 373 list;
#X obj 917 401 list trim;
#X obj 887 298 route randomlist;
#X floatatom 702 1046 5 0 0 0 - - -;
#X floatatom 671 1030 5 0 0 0 - - -;
#X obj 460 1212 mm_stereoChorus;
#X msg 743 984 0.25;
#X obj 523 559 mm_bassosc3~;
#X obj 628 299 r onOff;
#X obj 627 343 sel 0;
#X msg 627 391 0;
#X obj 627 364 del 1000;
#X msg 765 1022 0.25;
#X obj 768 1046 f;
#X obj 797 1002 r resetVolume;
#X obj 509 877 mm_asr~;
#X obj 445 -190 r \$0-clock;
#X obj 527 -259 r notes;
#X obj 522 -215 list prepend read;
#X obj 521 -192 list trim;
#X obj 522 -237 route 0;
#N canvas 11 22 1440 806 wobble 0;
#X obj 130 51 inlet~;
#X obj 126 697 outlet~;
#N canvas 28 234 1440 748 low 0;
#X obj 798 504 outlet~;
#X obj 821 343 clip~ 0 1;
#X obj 1169 -167 inlet;
#X obj 899 -192 inlet;
#X obj 816 -198 inlet;
#X text 793 -220 beat division;
#X text 899 -214 tempo;
#X text 1165 -189 exponent;
#N canvas 70 149 1320 734 div 0;
#X obj 487 39 inlet;
#X obj 488 68 / 60;
#X obj 400 283 *;
#X obj 400 234 f;
#X obj 488 150 t b f;
#X obj 402 339 outlet;
#N canvas 199 22 1220 795 sel 0;
#X obj 385 -22 inlet;
#X msg 674 521;
#X msg 688 550;
#X msg 702 580;
#X msg 387 59 0.03125;
#X msg 403 87 0.0416666;
#X msg 421 113 0.0625;
#X msg 438 140 0.083333;
#X msg 456 165 0.09375;
#X msg 476 191 0.125;
#X msg 491 220 0.16666;
#X msg 505 249 0.1875;
#X msg 519 279 0.25;
#X msg 532 304 0.3333;
#X msg 549 333 0.375;
#X msg 570 360 0.5;
#X msg 586 388 0.66666;
#X msg 604 414 0.75;
#X msg 621 441 1;
#X msg 633 468 2;
#X obj 446 652 * 4;
#X obj 446 676 swap 1;
#X obj 446 698 /;
#X obj 447 725 outlet;
#X obj 387 28 select 0 1 2 3 4 5 6 7 8 9 10 11 12 13 14 15 16 17 18
19 -1;
#X msg 659 492;
#X msg 715 605 0;
#X connect 0 0 24 0;
#X connect 1 0 20 0;
#X connect 2 0 20 0;
#X connect 3 0 20 0;
#X connect 4 0 20 0;
#X connect 5 0 20 0;
#X connect 6 0 20 0;
#X connect 7 0 20 0;
#X connect 8 0 20 0;
#X connect 9 0 20 0;
#X connect 10 0 20 0;
#X connect 11 0 20 0;
#X connect 12 0 20 0;
#X connect 13 0 20 0;
#X connect 14 0 20 0;
#X connect 15 0 20 0;
#X connect 16 0 20 0;
#X connect 17 0 20 0;
#X connect 18 0 20 0;
#X connect 19 0 20 0;
#X connect 20 0 21 0;
#X connect 21 0 22 0;
#X connect 21 1 22 1;
#X connect 22 0 23 0;
#X connect 24 0 4 0;
#X connect 24 1 5 0;
#X connect 24 2 6 0;
#X connect 24 3 7 0;
#X connect 24 4 8 0;
#X connect 24 5 9 0;
#X connect 24 6 10 0;
#X connect 24 7 11 0;
#X connect 24 8 12 0;
#X connect 24 9 13 0;
#X connect 24 10 14 0;
#X connect 24 11 15 0;
#X connect 24 12 16 0;
#X connect 24 13 17 0;
#X connect 24 14 18 0;
#X connect 24 15 19 0;
#X connect 24 16 25 0;
#X connect 24 17 1 0;
#X connect 24 18 2 0;
#X connect 24 19 3 0;
#X connect 24 20 26 0;
#X connect 26 0 20 0;
#X restore 399 199 pd sel;
#X obj 523 185 s tempoHZ;
#X obj 398 36 inlet;
#X connect 0 0 1 0;
#X connect 1 0 4 0;
#X connect 2 0 5 0;
#X connect 3 0 2 0;
#X connect 4 0 3 0;
#X connect 4 1 2 1;
#X connect 4 1 7 0;
#X connect 6 0 3 1;
#X connect 6 0 3 0;
#X connect 8 0 6 0;
#X restore 816 -96 pd div;
#X obj 911 -8 inlet;
#X obj 816 -70 change;
#X text 912 -38 phase;
#X obj 1169 -133 s \$0-exp;
#X obj 994 -192 loadbang;
#X obj 512 -37 table sineTable;
#X obj 820 25 pack f 0.5;
#X obj 818 59 unpack f f;
#X obj 820 85 osc~;
#X obj 818 186 expr~ pow($v1 \, $f2);
#X obj 934 93 r \$0-exp;
#X obj 819 120 +~ 1;
#X obj 819 144 *~ 0.5;
#X obj 819 309 *~;
#X obj 838 261 sig~;
#X obj 838 284 lop~ 1;
#X obj 840 213 * 10;
#N canvas 0 22 770 507 switch 0;
#X obj 195 51 inlet~;
#X obj 353 50 inlet~;
#X obj 462 56 inlet;
#X obj 190 268 *~;
#X obj 346 265 *~;
#X obj 209 224 sig~;
#X obj 363 203 sig~;
#X obj 363 226 lop~ 1;
#X obj 207 247 lop~ 1;
#X obj 271 351 outlet~;
#X obj 211 178 swap 1;
#X obj 212 199 -;
#X connect 0 0 3 0;
#X connect 1 0 4 0;
#X connect 2 0 6 0;
#X connect 2 0 10 0;
#X connect 3 0 9 0;
#X connect 4 0 9 0;
#X connect 5 0 8 0;
#X connect 6 0 7 0;
#X connect 7 0 4 1;
#X connect 8 0 3 1;
#X connect 10 0 11 0;
#X connect 10 1 11 1;
#X connect 11 0 5 0;
#X restore 795 461 pd switch;
#X obj 845 439 != -1;
#X obj 747 335 sig~ 1;
#X obj 930 121 * 10;
#X obj 839 237 + 0.25;
#X obj 931 143 + 0.1;
#X obj 845 414 r \$0-speed;
#X obj 898 -163 * 0.5;
#X msg 994 -162 60;
#X connect 1 0 26 1;
#X connect 2 0 12 0;
#X connect 3 0 33 0;
#X connect 4 0 8 0;
#X connect 8 0 10 0;
#X connect 9 0 15 1;
#X connect 10 0 15 0;
#X connect 13 0 34 0;
#X connect 15 0 16 0;
#X connect 16 0 17 0;
#X connect 16 1 17 1;
#X connect 17 0 20 0;
#X connect 18 0 22 0;
#X connect 19 0 25 0;
#X connect 19 0 29 0;
#X connect 20 0 21 0;
#X connect 21 0 18 0;
#X connect 22 0 1 0;
#X connect 23 0 24 0;
#X connect 24 0 22 1;
#X connect 25 0 30 0;
#X connect 26 0 0 0;
#X connect 27 0 26 2;
#X connect 28 0 26 0;
#X connect 29 0 31 0;
#X connect 30 0 23 0;
#X connect 31 0 18 1;
#X connect 32 0 27 0;
#X connect 33 0 8 1;
#X connect 34 0 8 1;
#X restore 496 324 pd low frequency oscillator;
#N canvas 0 22 820 613 amp 0;
#X obj 294 125 inlet~;
#X obj 287 439 outlet~;
#X obj 290 231 *~;
#X obj 289 292 *~ 1.5;
#X obj 335 179 r~ \$0-theLFO;
#X connect 0 0 2 0;
#X connect 2 0 3 0;
#X connect 3 0 1 0;
#X connect 4 0 2 1;
#X restore 126 253 pd amp mod;
#N canvas 116 29 1097 772 freq 0;
#X obj -53 -32 inlet~;
#X obj 6 539 outlet~;
#X obj 141 121 sig~;
#X obj 115 226 sig~;
#X obj 85 249 +~ 20;
#X obj 92 148 *~ 1750;
#X obj 10 320 vcf~ 10;
#X obj 10 343 *~ 8;
#X obj 141 95 r \$0-maxFreq;
#X obj 122 195 r \$0-minFreq;
#X obj 123 276 r \$0-Q;
#X obj 96 -4 r~ \$0-theLFO;
#X connect 0 0 6 0;
#X connect 4 0 6 1;
#X connect 5 0 4 0;
#X connect 6 0 7 0;
#X connect 7 0 1 0;
#X connect 8 0 2 0;
#X connect 9 0 3 0;
#X connect 10 0 6 2;
#X connect 11 0 5 0;
#X restore 161 217 pd freq mod;
#X obj 124 600 *~;
#X obj 312 355 select 0 1;
#X obj 344 408 t b b;
#X msg 376 440 1;
#X obj 330 535 switch~;
#X msg 338 440 1;
#X obj 284 404 t b b;
#X msg 314 470 0;
#X msg 279 470 0;
#X obj 266 445 del 30;
#X obj 224 329 loadbang;
#X obj 126 668 hip~ 4;
#X obj 493 224 loadbang;
#X msg 492 250 0.5;
#X obj 187 568 vline~;
#X msg 196 537 \$1 20;
#N canvas 680 91 450 300 2xfade 0;
#X obj 40 -47 inlet~;
#X obj 184 -53 inlet~;
#X obj 308 -57 inlet;
#X obj 47 245 outlet~;
#X obj 185 240 outlet~;
#X obj 46 136 *~;
#X obj 187 137 *~;
#X obj 65 86 sig~;
#X obj 65 109 lop~ 1;
#X obj 206 88 sig~;
#X obj 206 111 lop~ 1;
#N canvas 223 149 450 300 xfade 0;
#X obj 276 53 inlet;
#X obj 275 141 + 1;
#X obj 274 162 * 0.5;
#X obj 275 120 cos;
#X obj 219 216 outlet;
#X obj 285 186 swap 1;
#X obj 293 207 -;
#X obj 292 231 outlet;
#X obj 330 35 loadbang;
#X obj 276 96 * 3.14;
#X msg 328 58 0.5;
#X connect 0 0 9 0;
#X connect 1 0 2 0;
#X connect 2 0 4 0;
#X connect 2 0 5 0;
#X connect 3 0 1 0;
#X connect 5 0 6 0;
#X connect 5 1 6 1;
#X connect 6 0 7 0;
#X connect 8 0 10 0;
#X connect 9 0 3 0;
#X connect 10 0 9 0;
#X restore 127 21 pd xfade;
#X connect 0 0 5 0;
#X connect 1 0 6 0;
#X connect 2 0 11 0;
#X connect 5 0 3 0;
#X connect 6 0 4 0;
#X connect 7 0 8 0;
#X connect 8 0 5 1;
#X connect 9 0 10 0;
#X connect 10 0 6 1;
#X connect 11 0 7 0;
#X connect 11 1 9 0;
#X restore 155 433 pd 2xfade;
#X msg 226 353 0.5;
#X obj 126 638 clip~ -1 1;
#X obj 520 383 expr~ 1-$v1;
#N canvas 0 22 770 507 switch 0;
#X obj 195 51 inlet~;
#X obj 353 50 inlet~;
#X obj 462 56 inlet;
#X obj 190 268 *~;
#X obj 346 265 *~;
#X obj 209 224 sig~;
#X obj 363 221 sig~;
#X obj 363 244 lop~ 1;
#X obj 207 247 lop~ 1;
#X obj 271 351 outlet~;
#X obj 211 178 swap 1;
#X obj 212 199 -;
#X connect 0 0 3 0;
#X connect 1 0 4 0;
#X connect 2 0 6 0;
#X connect 2 0 10 0;
#X connect 3 0 9 0;
#X connect 4 0 9 0;
#X connect 5 0 8 0;
#X connect 6 0 7 0;
#X connect 7 0 4 1;
#X connect 8 0 3 1;
#X connect 10 0 11 0;
#X connect 10 1 11 1;
#X connect 11 0 5 0;
#X restore 478 485 pd switch;
#X obj 608 448 loadbang;
#X msg 595 476 0;
#X obj 578 120 r \$0-tempo;
#X obj 526 84 r \$0-speed;
#X obj 619 219 r \$0-phase;
#X obj 661 270 r \$0-depth;
#X obj 541 421 r \$0-invert;
#X obj 312 311 r \$0-switch;
#X obj 272 225 r \$0-mix;
#X obj 478 513 s~ \$0-theLFO;
#X obj 941 183 route speed tempo phase depth invert mix randomize switch
;
#X obj 940 129 inlet;
#X obj 941 209 s \$0-speed;
#X obj 989 241 s \$0-tempo;
#X obj 1019 271 s \$0-phase;
#X obj 1055 303 s \$0-depth;
#X obj 1103 338 s \$0-invert;
#X obj 1137 366 s \$0-mix;
#X obj 1164 397 s \$0-randomize;
#X obj 1198 430 s \$0-switch;
#X obj 1100 -94 r \$0-randomize;
#X obj 1103 -67 t b b b b b b;
#X msg 994 28 speed \$1;
#X obj 1065 -2 random 100;
#X obj 1066 21 * 0.01;
#X msg 1065 43 depth \$1;
#X obj 1135 -2 random 100;
#X obj 1136 21 * 0.01;
#X msg 1135 43 mix \$1;
#X obj 272 277 pack f f;
#X obj 343 166 r \$0-tempo;
#X obj 343 192 swap 60000;
#X obj 342 214 /;
#X obj 340 241 * 4;
#X obj 271 300 line;
#X obj 1212 -4 random 2;
#X msg 1211 30 invert \$1;
#X obj 1284 -4 random 3;
#X msg 1285 42 phase \$1;
#X obj 1284 18 / 2;
#X msg 1196 147 switch 1 \, tempo 120 \, randomize;
#X obj 1193 103 loadbang;
#X obj 994 2 random 17;
#X obj 11 595 *~;
#X obj 49 562 lop~ 1;
#X obj 95 562 lop~ 1;
#X obj 55 462 random 100;
#X obj 52 491 * 0.01;
#X obj 104 496 loadbang;
#X msg 106 517 1;
#X obj 55 426 r \$0-randomize;
#X obj 50 530 mm_xfade;
#X connect 0 0 4 0;
#X connect 0 0 3 0;
#X connect 0 0 69 0;
#X connect 2 0 24 0;
#X connect 2 0 25 0;
#X connect 3 0 21 0;
#X connect 4 0 21 1;
#X connect 5 0 23 0;
#X connect 6 0 11 0;
#X connect 6 1 7 0;
#X connect 7 0 10 0;
#X connect 7 1 8 0;
#X connect 8 0 9 0;
#X connect 10 0 20 0;
#X connect 11 0 14 0;
#X connect 11 1 12 0;
#X connect 12 0 20 0;
#X connect 13 0 9 0;
#X connect 14 0 13 0;
#X connect 15 0 22 0;
#X connect 16 0 1 0;
#X connect 17 0 18 0;
#X connect 18 0 2 0;
#X connect 19 0 5 1;
#X connect 20 0 19 0;
#X connect 21 0 5 0;
#X connect 21 1 5 0;
#X connect 22 0 21 2;
#X connect 23 0 16 0;
#X connect 24 0 25 1;
#X connect 25 0 35 0;
#X connect 26 0 27 0;
#X connect 27 0 25 2;
#X connect 28 0 2 1;
#X connect 29 0 2 0;
#X connect 30 0 2 2;
#X connect 31 0 2 3;
#X connect 32 0 25 2;
#X connect 33 0 6 0;
#X connect 34 0 55 0;
#X connect 36 0 38 0;
#X connect 36 1 39 0;
#X connect 36 2 40 0;
#X connect 36 3 41 0;
#X connect 36 4 42 0;
#X connect 36 5 43 0;
#X connect 36 6 44 0;
#X connect 36 7 45 0;
#X connect 37 0 36 0;
#X connect 46 0 47 0;
#X connect 47 1 68 0;
#X connect 47 2 49 0;
#X connect 47 3 52 0;
#X connect 47 4 61 0;
#X connect 47 5 63 0;
#X connect 48 0 36 0;
#X connect 49 0 50 0;
#X connect 50 0 51 0;
#X connect 51 0 36 0;
#X connect 52 0 53 0;
#X connect 53 0 54 0;
#X connect 54 0 36 0;
#X connect 55 0 60 0;
#X connect 56 0 57 0;
#X connect 57 0 58 0;
#X connect 57 1 58 1;
#X connect 58 0 59 0;
#X connect 59 0 55 1;
#X connect 60 0 21 2;
#X connect 61 0 62 0;
#X connect 62 0 36 0;
#X connect 63 0 65 0;
#X connect 64 0 36 0;
#X connect 65 0 64 0;
#X connect 66 0 36 0;
#X connect 67 0 66 0;
#X connect 68 0 48 0;
#X connect 69 0 23 0;
#X connect 70 0 69 1;
#X connect 71 0 5 1;
#X connect 72 0 73 0;
#X connect 73 0 77 0;
#X connect 74 0 75 0;
#X connect 75 0 77 0;
#X connect 76 0 72 0;
#X connect 77 0 70 0;
#X connect 77 1 71 0;
#X restore 510 728 pd wobble;
#X obj 561 664 r \$0-detectedTempo;
#X obj 691 602 r \$0-clock;
#X msg 690 696 randomize;
#X obj 690 672 wrandom;
#X obj 744 626 loadbang;
#X msg 743 654 50 5 15 2;
#X obj 293 1267 scope bassScope;
#X obj 511 912 hip~ 75;
#X obj 508 952 lop~ 8000;
#X obj 212 248 inlet;
#X obj 210 288 route 0;
#X obj 526 485 t b f;
#X obj 564 -16 s dumps;
#X obj 446 -97 mm_pattern_writer 0;
#X msg 553 834 a 5 \, s 200 \, r 50 \, v 0;
#X obj 571 -135 r dump;
#X obj 453 -29 s \$0-note0;
#X connect 3 0 2 0;
#X connect 3 0 27 0;
#X connect 3 0 27 1;
#X connect 3 0 50 0;
#X connect 4 0 3 1;
#X connect 5 0 10 0;
#X connect 5 0 35 1;
#X connect 6 0 28 0;
#X connect 6 0 34 0;
#X connect 7 0 16 0;
#X connect 8 0 27 2;
#X connect 9 0 27 2;
#X connect 10 0 26 0;
#X connect 10 2 25 0;
#X connect 10 2 4 0;
#X connect 11 0 4 0;
#X connect 12 0 29 1;
#X connect 13 0 14 0;
#X connect 14 0 15 0;
#X connect 15 0 24 0;
#X connect 15 0 29 1;
#X connect 16 0 17 0;
#X connect 17 0 13 0;
#X connect 17 1 22 0;
#X connect 18 0 16 0;
#X connect 19 0 21 0;
#X connect 20 0 13 1;
#X connect 21 0 20 0;
#X connect 22 0 23 0;
#X connect 24 0 22 1;
#X connect 27 0 0 0;
#X connect 27 1 1 0;
#X connect 28 0 10 0;
#X connect 29 0 43 0;
#X connect 30 0 31 0;
#X connect 31 0 33 0;
#X connect 32 0 55 0;
#X connect 33 0 32 0;
#X connect 34 0 35 1;
#X connect 35 0 10 0;
#X connect 36 0 35 0;
#X connect 37 0 51 0;
#X connect 38 0 57 0;
#X connect 39 0 42 0;
#X connect 40 0 41 0;
#X connect 41 0 57 1;
#X connect 42 0 40 0;
#X connect 43 0 37 0;
#X connect 44 0 43 1;
#X connect 45 0 47 0;
#X connect 46 0 43 1;
#X connect 47 0 46 0;
#X connect 48 0 49 0;
#X connect 48 0 46 0;
#X connect 49 0 47 1;
#X connect 51 0 52 0;
#X connect 52 0 3 0;
#X connect 53 0 54 0;
#X connect 54 0 55 0;
#X connect 55 0 37 1;
#X connect 55 0 58 0;
#X connect 55 1 29 0;
#X connect 57 1 55 0;
#X connect 57 1 60 0;
#X connect 57 2 56 0;
#X connect 58 0 37 2;
#X connect 59 0 57 1;
#X restore 744 -45 pd bass;
#N canvas 316 181 1440 754 synth 0;
#X obj 457 1498 throw~ outputL;
#X obj 621 1498 throw~ outputR;
#N canvas 710 242 450 300 toFuzz 0;
#X obj 75 -66 inlet~;
#X obj 76 197 throw~ toFuzz;
#X obj 76 167 *~;
#X obj 101 144 lop~ 1;
#X obj 154 44 random 100;
#X obj 152 67 * 0.01;
#X obj 152 91 *;
#X obj 37 36 r onOff;
#X obj 37 63 sel 0;
#X msg 36 90 0;
#X obj 155 15 t b;
#X obj 156 -9 r randomize2;
#X connect 0 0 2 0;
#X connect 2 0 1 0;
#X connect 3 0 2 1;
#X connect 4 0 5 0;
#X connect 5 0 6 1;
#X connect 5 0 6 0;
#X connect 6 0 3 0;
#X connect 7 0 8 0;
#X connect 8 0 9 0;
#X connect 9 0 3 0;
#X connect 10 0 4 0;
#X connect 11 0 10 0;
#X restore 863 994 pd toFuzz;
#X obj 470 1153 r \$0-detectedTempo;
#X obj 587 1409 r \$0-detectedTempo;
#X obj 511 1335 r randomize;
#X obj 495 976 r \$0-clock;
#X obj 495 1024 sel 0;
#X msg 495 1046 randomize;
#X obj 479 1186 r randomize3;
#X obj 711 1170 r \$0-detectedTempo;
#X obj 626 1227 mm_randFilter~;
#X obj 769 1322 r \$0-detectedTempo;
#X obj 577 979 r \$0-clock;
#X obj 571 1027 sel 0;
#X msg 572 1051 randomize;
#X obj 663 977 r \$0-clock;
#X obj 663 1025 sel 0;
#X msg 663 1047 randomize;
#X obj 711 240 r randomize;
#X obj 728 266 r randomize1;
#X obj 905 1337 r \$0-clock;
#X obj 904 1359 sel 0;
#X msg 714 1420 randomize;
#X obj 494 1003 mod 32;
#X obj 577 1002 mod 32;
#X obj 662 1004 mod 32;
#X obj 385 1210 mm_randFilter~;
#N canvas 710 242 450 300 toTremelo 0;
#X obj 75 -66 inlet~;
#X obj 76 167 *~;
#X obj 101 144 lop~ 1;
#X obj 154 44 random 100;
#X obj 152 67 * 0.01;
#X obj 152 91 *;
#X obj 155 15 t b;
#X obj 76 197 throw~ toTremelo;
#X obj 156 -9 r randomize3;
#X connect 0 0 1 0;
#X connect 1 0 7 0;
#X connect 2 0 1 1;
#X connect 3 0 4 0;
#X connect 4 0 5 1;
#X connect 4 0 5 0;
#X connect 5 0 2 0;
#X connect 6 0 3 0;
#X connect 8 0 6 0;
#X restore 660 960 pd toTremelo;
#N canvas 710 242 450 300 toTremelo 0;
#X obj 75 -66 inlet~;
#X obj 76 167 *~;
#X obj 101 144 lop~ 1;
#X obj 154 44 random 100;
#X obj 152 67 * 0.01;
#X obj 152 91 *;
#X obj 155 15 t b;
#X obj 76 197 throw~ toTremelo;
#X obj 156 -9 r randomize;
#X connect 0 0 1 0;
#X connect 1 0 7 0;
#X connect 2 0 1 1;
#X connect 3 0 4 0;
#X connect 4 0 5 1;
#X connect 4 0 5 0;
#X connect 5 0 2 0;
#X connect 6 0 3 0;
#X connect 8 0 6 0;
#X restore 568 958 pd toTremelo;
#N canvas 710 242 450 300 toTremelo 0;
#X obj 75 -66 inlet~;
#X obj 76 167 *~;
#X obj 101 144 lop~ 1;
#X obj 154 44 random 100;
#X obj 152 67 * 0.01;
#X obj 152 91 *;
#X obj 155 15 t b;
#X obj 76 197 throw~ toTremelo;
#X obj 156 -9 r randomize3;
#X connect 0 0 1 0;
#X connect 1 0 7 0;
#X connect 2 0 1 1;
#X connect 3 0 4 0;
#X connect 4 0 5 1;
#X connect 4 0 5 0;
#X connect 5 0 2 0;
#X connect 6 0 3 0;
#X connect 8 0 6 0;
#X restore 486 956 pd toTremelo;
#N canvas 710 242 450 300 toFuzz 0;
#X obj 75 -66 inlet~;
#X obj 76 197 throw~ toFuzz;
#X obj 76 167 *~;
#X obj 101 144 lop~ 1;
#X obj 154 44 random 100;
#X obj 152 67 * 0.01;
#X obj 152 91 *;
#X obj 37 36 r onOff;
#X obj 37 63 sel 0;
#X msg 36 90 0;
#X obj 155 15 t b;
#X obj 156 -9 r randomize;
#X connect 0 0 2 0;
#X connect 2 0 1 0;
#X connect 3 0 2 1;
#X connect 4 0 5 0;
#X connect 5 0 6 1;
#X connect 5 0 6 0;
#X connect 6 0 3 0;
#X connect 7 0 8 0;
#X connect 8 0 9 0;
#X connect 9 0 3 0;
#X connect 10 0 4 0;
#X connect 11 0 10 0;
#X restore 591 1125 pd toFuzz;
#N canvas 710 242 450 300 toFuzz 0;
#X obj 75 -66 inlet~;
#X obj 76 197 throw~ toFuzz;
#X obj 76 167 *~;
#X obj 101 144 lop~ 1;
#X obj 154 44 random 100;
#X obj 152 67 * 0.01;
#X obj 152 91 *;
#X obj 37 36 r onOff;
#X obj 37 63 sel 0;
#X msg 36 90 0;
#X obj 155 15 t b;
#X obj 156 -9 r randomize1;
#X connect 0 0 2 0;
#X connect 2 0 1 0;
#X connect 3 0 2 1;
#X connect 4 0 5 0;
#X connect 5 0 6 1;
#X connect 5 0 6 0;
#X connect 6 0 3 0;
#X connect 7 0 8 0;
#X connect 8 0 9 0;
#X connect 9 0 3 0;
#X connect 10 0 4 0;
#X connect 11 0 10 0;
#X restore 436 1027 pd toFuzz;
#X obj 509 743 *~;
#X obj 575 742 *~;
#X obj 667 655 lop~ 1;
#X obj 667 589 r synthVolume;
#X obj 758 584 loadbang;
#X msg 760 607 0.25;
#X obj 386 730 *~;
#X obj 658 529 r \$0-detectedTempo;
#X obj 732 1302 r randomize1;
#X obj 720 1203 r randomize2;
#X obj 710 349 mm_rlist 7;
#X obj 710 373 list prepend randomlist;
#X obj 710 397 list trim;
#X obj 719 422 list;
#X obj 750 472 list;
#X obj 707 304 bng 15 250 50 0 empty empty empty 17 7 0 10 -262144
-1 -1;
#X obj 707 325 t b b b;
#X obj 722 446 list trim;
#X obj 749 496 list trim;
#X obj 32 253 r \$0-detectedTempo;
#X obj 27 333 route tempo;
#X obj 27 358 swap 60000;
#X obj 28 379 /;
#X obj 27 402 * 2;
#X obj 28 428 s halfMS;
#X obj 499 1299 r \$0-detectedTempo;
#X obj 834 215 r \$0-timer;
#X msg 836 312 seed \$1;
#X obj 835 290 mod 125;
#X obj 455 728 *~;
#X obj 539 747 *~;
#X obj 623 749 *~;
#X obj 667 629 mm_xfade;
#X obj 496 1450 mm_stereoChorus;
#X obj 422 1310 *~ 1;
#X obj 649 1302 *~ 1;
#X obj 418 664 *~ 0.85;
#X obj 472 665 *~ 0.85;
#X obj 525 658 *~ 0.85;
#X obj 551 678 *~ 0.85;
#X obj 593 662 *~ 0.85;
#X obj 635 671 *~ 0.85;
#X msg 739 652 0.25;
#X obj 742 676 f;
#X obj 771 632 r resetVolume;
#X obj 625 1362 mm_monoSyncDelay;
#X obj 382 1364 mm_monoSyncDelay;
#X obj 461 611 mm_osc3~;
#X obj 440 -406 r \$0-clock;
#X obj 544 -456 r notes;
#X obj 544 -406 list prepend read;
#X obj 543 -383 list trim;
#X obj 544 -428 route 1 2 3;
#X obj 582 -325 list prepend read;
#X obj 581 -302 list trim;
#X obj 635 -238 list prepend read;
#X obj 634 -215 list trim;
#X obj 440 -372 t f f f;
#X obj 621 840 mm_asr~;
#X obj 388 844 mm_asr~;
#X obj 518 847 mm_asr~;
#X obj 118 426 s quarterMS;
#X obj 107 292 print detectedTEmpo;
#X obj 616 1073 birdPan~;
#X obj 386 1088 birdPan~;
#X obj 528 1075 birdPan~;
#X obj 592 613 mm_osc3~;
#X obj 525 610 mm_osc3~;
#X obj 478 288 inlet;
#X obj 477 393 route 1 2 3;
#X msg 701 798 a 30 \, s 200 \, r 100 \, v 0.1;
#X obj 461 559 t f b;
#X obj 516 557 t f b;
#X obj 589 559 t f b;
#X msg 601 761 a 30 \, s 200 \, r 100 \, v 0.1;
#X msg 432 806 a 30 \, s 200 \, r 100 \, v 0.1;
#X obj 372 605 r synthVolume1;
#X obj 354 558 r synthVolume2;
#X obj 331 514 r synthVolume3;
#X obj 347 644 sig~;
#X obj 330 593 sig~;
#X obj 321 551 sig~;
#X obj 650 -86 s dumps;
#X obj 441 -328 mm_pattern_writer 1;
#X obj 674 -373 r dump;
#X obj 704 -333 print;
#X obj 510 -237 mm_pattern_writer 2;
#X obj 560 -150 mm_pattern_writer 3;
#X obj 508 -289 s \$0-note1;
#X obj 576 -96 s \$0-note2;
#X obj 662 -16 s \$0-note3;
#X obj 172 480 r synthVol;
#X obj 168 504 sel 0 1;
#X msg 206 532 0;
#X msg 166 530 0.25;
#X floatatom 259 527 5 0 0 0 - - -;
#X connect 3 0 27 1;
#X connect 4 0 66 2;
#X connect 5 0 27 1;
#X connect 5 0 66 2;
#X connect 5 0 79 1;
#X connect 6 0 24 0;
#X connect 7 0 8 0;
#X connect 8 0 97 1;
#X connect 9 0 27 1;
#X connect 9 0 66 2;
#X connect 9 0 79 1;
#X connect 10 0 11 1;
#X connect 11 0 78 0;
#X connect 12 0 78 1;
#X connect 13 0 25 0;
#X connect 14 0 15 0;
#X connect 15 0 98 1;
#X connect 16 0 26 0;
#X connect 17 0 18 0;
#X connect 18 0 96 1;
#X connect 19 0 48 0;
#X connect 20 0 48 0;
#X connect 21 0 22 0;
#X connect 22 0 23 0;
#X connect 23 0 66 2;
#X connect 24 0 7 0;
#X connect 25 0 14 0;
#X connect 26 0 17 0;
#X connect 27 0 79 0;
#X connect 33 0 93 0;
#X connect 34 0 91 0;
#X connect 35 0 34 1;
#X connect 35 0 33 1;
#X connect 35 0 39 1;
#X connect 35 0 62 1;
#X connect 35 0 63 1;
#X connect 35 0 64 1;
#X connect 36 0 65 0;
#X connect 36 0 76 1;
#X connect 37 0 38 0;
#X connect 38 0 65 0;
#X connect 38 0 75 0;
#X connect 39 0 92 0;
#X connect 40 0 80 1;
#X connect 40 0 99 1;
#X connect 40 0 100 1;
#X connect 41 0 11 1;
#X connect 41 0 66 2;
#X connect 41 0 78 1;
#X connect 42 0 11 1;
#X connect 42 0 66 2;
#X connect 42 0 78 1;
#X connect 43 0 44 0;
#X connect 44 0 45 0;
#X connect 45 0 46 1;
#X connect 45 0 80 1;
#X connect 46 0 47 1;
#X connect 46 0 50 0;
#X connect 47 0 51 0;
#X connect 48 0 49 0;
#X connect 49 0 43 0;
#X connect 49 1 46 0;
#X connect 49 2 47 0;
#X connect 50 0 100 1;
#X connect 51 0 99 1;
#X connect 52 0 53 0;
#X connect 52 0 95 0;
#X connect 53 0 54 0;
#X connect 54 0 55 0;
#X connect 54 1 55 1;
#X connect 55 0 56 0;
#X connect 55 0 94 0;
#X connect 56 0 57 0;
#X connect 58 0 79 1;
#X connect 59 0 61 0;
#X connect 60 0 43 1;
#X connect 61 0 60 0;
#X connect 62 0 30 0;
#X connect 62 0 32 0;
#X connect 62 0 97 0;
#X connect 63 0 29 0;
#X connect 63 0 31 0;
#X connect 63 0 98 0;
#X connect 64 0 2 0;
#X connect 64 0 28 0;
#X connect 64 0 96 0;
#X connect 65 2 35 0;
#X connect 66 0 0 0;
#X connect 66 1 1 0;
#X connect 67 0 66 0;
#X connect 68 0 66 1;
#X connect 69 0 39 0;
#X connect 70 0 62 0;
#X connect 71 0 33 0;
#X connect 72 0 63 0;
#X connect 73 0 34 0;
#X connect 74 0 64 0;
#X connect 75 0 76 1;
#X connect 76 0 65 0;
#X connect 77 0 76 0;
#X connect 78 0 66 1;
#X connect 79 0 66 0;
#X connect 80 0 69 0;
#X connect 80 1 70 0;
#X connect 81 0 90 0;
#X connect 82 0 85 0;
#X connect 83 0 84 0;
#X connect 84 0 116 1;
#X connect 85 0 83 0;
#X connect 85 1 86 0;
#X connect 85 2 88 0;
#X connect 86 0 87 0;
#X connect 87 0 119 1;
#X connect 88 0 89 0;
#X connect 89 0 120 1;
#X connect 90 0 116 0;
#X connect 90 1 119 0;
#X connect 90 2 120 0;
#X connect 91 0 28 0;
#X connect 91 0 2 0;
#X connect 91 0 96 0;
#X connect 92 0 32 0;
#X connect 92 0 30 0;
#X connect 92 0 97 0;
#X connect 93 0 29 0;
#X connect 93 0 31 0;
#X connect 93 0 98 0;
#X connect 96 0 27 0;
#X connect 96 0 67 0;
#X connect 96 1 11 0;
#X connect 96 1 68 0;
#X connect 97 0 27 0;
#X connect 97 0 67 0;
#X connect 97 1 11 0;
#X connect 97 1 68 0;
#X connect 98 0 27 0;
#X connect 98 0 67 0;
#X connect 98 1 11 0;
#X connect 98 1 68 0;
#X connect 99 0 73 0;
#X connect 99 1 74 0;
#X connect 100 0 71 0;
#X connect 100 1 72 0;
#X connect 101 0 102 0;
#X connect 102 0 104 0;
#X connect 102 1 105 0;
#X connect 102 2 106 0;
#X connect 103 0 91 2;
#X connect 104 0 80 0;
#X connect 104 1 92 1;
#X connect 104 1 108 0;
#X connect 105 0 100 0;
#X connect 105 1 107 0;
#X connect 105 1 93 1;
#X connect 106 0 99 0;
#X connect 106 1 91 1;
#X connect 106 1 103 0;
#X connect 107 0 93 2;
#X connect 108 0 92 2;
#X connect 109 0 112 0;
#X connect 110 0 113 0;
#X connect 111 0 114 0;
#X connect 112 0 39 1;
#X connect 112 0 62 1;
#X connect 113 0 33 1;
#X connect 113 0 63 1;
#X connect 114 0 64 1;
#X connect 114 0 34 1;
#X connect 116 1 104 0;
#X connect 116 1 121 0;
#X connect 116 2 115 0;
#X connect 117 0 116 1;
#X connect 117 0 119 1;
#X connect 117 0 120 1;
#X connect 119 1 105 0;
#X connect 119 1 122 0;
#X connect 119 2 115 0;
#X connect 120 1 106 0;
#X connect 120 1 123 0;
#X connect 120 2 115 0;
#X connect 124 0 125 0;
#X connect 124 0 128 0;
#X connect 125 0 127 0;
#X connect 125 1 126 0;
#X connect 126 0 114 0;
#X connect 126 0 113 0;
#X connect 126 0 112 0;
#X connect 127 0 114 0;
#X connect 127 0 113 0;
#X connect 127 0 112 0;
#X restore 805 -45 pd synth;
#X obj 755 9 noise~;
#X obj 755 37 s~ theNoise;
#X obj 960 -158 switch~;
#X msg 959 -185 1;
#X obj 957 -213 loadbang;
#X obj 956 6 list split 1;
#X obj 967 62 send;
#X obj 956 -26 list-rev;
#X obj 963 35 list trim;
#X obj 953 -130 loadbang;
#N canvas 319 23 1054 823 midi 0;
#X obj 231 -1185 notein 1;
#X obj 316 -602 moses 1;
#X floatatom 325 -494 5 0 0 0 - - -;
#X obj 394 -591 r armTrack;
#X obj 349 -566 pack f f;
#X obj 353 -531 list-rev;
#X obj 373 -409 outlet;
#X obj 49 -1050 table recordTable;
#X obj 431 -985 r \$0-clock;
#X obj 276 -634 tabwrite recordTable;
#X obj -12 -932 list-tabdump recordTable;
#X obj 74 -791 print table;
#X obj -12 -978 f;
#X obj -25 -1013 bng 15 250 50 0 empty empty empty 17 7 0 10 -262144
-1 -1;
#X obj -10 -861 list prepend;
#X obj 61 -898 r armTrack;
#X obj -3 -815 s notes;
#X obj -22 -1095 r dumpTab;
#X obj 14 -745 r clearTab;
#X obj 14 -360 until;
#X obj 14 -393 f;
#X msg 19 -686 \; recordTable const 0;
#X floatatom 232 -778 5 0 0 0 - - -;
#X msg 14 -331 add2 0;
#X msg 13 -309 6 0 0 0 0 0 0 0 0 0 0 0 0 0 0 0 0 0 0 0 0 0 0 0 0 0
0 0 0 0 0 0 0 0 0 0 0 0 0 0 0 0 0 0 0 0 0 0 0 0 0 0 0 0 0 0 0 0 0 0
0 0 0 0 0;
#X obj 13 -422 bng 15 250 50 0 empty empty empty 17 7 0 10 -262144
-1 -1;
#X floatatom 68 -390 5 0 0 0 - - -;
#X obj -4 -567 until;
#X obj -3 -531 f;
#X obj 30 -532 + 1;
#X msg 48 -449 set \$1;
#X obj 13 -226 s notes;
#X obj -6 -644 r clearAll;
#X obj 147 -606 r clearCurrent;
#X obj 135 -228 print clear;
#X obj 164 -580 r armTrack;
#X obj 145 -554 f;
#X msg -6 -448 0;
#X obj -4 -477 t b b b f f;
#X obj 70 -361 pack f f;
#X obj 368 -485 t b a;
#X msg 461 -540 \; recordTable print;
#X floatatom 131 -1008 5 0 0 0 - - -;
#X msg 45 -970 \; recordTable resize \$1;
#X obj 173 -928 moses 1;
#X obj 460 -924 timer;
#X obj 477 -827 del;
#X msg 456 -799 1;
#X obj 498 -857 * 0.9;
#X obj 437 -954 t b b b f;
#X obj 293 -742 t f b f;
#X obj 355 -798 f;
#X obj 438 -891 t b b;
#X msg 435 -866 0;
#X obj 355 -771 +;
#X floatatom 386 -734 5 0 0 0 - - -;
#X obj 282 -1077 > 0;
#X obj 240 -1053 * 1;
#X obj 386 -691 mod;
#N canvas 602 112 776 660 length 0;
#X obj 364 255 r measures;
#X obj 401 278 r beats;
#X obj 376 374 pack f f f;
#X obj 378 402 list-drip;
#X obj 380 462 t f f;
#X obj 363 520 f;
#X obj 434 425 t b b;
#X floatatom 365 543 5 0 0 0 - - -;
#X obj 379 434 *;
#X obj 450 469 del 1;
#X floatatom 398 516 5 0 0 0 - - -;
#X floatatom 513 395 5 0 0 0 - - -;
#X msg 451 492 1;
#X obj 447 301 r divisions;
#X obj 373 589 outlet;
#X obj 444 330 t b f;
#X obj 400 327 t b f;
#X connect 0 0 2 0;
#X connect 1 0 16 0;
#X connect 2 0 3 0;
#X connect 3 0 8 0;
#X connect 3 0 11 0;
#X connect 3 1 6 0;
#X connect 4 0 5 1;
#X connect 4 0 10 0;
#X connect 4 1 8 1;
#X connect 5 0 7 0;
#X connect 5 0 14 0;
#X connect 6 0 9 0;
#X connect 6 1 5 0;
#X connect 8 0 4 0;
#X connect 9 0 12 0;
#X connect 12 0 8 1;
#X connect 13 0 15 0;
#X connect 15 0 2 0;
#X connect 15 1 2 2;
#X connect 16 0 2 0;
#X connect 16 1 2 1;
#X restore 434 -734 pd length;
#N canvas 602 112 776 660 length 0;
#X obj 364 255 r measures;
#X obj 401 278 r beats;
#X obj 376 374 pack f f f;
#X obj 378 402 list-drip;
#X obj 380 462 t f f;
#X obj 363 520 f;
#X obj 434 425 t b b;
#X floatatom 365 543 5 0 0 0 - - -;
#X obj 379 434 *;
#X obj 450 469 del 1;
#X floatatom 398 516 5 0 0 0 - - -;
#X floatatom 513 395 5 0 0 0 - - -;
#X msg 451 492 1;
#X obj 447 301 r divisions;
#X obj 373 589 outlet;
#X obj 444 330 t b f;
#X obj 400 327 t b f;
#X connect 0 0 2 0;
#X connect 1 0 16 0;
#X connect 2 0 3 0;
#X connect 3 0 8 0;
#X connect 3 0 11 0;
#X connect 3 1 6 0;
#X connect 4 0 5 1;
#X connect 4 0 10 0;
#X connect 4 1 8 1;
#X connect 5 0 7 0;
#X connect 5 0 14 0;
#X connect 6 0 9 0;
#X connect 6 1 5 0;
#X connect 8 0 4 0;
#X connect 9 0 12 0;
#X connect 12 0 8 1;
#X connect 13 0 15 0;
#X connect 15 0 2 0;
#X connect 15 1 2 2;
#X connect 16 0 2 0;
#X connect 16 1 2 1;
#X restore 36 -1016 pd length;
#N canvas 602 112 776 660 length 0;
#X obj 364 255 r measures;
#X obj 401 278 r beats;
#X obj 376 374 pack f f f;
#X obj 378 402 list-drip;
#X obj 380 462 t f f;
#X obj 363 520 f;
#X obj 434 425 t b b;
#X floatatom 365 543 5 0 0 0 - - -;
#X obj 379 434 *;
#X obj 450 469 del 1;
#X floatatom 398 516 5 0 0 0 - - -;
#X floatatom 513 395 5 0 0 0 - - -;
#X msg 451 492 1;
#X obj 447 301 r divisions;
#X obj 373 589 outlet;
#X obj 444 330 t b f;
#X obj 400 327 t b f;
#X connect 0 0 2 0;
#X connect 1 0 16 0;
#X connect 2 0 3 0;
#X connect 3 0 8 0;
#X connect 3 0 11 0;
#X connect 3 1 6 0;
#X connect 4 0 5 1;
#X connect 4 0 10 0;
#X connect 4 1 8 1;
#X connect 5 0 7 0;
#X connect 5 0 14 0;
#X connect 6 0 9 0;
#X connect 6 1 5 0;
#X connect 8 0 4 0;
#X connect 9 0 12 0;
#X connect 12 0 8 1;
#X connect 13 0 15 0;
#X connect 15 0 2 0;
#X connect 15 1 2 2;
#X connect 16 0 2 0;
#X connect 16 1 2 1;
#X restore 62 -423 pd length;
#X obj 341 -1013 r armTrack;
#X obj 244 -961 spigot;
#X obj 342 -959 swap 1;
#X obj 347 -936 -;
#X obj 314 -913 spigot;
#X obj 243 -1010 t f f;
#X obj 312 -886 moses 1;
#X obj 355 -858 t b;
#X obj 306 -861 t b;
#X msg 356 -832 98;
#X obj -3 -506 mod 7;
#X msg -6 -596 7;
#X obj 340 -984 < 4;
#X floatatom 383 -886 5 0 0 0 - - -;
#X obj -11 -714 t b b b;
#X msg -8 -681 0;
#X obj 545 -1041 unpack symbol float;
#X obj 543 -1074 hid/keyboard 0;
#X obj 544 -1150 r useKeyboard;
#X obj 544 -1118 t b f;
#X obj 653 -971 s keyboardNotes;
#X obj 320 -1170 r keyboardNotes;
#X obj 321 -1146 t f f;
#X obj 653 -1012 moses 1;
#X floatatom 687 -1035 5 0 0 0 - - -;
#X msg 621 -1117 1;
#X floatatom 712 -1046 5 0 0 0 - - -;
#X msg 591 -1096 open 0;
#X floatatom 262 -1141 5 0 0 0 - - -;
#X obj 233 -704 r setNote;
#X obj 233 -673 unpack f f;
#X msg 309 -831 5;
#X obj 743 -633 mtof;
#X floatatom 821 -612 5 0 0 0 - - -;
#X obj 741 -450 throw~ directOut;
#N canvas 621 248 450 300 square 0;
#X obj 28 205 *~;
#X obj 29 249 outlet~;
#X obj 119 -44 inlet;
#X obj 121 34 select 0 1;
#X obj 207 141 switch~;
#X obj 180 70 t b b;
#X msg 205 109 1;
#X msg 171 109 1;
#X obj 46 184 lop~ 1;
#X obj 113 70 t b b;
#X msg 138 109 0;
#X obj 104 90 del 30;
#X msg 104 109 0;
#X obj -110 94 expr~ if($v1<0.5 \, -1 \, 1);
#X obj -112 -4 inlet;
#X obj -110 47 phasor~;
#X connect 0 0 1 0;
#X connect 2 0 3 0;
#X connect 3 0 9 0;
#X connect 3 1 5 0;
#X connect 5 0 7 0;
#X connect 5 1 6 0;
#X connect 6 0 4 0;
#X connect 7 0 8 0;
#X connect 8 0 0 1;
#X connect 9 0 11 0;
#X connect 9 1 10 0;
#X connect 10 0 8 0;
#X connect 11 0 12 0;
#X connect 12 0 4 0;
#X connect 13 0 0 0;
#X connect 14 0 15 0;
#X connect 15 0 13 0;
#X restore 753 -562 pd square;
#X msg 827 -663 1;
#X obj 901 -703 loadbang;
#X obj 753 -521 *~ 0.5;
#X obj 754 -492 mm_asr~;
#X obj 754 -595 t b f;
#X obj 193 -857 r enableRecording;
#X obj 174 -822 spigot;
#X obj 309 -799 spigot;
#X obj 755 -699 spigot;
#X obj 798 -714 r enableMonitor;
#X msg 798 -530 a 10 \, s 150 \, r 30 \, v 0;
#X floatatom 461 -670 5 0 0 0 - - -;
#X obj 775 -836 f;
#X obj 792 -866 r armTrack;
#X obj 781 -811 spigot;
#X obj 806 -840 r enableMonitor;
#X obj 845 -750 s drumMonitor;
#X connect 0 0 57 0;
#X connect 0 0 90 0;
#X connect 0 1 56 0;
#X connect 1 1 4 0;
#X connect 3 0 4 1;
#X connect 4 0 5 0;
#X connect 5 0 40 0;
#X connect 8 0 49 0;
#X connect 10 0 14 0;
#X connect 10 0 11 0;
#X connect 12 0 10 0;
#X connect 13 0 12 0;
#X connect 14 0 16 0;
#X connect 15 0 14 1;
#X connect 17 0 13 0;
#X connect 18 0 76 0;
#X connect 19 0 23 0;
#X connect 20 0 19 0;
#X connect 23 0 24 0;
#X connect 24 0 31 0;
#X connect 24 0 34 0;
#X connect 25 0 20 0;
#X connect 27 0 28 0;
#X connect 28 0 29 0;
#X connect 28 0 72 0;
#X connect 29 0 28 1;
#X connect 30 0 24 0;
#X connect 32 0 73 0;
#X connect 33 0 36 0;
#X connect 35 0 36 1;
#X connect 36 0 38 0;
#X connect 37 0 39 0;
#X connect 38 0 37 0;
#X connect 38 1 24 0;
#X connect 38 2 25 0;
#X connect 38 3 30 0;
#X connect 38 4 39 1;
#X connect 39 0 5 0;
#X connect 40 1 6 0;
#X connect 44 1 106 0;
#X connect 44 1 104 0;
#X connect 45 0 48 0;
#X connect 46 0 47 0;
#X connect 47 0 54 1;
#X connect 48 0 46 1;
#X connect 49 0 52 0;
#X connect 49 1 45 0;
#X connect 49 2 45 1;
#X connect 49 3 51 1;
#X connect 50 0 9 0;
#X connect 50 0 22 0;
#X connect 50 1 51 0;
#X connect 50 2 1 0;
#X connect 51 0 54 0;
#X connect 52 0 53 0;
#X connect 52 1 46 0;
#X connect 53 0 54 1;
#X connect 54 0 55 0;
#X connect 54 0 58 0;
#X connect 56 0 57 1;
#X connect 57 0 67 0;
#X connect 58 0 9 1;
#X connect 59 0 58 1;
#X connect 60 0 43 0;
#X connect 60 0 12 1;
#X connect 61 0 20 1;
#X connect 61 0 26 0;
#X connect 62 0 74 0;
#X connect 63 0 44 0;
#X connect 64 0 65 0;
#X connect 64 1 65 1;
#X connect 65 0 66 1;
#X connect 66 0 68 0;
#X connect 66 0 75 0;
#X connect 67 0 63 0;
#X connect 67 1 66 0;
#X connect 68 0 70 0;
#X connect 68 1 69 0;
#X connect 69 0 71 0;
#X connect 69 0 110 0;
#X connect 70 0 93 0;
#X connect 71 0 105 0;
#X connect 72 0 38 0;
#X connect 73 0 27 0;
#X connect 74 0 63 1;
#X connect 74 0 64 0;
#X connect 76 0 77 0;
#X connect 76 1 13 0;
#X connect 76 2 21 0;
#X connect 77 0 4 0;
#X connect 78 1 85 0;
#X connect 78 1 86 0;
#X connect 79 0 78 0;
#X connect 80 0 81 0;
#X connect 81 0 89 0;
#X connect 81 1 79 0;
#X connect 83 0 84 0;
#X connect 84 0 57 0;
#X connect 84 1 56 0;
#X connect 85 1 82 0;
#X connect 87 0 81 0;
#X connect 89 0 79 0;
#X connect 91 0 92 0;
#X connect 92 0 9 0;
#X connect 92 1 9 1;
#X connect 93 0 105 0;
#X connect 94 0 102 0;
#X connect 97 0 100 0;
#X connect 98 0 97 1;
#X connect 99 0 108 0;
#X connect 99 0 98 0;
#X connect 100 0 101 0;
#X connect 101 0 96 0;
#X connect 102 0 101 1;
#X connect 102 1 97 0;
#X connect 103 0 104 1;
#X connect 103 0 105 1;
#X connect 103 0 109 0;
#X connect 104 0 50 0;
#X connect 105 0 50 0;
#X connect 106 0 94 0;
#X connect 107 0 106 1;
#X connect 108 0 101 2;
#X connect 110 0 112 0;
#X connect 111 0 110 1;
#X connect 112 0 114 0;
#X connect 113 0 112 1;
#X restore 804 -79 pd midi;
#N canvas 33 23 1332 748 randomness 0;
#X obj 29 355 s drumPattern;
#X obj 29 184 loadbang;
#X text 379 393 pattern 0-4;
#X obj -10 148 r randomize;
#X obj -9 171 t b;
#X obj 96 248 mod 200;
#X msg 97 271 seed \$1;
#X obj 633 -451 r \$0-clock;
#X obj 636 -294 t b;
#X obj 638 -227 f;
#X obj 680 -227 + 1;
#X obj 637 -158 sel 0;
#X obj 565 142 s randomize;
#X msg 565 93 randomize;
#X obj 552 -53 loadbang;
#X obj 672 -325 r onOff;
#X obj 674 -299 sel 1;
#X msg 676 -274 0;
#X obj 842 28 s setNewTempo;
#X msg 641 59 \$1 randomize;
#X obj 640 85 route 0 1 2 3;
#X obj 597 174 s randomize1;
#X obj 620 201 s randomize2;
#X obj 640 227 s randomize3;
#X text 644 38 reconnect;
#X obj 564 64 bng 15 250 50 0 empty empty empty 17 7 0 10 -262144 -1
-1;
#X obj 559 4 r onOff;
#X obj 29 310 random 8;
#X obj 546 -233 r \$0-timer;
#X msg 548 -136 seed \$1;
#X obj 547 -158 mod 110;
#X obj 97 224 r \$0-timer;
#X obj 696 24 s \$0-willRandomize;
#X obj 644 -8 random 16;
#X obj 144 464 s \$0-changePerc;
#X obj 60 451 s \$0-changeKick;
#X obj 13 411 s \$0-changeSnare;
#X obj 11 375 random 4;
#X obj 73 389 random 4;
#X obj 138 434 random 4;
#X obj 141 323 r randomize1;
#X obj 141 348 t b;
#X obj 166 396 t b;
#X obj 166 371 r randomize2;
#X obj 641 24 mod 4;
#X obj 561 31 t b;
#X obj 631 -351 spigot;
#X msg 691 -384 1;
#X obj 697 -413 loadbang;
#X obj 697 -449 r allowRandom;
#X obj 635 -197 mod 16;
#X connect 1 0 27 0;
#X connect 3 0 4 0;
#X connect 4 0 27 0;
#X connect 4 0 37 0;
#X connect 5 0 6 0;
#X connect 6 0 27 0;
#X connect 7 0 46 0;
#X connect 8 0 9 0;
#X connect 9 0 10 0;
#X connect 9 0 50 0;
#X connect 10 0 9 1;
#X connect 11 0 33 0;
#X connect 13 0 12 0;
#X connect 13 0 21 0;
#X connect 13 0 22 0;
#X connect 13 0 23 0;
#X connect 14 0 13 0;
#X connect 15 0 16 0;
#X connect 16 0 17 0;
#X connect 17 0 9 1;
#X connect 19 0 20 0;
#X connect 20 0 12 0;
#X connect 20 1 21 0;
#X connect 20 2 22 0;
#X connect 20 3 23 0;
#X connect 25 0 13 0;
#X connect 26 0 45 0;
#X connect 27 0 0 0;
#X connect 28 0 30 0;
#X connect 29 0 33 0;
#X connect 30 0 29 0;
#X connect 31 0 5 0;
#X connect 33 0 32 0;
#X connect 33 0 44 0;
#X connect 37 0 36 0;
#X connect 38 0 35 0;
#X connect 39 0 34 0;
#X connect 40 0 41 0;
#X connect 41 0 38 0;
#X connect 42 0 39 0;
#X connect 43 0 42 0;
#X connect 44 0 19 0;
#X connect 45 0 25 0;
#X connect 46 0 8 0;
#X connect 47 0 46 1;
#X connect 48 0 47 0;
#X connect 49 0 46 1;
#X connect 50 0 11 0;
#X restore 682 -103 pd randomness;
#N canvas 200 96 1260 851 controls 0;
#X obj 120 322 tgl 30 0 onOff record empty 17 7 0 10 -262144 -1 -1
1 1;
#X obj 186 141 bng 30 250 50 0 tapTempo empty empty 17 7 0 10 -262144
-1 -1;
#X text 172 171 tap tempo;
#X text 102 354 play/stop;
#X obj 343 253 hradio 30 1 0 7 armTrack empty empty 0 -8 0 10 -262144
-1 -1 3;
#X obj 288 447 s measures;
#X obj 358 449 s beats;
#X obj 433 443 s divisions;
#X obj 258 324 bng 30 250 50 0 dumpTab empty empty 17 7 0 10 -262144
-1 -1;
#X floatatom 464 155 5 0 0 0 - - -;
#X obj 532 75 r \$0-clock;
#X floatatom 528 153 5 0 0 0 - - -;
#X obj 334 323 bng 30 250 50 0 clearTab empty empty 17 7 0 10 -262144
-1 -1;
#X obj 414 325 bng 30 250 50 0 clearAll empty empty 17 7 0 10 -262144
-1 -1;
#X obj 1056 421 bng 30 250 50 0 clearCurrent empty empty 17 7 0 10
-262144 -1 -1;
#X text 342 286 record track;
#X text 1051 456 playback clear current;
#X obj 178 252 tgl 30 0 allowRandom empty empty 17 7 0 10 -262144 -1
-1 1 1;
#X text 174 281 random;
#X obj 113 138 tgl 30 0 swing empty empty 17 7 0 10 -262144 -1 -1 0
1;
#X text 111 168 swing;
#X floatatom 267 155 5 0 0 0 - - -;
#X floatatom 329 154 5 0 0 0 - - -;
#X floatatom 389 154 5 0 0 0 - - -;
#X text 261 132 measures;
#X text 329 130 beats;
#X text 390 131 divs;
#X text 457 130 length;
#X text 527 130 clock;
#X floatatom 585 154 5 0 0 0 - - -;
#X obj 637 42 r \$0-detectedTempo;
#X text 582 130 tempo;
#X obj 636 69 list split 1;
#X obj 258 252 bng 30 250 50 0 rewindClock empty empty 17 7 0 10 -262144
-1 -1;
#X text 254 280 rewind;
#N canvas 602 112 776 660 length 0;
#X obj 364 255 r measures;
#X obj 401 278 r beats;
#X obj 376 374 pack f f f;
#X obj 378 402 list-drip;
#X obj 380 462 t f f;
#X obj 363 520 f;
#X obj 434 425 t b b;
#X floatatom 365 543 5 0 0 0 - - -;
#X obj 379 434 *;
#X obj 450 469 del 1;
#X floatatom 398 516 5 0 0 0 - - -;
#X floatatom 513 395 5 0 0 0 - - -;
#X msg 451 492 1;
#X obj 447 301 r divisions;
#X obj 373 589 outlet;
#X obj 444 330 t b f;
#X obj 400 327 t b f;
#X connect 0 0 2 0;
#X connect 1 0 16 0;
#X connect 2 0 3 0;
#X connect 3 0 8 0;
#X connect 3 0 11 0;
#X connect 3 1 6 0;
#X connect 4 0 5 1;
#X connect 4 0 10 0;
#X connect 4 1 8 1;
#X connect 5 0 7 0;
#X connect 5 0 14 0;
#X connect 6 0 9 0;
#X connect 6 1 5 0;
#X connect 8 0 4 0;
#X connect 9 0 12 0;
#X connect 12 0 8 1;
#X connect 13 0 15 0;
#X connect 15 0 2 0;
#X connect 15 1 2 2;
#X connect 16 0 2 0;
#X connect 16 1 2 1;
#X restore 465 41 pd length;
#X obj 1000 30 r armTrack;
#X obj 999 114 sel 0 1 2 3;
#X obj 1003 228 list-enumerate;
#X obj 1002 254 route 0 1 2 3;
#X obj 1011 347 s bassVolume;
#X msg 997 141 0.5 0.25 0.25 0.25;
#X obj 1100 410 s synthVolume3;
#X obj 1059 391 s synthVolume2;
#X obj 1039 368 s synthVolume1;
#X msg 1018 167 0.25 0.5 0.25 0.25;
#X msg 1054 191 0.25 0.25 0.5 0.25;
#X msg 1074 208 0.25 0.25 0.25 0.5;
#X obj 481 325 bng 30 250 50 0 dump empty empty 17 7 0 10 -262144 -1
-1;
#X msg 1131 232 0.25 0.25 0.25 0.25;
#X symbolatom 423 214 10 0 0 0 - - -;
#X obj 518 444 s fileName;
#X text 433 233 name;
#X text 482 360 save;
#X obj 89 832 textfile_csv;
#X obj 84 542 r measures;
#X msg 89 569 measures \$1;
#X obj 135 595 r beats;
#X msg 136 628 beats \$1;
#X obj 150 657 r divisions \$1;
#X msg 152 682 divisions \$1;
#X msg 184 731 swing \$1;
#X obj 184 705 r swing;
#X obj 291 658 r fileName;
#X msg 185 792 name \$1;
#X obj 285 746 r dumps;
#X obj 285 768 list prepend sequence;
#X obj 383 548 s dump;
#X msg 382 520 dump 1;
#X obj 292 793 list trim;
#X msg 256 574 write;
#X obj 294 825 print dumps;
#X msg 286 625 clear;
#X obj 340 494 t b b;
#X obj 283 533 del 100;
#X obj 1009 312 * 2;
#X obj 178 323 tgl 30 0 useKeyboard empty empty 17 7 0 10 -262144 -1
-1 0 1;
#X text 400 358 clear all;
#X text 166 355 keyboard;
#X floatatom 629 292 5 0 0 0 - - sampleLength;
#X obj 632 230 tgl 30 0 sampleDir empty empty 17 7 0 10 -262144 -1
-1 1 1;
#X obj 631 172 bng 30 250 50 0 loadSample empty empty 17 7 0 10 -262144
-1 -1;
#X obj 263 24 loadbang;
#X msg 263 52 4;
#X obj 924 196 loadbang;
#X msg 925 217 1;
#X text 615 204 load sample;
#X text 603 264 reverse sample;
#X text 316 356 clear track;
#X msg 419 78 set 0-myMod;
#X text 248 355 use track;
#X obj 112 197 tgl 30 0 clickTrack empty empty 17 7 0 10 -262144 -1
-1 1 1;
#X text 110 227 click;
#X text 603 308 sample stretch;
#X obj 631 332 tgl 30 0 sampleVol empty empty 17 7 0 10 -262144 -1
-1 0 1;
#X text 611 362 sample vol;
#X obj 709 528 cnv 15 600 300 empty empty empty 20 12 0 14 -204800
-66577 0;
#X obj 999 60 t f f;
#X obj 551 332 tgl 30 0 synthVol empty empty 17 7 0 10 -262144 -1 -1
0 1;
#X text 531 362 mute synths;
#X obj 260 197 tgl 30 0 enableRecording empty empty 17 7 0 10 -262144
-1 -1 0 1;
#X text 228 231 enable recording;
#X obj 542 192 tgl 30 0 enableMonitor empty empty 17 7 0 10 -262144
-1 -1 1 1;
#X text 510 226 enable monitor;
#X connect 10 0 11 0;
#X connect 21 0 5 0;
#X connect 22 0 6 0;
#X connect 23 0 7 0;
#X connect 30 0 32 0;
#X connect 32 1 29 0;
#X connect 35 0 9 0;
#X connect 36 0 97 0;
#X connect 37 0 41 0;
#X connect 37 1 45 0;
#X connect 37 2 46 0;
#X connect 37 3 47 0;
#X connect 37 4 49 0;
#X connect 38 0 39 0;
#X connect 39 0 75 0;
#X connect 39 1 44 0;
#X connect 39 2 43 0;
#X connect 39 3 42 0;
#X connect 41 0 38 0;
#X connect 45 0 38 0;
#X connect 46 0 38 0;
#X connect 47 0 38 0;
#X connect 48 0 73 0;
#X connect 49 0 38 0;
#X connect 50 0 51 0;
#X connect 55 0 56 0;
#X connect 56 0 54 0;
#X connect 57 0 58 0;
#X connect 58 0 54 0;
#X connect 59 0 60 0;
#X connect 60 0 54 0;
#X connect 61 0 54 0;
#X connect 62 0 61 0;
#X connect 63 0 64 0;
#X connect 64 0 54 0;
#X connect 65 0 66 0;
#X connect 66 0 69 0;
#X connect 68 0 67 0;
#X connect 69 0 54 0;
#X connect 69 0 71 0;
#X connect 70 0 54 0;
#X connect 72 0 54 0;
#X connect 73 0 74 0;
#X connect 73 1 68 0;
#X connect 74 0 70 0;
#X connect 75 0 40 0;
#X connect 82 0 83 0;
#X connect 82 0 89 0;
#X connect 83 0 21 0;
#X connect 83 0 22 0;
#X connect 83 0 23 0;
#X connect 84 0 85 0;
#X connect 85 0 79 0;
#X connect 89 0 50 0;
#X connect 97 1 37 0;
#X coords 0 -1 1 1 600 300 2 100 100;
#X restore 103 181 pd controls;
#X msg 955 -79 allowRandom 1 \, outputVolume 1 \, drumsVolume 0.65
\, synthVolume 0.33 \, samplerVolume 0.33 \, bassVolume 0.25 \, setTempo
120 \, swing 1 \, divisions 2 \, beats 4 \, measures 8;
#N canvas 267 118 1082 590 samples 0;
#X obj 471 -123 mm_sample_slicer_revised~;
#X obj 644 -184 r \$0-detectedTempo;
#X obj 562 -328 openpanel;
#X obj 537 -441 bng 15 250 50 0 empty empty empty 17 7 0 10 -262144
-1 -1;
#X msg 473 -160 play;
#X msg 505 -199 slice;
#X obj 456 -313 r \$0-clock;
#X obj 638 -94 bng 15 250 50 0 empty empty empty 17 7 0 10 -262144
-1 -1;
#N canvas 389 22 867 582 beatz 0;
#X obj 431 -238 r beats;
#X obj 495 -235 r measures;
#X obj 430 -194 f;
#X obj 494 -209 t b f;
#X obj 454 -115 *;
#X obj 451 -81 outlet;
#X obj 309 -237 inlet;
#X obj 307 -210 t b;
#X connect 0 0 2 1;
#X connect 0 0 2 0;
#X connect 1 0 3 0;
#X connect 2 0 4 0;
#X connect 3 0 2 0;
#X connect 3 1 4 1;
#X connect 4 0 5 0;
#X connect 6 0 7 0;
#X connect 7 0 2 0;
#X restore 670 -359 pd beatz;
#X obj 563 -305 list prepend;
#X msg 621 -220 direction \$1;
#X msg 563 -278 sample \$1;
#X msg 673 -308 beats \$1;
#X obj 673 -336 * 1;
#X obj 670 -413 r sampleLength;
#X obj 671 -387 t b f;
#X obj 623 -249 r sampleDir;
#X obj 457 -290 sel 0;
#N canvas 846 99 450 300 db 0;
#X obj 99 84 inlet;
#X obj 97 140 spigot;
#X obj 158 80 loadbang;
#X msg 156 116 1;
#X msg 133 214 0;
#X obj 102 276 outlet;
#X obj 98 187 t b b;
#X obj 234 79 inlet;
#X msg 234 108 1;
#X connect 0 0 1 0;
#X connect 1 0 6 0;
#X connect 2 0 3 0;
#X connect 3 0 1 1;
#X connect 4 0 1 1;
#X connect 6 0 5 0;
#X connect 6 1 4 0;
#X connect 7 0 8 0;
#X connect 8 0 1 1;
#X restore 460 -263 pd db;
#X obj 562 -379 r loadSample;
#X obj 628 309 r \$0-clock;
#X obj 625 360 sel 0;
#N canvas 501 222 450 300 toFuzz 0;
#X obj 75 -66 inlet~;
#X obj 76 197 throw~ toFuzz;
#X obj 76 167 *~;
#X obj 101 144 lop~ 1;
#X obj 154 44 random 100;
#X obj 152 67 * 0.01;
#X obj 152 91 *;
#X obj 37 36 r onOff;
#X obj 37 63 sel 0;
#X msg 36 90 0;
#X obj 155 -36 r randomize3;
#X obj 157 0 t b;
#X obj 151 116 * 0.33;
#X connect 0 0 2 0;
#X connect 2 0 1 0;
#X connect 3 0 2 1;
#X connect 4 0 5 0;
#X connect 5 0 6 1;
#X connect 5 0 6 0;
#X connect 6 0 12 0;
#X connect 7 0 8 0;
#X connect 8 0 9 0;
#X connect 9 0 3 0;
#X connect 10 0 11 0;
#X connect 11 0 4 0;
#X connect 12 0 3 0;
#X restore 371 476 pd toFuzz;
#X obj 627 337 mod 32;
#X obj 611 237 r randomize2;
#N canvas 471 139 1017 596 vocoder 0;
#X obj 207 297 phasor~;
#X obj 115 -110 mtof;
#X obj 193 -294 r \$0-note1;
#X obj 270 -294 r \$0-note2;
#X obj 384 340 inlet~;
#X obj 351 568 outlet~;
#X floatatom 415 370 5 0 0 0 - - -;
#X obj 351 532 hip~ 4;
#X obj 195 -256 change;
#X obj 279 296 phasor~;
#X obj 206 -109 mtof;
#X obj 271 -267 change;
#X obj 353 296 phasor~;
#X obj 307 -97 mtof;
#X obj 408 -263 change;
#X obj 410 -287 r \$0-note3;
#X floatatom 330 342 5 0 0 0 - - -;
#X floatatom 230 337 5 0 0 0 - - -;
#X obj 113 -260 change;
#X obj 114 -294 r \$0-note0;
#X obj 111 -227 t f b;
#X obj 143 -159 * 12;
#X obj 109 -190 + 60;
#X obj 113 -136 +;
#X obj 203 -228 t f b;
#X obj 235 -160 * 12;
#X obj 201 -191 + 60;
#X obj 205 -137 +;
#X obj 305 -227 t f b;
#X obj 337 -143 * 12;
#X obj 303 -174 + 60;
#X obj 307 -120 +;
#X obj 408 -214 t f b;
#X obj 440 -146 * 12;
#X obj 406 -177 + 60;
#X obj 410 -123 +;
#X obj 410 296 phasor~;
#X obj 410 -101 mtof;
#X obj 206 273 lop~ 20;
#X obj 275 271 lop~ 20;
#X obj 352 270 lop~ 20;
#X obj 410 273 lop~ 20;
#X obj 143 -182 - 2;
#X obj 143 -204 random 5;
#X obj 235 -205 random 5;
#X obj 235 -183 - 2;
#X obj 337 -188 random 5;
#X obj 337 -166 - 2;
#X obj 440 -191 random 5;
#X obj 440 -169 - 2;
#X obj -198 87 change;
#X obj -184 -27 r \$0-note1;
#X obj -175 -4 r \$0-note2;
#X obj -168 18 r \$0-note3;
#X obj -200 -52 r \$0-note0;
#X obj -197 110 t f b;
#X obj -170 166 + 3;
#X obj -171 187 * 12;
#X obj -193 260 +;
#X obj -172 214 t f f;
#N canvas 403 454 450 300 wr 0;
#X obj 85 42 inlet;
#X obj 84 72 random 100;
#X obj 84 99 moses 50;
#X obj 128 137 moses 85;
#X obj 50 137 moses 15;
#X obj 51 165 bng 15 250 50 0 empty empty empty 17 7 0 10 -262144 -1
-1;
#X obj 93 163 bng 15 250 50 0 empty empty empty 17 7 0 10 -262144 -1
-1;
#X obj 130 166 bng 15 250 50 0 empty empty empty 17 7 0 10 -262144
-1 -1;
#X obj 172 164 bng 15 250 50 0 empty empty empty 17 7 0 10 -262144
-1 -1;
#X msg 49 189 0;
#X msg 91 189 1;
#X msg 131 190 2;
#X msg 172 189 3;
#X obj 71 247 outlet;
#X connect 0 0 1 0;
#X connect 1 0 2 0;
#X connect 2 0 4 0;
#X connect 2 1 3 0;
#X connect 3 0 7 0;
#X connect 3 1 8 0;
#X connect 4 0 5 0;
#X connect 4 1 6 0;
#X connect 5 0 9 0;
#X connect 6 0 10 0;
#X connect 7 0 11 0;
#X connect 8 0 12 0;
#X connect 9 0 13 0;
#X connect 10 0 13 0;
#X connect 11 0 13 0;
#X connect 12 0 13 0;
#X restore -171 141 pd wr;
#X obj -194 286 mtof;
#X obj -180 314 * 2;
#X obj -162 371 * 3;
#X obj -139 388 * 0.5;
#X obj -136 425 s \$0-monoVocoder3;
#X obj -162 408 s \$0-monoVocoder2;
#X obj -123 337 s \$0-monoVocoder1;
#X obj -125 308 s \$0-monoVocoder0;
#X obj 113 -87 s \$0-polyVocoder0;
#X obj 207 -68 s \$0-polyVocoder1;
#X obj 310 -68 s \$0-polyVocoder2;
#X obj 424 -74 s \$0-polyVocoder3;
#X obj 110 141 spigot;
#X obj 137 163 spigot;
#N canvas 461 105 450 300 inv 0;
#X obj 163 0 inlet;
#X obj 163 39 swap 1;
#X obj 166 64 -;
#X obj 164 100 outlet;
#X connect 0 0 1 0;
#X connect 1 0 2 0;
#X connect 1 1 2 1;
#X connect 2 0 3 0;
#X restore 167 139 pd inv;
#X obj 145 83 r vocoderStyle;
#X obj 143 107 t f f;
#X msg 149 59 1;
#X obj 147 32 loadbang;
#X obj 236 139 spigot;
#X obj 263 161 spigot;
#N canvas 461 105 450 300 inv 0;
#X obj 163 0 inlet;
#X obj 163 39 swap 1;
#X obj 166 64 -;
#X obj 164 100 outlet;
#X connect 0 0 1 0;
#X connect 1 0 2 0;
#X connect 1 1 2 1;
#X connect 2 0 3 0;
#X restore 293 137 pd inv;
#X obj 271 81 r vocoderStyle;
#X obj 269 105 t f f;
#X msg 275 57 1;
#X obj 273 30 loadbang;
#X obj 364 138 spigot;
#X obj 391 160 spigot;
#N canvas 461 105 450 300 inv 0;
#X obj 163 0 inlet;
#X obj 163 39 swap 1;
#X obj 166 64 -;
#X obj 164 100 outlet;
#X connect 0 0 1 0;
#X connect 1 0 2 0;
#X connect 1 1 2 1;
#X connect 2 0 3 0;
#X restore 421 136 pd inv;
#X obj 399 80 r vocoderStyle;
#X obj 397 104 t f f;
#X msg 403 56 1;
#X obj 401 29 loadbang;
#X obj 489 138 spigot;
#X obj 516 160 spigot;
#N canvas 461 105 450 300 inv 0;
#X obj 163 0 inlet;
#X obj 163 39 swap 1;
#X obj 166 64 -;
#X obj 164 100 outlet;
#X connect 0 0 1 0;
#X connect 1 0 2 0;
#X connect 1 1 2 1;
#X connect 2 0 3 0;
#X restore 546 136 pd inv;
#X obj 524 80 r vocoderStyle;
#X obj 522 104 t f f;
#X msg 528 56 1;
#X obj 526 29 loadbang;
#X obj 107 -21 r \$0-polyVocoder0;
#X obj 130 6 r \$0-monoVocoder0;
#X obj 234 6 r \$0-polyVocoder1;
#X obj 265 -22 r \$0-monoVocoder1;
#X obj 375 -19 r \$0-polyVocoder2;
#X obj 394 2 r \$0-monoVocoder2;
#X obj 503 -24 r \$0-polyVocoder3;
#X obj 528 -2 r \$0-monoVocoder3;
#X obj -187 -274 r \$0-clock;
#X obj -189 -244 sel 0;
#X obj -191 -220 random 2;
#X obj -191 -194 s vocoderStyle;
#X obj 353 479 mm_vocoder~;
#X obj 486 432 r onOff;
#X obj 485 456 t b;
#X obj 333 391 *~ 0.25;
#X obj 351 509 lop~ 8000;
#X msg 426 420 20;
#X connect 0 0 116 0;
#X connect 1 0 69 0;
#X connect 2 0 8 0;
#X connect 3 0 11 0;
#X connect 4 0 113 1;
#X connect 6 0 113 2;
#X connect 7 0 5 0;
#X connect 8 0 24 0;
#X connect 9 0 116 0;
#X connect 10 0 70 0;
#X connect 11 0 28 0;
#X connect 12 0 116 0;
#X connect 13 0 71 0;
#X connect 14 0 32 0;
#X connect 15 0 14 0;
#X connect 18 0 20 0;
#X connect 19 0 18 0;
#X connect 20 0 22 0;
#X connect 20 1 43 0;
#X connect 21 0 23 1;
#X connect 22 0 23 0;
#X connect 23 0 1 0;
#X connect 24 0 26 0;
#X connect 24 1 44 0;
#X connect 25 0 27 1;
#X connect 26 0 27 0;
#X connect 27 0 10 0;
#X connect 28 0 30 0;
#X connect 28 1 46 0;
#X connect 29 0 31 1;
#X connect 30 0 31 0;
#X connect 31 0 13 0;
#X connect 32 0 34 0;
#X connect 32 1 48 0;
#X connect 33 0 35 1;
#X connect 34 0 35 0;
#X connect 35 0 37 0;
#X connect 36 0 116 0;
#X connect 37 0 72 0;
#X connect 38 0 0 0;
#X connect 39 0 9 0;
#X connect 40 0 12 0;
#X connect 41 0 36 0;
#X connect 42 0 21 0;
#X connect 43 0 42 0;
#X connect 44 0 45 0;
#X connect 45 0 25 0;
#X connect 46 0 47 0;
#X connect 47 0 29 0;
#X connect 48 0 49 0;
#X connect 49 0 33 0;
#X connect 50 0 55 0;
#X connect 51 0 50 0;
#X connect 52 0 50 0;
#X connect 53 0 50 0;
#X connect 54 0 50 0;
#X connect 55 0 58 0;
#X connect 55 1 60 0;
#X connect 56 0 57 0;
#X connect 57 0 59 0;
#X connect 58 0 61 0;
#X connect 59 0 58 1;
#X connect 60 0 56 0;
#X connect 61 0 62 0;
#X connect 61 0 63 0;
#X connect 61 0 64 0;
#X connect 61 0 68 0;
#X connect 62 0 67 0;
#X connect 63 0 66 0;
#X connect 64 0 65 0;
#X connect 73 0 38 0;
#X connect 74 0 38 0;
#X connect 75 0 74 1;
#X connect 76 0 77 0;
#X connect 77 0 73 1;
#X connect 77 1 75 0;
#X connect 78 0 77 0;
#X connect 79 0 78 0;
#X connect 80 0 39 0;
#X connect 81 0 39 0;
#X connect 82 0 81 1;
#X connect 83 0 84 0;
#X connect 84 0 80 1;
#X connect 84 1 82 0;
#X connect 85 0 84 0;
#X connect 86 0 85 0;
#X connect 87 0 40 0;
#X connect 88 0 40 0;
#X connect 89 0 88 1;
#X connect 90 0 91 0;
#X connect 91 0 87 1;
#X connect 91 1 89 0;
#X connect 92 0 91 0;
#X connect 93 0 92 0;
#X connect 94 0 41 0;
#X connect 95 0 41 0;
#X connect 96 0 95 1;
#X connect 97 0 98 0;
#X connect 98 0 94 1;
#X connect 98 1 96 0;
#X connect 99 0 98 0;
#X connect 100 0 99 0;
#X connect 101 0 73 0;
#X connect 102 0 74 0;
#X connect 103 0 80 0;
#X connect 104 0 81 0;
#X connect 105 0 87 0;
#X connect 106 0 88 0;
#X connect 107 0 94 0;
#X connect 108 0 95 0;
#X connect 109 0 110 0;
#X connect 110 0 111 0;
#X connect 111 0 112 0;
#X connect 113 0 117 0;
#X connect 114 0 115 0;
#X connect 115 0 113 3;
#X connect 116 0 113 0;
#X connect 117 0 7 0;
#X connect 118 0 113 2;
#X restore 467 88 pd vocoder;
#X msg 624 386 randomize;
#N canvas 710 242 450 300 toTremelo 0;
#X obj 75 -66 inlet~;
#X obj 76 167 *~;
#X obj 101 144 lop~ 1;
#X obj 154 44 random 100;
#X obj 152 67 * 0.01;
#X obj 152 91 *;
#X obj 155 15 t b;
#X obj 76 197 throw~ toTremelo;
#X obj 156 -9 r randomize1;
#X connect 0 0 1 0;
#X connect 1 0 7 0;
#X connect 2 0 1 1;
#X connect 3 0 4 0;
#X connect 4 0 5 1;
#X connect 4 0 5 0;
#X connect 5 0 2 0;
#X connect 6 0 3 0;
#X connect 8 0 6 0;
#X restore 289 419 pd toTremelo;
#X obj 620 272 r randomize1;
#X obj 479 419 birdPan~;
#X obj 479 347 mm_monoSyncDelay;
#X obj 465 62 *~ 2;
#X obj 588 522 throw~ outputR;
#X obj 450 517 throw~ outputL;
#X obj 471 243 *~ 1;
#X msg 528 217 1;
#X obj 532 184 r sampleVol;
#X connect 0 0 31 0;
#X connect 0 1 7 0;
#X connect 1 0 0 1;
#X connect 2 0 9 0;
#X connect 3 0 2 0;
#X connect 4 0 0 0;
#X connect 5 0 0 0;
#X connect 6 0 17 0;
#X connect 7 0 18 1;
#X connect 8 0 13 0;
#X connect 9 0 11 0;
#X connect 10 0 0 1;
#X connect 11 0 0 1;
#X connect 12 0 0 1;
#X connect 13 0 12 0;
#X connect 14 0 15 0;
#X connect 15 0 8 0;
#X connect 15 1 13 1;
#X connect 16 0 10 0;
#X connect 17 0 18 0;
#X connect 18 0 4 0;
#X connect 19 0 2 0;
#X connect 20 0 23 0;
#X connect 21 0 26 0;
#X connect 23 0 21 0;
#X connect 24 0 30 1;
#X connect 25 0 34 0;
#X connect 26 0 29 1;
#X connect 28 0 30 1;
#X connect 29 0 33 0;
#X connect 29 1 32 0;
#X connect 30 0 29 0;
#X connect 31 0 25 0;
#X connect 34 0 30 0;
#X connect 34 0 22 0;
#X connect 34 0 27 0;
#X connect 35 0 34 1;
#X connect 36 0 34 1;
#X restore 803 -21 pd samples;
#X obj 212 38 s setNote;
#X floatatom 174 -82 5 0 0 0 - - -;
#X obj 215 12 pack f f;
#X floatatom 221 -81 5 0 0 0 - - -;
#X obj 221 -50 t b f;
#X obj 211 -17 f;
#X connect 7 0 8 0;
#X connect 10 0 9 0;
#X connect 11 0 10 0;
#X connect 12 0 15 0;
#X connect 12 1 13 1;
#X connect 14 0 12 0;
#X connect 15 0 13 0;
#X connect 16 0 20 0;
#X connect 17 0 6 0;
#X connect 17 0 5 0;
#X connect 20 0 14 0;
#X connect 23 0 27 1;
#X connect 24 0 22 0;
#X connect 25 0 26 0;
#X connect 26 0 27 0;
#X connect 26 1 24 1;
#X connect 27 0 24 0;
