#N canvas 237 139 1310 701 10;
#X obj 66 -72 adc~;
#X obj 65 -31 s~ input;
#N canvas 14 27 504 546 samplers 0;
#N canvas 66 38 1440 754 sampler 0;
#X msg 416 75 play;
#X obj 367 441 birdPan~;
#X msg 411 415 randomize;
#X obj 412 471 throw~ outputR;
#X obj 361 507 throw~ outputL;
#X obj 506 46 r \$0-threshold;
#X msg 507 73 edge upper \$1 \, edge lower \$2;
#X msg 469 54 arm;
#X obj 435 126 bng 15 250 50 0 empty empty empty 17 7 0 10 -262144
-1 -1;
#X obj 421 161 s \$0-armSampler2;
#X obj 527 -18 r \$0-armSampler1;
#X msg 392 149 0;
#X obj 509 105 bng 15 250 50 0 empty empty empty 17 7 0 10 -262144
-1 -1;
#X obj 339 117 mm_sampler~;
#X msg 456 272 randomize;
#X obj 455 242 r \$0-newRep;
#X obj 528 9 del 5000;
#X obj 264 53 r \$0-detectedTempo;
#X msg 326 93 tempo \$1;
#X obj 533 242 r \$0-detectedTempo;
#X msg 533 270 tempo \$1;
#N canvas 0 22 1440 806 samp 0;
#X obj 449 -250 r \$0-clock;
#X obj 448 -115 sel 0;
#X obj 478 -213 r \$0-newRep;
#N canvas 721 257 502 429 patterns 0;
#X obj 72 17 inlet;
#X obj 72 42 sel 0 1 2 3 4 5 6 7 8;
#X msg 134 162;
#X msg 151 185;
#X msg 169 208;
#X msg 186 239;
#X msg 200 261;
#X obj 114 327 outlet;
#X msg 72 72 1 25 1 1;
#X msg 86 93 25 1 1 10;
#X msg 103 118 1 1 25 1;
#X msg 119 141 1 1 1 25;
#X connect 0 0 1 0;
#X connect 1 0 8 0;
#X connect 1 1 9 0;
#X connect 1 2 10 0;
#X connect 1 3 11 0;
#X connect 1 4 2 0;
#X connect 1 5 3 0;
#X connect 1 6 4 0;
#X connect 1 7 5 0;
#X connect 1 8 6 0;
#X connect 2 0 7 0;
#X connect 3 0 7 0;
#X connect 4 0 7 0;
#X connect 5 0 7 0;
#X connect 6 0 7 0;
#X connect 8 0 7 0;
#X connect 9 0 7 0;
#X connect 10 0 7 0;
#X connect 11 0 7 0;
#X restore 708 -163 pd patterns;
#X obj 631 -227 r \$0-clock;
#X obj 444 -27 spigot;
#X obj 625 -21 spigot;
#X obj 774 -134 r \$0-newRep;
#N canvas 835 22 450 300 inv 0;
#X obj 105 51 inlet;
#X obj 106 77 swap 1;
#X obj 105 98 -;
#X obj 100 127 outlet;
#X connect 0 0 1 0;
#X connect 1 0 2 0;
#X connect 1 1 2 1;
#X connect 2 0 3 0;
#X restore 482 -51 pd inv;
#X obj 739 -40 loadbang;
#X msg 739 -17 1;
#X obj 531 35 outlet;
#X obj 705 -244 loadbang;
#X msg 706 -217 0;
#X obj 775 -110 random 4;
#X obj 448 -136 mod 8;
#X obj 480 -161 + 4;
#X obj 479 -185 random 13;
#X obj 635 -139 wrandom;
#X obj 713 -86 random 8;
#X obj 709 -53 > 2;
#X connect 0 0 15 0;
#X connect 1 0 5 0;
#X connect 2 0 17 0;
#X connect 3 0 18 1;
#X connect 4 0 18 0;
#X connect 5 0 11 0;
#X connect 6 0 11 0;
#X connect 7 0 19 0;
#X connect 7 0 14 0;
#X connect 8 0 5 1;
#X connect 9 0 10 0;
#X connect 10 0 6 1;
#X connect 12 0 13 0;
#X connect 13 0 3 0;
#X connect 14 0 3 0;
#X connect 15 0 1 0;
#X connect 16 0 15 1;
#X connect 17 0 16 0;
#X connect 18 0 6 0;
#X connect 19 0 20 0;
#X connect 20 0 6 1;
#X connect 20 0 8 0;
#X restore 416 -74 pd samp control;
#X obj 469 -30 r onOff;
#X obj 470 9 sel 1;
#X obj 364 298 mm_monoSyncDelay;
#X obj 518 363 r \$0-clock;
#X obj 615 333 random 7;
#X obj 615 356 + 2;
#X obj 517 391 mod 4;
#X obj 515 414 sel 0;
#X obj 420 332 outlet~;
#X obj 262 -113 inlet~;
#X obj 414 190 s \$0-learn;
#X obj 126 54 r samplerVolume;
#X obj 251 211 lop~ 1;
#X obj 230 234 *~;
#X obj 252 190 * 2;
#X msg 269 164 0.5;
#X obj 261 126 loadbang;
#N canvas 303 301 450 300 clip 0;
#X obj 115 28 inlet;
#X obj 115 56 * 100;
#X obj 116 89 moses 10;
#X msg 114 121 0;
#X obj 115 190 outlet;
#X obj 115 162 * 0.02;
#X connect 0 0 1 0;
#X connect 1 0 2 0;
#X connect 2 0 3 0;
#X connect 2 1 5 0;
#X connect 3 0 5 0;
#X connect 5 0 4 0;
#X restore 181 107 pd clip;
#X obj 355 233 mm_randFilter~;
#X connect 0 0 13 1;
#X connect 1 0 4 0;
#X connect 1 1 3 0;
#X connect 2 0 1 1;
#X connect 5 0 6 0;
#X connect 6 0 13 1;
#X connect 7 0 12 0;
#X connect 7 0 13 1;
#X connect 10 0 16 0;
#X connect 13 0 35 0;
#X connect 13 1 8 0;
#X connect 13 1 9 0;
#X connect 13 1 11 0;
#X connect 13 1 32 0;
#X connect 14 0 24 1;
#X connect 14 0 40 1;
#X connect 15 0 14 0;
#X connect 15 0 26 0;
#X connect 16 0 7 0;
#X connect 17 0 18 0;
#X connect 18 0 13 1;
#X connect 19 0 20 0;
#X connect 20 0 24 1;
#X connect 20 0 40 1;
#X connect 21 0 0 0;
#X connect 22 0 23 0;
#X connect 23 0 7 0;
#X connect 24 0 1 0;
#X connect 24 0 30 0;
#X connect 25 0 28 0;
#X connect 26 0 27 0;
#X connect 27 0 28 1;
#X connect 28 0 29 0;
#X connect 29 0 2 0;
#X connect 31 0 13 0;
#X connect 33 0 39 0;
#X connect 34 0 35 1;
#X connect 35 0 40 0;
#X connect 36 0 34 0;
#X connect 37 0 36 0;
#X connect 38 0 37 0;
#X connect 39 0 36 0;
#X connect 40 0 24 0;
#X restore 110 186 pd sampler 1;
#N canvas 101 114 1165 671 sampler 0;
#X msg 982 129 play;
#X obj 913 547 birdPan~;
#X msg 959 525 randomize;
#X obj 958 579 throw~ outputR;
#X obj 908 600 throw~ outputL;
#X obj 1001 196 r \$0-threshold;
#X msg 998 220 edge upper \$1 \, edge lower \$2;
#X msg 986 177 arm;
#X obj 983 282 bng 15 250 50 0 empty empty empty 17 7 0 10 -262144
-1 -1;
#X obj 1066 114 r \$0-armSampler2;
#X obj 1046 302 s \$0-armSampler1;
#X obj 1088 172 bng 15 250 50 0 empty empty empty 17 7 0 10 -262144
-1 -1;
#X msg 1007 413 randomize;
#X obj 1010 381 r \$0-newRep;
#X obj 1064 139 del 5000;
#X obj 1041 242 r \$0-detectedTempo;
#X msg 1041 264 tempo \$1;
#X obj 1090 383 r \$0-detectedTempo;
#X msg 1090 411 tempo \$1;
#X obj 915 249 mm_sampler~;
#N canvas 308 43 976 643 samp 0;
#X obj 448 -328 r \$0-clock;
#X obj 447 -193 sel 0;
#X obj 477 -291 r \$0-newRep;
#N canvas 682 247 502 429 patterns 0;
#X obj 72 17 inlet;
#X obj 72 42 sel 0 1 2 3 4 5 6 7 8;
#X msg 134 162;
#X msg 151 185;
#X msg 169 208;
#X msg 186 239;
#X msg 200 261;
#X obj 114 327 outlet;
#X msg 72 72 1 25 1 1;
#X msg 86 93 25 1 1 25;
#X msg 103 118 1 1 25 1;
#X msg 119 141 1 1 1 25;
#X connect 0 0 1 0;
#X connect 1 0 8 0;
#X connect 1 1 9 0;
#X connect 1 2 10 0;
#X connect 1 3 11 0;
#X connect 1 4 2 0;
#X connect 1 5 3 0;
#X connect 1 6 4 0;
#X connect 1 7 5 0;
#X connect 1 8 6 0;
#X connect 2 0 7 0;
#X connect 3 0 7 0;
#X connect 4 0 7 0;
#X connect 5 0 7 0;
#X connect 6 0 7 0;
#X connect 8 0 7 0;
#X connect 9 0 7 0;
#X connect 10 0 7 0;
#X connect 11 0 7 0;
#X restore 711 -266 pd patterns;
#X obj 630 -305 r \$0-clock;
#X obj 443 -105 spigot;
#X obj 627 -91 spigot;
#X obj 708 -193 r \$0-newRep;
#N canvas 835 22 450 300 inv 0;
#X obj 105 51 inlet;
#X obj 106 77 swap 1;
#X obj 105 98 -;
#X obj 100 127 outlet;
#X connect 0 0 1 0;
#X connect 1 0 2 0;
#X connect 1 1 2 1;
#X connect 2 0 3 0;
#X restore 481 -129 pd inv;
#X obj 738 -118 loadbang;
#X msg 738 -95 1;
#X obj 530 -67 outlet;
#X obj 712 -312 loadbang;
#X msg 711 -289 0;
#X obj 807 -148 random 4;
#X obj 447 -214 mod 8;
#X obj 479 -239 + 4;
#X obj 478 -263 random 13;
#X obj 634 -217 wrandom;
#X obj 707 -152 random 8;
#X obj 707 -129 > 2;
#X connect 0 0 15 0;
#X connect 1 0 5 0;
#X connect 2 0 17 0;
#X connect 3 0 18 1;
#X connect 4 0 18 0;
#X connect 5 0 11 0;
#X connect 6 0 11 0;
#X connect 7 0 19 0;
#X connect 7 0 14 0;
#X connect 8 0 5 1;
#X connect 9 0 10 0;
#X connect 10 0 6 1;
#X connect 12 0 13 0;
#X connect 13 0 3 0;
#X connect 14 0 3 0;
#X connect 15 0 1 0;
#X connect 16 0 15 1;
#X connect 17 0 16 0;
#X connect 18 0 6 0;
#X connect 19 0 20 0;
#X connect 20 0 6 1;
#X connect 20 0 8 0;
#X restore 981 70 pd samp control;
#X obj 913 498 mm_monoSyncDelay;
#X obj 1059 450 r \$0-clock;
#X obj 1124 489 random 7;
#X obj 1124 512 + 2;
#X obj 1059 533 mod 4;
#X obj 1057 556 sel 0;
#X obj 751 388 outlet~;
#X obj 907 96 inlet~;
#X obj 1014 347 s \$0-learn;
#X obj 721 84 r samplerVolume;
#X obj 813 254 lop~ 1;
#X obj 792 277 *~;
#X obj 814 233 * 2;
#X msg 831 207 0.5;
#X obj 823 169 loadbang;
#N canvas 303 301 450 300 clip 0;
#X obj 115 28 inlet;
#X obj 115 56 * 100;
#X obj 116 89 moses 10;
#X msg 114 121 0;
#X obj 115 190 outlet;
#X obj 115 162 * 0.02;
#X connect 0 0 1 0;
#X connect 1 0 2 0;
#X connect 2 0 3 0;
#X connect 2 1 5 0;
#X connect 3 0 5 0;
#X connect 5 0 4 0;
#X restore 765 147 pd clip;
#X obj 902 330 mm_randFilter~;
#X connect 0 0 19 1;
#X connect 1 0 4 0;
#X connect 1 1 3 0;
#X connect 2 0 1 1;
#X connect 5 0 6 0;
#X connect 6 0 19 1;
#X connect 7 0 19 1;
#X connect 8 0 29 0;
#X connect 9 0 14 0;
#X connect 12 0 21 1;
#X connect 12 0 37 1;
#X connect 13 0 12 0;
#X connect 13 0 23 0;
#X connect 14 0 7 0;
#X connect 14 0 11 0;
#X connect 15 0 16 0;
#X connect 16 0 19 1;
#X connect 17 0 18 0;
#X connect 18 0 21 1;
#X connect 18 0 37 1;
#X connect 19 0 32 0;
#X connect 19 1 8 0;
#X connect 19 1 10 0;
#X connect 20 0 0 0;
#X connect 21 0 1 0;
#X connect 21 0 27 0;
#X connect 22 0 25 0;
#X connect 23 0 24 0;
#X connect 24 0 25 1;
#X connect 25 0 26 0;
#X connect 26 0 2 0;
#X connect 28 0 19 0;
#X connect 30 0 36 0;
#X connect 31 0 32 1;
#X connect 32 0 37 0;
#X connect 33 0 31 0;
#X connect 34 0 33 0;
#X connect 35 0 34 0;
#X connect 36 0 33 0;
#X connect 37 0 21 0;
#X restore 245 188 pd sampler 2;
#N canvas 501 222 450 300 toFuzz 0;
#X obj 75 -66 inlet~;
#X obj 76 197 throw~ toFuzz;
#X obj 76 167 *~;
#X obj 101 144 lop~ 1;
#X obj 155 -36 r \$0-newRep;
#X obj 154 -1 mod 4;
#X obj 154 21 sel 0;
#X obj 154 44 random 100;
#X obj 152 67 * 0.01;
#X obj 152 91 *;
#X obj 37 36 r onOff;
#X obj 37 63 sel 0;
#X msg 36 90 0;
#X connect 0 0 2 0;
#X connect 2 0 1 0;
#X connect 3 0 2 1;
#X connect 4 0 5 0;
#X connect 5 0 6 0;
#X connect 6 0 7 0;
#X connect 7 0 8 0;
#X connect 8 0 9 1;
#X connect 8 0 9 0;
#X connect 9 0 3 0;
#X connect 10 0 11 0;
#X connect 11 0 12 0;
#X connect 12 0 3 0;
#X restore 176 276 pd toFuzz;
#X obj 169 28 r~ input;
#X obj 251 55 r \$0-learn;
#X msg 249 81 learn;
#X obj 171 58 *~ 1.1;
#X connect 0 0 2 0;
#X connect 1 0 2 0;
#X connect 3 0 6 0;
#X connect 4 0 5 0;
#X connect 6 0 0 0;
#X connect 6 0 1 0;
#X restore 803 38 pd samplers;
#N canvas 494 66 517 441 input 0;
#X obj 77 113 er_contAvg;
#X floatatom 76 136 5 0 0 0 - - -;
#X obj 140 28 r \$0-clock;
#X obj 140 67 sel 0;
#X obj 163 116 bng 15 250 50 0 empty empty empty 17 7 0 10 -262144
-1 -1;
#X obj 77 160 f;
#X obj 77 184 int;
#X obj 77 207 t f f;
#X obj 75 323 pack f f;
#X obj 97 358 s \$0-threshold;
#X obj 189 113 s \$0-patternRepeat;
#X obj 69 17 r~ input;
#X obj 68 46 env~ 1024;
#X obj 120 235 * 1;
#X obj 76 234 * 1.33;
#X obj 46 284 clip 70 105;
#X obj 122 284 clip 20 90;
#X obj 153 164 loadbang;
#X msg 153 185 50;
#X obj -22 82 dbtorms;
#X obj -22 111 s \$0-inputRMS;
#X connect 0 0 1 0;
#X connect 0 0 5 1;
#X connect 2 0 3 0;
#X connect 3 0 0 1;
#X connect 3 0 4 0;
#X connect 3 0 10 0;
#X connect 4 0 5 0;
#X connect 5 0 6 0;
#X connect 6 0 7 0;
#X connect 7 0 14 0;
#X connect 7 1 13 0;
#X connect 8 0 9 0;
#X connect 11 0 12 0;
#X connect 12 0 0 0;
#X connect 12 0 19 0;
#X connect 13 0 16 0;
#X connect 14 0 15 0;
#X connect 15 0 8 0;
#X connect 16 0 8 1;
#X connect 17 0 18 0;
#X connect 18 0 7 0;
#X connect 19 0 20 0;
#X restore 805 -39 pd input monitor;
#N canvas 362 73 817 608 clock 0;
#X msg 156 109 play;
#X obj 284 187 s~ metro;
#X obj 156 192 route clock;
#X obj 151 -183 r onOff;
#X obj 151 -160 sel 0 1;
#X msg 250 136 stop;
#X obj 157 309 s \$0-clock;
#X obj 195 285 s \$0-newRep;
#X obj 156 225 t f f;
#X obj 187 254 sel 0;
#X obj 158 164 birdClock 4 4 4 120 1;
#X msg 282 128 swing 0;
#X obj 282 103 loadbang;
#X obj 347 111 r \$0-detectedTempo;
#X msg 348 133 tempo \$1;
#X obj 227 107 t b b;
#X msg 198 134 reset;
#X obj 281 282 print newRep;
#X obj 170 -136 t b b;
#X obj 197 -111 random 100;
#X obj 197 -91 * 0.01;
#X obj 195 -67 *;
#X obj 194 -16 * 160;
#X obj 195 10 + 40;
#X obj 193 39 int;
#X obj 193 67 s \$0-detectedTempo;
#X obj 356 -55 moses 120;
#X obj 357 -31 t b;
#X obj 357 14 sel 0;
#X msg 355 72 swing 1;
#X msg 457 71 swing 0;
#X obj 457 175 print;
#X obj 357 -9 random 2;
#X obj 421 -28 t b;
#X obj 421 17 sel 0;
#X obj 421 -6 random 4;
#X obj 194 -41 *;
#X obj 58 309 s \$0-commands;
#X connect 0 0 10 0;
#X connect 2 0 8 0;
#X connect 3 0 4 0;
#X connect 4 0 15 0;
#X connect 4 1 18 0;
#X connect 5 0 10 0;
#X connect 8 0 6 0;
#X connect 8 1 9 0;
#X connect 9 0 7 0;
#X connect 9 0 17 0;
#X connect 10 0 2 0;
#X connect 10 0 37 0;
#X connect 10 1 1 0;
#X connect 11 0 10 1;
#X connect 12 0 11 0;
#X connect 13 0 14 0;
#X connect 14 0 10 1;
#X connect 15 0 16 0;
#X connect 15 1 5 0;
#X connect 16 0 10 0;
#X connect 18 0 0 0;
#X connect 18 1 19 0;
#X connect 19 0 20 0;
#X connect 20 0 21 1;
#X connect 20 0 21 0;
#X connect 21 0 36 1;
#X connect 21 0 36 0;
#X connect 22 0 23 0;
#X connect 23 0 24 0;
#X connect 24 0 25 0;
#X connect 24 0 26 0;
#X connect 26 0 27 0;
#X connect 26 1 33 0;
#X connect 27 0 32 0;
#X connect 28 0 29 0;
#X connect 28 1 30 0;
#X connect 29 0 10 1;
#X connect 29 0 31 0;
#X connect 30 0 10 1;
#X connect 30 0 31 0;
#X connect 32 0 28 0;
#X connect 33 0 35 0;
#X connect 34 0 29 0;
#X connect 34 1 30 0;
#X connect 35 0 34 0;
#X connect 36 0 22 0;
#X restore 796 -15 pd clock;
#N canvas 810 155 450 300 pitch 0;
#X obj 78 23 r~;
#X obj 78 53 helmholtz~ 512 1;
#X msg 78 -1 set input;
#X obj 79 -22 loadbang;
#X floatatom 153 144 5 0 0 0 - - -;
#X obj 193 -20 r usePitchUtil;
#X obj 126 182 s pitchUtilOut;
#X obj 211 141 er_contAvg;
#X obj 208 68 ftom;
#X floatatom 300 135 5 0 0 0 - - -;
#X obj 270 57 r \$0-newRep;
#X obj 271 82 t b b;
#X obj 211 170 f;
#X floatatom 238 250 5 0 0 0 - - -;
#X obj 209 87 + 0.5;
#X obj 210 113 int;
#X obj 228 197 change;
#X connect 0 0 1 0;
#X connect 1 1 4 0;
#X connect 1 1 6 0;
#X connect 1 1 8 0;
#X connect 2 0 0 0;
#X connect 3 0 2 0;
#X connect 7 0 12 1;
#X connect 8 0 14 0;
#X connect 10 0 11 0;
#X connect 11 0 7 1;
#X connect 11 1 12 0;
#X connect 12 0 16 0;
#X connect 14 0 15 0;
#X connect 15 0 7 0;
#X connect 15 0 9 0;
#X connect 16 0 13 0;
#X restore 790 12 pd pitch utility;
#N canvas 217 93 761 536 drums 0;
#N canvas 61 40 1440 806 kick 0;
#X obj 23 13 table \$0-kickArray;
#X obj 515 585 soundfiler;
#X obj 151 26 inlet;
#X obj 150 329 tabplay~ \$0-kickArray;
#X obj 153 416 outlet~;
#X obj 515 611 t b;
#X obj 515 642 \$0;
#X msg 515 669 \; \$1-kickArray normalize 1;
#N canvas 387 145 502 429 patterns 0;
#X obj 72 17 inlet;
#X obj 72 42 sel 0 1 2 3 4 5 6 7 8;
#X msg 151 185;
#X msg 169 208;
#X msg 186 239;
#X msg 200 261;
#X obj 114 327 outlet;
#X msg 72 72 100 5 5 5 5 10 5 15;
#X msg 86 93 100 50 5 5 5 5 65 5;
#X msg 103 118 100 5 90 5 5 5 70 5;
#X msg 119 141 100 5 5 90 90 5 5 5;
#X msg 134 162 100 1 1 1 90 1 1 1;
#X connect 0 0 1 0;
#X connect 1 0 7 0;
#X connect 1 1 8 0;
#X connect 1 2 9 0;
#X connect 1 3 10 0;
#X connect 1 4 11 0;
#X connect 1 5 2 0;
#X connect 1 6 3 0;
#X connect 1 7 4 0;
#X connect 1 8 5 0;
#X connect 2 0 6 0;
#X connect 3 0 6 0;
#X connect 4 0 6 0;
#X connect 5 0 6 0;
#X connect 7 0 6 0;
#X connect 8 0 6 0;
#X connect 9 0 6 0;
#X connect 10 0 6 0;
#X connect 11 0 6 0;
#X restore 217 79 pd patterns;
#X obj 217 33 inlet;
#X obj 152 373 *~;
#X obj 150 211 t b b b;
#X obj 150 302 del;
#X obj 176 286 * 0.01;
#X obj 169 353 lop~ 20;
#X obj 176 234 random 45;
#X obj 176 258 + 70;
#X obj 213 258 random 10;
#X obj 217 55 route pattern sample;
#X obj 275 103 s \$0-kickSample;
#X obj 601 284 r \$0-kickSample;
#X obj 602 308 sel 0 1 2 3 4 5 6 7;
#X obj 613 376 \$0;
#X obj 602 329 \$0;
#X msg 602 353 read -resize Kick-2.wav \$1-kickArray;
#X obj 639 467 \$0;
#X obj 628 420 \$0;
#X msg 613 400 read -resize Kick-3.wav \$1-kickArray;
#X msg 628 444 read -resize Kick-4.wav \$1-kickArray;
#X msg 639 491 read -resize Kick-5.wav \$1-kickArray;
#X obj 273 -107 r \$0-newRep;
#X msg 270 14 sample \$1;
#X obj 348 36 print kick;
#X obj 271 -54 < 1;
#X obj 271 -32 sel 1;
#X obj 271 -11 random 4;
#X obj 150 132 wrandom;
#X obj 271 -80 random 20;
#X obj 179 190 s \$0-kickHits;
#X obj 150 69 t f f;
#X obj 179 167 f;
#X connect 1 0 5 0;
#X connect 2 0 39 0;
#X connect 3 0 10 0;
#X connect 5 0 6 0;
#X connect 6 0 7 0;
#X connect 8 0 36 1;
#X connect 9 0 18 0;
#X connect 10 0 4 0;
#X connect 11 0 12 0;
#X connect 11 1 15 0;
#X connect 11 2 17 0;
#X connect 12 0 3 0;
#X connect 13 0 14 0;
#X connect 14 0 10 1;
#X connect 15 0 16 0;
#X connect 16 0 13 0;
#X connect 17 0 12 1;
#X connect 18 0 8 0;
#X connect 18 1 19 0;
#X connect 20 0 21 0;
#X connect 21 0 23 0;
#X connect 21 1 22 0;
#X connect 21 2 26 0;
#X connect 21 3 25 0;
#X connect 22 0 27 0;
#X connect 23 0 24 0;
#X connect 24 0 1 0;
#X connect 25 0 29 0;
#X connect 26 0 28 0;
#X connect 27 0 1 0;
#X connect 28 0 1 0;
#X connect 29 0 1 0;
#X connect 31 0 18 0;
#X connect 31 0 32 0;
#X connect 33 0 34 0;
#X connect 34 0 35 0;
#X connect 35 0 31 0;
#X connect 36 0 11 0;
#X connect 36 0 40 0;
#X connect 37 0 33 0;
#X connect 39 0 36 0;
#X connect 39 1 40 1;
#X connect 40 0 38 0;
#X restore 191 201 pd kick;
#X obj 191 19 r \$0-clock;
#X obj 176 453 throw~ outputR;
#X obj 220 479 throw~ outputL;
#N canvas 0 22 1440 806 sn 0;
#X obj 723 238 \$0;
#X obj 731 473 soundfiler;
#X obj 150 15 inlet;
#X obj 155 353 outlet~;
#X obj 6 13 table \$0-snareArray;
#X obj 731 502 t b;
#X obj 731 533 \$0;
#X msg 731 560 \; \$1-snareArray normalize 1;
#X obj 153 260 tabplay~ \$0-snareArray;
#N canvas 727 240 502 429 patterns 0;
#X obj 72 17 inlet;
#X obj 71 41 sel 0 1 2 3 4 5 6 7 8;
#X msg 151 185;
#X msg 169 208;
#X msg 186 239;
#X msg 200 261;
#X obj 114 327 outlet;
#X msg 72 70 0 5 5 5 95 15 5 15;
#X msg 103 118 0 5 5 5 95 15 5 15;
#X msg 86 93 0 5 5 5 95 50 5 50;
#X msg 119 141 0 5 5 95 95 5 5 15;
#X msg 134 162 0 1 95 95 1 1 10 20;
#X connect 0 0 1 0;
#X connect 1 0 7 0;
#X connect 1 1 9 0;
#X connect 1 2 8 0;
#X connect 1 3 10 0;
#X connect 1 4 11 0;
#X connect 1 5 2 0;
#X connect 1 6 3 0;
#X connect 1 7 4 0;
#X connect 1 8 5 0;
#X connect 2 0 6 0;
#X connect 3 0 6 0;
#X connect 4 0 6 0;
#X connect 5 0 6 0;
#X connect 7 0 6 0;
#X connect 8 0 6 0;
#X connect 9 0 6 0;
#X connect 10 0 6 0;
#X connect 11 0 6 0;
#X restore 220 61 pd patterns;
#X obj 220 15 inlet;
#X obj 154 304 *~;
#X obj 215 189 random 15;
#X obj 152 142 t b b b;
#X obj 152 233 del;
#X obj 178 217 * 0.01;
#X obj 171 284 lop~ 20;
#X obj 178 165 random 45;
#X msg 722 260 read -resize Snare-5.wav \$1-snareArray;
#X obj 178 189 + 60;
#X obj 220 37 route pattern sample;
#X obj 280 83 s \$0-snareSample;
#X obj 723 172 r \$0-snareSample;
#X obj 723 214 sel 0 1 2 3 4 5 6;
#X obj 738 282 \$0;
#X obj 750 325 \$0;
#X obj 765 369 \$0;
#X msg 737 304 read -resize Snare.wav \$1-snareArray;
#X msg 749 347 read -resize Clap-4.wav \$1-snareArray;
#X msg 764 391 read -resize Snare-2.wav \$1-snareArray;
#X obj 285 -159 r \$0-newRep;
#X msg 284 -6 sample \$1;
#X obj 361 19 print snare;
#X obj 284 -75 < 1;
#X obj 284 -53 sel 1;
#X obj 284 -32 random 4;
#X obj 153 114 wrandom;
#X obj 285 -100 random 20;
#X connect 0 0 18 0;
#X connect 1 0 5 0;
#X connect 2 0 36 0;
#X connect 5 0 6 0;
#X connect 6 0 7 0;
#X connect 8 0 11 0;
#X connect 9 0 36 1;
#X connect 10 0 20 0;
#X connect 11 0 3 0;
#X connect 12 0 14 1;
#X connect 13 0 14 0;
#X connect 13 1 17 0;
#X connect 13 2 12 0;
#X connect 14 0 8 0;
#X connect 15 0 16 0;
#X connect 16 0 11 1;
#X connect 17 0 19 0;
#X connect 18 0 1 0;
#X connect 19 0 15 0;
#X connect 20 0 9 0;
#X connect 20 1 21 0;
#X connect 22 0 23 0;
#X connect 23 0 0 0;
#X connect 23 1 24 0;
#X connect 23 2 25 0;
#X connect 23 3 26 0;
#X connect 24 0 27 0;
#X connect 25 0 28 0;
#X connect 26 0 29 0;
#X connect 27 0 1 0;
#X connect 28 0 1 0;
#X connect 29 0 1 0;
#X connect 31 0 20 0;
#X connect 31 0 32 0;
#X connect 33 0 34 0;
#X connect 34 0 35 0;
#X connect 35 0 31 0;
#X connect 36 0 13 0;
#X connect 37 0 33 0;
#X restore 261 202 pd sn;
#X obj 277 85 loadbang;
#X obj 192 95 spigot;
#X msg 277 46 1;
#X obj 278 24 loadbang;
#X obj 190 315 *~;
#X obj 262 315 *~;
#X obj 281 294 lop~ 1;
#X obj 207 292 lop~ 1;
#X msg 275 137 pattern \$1;
#X obj 191 118 t f f f f f;
#X obj 121 314 *~;
#X obj 140 293 lop~ 1;
#X obj 120 393 birdPan~;
#X obj 159 344 r \$0-newRep;
#X msg 158 370 randomize;
#N canvas 21 117 1440 806 perc 0;
#X obj 738 563 soundfiler;
#X obj 328 198 inlet;
#X obj 333 521 outlet~;
#X obj 738 592 t b;
#X obj 738 623 \$0;
#N canvas 29 45 502 429 patterns 0;
#X obj 72 17 inlet;
#X obj 71 41 sel 0 1 2 3 4 5 6 7 8;
#X msg 151 185;
#X msg 169 208;
#X msg 186 239;
#X msg 200 261;
#X obj 114 327 outlet;
#X msg 72 70 80 5 80 5 80 5 80 5;
#X msg 86 93 5 80 5 80 5 80 5 80;
#X msg 103 118 80 80 80 80 80 80 80 80;
#X msg 119 141 5 80 80 5 5 80 80 5;
#X msg 134 162 85 85 85 85;
#X connect 0 0 1 0;
#X connect 1 0 7 0;
#X connect 1 1 8 0;
#X connect 1 2 9 0;
#X connect 1 3 10 0;
#X connect 1 4 11 0;
#X connect 1 5 2 0;
#X connect 1 6 3 0;
#X connect 1 7 4 0;
#X connect 1 8 5 0;
#X connect 2 0 6 0;
#X connect 3 0 6 0;
#X connect 4 0 6 0;
#X connect 5 0 6 0;
#X connect 7 0 6 0;
#X connect 8 0 6 0;
#X connect 9 0 6 0;
#X connect 10 0 6 0;
#X connect 11 0 6 0;
#X restore 398 244 pd patterns;
#X obj 398 194 inlet;
#X obj 332 487 *~;
#X obj 393 372 random 15;
#X obj 330 325 t b b b;
#X obj 330 416 del;
#X obj 356 400 * 0.01;
#X obj 349 467 lop~ 20;
#X obj 356 348 random 45;
#X obj 356 372 + 55;
#X obj 23 13 table \$0-percArray;
#X msg 738 650 \; \$1-percArray normalize 1;
#X obj 331 443 tabplay~ \$0-percArray;
#X obj 398 220 route pattern sample;
#X obj 455 269 s \$0-percSample;
#X obj 735 321 r \$0-percSample;
#X obj 735 348 sel 0 1 2 3 4 5 6;
#X obj 735 372 \$0;
#X obj 748 415 \$0;
#X obj 763 458 \$0;
#X obj 776 501 \$0;
#X msg 735 394 read -resize Hat-6.aif \$1-percArray;
#X msg 748 438 read -resize Hat-7.aif \$1-percArray;
#X msg 763 480 read -resize Perc.wav \$1-percArray;
#X msg 776 524 read -resize Tamb.wav \$1-percArray;
#X obj 456 -12 r \$0-newRep;
#X msg 455 168 sample \$1;
#X obj 484 195 print perc;
#X obj 455 98 < 1;
#X obj 455 145 random 4;
#X obj 455 120 sel 1;
#X obj 331 297 wrandom;
#X obj 456 74 random 20;
#X connect 0 0 3 0;
#X connect 1 0 36 0;
#X connect 3 0 4 0;
#X connect 4 0 16 0;
#X connect 5 0 36 1;
#X connect 6 0 18 0;
#X connect 7 0 2 0;
#X connect 8 0 10 1;
#X connect 9 0 10 0;
#X connect 9 1 13 0;
#X connect 9 2 8 0;
#X connect 10 0 17 0;
#X connect 11 0 12 0;
#X connect 12 0 7 1;
#X connect 13 0 14 0;
#X connect 14 0 11 0;
#X connect 17 0 7 0;
#X connect 18 0 5 0;
#X connect 18 1 19 0;
#X connect 20 0 21 0;
#X connect 21 0 22 0;
#X connect 21 1 23 0;
#X connect 21 2 24 0;
#X connect 21 3 25 0;
#X connect 22 0 26 0;
#X connect 23 0 27 0;
#X connect 24 0 28 0;
#X connect 25 0 29 0;
#X connect 26 0 0 0;
#X connect 27 0 0 0;
#X connect 28 0 0 0;
#X connect 29 0 0 0;
#X connect 31 0 18 0;
#X connect 31 0 32 0;
#X connect 33 0 35 0;
#X connect 34 0 31 0;
#X connect 35 0 34 0;
#X connect 36 0 9 0;
#X connect 37 0 33 0;
#X restore 120 201 pd perc;
#X msg 291 166 sample \$1;
#X obj 351 -47 r \$0-newRep;
#X obj 614 181 r \$0-newRep;
#X msg 614 204 randomize;
#X obj 630 234 r \$0-detectedTempo;
#X msg 638 265 tempo \$1;
#X obj 35 79 r \$0-newRep;
#X msg 35 102 randomize;
#X obj 51 132 r \$0-detectedTempo;
#X msg 59 163 tempo \$1;
#X obj 350 -7 random 8;
#X obj 467 63 r onOff;
#X obj 467 86 sel 0;
#X obj 468 108 random 4;
#N canvas 501 222 450 300 toFuzz 0;
#X obj 75 -66 inlet~;
#X obj 76 197 throw~ toFuzz;
#X obj 76 167 *~;
#X obj 101 144 lop~ 1;
#X obj 155 -36 r \$0-newRep;
#X obj 154 -1 mod 4;
#X obj 154 21 sel 0;
#X obj 154 44 random 100;
#X obj 152 67 * 0.01;
#X obj 152 91 *;
#X obj 37 36 r onOff;
#X obj 37 63 sel 0;
#X msg 36 90 0;
#X connect 0 0 2 0;
#X connect 2 0 1 0;
#X connect 3 0 2 1;
#X connect 4 0 5 0;
#X connect 5 0 6 0;
#X connect 6 0 7 0;
#X connect 7 0 8 0;
#X connect 8 0 9 1;
#X connect 8 0 9 0;
#X connect 9 0 3 0;
#X connect 10 0 11 0;
#X connect 11 0 12 0;
#X connect 12 0 3 0;
#X restore 390 448 pd toFuzz;
#X obj 351 51 random 5;
#X msg 276 109 4;
#X obj 354 334 env~;
#X floatatom 357 362 5 0 0 0 - - -;
#X obj 351 26 sel 0;
#X msg 352 122 0;
#X obj 458 166 r drumsVolume;
#X obj 359 223 * 0.66;
#X obj 391 157 loadbang;
#X obj 271 268 mm_randFilter~;
#X msg 391 181 0.5;
#N canvas 303 301 450 300 clip 0;
#X obj 115 28 inlet;
#X obj 115 56 * 100;
#X obj 116 89 moses 10;
#X msg 114 121 0;
#X obj 115 190 outlet;
#X obj 115 162 * 0.02;
#X connect 0 0 1 0;
#X connect 1 0 2 0;
#X connect 2 0 3 0;
#X connect 2 1 5 0;
#X connect 3 0 5 0;
#X connect 5 0 4 0;
#X restore 461 192 pd clip;
#X obj 104 253 mm_randFilter~;
#X connect 0 0 9 0;
#X connect 1 0 6 0;
#X connect 4 0 45 0;
#X connect 5 0 37 0;
#X connect 5 0 41 0;
#X connect 6 0 14 0;
#X connect 7 0 6 1;
#X connect 8 0 7 0;
#X connect 9 0 2 0;
#X connect 9 0 3 0;
#X connect 9 0 35 0;
#X connect 10 0 2 0;
#X connect 10 0 3 0;
#X connect 10 0 35 0;
#X connect 10 0 38 0;
#X connect 11 0 10 1;
#X connect 12 0 9 1;
#X connect 13 0 4 1;
#X connect 13 0 0 1;
#X connect 13 0 20 1;
#X connect 14 1 20 0;
#X connect 14 2 0 0;
#X connect 14 3 4 0;
#X connect 15 0 17 0;
#X connect 15 0 35 0;
#X connect 16 0 15 1;
#X connect 17 0 2 0;
#X connect 17 1 3 0;
#X connect 18 0 19 0;
#X connect 19 0 17 1;
#X connect 20 0 48 0;
#X connect 21 0 4 1;
#X connect 21 0 0 1;
#X connect 21 0 20 1;
#X connect 22 0 31 0;
#X connect 23 0 24 0;
#X connect 24 0 45 1;
#X connect 25 0 26 0;
#X connect 26 0 45 1;
#X connect 27 0 28 0;
#X connect 28 0 48 1;
#X connect 29 0 30 0;
#X connect 30 0 48 1;
#X connect 31 0 40 0;
#X connect 32 0 33 0;
#X connect 33 0 34 0;
#X connect 34 0 21 0;
#X connect 36 0 13 0;
#X connect 37 0 13 0;
#X connect 38 0 39 0;
#X connect 40 0 36 0;
#X connect 41 0 21 0;
#X connect 42 0 47 0;
#X connect 43 0 11 0;
#X connect 43 0 12 0;
#X connect 43 0 16 0;
#X connect 44 0 46 0;
#X connect 45 0 10 0;
#X connect 46 0 43 0;
#X connect 47 0 43 0;
#X connect 48 0 15 0;
#X restore 745 35 pd drums;
#N canvas 691 207 517 533 record 0;
#X obj 71 -60 r record;
#X obj 72 69 list trim;
#X obj 72 43 list prepend open;
#X obj 73 293 writesf~ 2;
#X obj 96 198 r~ recordL;
#X obj 175 196 r~ recordR;
#X obj 73 95 t b a;
#X obj 71 12 route record stop;
#X obj 73 119 del 50;
#X msg 71 144 start;
#X msg 119 158 stop;
#X obj 70 -17 list trim;
#X obj 171 232 lop~ 1;
#X obj 96 255 *~;
#X obj 136 257 *~;
#X obj 118 103 t b b;
#X obj 117 136 del 100;
#X msg 164 157 0;
#X msg 195 157 1;
#X connect 0 0 11 0;
#X connect 1 0 6 0;
#X connect 2 0 1 0;
#X connect 4 0 13 0;
#X connect 5 0 14 0;
#X connect 6 0 8 0;
#X connect 6 0 18 0;
#X connect 6 1 3 0;
#X connect 7 0 2 0;
#X connect 7 1 15 0;
#X connect 8 0 9 0;
#X connect 9 0 3 0;
#X connect 10 0 3 0;
#X connect 11 0 7 0;
#X connect 12 0 14 1;
#X connect 12 0 13 1;
#X connect 13 0 3 0;
#X connect 14 0 3 1;
#X connect 15 0 16 0;
#X connect 15 1 17 0;
#X connect 16 0 10 0;
#X connect 17 0 12 0;
#X connect 18 0 12 0;
#X restore 778 65 pd record;
#N canvas 906 160 450 300 playback 0;
#X obj 47 -8 r playback;
#X obj 46 50 route play stop;
#X obj 46 81 list prepend open;
#X obj 46 103 list trim;
#X obj 46 132 t b a;
#X obj 47 215 readsf~ 2;
#X obj 46 154 del 1000;
#X obj 71 255 s~ playbackL;
#X obj 45 279 s~ playbackR;
#X msg 45 178 start;
#X msg 88 179 stop;
#X obj 173 96 s playbackVolume;
#X msg 188 48 1;
#X msg 154 48 0;
#X obj 46 23 list trim;
#X obj 134 229 s playbackFinished;
#X connect 0 0 14 0;
#X connect 1 0 2 0;
#X connect 1 0 12 0;
#X connect 1 1 10 0;
#X connect 1 1 13 0;
#X connect 2 0 3 0;
#X connect 3 0 4 0;
#X connect 4 0 6 0;
#X connect 4 1 5 0;
#X connect 5 0 8 0;
#X connect 5 1 7 0;
#X connect 5 2 15 0;
#X connect 6 0 9 0;
#X connect 9 0 5 0;
#X connect 10 0 5 0;
#X connect 12 0 11 0;
#X connect 13 0 11 0;
#X connect 14 0 1 0;
#X restore 841 65 pd playback;
#N canvas 484 163 663 430 out 0;
#X obj 132 245 dac~;
#X obj 56 49 r~ toDacL;
#X obj 37 26 r~ toDacR;
#X obj 193 89 r~ playbackR;
#X obj 214 116 r~ playbackL;
#X obj 45 155 *~;
#X obj 86 177 *~;
#X obj 188 165 *~;
#X obj 200 191 *~;
#X obj 241 145 r playbackVolume;
#X obj 241 175 lop~ 1;
#X obj 79 78 r playbackVolume;
#X obj 79 150 lop~ 1;
#X obj 79 100 swap 1;
#X obj 82 122 -;
#X obj 194 -39 loadbang;
#X obj 195 36 s playbackVolume;
#X msg 195 -8 0;
#X connect 1 0 6 0;
#X connect 2 0 5 0;
#X connect 3 0 7 0;
#X connect 4 0 8 0;
#X connect 5 0 0 0;
#X connect 6 0 0 1;
#X connect 7 0 0 0;
#X connect 8 0 0 1;
#X connect 9 0 10 0;
#X connect 10 0 8 1;
#X connect 10 0 7 1;
#X connect 11 0 13 0;
#X connect 12 0 6 1;
#X connect 12 0 5 1;
#X connect 13 0 14 0;
#X connect 13 1 14 1;
#X connect 14 0 12 0;
#X connect 15 0 17 0;
#X connect 17 0 16 0;
#X restore 829 119 pd out;
#N canvas 805 219 450 300 taptempo 0;
#X obj 185 -34 r tapTempo;
#X obj 162 150 er_contAvg;
#X obj 185 16 timer;
#X obj 185 -8 t b b;
#X obj 211 58 > 1500;
#X obj 184 37 t f f;
#X obj 211 81 t f f;
#X obj 238 108 sel 1;
#X obj 162 129 spigot;
#N canvas 695 279 450 300 inv 0;
#X obj 98 49 inlet;
#X obj 100 88 swap 1;
#X obj 102 115 -;
#X obj 97 145 outlet;
#X connect 0 0 1 0;
#X connect 1 0 2 0;
#X connect 1 1 2 1;
#X connect 2 0 3 0;
#X restore 196 108 pd inv;
#X obj 162 176 swap 60000;
#X obj 181 200 /;
#X obj 183 228 int;
#X obj 209 251 s \$0-detectedTempo;
#X obj 100 -1 bng 15 250 50 0 empty empty empty 17 7 0 10 -262144 -1
-1;
#X obj 181 278 s detectedTempo;
#X connect 0 0 3 0;
#X connect 1 0 10 0;
#X connect 2 0 5 0;
#X connect 3 0 2 0;
#X connect 3 1 2 1;
#X connect 4 0 6 0;
#X connect 5 0 8 0;
#X connect 5 1 4 0;
#X connect 6 0 9 0;
#X connect 6 1 7 0;
#X connect 7 0 1 1;
#X connect 8 0 1 0;
#X connect 9 0 8 1;
#X connect 10 0 11 0;
#X connect 10 1 11 1;
#X connect 11 0 12 0;
#X connect 12 0 13 0;
#X connect 12 0 15 0;
#X connect 14 0 3 0;
#X restore 859 -15 pd taptempo;
#N canvas 566 46 717 489 scope 0;
#X obj 59 2 r~ input;
#X obj 58 260 tabwrite~ scopeArray;
#X obj 77 212 r updateScope;
#X obj 59 181 clip~ -1 1;
#X obj 191 37 r~ playbackL;
#X obj 158 69 r~ playbackR;
#X obj 90 141 *~;
#X obj 57 110 *~;
#N canvas 815 249 450 300 inv 0;
#X obj 80 49 inlet;
#X obj 83 94 swap 1;
#X obj 82 133 -;
#X obj 82 175 outlet;
#X connect 0 0 1 0;
#X connect 1 0 2 0;
#X connect 1 1 2 1;
#X connect 2 0 3 0;
#X restore 77 77 pd inv;
#X obj 78 33 r playbackVolume;
#X obj 3 64 loadbang;
#X msg 4 91 1;
#X obj 178 100 r~ toDacL;
#X obj 194 134 r~ toDacR;
#X obj 159 157 *~ 0.6666;
#X obj 325 30 table scopeArray 4096;
#X connect 0 0 7 0;
#X connect 2 0 1 0;
#X connect 3 0 1 0;
#X connect 4 0 6 0;
#X connect 5 0 6 0;
#X connect 6 0 3 0;
#X connect 7 0 3 0;
#X connect 8 0 7 1;
#X connect 9 0 6 1;
#X connect 9 0 8 0;
#X connect 10 0 11 0;
#X connect 11 0 7 1;
#X connect 12 0 14 0;
#X connect 13 0 14 0;
#X connect 14 0 3 0;
#X restore 834 -61 pd scope;
#N canvas 317 202 775 413 fx 0;
#X obj 242 -61 catch~ outputR;
#X obj 351 -59 catch~ outputL;
#X obj 332 191 e_mcompressor;
#X obj 241 190 e_mcompressor;
#X obj 432 136 loadbang;
#X msg 431 160 switch 1 \, threshold 80 \, ratio 3;
#X obj 358 223 s~ recordL;
#X obj 249 221 s~ recordR;
#X obj 339 247 s~ toDacL;
#X obj 242 250 s~ toDacR;
#X obj 242 138 mm_stereoChorus;
#X obj 353 44 r \$0-detectedTempo;
#X msg 353 71 tempo \$1;
#X obj 439 53 r \$0-newRep;
#X msg 429 90 randomize;
#X obj 29 -17 catch~ toFuzz;
#N canvas 420 196 721 606 fuzz 0;
#X obj 63 -146 inlet~;
#X obj 64 147 expr~ atan($v1);
#X obj 64 115 *~;
#X obj 184 -146 t f f b;
#X obj 125 86 vline~;
#X msg 127 62 \$2 \, \$1 \$3;
#X obj 229 -86 r \$0-detectedTempo;
#X obj 230 -58 swap 60000;
#X obj 249 -32 /;
#X obj 248 -8 * 4;
#X obj 185 24 pack f f f;
#X obj 207 -107 f 10;
#X obj 184 -170 random 100;
#X obj 184 -271 r \$0-newRep;
#X obj 62 232 birdPan~;
#X obj 222 166 r \$0-clock;
#X obj 319 136 random 7;
#X obj 319 159 + 2;
#X obj 221 194 mod 4;
#X obj 219 217 sel 0;
#X obj 317 76 r \$0-newRep;
#X msg 218 241 randomize;
#X obj 106 265 throw~ outputL;
#X obj 66 300 throw~ outputR;
#X obj 65 187 *~ 0.1;
#X connect 0 0 2 0;
#X connect 1 0 24 0;
#X connect 2 0 1 0;
#X connect 3 0 10 0;
#X connect 3 1 11 1;
#X connect 3 2 11 0;
#X connect 4 0 2 1;
#X connect 5 0 4 0;
#X connect 6 0 7 0;
#X connect 7 0 8 0;
#X connect 7 1 8 1;
#X connect 8 0 9 0;
#X connect 9 0 10 2;
#X connect 10 0 5 0;
#X connect 11 0 10 1;
#X connect 12 0 3 0;
#X connect 13 0 12 0;
#X connect 14 0 23 0;
#X connect 14 1 22 0;
#X connect 15 0 18 0;
#X connect 16 0 17 0;
#X connect 17 0 18 1;
#X connect 18 0 19 0;
#X connect 19 0 21 0;
#X connect 20 0 16 0;
#X connect 21 0 14 1;
#X connect 24 0 14 0;
#X restore 29 19 pd fuzz;
#X connect 0 0 10 0;
#X connect 1 0 10 1;
#X connect 2 0 6 0;
#X connect 2 0 8 0;
#X connect 3 0 7 0;
#X connect 3 0 9 0;
#X connect 4 0 5 0;
#X connect 5 0 2 1;
#X connect 5 0 3 1;
#X connect 10 0 3 0;
#X connect 10 1 2 0;
#X connect 11 0 12 0;
#X connect 12 0 10 2;
#X connect 13 0 14 0;
#X connect 14 0 10 2;
#X connect 15 0 16 0;
#X restore 833 97 pd fx;
#N canvas 357 89 884 502 sample 0;
#X obj 516 442 mm_sampler2~;
#X obj 557 663 throw~ outputR;
#X obj 512 638 throw~ outputL;
#X msg 502 375 play;
#X obj 464 164 r \$0-clock;
#X obj 613 386 r \$0-detectedTempo;
#X msg 613 408 tempo \$1;
#X obj 514 557 mm_monoSyncDelay;
#X obj 514 612 birdPan~;
#X obj 661 444 r \$0-newRep;
#X msg 661 481 randomize;
#X obj 626 512 r \$0-clock;
#X obj 723 482 random 7;
#X obj 723 505 + 2;
#X obj 625 540 mod 4;
#X obj 623 563 sel 0;
#X msg 620 587 randomize;
#X obj 587 463 bng 15 250 50 0 empty empty empty 17 7 0 10 -262144
-1 -1;
#X obj 677 187 r \$0-newRep;
#X obj 677 224 random 4;
#X obj 584 344 r \$0-toSampler;
#N canvas 542 102 808 564 samples 0;
#X obj 726 49 random 4;
#X obj 728 455 s \$0-toSampler;
#X msg 742 190 beats 2 \, sample gospel1.aif;
#X msg 726 211 beats 4 \, sample eastern.wav;
#X obj 725 153 sel 0 1 2 3 4 5 6 7 8 9 10 11 12 13 14;
#X obj 163 50 random 4;
#X obj 162 148 sel 0 1 2 3 4 5 6 7 8 9 10 11 12 13 14;
#X obj 574 -73 inlet;
#X obj 569 -36 sel 0 1 2;
#X msg 179 185 beats 4 \, sample rasta8.wav;
#X msg 227 269 beats 2 \, sample rasta9.aif;
#X msg 211 290 beats 4 \, sample rasta10.wav;
#X msg 248 312 beats 4 \, sample rasta11.aif;
#X msg 232 333 beats 2 \, sample rasta13.aif;
#X msg 163 206 beats 2 \, sample rasta14.aif;
#X msg 200 228 beats 2 \, sample rasta4.aif;
#X msg 184 249 beats 4 \, sample rasta16.wav;
#X msg 224 357 beats 6 \, sample rasta21.aif;
#X msg 208 378 beats 2 \, sample rasta18.aif;
#X msg 205 399 beats 2 \, sample rasta19.aif;
#X msg 199 425 beats 1 \, sample rasta20.aif;
#X obj 161 122 random 12;
#X obj 348 56 loadbang;
#X msg 347 79 0;
#X obj 132 457 s \$0-toSampler;
#X obj 161 98 sel 0;
#X msg 750 233 beats 8 \, sample rap1.wav;
#X msg 763 256 beats 8 \, sample rap2.wav;
#X msg 771 285 beats 8 \, sample other1.aif;
#X msg 783 309 beats 2 \, sample african1.wav;
#X msg 793 334 beats 4 \, sample african2.wav;
#X msg 802 357 beats 2 \, sample african3.wav;
#X msg 812 381 beats 4 \, sample african4.wav;
#X msg 827 403 beats 2 \, sample african5.wav;
#X obj 724 127 random 10;
#X obj 724 103 sel 0;
#X connect 0 0 35 0;
#X connect 2 0 1 0;
#X connect 3 0 1 0;
#X connect 4 0 3 0;
#X connect 4 1 2 0;
#X connect 4 2 26 0;
#X connect 4 3 27 0;
#X connect 4 4 28 0;
#X connect 4 5 29 0;
#X connect 4 6 30 0;
#X connect 4 7 31 0;
#X connect 4 8 32 0;
#X connect 4 9 33 0;
#X connect 5 0 25 0;
#X connect 6 0 14 0;
#X connect 6 1 9 0;
#X connect 6 2 16 0;
#X connect 6 3 15 0;
#X connect 6 4 11 0;
#X connect 6 5 10 0;
#X connect 6 6 13 0;
#X connect 6 7 12 0;
#X connect 6 8 17 0;
#X connect 6 9 18 0;
#X connect 6 10 19 0;
#X connect 6 11 20 0;
#X connect 7 0 8 0;
#X connect 8 0 5 0;
#X connect 8 1 0 0;
#X connect 9 0 24 0;
#X connect 10 0 24 0;
#X connect 11 0 24 0;
#X connect 12 0 24 0;
#X connect 13 0 24 0;
#X connect 14 0 24 0;
#X connect 15 0 24 0;
#X connect 16 0 24 0;
#X connect 17 0 24 0;
#X connect 18 0 24 0;
#X connect 19 0 24 0;
#X connect 20 0 24 0;
#X connect 21 0 6 0;
#X connect 22 0 23 0;
#X connect 23 0 6 0;
#X connect 25 0 21 0;
#X connect 26 0 1 0;
#X connect 27 0 1 0;
#X connect 28 0 1 0;
#X connect 29 0 1 0;
#X connect 30 0 1 0;
#X connect 31 0 1 0;
#X connect 32 0 1 0;
#X connect 33 0 1 0;
#X connect 34 0 4 0;
#X connect 35 0 34 0;
#X restore 678 303 pd samples;
#X obj 500 345 wrandom;
#X msg 544 254 10 1 1 1;
#X obj 611 122 r \$0-newRep;
#X obj 544 201 t b b;
#X obj 594 228 random 4;
#X obj 546 285 list-rot;
#X obj 543 126 loadbang;
#X obj 677 248 sel 0;
#X obj 678 277 random 2;
#N canvas 501 222 450 300 toFuzz 0;
#X obj 75 -66 inlet~;
#X obj 76 197 throw~ toFuzz;
#X obj 76 167 *~;
#X obj 101 144 lop~ 1;
#X obj 155 -36 r \$0-newRep;
#X obj 154 -1 mod 4;
#X obj 154 21 sel 0;
#X obj 154 44 random 100;
#X obj 152 67 * 0.01;
#X obj 152 91 *;
#X obj 37 36 r onOff;
#X obj 37 63 sel 0;
#X msg 36 90 0;
#X connect 0 0 2 0;
#X connect 2 0 1 0;
#X connect 3 0 2 1;
#X connect 4 0 5 0;
#X connect 5 0 6 0;
#X connect 6 0 7 0;
#X connect 7 0 8 0;
#X connect 8 0 9 1;
#X connect 8 0 9 0;
#X connect 9 0 3 0;
#X connect 10 0 11 0;
#X connect 11 0 12 0;
#X connect 12 0 3 0;
#X restore 424 577 pd toFuzz;
#X obj 516 465 *~ 0.5;
#X obj 313 279 r samplerVolume;
#X obj 512 506 *~;
#X obj 333 461 lop~ 1;
#X obj 334 392 loadbang;
#X msg 336 412 0.5;
#N canvas 303 301 450 300 clip 0;
#X obj 115 28 inlet;
#X obj 115 56 * 100;
#X obj 116 89 moses 10;
#X msg 114 121 0;
#X obj 115 190 outlet;
#X obj 115 162 * 0.02;
#X connect 0 0 1 0;
#X connect 1 0 2 0;
#X connect 2 0 3 0;
#X connect 2 1 5 0;
#X connect 3 0 5 0;
#X connect 5 0 4 0;
#X restore 324 337 pd clip;
#X obj 77 132 switch~;
#X obj 74 72 loadbang;
#X msg 82 108 0;
#X obj 513 534 mm_randFilter~;
#X connect 0 0 32 0;
#X connect 0 1 17 0;
#X connect 5 0 6 0;
#X connect 6 0 0 1;
#X connect 6 0 7 1;
#X connect 6 0 42 1;
#X connect 7 0 8 0;
#X connect 8 0 2 0;
#X connect 8 1 1 0;
#X connect 9 0 10 0;
#X connect 9 0 12 0;
#X connect 10 0 7 1;
#X connect 10 0 42 1;
#X connect 11 0 14 0;
#X connect 12 0 13 0;
#X connect 13 0 14 1;
#X connect 14 0 15 0;
#X connect 15 0 16 0;
#X connect 16 0 8 1;
#X connect 19 0 29 0;
#X connect 22 0 3 0;
#X connect 23 0 27 0;
#X connect 25 0 23 0;
#X connect 25 1 26 0;
#X connect 26 0 27 1;
#X connect 27 0 22 1;
#X connect 28 0 25 0;
#X connect 29 0 30 0;
#X connect 30 0 21 0;
#X connect 32 0 34 0;
#X connect 33 0 38 0;
#X connect 34 0 42 0;
#X connect 35 0 34 1;
#X connect 36 0 37 0;
#X connect 37 0 35 0;
#X connect 38 0 35 0;
#X connect 40 0 41 0;
#X connect 41 0 39 0;
#X connect 42 0 7 0;
#X connect 42 0 31 0;
#X restore 879 38 pd sample player;
#N canvas 398 22 1440 755 bass 0;
#X obj 524 572 throw~ outputL;
#X obj 556 599 throw~ outputR;
#X obj 519 181 t f b;
#N canvas 0 22 1440 806 wobble 0;
#X obj 98 61 inlet~;
#X obj 126 697 outlet~;
#N canvas 0 22 1440 748 low 0;
#X obj 798 504 outlet~;
#X obj 821 343 clip~ 0 1;
#X obj 1169 -167 inlet;
#X obj 899 -192 inlet;
#X obj 816 -198 inlet;
#X text 793 -220 beat division;
#X text 899 -214 tempo;
#X text 1165 -189 exponent;
#N canvas 77 37 1320 734 div 0;
#X obj 487 39 inlet;
#X obj 488 68 / 60;
#X obj 400 283 *;
#X obj 400 234 f;
#X obj 488 150 t b f;
#X obj 402 339 outlet;
#N canvas 199 22 1220 795 sel 0;
#X obj 385 -22 inlet;
#X msg 674 521;
#X msg 688 550;
#X msg 702 580;
#X msg 387 59 0.03125;
#X msg 403 87 0.0416666;
#X msg 421 113 0.0625;
#X msg 438 140 0.083333;
#X msg 456 165 0.09375;
#X msg 476 191 0.125;
#X msg 491 220 0.16666;
#X msg 505 249 0.1875;
#X msg 519 279 0.25;
#X msg 532 304 0.3333;
#X msg 549 333 0.375;
#X msg 570 360 0.5;
#X msg 586 388 0.66666;
#X msg 604 414 0.75;
#X msg 621 441 1;
#X msg 633 468 2;
#X obj 446 652 * 4;
#X obj 446 676 swap 1;
#X obj 446 698 /;
#X obj 447 725 outlet;
#X obj 387 28 select 0 1 2 3 4 5 6 7 8 9 10 11 12 13 14 15 16 17 18
19 -1;
#X msg 659 492;
#X msg 715 605 0;
#X connect 0 0 24 0;
#X connect 1 0 20 0;
#X connect 2 0 20 0;
#X connect 3 0 20 0;
#X connect 4 0 20 0;
#X connect 5 0 20 0;
#X connect 6 0 20 0;
#X connect 7 0 20 0;
#X connect 8 0 20 0;
#X connect 9 0 20 0;
#X connect 10 0 20 0;
#X connect 11 0 20 0;
#X connect 12 0 20 0;
#X connect 13 0 20 0;
#X connect 14 0 20 0;
#X connect 15 0 20 0;
#X connect 16 0 20 0;
#X connect 17 0 20 0;
#X connect 18 0 20 0;
#X connect 19 0 20 0;
#X connect 20 0 21 0;
#X connect 21 0 22 0;
#X connect 21 1 22 1;
#X connect 22 0 23 0;
#X connect 24 0 4 0;
#X connect 24 1 5 0;
#X connect 24 2 6 0;
#X connect 24 3 7 0;
#X connect 24 4 8 0;
#X connect 24 5 9 0;
#X connect 24 6 10 0;
#X connect 24 7 11 0;
#X connect 24 8 12 0;
#X connect 24 9 13 0;
#X connect 24 10 14 0;
#X connect 24 11 15 0;
#X connect 24 12 16 0;
#X connect 24 13 17 0;
#X connect 24 14 18 0;
#X connect 24 15 19 0;
#X connect 24 16 25 0;
#X connect 24 17 1 0;
#X connect 24 18 2 0;
#X connect 24 19 3 0;
#X connect 24 20 26 0;
#X connect 26 0 20 0;
#X restore 399 199 pd sel;
#X obj 523 185 s tempoHZ;
#X obj 398 36 inlet;
#X connect 0 0 1 0;
#X connect 1 0 4 0;
#X connect 2 0 5 0;
#X connect 3 0 2 0;
#X connect 4 0 3 0;
#X connect 4 1 2 1;
#X connect 4 1 7 0;
#X connect 6 0 3 1;
#X connect 6 0 3 0;
#X connect 8 0 6 0;
#X restore 816 -96 pd div;
#X obj 911 -8 inlet;
#X obj 816 -70 change;
#X text 912 -38 phase;
#X obj 1169 -133 s \$0-exp;
#X obj 911 -150 loadbang;
#X msg 911 -120 120;
#X obj 512 -37 table sineTable;
#X obj 820 25 pack f 0.5;
#X obj 818 59 unpack f f;
#X obj 820 85 osc~;
#X obj 818 186 expr~ pow($v1 \, $f2);
#X obj 934 93 r \$0-exp;
#X obj 819 120 +~ 1;
#X obj 819 144 *~ 0.5;
#X obj 819 309 *~;
#X obj 838 261 sig~;
#X obj 838 284 lop~ 1;
#X obj 840 213 * 10;
#N canvas 0 22 770 507 switch 0;
#X obj 195 51 inlet~;
#X obj 353 50 inlet~;
#X obj 462 56 inlet;
#X obj 190 268 *~;
#X obj 346 265 *~;
#X obj 209 224 sig~;
#X obj 363 203 sig~;
#X obj 363 226 lop~ 1;
#X obj 207 247 lop~ 1;
#X obj 271 351 outlet~;
#X obj 211 178 swap 1;
#X obj 212 199 -;
#X connect 0 0 3 0;
#X connect 1 0 4 0;
#X connect 2 0 6 0;
#X connect 2 0 10 0;
#X connect 3 0 9 0;
#X connect 4 0 9 0;
#X connect 5 0 8 0;
#X connect 6 0 7 0;
#X connect 7 0 4 1;
#X connect 8 0 3 1;
#X connect 10 0 11 0;
#X connect 10 1 11 1;
#X connect 11 0 5 0;
#X restore 795 461 pd switch;
#X obj 845 439 != -1;
#X obj 747 335 sig~ 1;
#X obj 930 121 * 10;
#X obj 839 237 + 0.25;
#X obj 931 143 + 0.1;
#X obj 845 414 r \$0-speed;
#X connect 1 0 27 1;
#X connect 2 0 12 0;
#X connect 3 0 8 1;
#X connect 4 0 8 0;
#X connect 8 0 10 0;
#X connect 9 0 16 1;
#X connect 10 0 16 0;
#X connect 13 0 14 0;
#X connect 14 0 8 1;
#X connect 16 0 17 0;
#X connect 17 0 18 0;
#X connect 17 1 18 1;
#X connect 18 0 21 0;
#X connect 19 0 23 0;
#X connect 20 0 26 0;
#X connect 20 0 30 0;
#X connect 21 0 22 0;
#X connect 22 0 19 0;
#X connect 23 0 1 0;
#X connect 24 0 25 0;
#X connect 25 0 23 1;
#X connect 26 0 31 0;
#X connect 27 0 0 0;
#X connect 28 0 27 2;
#X connect 29 0 27 0;
#X connect 30 0 32 0;
#X connect 31 0 24 0;
#X connect 32 0 19 1;
#X connect 33 0 28 0;
#X restore 496 324 pd low frequency oscillator;
#N canvas 0 22 820 613 amp 0;
#X obj 294 125 inlet~;
#X obj 287 439 outlet~;
#X obj 290 231 *~;
#X obj 289 292 *~ 1.5;
#X obj 335 179 r~ \$0-theLFO;
#X connect 0 0 2 0;
#X connect 2 0 3 0;
#X connect 3 0 1 0;
#X connect 4 0 2 1;
#X restore 45 218 pd amp mod;
#N canvas 116 29 1097 772 freq 0;
#X obj -53 -32 inlet~;
#X obj 6 539 outlet~;
#X obj 141 121 sig~;
#X obj 115 226 sig~;
#X obj 85 249 +~ 20;
#X obj 92 148 *~ 1750;
#X obj 10 320 vcf~ 10;
#X obj 10 343 *~ 8;
#X obj 141 95 r \$0-maxFreq;
#X obj 122 195 r \$0-minFreq;
#X obj 77 289 r \$0-Q;
#X obj 96 -4 r~ \$0-theLFO;
#X connect 0 0 6 0;
#X connect 2 0 5 1;
#X connect 3 0 4 1;
#X connect 4 0 6 1;
#X connect 5 0 4 0;
#X connect 6 0 7 0;
#X connect 7 0 1 0;
#X connect 8 0 2 0;
#X connect 9 0 3 0;
#X connect 10 0 6 2;
#X connect 11 0 5 0;
#X restore 161 217 pd freq mod;
#X obj 124 600 *~;
#X obj 312 355 select 0 1;
#X obj 344 408 t b b;
#X msg 376 440 1;
#X obj 330 535 switch~;
#X msg 338 440 1;
#X obj 284 404 t b b;
#X msg 314 470 0;
#X msg 279 470 0;
#X obj 266 445 del 30;
#X obj 224 329 loadbang;
#X obj 126 668 hip~ 4;
#X obj 493 224 loadbang;
#X msg 492 250 0.5;
#X obj 187 568 vline~;
#X msg 196 537 \$1 20;
#N canvas 680 91 450 300 2xfade 0;
#X obj 40 -47 inlet~;
#X obj 184 -53 inlet~;
#X obj 308 -57 inlet;
#X obj 47 245 outlet~;
#X obj 185 240 outlet~;
#X obj 46 136 *~;
#X obj 187 137 *~;
#X obj 65 86 sig~;
#X obj 65 109 lop~ 1;
#X obj 206 88 sig~;
#X obj 206 111 lop~ 1;
#N canvas 223 149 450 300 xfade 0;
#X obj 276 53 inlet;
#X obj 275 141 + 1;
#X obj 274 162 * 0.5;
#X obj 275 120 cos;
#X obj 219 216 outlet;
#X obj 285 186 swap 1;
#X obj 293 207 -;
#X obj 292 231 outlet;
#X obj 330 35 loadbang;
#X obj 276 96 * 3.14;
#X msg 328 58 0.5;
#X connect 0 0 9 0;
#X connect 1 0 2 0;
#X connect 2 0 4 0;
#X connect 2 0 5 0;
#X connect 3 0 1 0;
#X connect 5 0 6 0;
#X connect 5 1 6 1;
#X connect 6 0 7 0;
#X connect 8 0 10 0;
#X connect 9 0 3 0;
#X connect 10 0 9 0;
#X restore 127 21 pd xfade;
#X connect 0 0 5 0;
#X connect 1 0 6 0;
#X connect 2 0 11 0;
#X connect 5 0 3 0;
#X connect 6 0 4 0;
#X connect 7 0 8 0;
#X connect 8 0 5 1;
#X connect 9 0 10 0;
#X connect 10 0 6 1;
#X connect 11 0 7 0;
#X connect 11 1 9 0;
#X restore 121 427 pd 2xfade;
#X msg 226 353 0.5;
#X obj 126 641 clip~ -1 1;
#X obj 520 383 expr~ 1-$v1;
#N canvas 0 22 770 507 switch 0;
#X obj 195 51 inlet~;
#X obj 353 50 inlet~;
#X obj 462 56 inlet;
#X obj 190 268 *~;
#X obj 346 265 *~;
#X obj 209 224 sig~;
#X obj 363 221 sig~;
#X obj 363 244 lop~ 1;
#X obj 207 247 lop~ 1;
#X obj 271 351 outlet~;
#X obj 211 178 swap 1;
#X obj 212 199 -;
#X connect 0 0 3 0;
#X connect 1 0 4 0;
#X connect 2 0 6 0;
#X connect 2 0 10 0;
#X connect 3 0 9 0;
#X connect 4 0 9 0;
#X connect 5 0 8 0;
#X connect 6 0 7 0;
#X connect 7 0 4 1;
#X connect 8 0 3 1;
#X connect 10 0 11 0;
#X connect 10 1 11 1;
#X connect 11 0 5 0;
#X restore 478 485 pd switch;
#X obj 608 448 loadbang;
#X msg 595 476 0;
#X obj 578 120 r \$0-tempo;
#X obj 526 84 r \$0-speed;
#X obj 619 219 r \$0-phase;
#X obj 661 270 r \$0-depth;
#X obj 541 421 r \$0-invert;
#X obj 312 311 r \$0-switch;
#X obj 272 202 r \$0-mix;
#X obj 478 513 s~ \$0-theLFO;
#X obj 941 183 route speed tempo phase depth invert mix randomize switch
;
#X obj 940 129 inlet;
#X obj 941 209 s \$0-speed;
#X obj 989 241 s \$0-tempo;
#X obj 1019 271 s \$0-phase;
#X obj 1055 303 s \$0-depth;
#X obj 1103 338 s \$0-invert;
#X obj 1137 366 s \$0-mix;
#X obj 1164 397 s \$0-randomize;
#X obj 1198 430 s \$0-switch;
#X obj 1100 -94 r \$0-randomize;
#X obj 1103 -67 t b b b b b b;
#X msg 994 42 speed \$1;
#X obj 1065 -2 random 100;
#X obj 1066 21 * 0.01;
#X msg 1065 43 depth \$1;
#X obj 1135 -2 random 100;
#X obj 1136 21 * 0.01;
#X msg 1135 43 mix \$1;
#X obj 272 254 pack f f;
#X obj 343 166 r \$0-tempo;
#X obj 343 192 swap 60000;
#X obj 342 214 /;
#X obj 340 241 * 4;
#X obj 271 277 line;
#X obj 1212 -4 random 2;
#X msg 1211 30 invert \$1;
#X obj 1284 -4 random 3;
#X msg 1285 42 phase \$1;
#X obj 1284 18 / 2;
#X msg 1196 147 switch 1 \, tempo 120 \, randomize;
#X obj 1193 103 loadbang;
#X obj 994 2 random 17;
#X connect 0 0 4 0;
#X connect 0 0 3 0;
#X connect 2 0 24 0;
#X connect 2 0 25 0;
#X connect 3 0 21 0;
#X connect 4 0 21 1;
#X connect 5 0 23 0;
#X connect 6 0 11 0;
#X connect 6 1 7 0;
#X connect 7 0 10 0;
#X connect 7 1 8 0;
#X connect 8 0 9 0;
#X connect 10 0 20 0;
#X connect 11 0 14 0;
#X connect 11 1 12 0;
#X connect 12 0 20 0;
#X connect 13 0 9 0;
#X connect 14 0 13 0;
#X connect 15 0 22 0;
#X connect 16 0 1 0;
#X connect 17 0 18 0;
#X connect 18 0 2 0;
#X connect 19 0 5 1;
#X connect 20 0 19 0;
#X connect 21 0 5 0;
#X connect 21 1 5 0;
#X connect 22 0 21 2;
#X connect 23 0 16 0;
#X connect 24 0 25 1;
#X connect 25 0 35 0;
#X connect 26 0 27 0;
#X connect 27 0 25 2;
#X connect 28 0 2 1;
#X connect 29 0 2 0;
#X connect 30 0 2 2;
#X connect 31 0 2 3;
#X connect 32 0 25 2;
#X connect 33 0 6 0;
#X connect 34 0 55 0;
#X connect 36 0 38 0;
#X connect 36 1 39 0;
#X connect 36 2 40 0;
#X connect 36 3 41 0;
#X connect 36 4 42 0;
#X connect 36 5 43 0;
#X connect 36 6 44 0;
#X connect 36 7 45 0;
#X connect 37 0 36 0;
#X connect 46 0 47 0;
#X connect 47 1 68 0;
#X connect 47 2 49 0;
#X connect 47 3 52 0;
#X connect 47 4 61 0;
#X connect 47 5 63 0;
#X connect 48 0 36 0;
#X connect 49 0 50 0;
#X connect 50 0 51 0;
#X connect 51 0 36 0;
#X connect 52 0 53 0;
#X connect 53 0 54 0;
#X connect 54 0 36 0;
#X connect 55 0 60 0;
#X connect 56 0 57 0;
#X connect 57 0 58 0;
#X connect 57 1 58 1;
#X connect 58 0 59 0;
#X connect 59 0 55 1;
#X connect 60 0 21 2;
#X connect 61 0 62 0;
#X connect 62 0 36 0;
#X connect 63 0 65 0;
#X connect 64 0 36 0;
#X connect 65 0 64 0;
#X connect 66 0 36 0;
#X connect 67 0 66 0;
#X connect 68 0 48 0;
#X restore 516 327 pd wobble;
#X obj 571 274 r \$0-detectedTempo;
#X msg 571 298 tempo \$1;
#X obj 736 129 r \$0-clock;
#X msg 738 233 randomize;
#X obj 564 152 r onOff;
#X obj 565 186 sel 0;
#X obj 518 205 spigot;
#X msg 565 210 0;
#X obj 919 -122 +;
#X obj 519 400 *~;
#X obj 557 363 lop~ 1;
#N canvas 710 242 450 300 toFuzz 0;
#X obj 75 -66 inlet~;
#X obj 76 197 throw~ toFuzz;
#X obj 76 167 *~;
#X obj 101 144 lop~ 1;
#X obj 155 -36 r \$0-newRep;
#X obj 154 -1 mod 4;
#X obj 154 21 sel 0;
#X obj 154 44 random 100;
#X obj 152 67 * 0.01;
#X obj 152 91 *;
#X obj 37 36 r onOff;
#X obj 37 63 sel 0;
#X msg 36 90 0;
#X connect 0 0 2 0;
#X connect 2 0 1 0;
#X connect 3 0 2 1;
#X connect 4 0 5 0;
#X connect 5 0 6 0;
#X connect 6 0 7 0;
#X connect 7 0 8 0;
#X connect 8 0 9 1;
#X connect 8 0 9 0;
#X connect 9 0 3 0;
#X connect 10 0 11 0;
#X connect 11 0 12 0;
#X connect 12 0 3 0;
#X restore 642 573 pd toFuzz;
#X floatatom 895 -175 5 0 0 0 - - -;
#X obj 977 -266 r \$0-theScale;
#X msg 979 -202 0;
#X obj 921 -230 mm_rplayer;
#X obj 916 -405 r \$0-kickHits;
#X obj 951 -181 r \$0-theRoot;
#X obj 658 401 r \$0-detectedTempo;
#X msg 658 423 tempo \$1;
#X obj 1087 -423 r onOff;
#X obj 518 494 *~;
#X obj 564 472 lop~ 1;
#X obj 765 412 r bassVolume;
#X obj 609 319 loadbang;
#X msg 808 368 a \$1 \, d \$2 \, s \$3 \, r \$4;
#X msg 1081 -263 lambda 0 \$1 \, lambda 1 \$2 \, lambda 2 \$3 \, lambda
2 \$4 \, beta 0 \$4 \, beta 1 \$5 \, beta 2 \$6 \, beta 3 \$7 \, sparse
\$8;
#X obj 518 432 mm_env~;
#X obj 1087 -380 random 2;
#X obj 1088 -358 sel 0 1;
#X obj 918 129 r \$0-newRep;
#X msg 578 228 randomize;
#X obj 735 208 wrandom;
#X obj 789 162 loadbang;
#N canvas 303 301 450 300 clip 0;
#X obj 115 28 inlet;
#X obj 115 56 * 100;
#X obj 114 89 moses 10;
#X msg 114 121 0;
#X obj 115 190 outlet;
#X obj 115 162 * 0.1;
#X connect 0 0 1 0;
#X connect 1 0 2 0;
#X connect 2 0 3 0;
#X connect 2 1 5 0;
#X connect 3 0 5 0;
#X connect 5 0 4 0;
#X restore 766 438 pd clip;
#X msg 597 377 debounce 1;
#X obj 1161 -360 loadbang;
#X obj 675 -293 r \$0-composed;
#X obj 676 -248 unpack f f;
#X obj 677 -125 spigot;
#X obj 676 -271 route 0;
#X obj 919 -280 spigot;
#X obj 944 -363 r \$0-chordSelection;
#X obj 945 -337 swap 1;
#X obj 950 -314 -;
#X obj 711 -163 r \$0-chordSelection;
#X obj 914 263 random 100;
#X obj 926 288 random 250;
#X obj 938 313 random 250;
#X obj 807 343 pack f f f f;
#X obj 917 177 t b b b b;
#X floatatom 465 200 5 0 0 0 - - -;
#X floatatom 475 282 5 0 0 0 - - -;
#X obj 567 447 * 1;
#X obj 894 246 random 50;
#X floatatom 966 372 5 0 0 0 - - -;
#X floatatom 930 348 5 0 0 0 - - -;
#X floatatom 903 315 5 0 0 0 - - -;
#X floatatom 887 294 5 0 0 0 - - -;
#X msg 788 190 50 5 15 2;
#X msg 612 349 0.5;
#X floatatom 1038 -228 5 0 0 0 - - -;
#X obj 518 255 mm_osc~;
#X obj 949 -151 + 24;
#X msg 993 -315 1;
#X obj 921 -382 r \$0-clock;
#X msg 1090 -323 1 5 2 4 80 10 30 10 0;
#X msg 1143 -297 1 3 1 3 20 80 80 10 0;
#X obj 1086 -400 sel 0;
#X obj 517 362 *~ 0.5;
#X obj 517 -20 r \$0-clock;
#X obj 620 -19 loadbang;
#X obj 518 46 mm_patternPlayer 0;
#X obj 520 76 mod 12;
#X obj 518 100 + 24;
#X msg 621 4 read test5.txt;
#X obj 626 -48 r \$0-patternloader;
#X connect 2 0 10 0;
#X connect 2 1 31 1;
#X connect 3 0 73 0;
#X connect 4 0 5 0;
#X connect 5 0 3 1;
#X connect 6 0 36 0;
#X connect 7 0 3 1;
#X connect 8 0 9 0;
#X connect 8 0 10 1;
#X connect 8 0 14 0;
#X connect 9 0 11 0;
#X connect 10 0 56 0;
#X connect 10 0 66 0;
#X connect 11 0 66 0;
#X connect 13 0 31 0;
#X connect 14 0 13 1;
#X connect 17 0 19 1;
#X connect 19 0 16 0;
#X connect 19 0 12 0;
#X connect 19 1 18 0;
#X connect 20 0 65 0;
#X connect 21 0 67 0;
#X connect 22 0 23 0;
#X connect 23 0 31 2;
#X connect 24 0 72 0;
#X connect 25 0 0 0;
#X connect 25 0 1 0;
#X connect 25 0 15 0;
#X connect 26 0 25 1;
#X connect 27 0 38 0;
#X connect 28 0 64 0;
#X connect 28 0 39 0;
#X connect 29 0 31 2;
#X connect 30 0 19 1;
#X connect 31 0 25 0;
#X connect 32 0 33 0;
#X connect 33 0 70 0;
#X connect 33 1 71 0;
#X connect 34 0 35 0;
#X connect 34 0 54 0;
#X connect 35 0 66 1;
#X connect 36 0 7 0;
#X connect 37 0 63 0;
#X connect 37 0 7 0;
#X connect 38 0 57 0;
#X connect 39 0 31 2;
#X connect 40 0 70 0;
#X connect 40 0 68 0;
#X connect 41 0 44 0;
#X connect 42 0 43 0;
#X connect 44 0 42 0;
#X connect 45 0 19 0;
#X connect 46 0 47 0;
#X connect 47 0 48 0;
#X connect 47 1 48 1;
#X connect 48 0 45 1;
#X connect 49 0 43 1;
#X connect 50 0 53 1;
#X connect 50 0 61 0;
#X connect 51 0 53 2;
#X connect 52 0 53 3;
#X connect 52 0 60 0;
#X connect 52 0 59 0;
#X connect 53 0 29 0;
#X connect 54 0 58 0;
#X connect 54 1 50 0;
#X connect 54 2 51 0;
#X connect 54 3 52 0;
#X connect 57 0 26 0;
#X connect 58 0 53 0;
#X connect 58 0 62 0;
#X connect 63 0 36 1;
#X connect 64 0 57 0;
#X connect 66 0 3 0;
#X connect 67 0 12 1;
#X connect 68 0 45 1;
#X connect 69 0 45 0;
#X connect 70 0 30 0;
#X connect 71 0 30 0;
#X connect 72 0 32 0;
#X connect 73 0 13 0;
#X connect 74 0 76 0;
#X connect 75 0 79 0;
#X connect 76 0 77 0;
#X connect 77 0 78 0;
#X connect 78 0 2 0;
#X connect 79 0 76 1;
#X connect 80 0 76 1;
#X restore 900 11 pd bass;
#X obj 432 -48 s onOff;
#X obj 432 -68 tgl 15 0 empty empty empty 17 7 0 10 -262144 -1 -1 0
1;
#N canvas 265 93 1440 754 synth 0;
#X obj 969 -338 mm_rplayer;
#X obj 1024 -392 r \$0-theScale;
#X obj 1026 -287 mm_rplayer;
#X obj 1086 -309 r \$0-theScale;
#X obj 972 -538 r \$0-clock;
#X obj 498 740 throw~ outputL;
#X obj 607 744 throw~ outputR;
#X obj 1042 -75 +;
#X obj 983 -81 +;
#X obj 498 592 birdPan~;
#X obj 501 295 *~ 0.33;
#X obj 556 269 *~ 0.33;
#X obj 558 223 t f b;
#X obj 502 242 t f b;
#X obj 858 77 r \$0-clock;
#X obj 861 124 sel 0;
#X obj 861 147 random 2;
#X obj 859 168 sel 0;
#X msg 964 214 randomize;
#X floatatom 1041 -263 5 0 0 0 - - -;
#X floatatom 981 -314 5 0 0 0 - - -;
#N canvas 710 242 450 300 toFuzz 0;
#X obj 75 -66 inlet~;
#X obj 76 197 throw~ toFuzz;
#X obj 76 167 *~;
#X obj 101 144 lop~ 1;
#X obj 155 -36 r \$0-newRep;
#X obj 154 -1 mod 4;
#X obj 154 21 sel 0;
#X obj 154 44 random 100;
#X obj 152 67 * 0.01;
#X obj 152 91 *;
#X obj 37 36 r onOff;
#X obj 37 63 sel 0;
#X msg 36 90 0;
#X connect 0 0 2 0;
#X connect 2 0 1 0;
#X connect 3 0 2 1;
#X connect 4 0 5 0;
#X connect 5 0 6 0;
#X connect 6 0 7 0;
#X connect 7 0 8 0;
#X connect 8 0 9 1;
#X connect 8 0 9 0;
#X connect 9 0 3 0;
#X connect 10 0 11 0;
#X connect 11 0 12 0;
#X connect 12 0 3 0;
#X restore 518 703 pd toFuzz;
#X obj 1117 -237 random 4;
#X obj 1116 -265 t b;
#X obj 1117 -217 * 12;
#X obj 1116 -196 + 36;
#X msg 1081 -264 0;
#X msg 1026 -313 0;
#X obj 859 103 mod 32;
#X floatatom 1074 -124 5 0 0 0 - - -;
#X obj 1173 -241 r \$0-theRoot;
#X obj 1118 -175 +;
#X floatatom 1229 -129 5 0 0 0 - - -;
#X obj 1174 -222 t b;
#X obj 1146 -617 r onOff;
#X obj 497 564 *~;
#X obj 526 515 lop~ 1;
#X obj 804 422 r synthVolume;
#X obj 600 503 loadbang;
#X obj 940 292 r \$0-newRep;
#X msg 932 342 randomize;
#X obj 655 349 r \$0-detectedTempo;
#X msg 663 380 tempo \$1;
#X obj 504 453 mm_monoSyncDelay;
#X obj 498 667 mm_stereoChorus;
#X obj 618 610 r \$0-detectedTempo;
#X msg 618 637 tempo \$1;
#X obj 732 608 r \$0-newRep;
#X msg 722 645 randomize;
#X obj 984 66 r onOff;
#X obj 985 95 sel 0 1;
#X msg 984 121 0;
#X msg 734 251 a \$1 \, d \$2 \, s \$3 \, r \$4;
#X msg 1138 -402 lambda 0 \$1 \, lambda 1 \$2 \, lambda 2 \$3 \, lambda
2 \$4 \, beta 0 \$4 \, beta 1 \$5 \, beta 2 \$6 \, beta 3 \$7 \, sparse
\$8;
#X msg 602 526 0.5;
#N canvas 303 301 450 300 clip 0;
#X obj 115 28 inlet;
#X obj 115 56 * 100;
#X obj 116 89 moses 10;
#X msg 114 121 0;
#X obj 115 190 outlet;
#X obj 115 162 * 0.02;
#X connect 0 0 1 0;
#X connect 1 0 2 0;
#X connect 2 0 3 0;
#X connect 2 1 5 0;
#X connect 3 0 5 0;
#X connect 5 0 4 0;
#X restore 802 448 pd clip;
#X obj 911 269 loadbang;
#X obj 138 -272 r \$0-composed;
#X obj 139 -201 unpack f f;
#X obj 163 -177 unpack f f;
#X obj 139 -1 s \$0-toSynth1;
#X obj 167 28 s \$0-toSynth2;
#X obj 139 -224 route 1 2;
#X obj 849 -324 r \$0-toSynth1;
#X obj 880 -293 r \$0-toSynth2;
#X obj 140 -78 spigot;
#X obj 174 -30 spigot;
#X obj 972 -444 spigot;
#X obj 1013 -485 swap 1;
#X obj 1022 -466 -;
#X obj 192 -115 r \$0-chordSelection;
#X obj 864 -176 r \$0-toSynth1;
#X obj 871 -245 r \$0-toSynth2;
#X obj 501 344 mm_env~;
#X obj 1278 -612 loadbang;
#X obj 873 -218 moses 1;
#X obj 868 -148 moses 1;
#X obj 556 247 mm_osc~;
#X obj 1007 -515 r \$0-chordSelection;
#X floatatom 946 -201 5 0 0 0 - - -;
#X floatatom 892 -94 5 0 0 0 - - -;
#X floatatom 900 -61 5 0 0 0 - - -;
#X floatatom 901 -18 5 0 0 0 - - -;
#X msg 1183 -432 1 2 1 1 90 90 90 90 1;
#X obj 1145 -532 sel 0 1 2;
#X obj 1146 -573 random 3;
#X msg 1169 -296 lambda 0 \$1 \, lambda 1 \$2 \, lambda 2 \$3 \, lambda
2 \$4 \, beta 0 \$4 \, beta 1 \$5 \, beta 2 \$6 \, beta 3 \$7 \, sparse
\$8;
#X msg 1221 -570 0;
#X obj 501 269 mm_osc~;
#X msg 1145 -488 2 5 3 8 80 80 80 80 1;
#X msg 1163 -363 1 2 1 2 80 80 80 80 1;
#X msg 1205 -319 1 2 1 1 90 90 90 90 1;
#X msg 1184 -341 2 2 2 2 10 95 80 10 0;
#X msg 1168 -460 3 4 3 4 10 95 80 10 1;
#X floatatom 220 -85 5 0 0 0 - - -;
#X obj 1145 -594 sel 0;
#X msg 1086 -482 1;
#X obj 500 395 mm_randFilter~;
#X obj 476 -153 r \$0-clock;
#X obj 579 -152 loadbang;
#X obj 548 -58 r \$0-clock;
#X obj 651 -57 loadbang;
#X obj 477 -87 mm_patternPlayer 1;
#X obj 549 8 mm_patternPlayer 2;
#X msg 580 -129 read test5.txt;
#X msg 652 -34 read test5.txt;
#X obj 555 297 mm_env~;
#X obj 600 38 r \$0-clock;
#X obj 703 39 loadbang;
#X msg 704 62 read test5.txt;
#X obj 623 290 mm_env~;
#X obj 624 265 *~ 0.33;
#X obj 626 215 t f b;
#X obj 625 243 mm_osc~;
#X obj 601 104 mm_patternPlayer 3;
#X obj 558 -184 r \$0-loadpattern;
#X obj 646 -87 r \$0-loadpattern;
#X obj 698 8 r \$0-loadpattern;
#X obj 968 178 loadbang;
#X connect 0 0 8 0;
#X connect 0 0 20 0;
#X connect 0 1 27 0;
#X connect 1 0 0 1;
#X connect 2 0 7 0;
#X connect 2 0 19 0;
#X connect 2 1 26 0;
#X connect 3 0 2 1;
#X connect 3 0 23 0;
#X connect 4 0 67 0;
#X connect 7 0 82 0;
#X connect 8 0 81 0;
#X connect 9 0 44 0;
#X connect 9 1 44 1;
#X connect 10 0 73 0;
#X connect 11 0 106 0;
#X connect 12 0 77 0;
#X connect 12 1 106 1;
#X connect 13 0 88 0;
#X connect 13 1 73 1;
#X connect 14 0 28 0;
#X connect 15 0 16 0;
#X connect 16 0 17 0;
#X connect 17 0 18 0;
#X connect 18 0 9 1;
#X connect 18 0 77 1;
#X connect 18 0 88 1;
#X connect 18 0 113 1;
#X connect 22 0 24 0;
#X connect 23 0 22 0;
#X connect 24 0 25 0;
#X connect 25 0 31 0;
#X connect 28 0 15 0;
#X connect 30 0 31 1;
#X connect 30 0 33 0;
#X connect 31 0 32 0;
#X connect 31 0 7 1;
#X connect 31 0 8 1;
#X connect 33 0 22 0;
#X connect 34 0 95 0;
#X connect 35 0 9 0;
#X connect 36 0 35 1;
#X connect 37 0 55 0;
#X connect 38 0 54 0;
#X connect 39 0 40 0;
#X connect 40 0 43 1;
#X connect 40 0 73 2;
#X connect 40 0 97 1;
#X connect 40 0 106 2;
#X connect 40 0 110 2;
#X connect 41 0 42 0;
#X connect 42 0 43 1;
#X connect 42 0 97 1;
#X connect 43 0 35 0;
#X connect 44 0 5 0;
#X connect 44 0 21 0;
#X connect 44 1 6 0;
#X connect 44 1 21 0;
#X connect 45 0 46 0;
#X connect 46 0 44 2;
#X connect 47 0 48 0;
#X connect 48 0 44 2;
#X connect 48 0 9 1;
#X connect 49 0 50 0;
#X connect 50 0 51 0;
#X connect 51 0 77 0;
#X connect 51 0 88 0;
#X connect 52 0 73 2;
#X connect 53 0 0 1;
#X connect 54 0 36 0;
#X connect 55 0 36 0;
#X connect 56 0 40 0;
#X connect 56 0 18 0;
#X connect 56 0 48 0;
#X connect 57 0 62 0;
#X connect 58 0 65 0;
#X connect 59 0 66 0;
#X connect 62 0 58 0;
#X connect 62 1 59 0;
#X connect 65 0 60 0;
#X connect 66 0 61 0;
#X connect 67 0 0 0;
#X connect 67 0 2 0;
#X connect 68 0 69 0;
#X connect 68 1 69 1;
#X connect 69 0 67 1;
#X connect 70 0 66 1;
#X connect 70 0 65 1;
#X connect 70 0 94 0;
#X connect 71 0 76 0;
#X connect 72 0 75 0;
#X connect 73 0 97 0;
#X connect 74 0 85 0;
#X connect 74 0 96 0;
#X connect 75 1 79 0;
#X connect 76 1 80 0;
#X connect 77 0 11 0;
#X connect 78 0 68 0;
#X connect 83 0 53 0;
#X connect 84 0 89 0;
#X connect 84 0 90 0;
#X connect 84 1 93 0;
#X connect 84 1 92 0;
#X connect 84 2 83 0;
#X connect 84 2 91 0;
#X connect 85 0 84 0;
#X connect 86 0 2 1;
#X connect 87 0 84 0;
#X connect 88 0 10 0;
#X connect 89 0 53 0;
#X connect 90 0 86 0;
#X connect 91 0 86 0;
#X connect 92 0 86 0;
#X connect 93 0 53 0;
#X connect 95 0 85 0;
#X connect 96 0 67 1;
#X connect 97 0 43 0;
#X connect 98 0 102 0;
#X connect 99 0 104 0;
#X connect 100 0 103 0;
#X connect 101 0 105 0;
#X connect 102 0 13 0;
#X connect 103 0 12 0;
#X connect 104 0 102 1;
#X connect 105 0 103 1;
#X connect 106 0 97 0;
#X connect 107 0 114 0;
#X connect 108 0 109 0;
#X connect 109 0 114 1;
#X connect 110 0 97 0;
#X connect 111 0 110 0;
#X connect 112 0 113 0;
#X connect 112 1 110 1;
#X connect 113 0 111 0;
#X connect 114 0 112 0;
#X connect 115 0 102 1;
#X connect 116 0 103 1;
#X connect 117 0 114 1;
#X connect 118 0 18 0;
#X restore 954 10 pd synth;
#N canvas 0 22 1440 806 scales 0;
#X obj 332 -265 r \$0-clock;
#X obj 673 -94 random 12;
#X obj 661 -221 r onOff;
#X obj 674 -63 s \$0-theRoot;
#X msg 772 -204 1;
#X obj 564 -60 s \$0-thePattern;
#X obj 337 74 spigot;
#X obj 418 74 spigot;
#X obj 349 -29 r \$0-thePattern;
#X obj 470 26 == 1;
#X obj 374 31 == 0;
#X obj 332 -123 wrandom;
#X obj 366 -186 loadbang;
#X obj 519 94 spigot;
#X obj 573 26 == 2;
#N canvas 421 284 925 539 i-III-VI 0;
#X obj 91 -117 inlet;
#X obj 93 278 list prepend scale;
#X obj 93 315 list trim;
#X obj 92 352 outlet;
#X obj 91 7 f;
#X obj 121 7 + 1;
#X obj 92 53 mod 3;
#X obj 106 -57 r onOff;
#X obj 106 -36 sel 0;
#X msg 107 -16 0;
#X msg 123 173 3 7 10 0 13 15 -2;
#X msg 148 198 -4 8 0 3 12 1 15;
#X obj 90 117 select 0 1 2;
#X msg 92 147 0 3 7 2 10 6 12;
#X connect 0 0 4 0;
#X connect 1 0 2 0;
#X connect 2 0 3 0;
#X connect 4 0 6 0;
#X connect 4 0 5 0;
#X connect 5 0 4 1;
#X connect 6 0 12 0;
#X connect 7 0 8 0;
#X connect 8 0 9 0;
#X connect 9 0 4 1;
#X connect 10 0 1 0;
#X connect 11 0 1 0;
#X connect 12 0 13 0;
#X connect 12 1 10 0;
#X connect 12 2 11 0;
#X connect 13 0 1 0;
#X restore 337 126 pd i-III-VI;
#X obj 661 -190 sel 0;
#X obj 597 -326 loadbang;
#X msg 646 -267 0;
#X obj 646 78 spigot;
#X obj 683 35 == 3;
#N canvas 421 284 925 539 i-VII 0;
#X obj 91 -117 inlet;
#X obj 93 278 list prepend scale;
#X obj 93 315 list trim;
#X obj 92 352 outlet;
#X obj 91 7 f;
#X obj 121 7 + 1;
#X obj 106 -57 r onOff;
#X obj 106 -36 sel 0;
#X msg 107 -16 0;
#X msg 92 147 0 3 7 2 10 6 12;
#X msg 123 173 7 11 2 5 9 12 3;
#X obj 92 53 mod 2;
#X obj 90 117 select 0 1;
#X connect 0 0 4 0;
#X connect 1 0 2 0;
#X connect 2 0 3 0;
#X connect 4 0 5 0;
#X connect 4 0 11 0;
#X connect 5 0 4 1;
#X connect 6 0 7 0;
#X connect 7 0 8 0;
#X connect 8 0 4 1;
#X connect 9 0 1 0;
#X connect 10 0 1 0;
#X connect 11 0 12 0;
#X connect 12 0 9 0;
#X connect 12 1 10 0;
#X restore 646 126 pd i-VII;
#N canvas 491 176 925 539 I-IV-V 0;
#X obj 93 -21 inlet;
#X obj 96 148 select 0 1 2;
#X msg 138 226 7 19 11 14 9 16 18;
#X obj 99 309 list prepend scale;
#X obj 99 346 list trim;
#X obj 98 383 outlet;
#X msg 96 170 0 4 7 2 9 12 11;
#X msg 116 201 5 9 0 2 3 10 12;
#X obj 109 65 f;
#X obj 139 65 + 1;
#X obj 110 111 mod 3;
#X obj 124 1 r onOff;
#X obj 124 22 sel 0;
#X msg 125 42 0;
#X connect 0 0 8 0;
#X connect 1 0 6 0;
#X connect 1 1 7 0;
#X connect 1 2 2 0;
#X connect 2 0 3 0;
#X connect 3 0 4 0;
#X connect 4 0 5 0;
#X connect 6 0 3 0;
#X connect 7 0 3 0;
#X connect 8 0 10 0;
#X connect 8 0 9 0;
#X connect 9 0 8 1;
#X connect 10 0 1 0;
#X connect 11 0 12 0;
#X connect 12 0 13 0;
#X connect 13 0 8 1;
#X restore 519 129 pd I-IV-V;
#N canvas 491 176 925 539 i-III 0;
#X obj 99 -114 inlet;
#X obj 95 223 list prepend scale;
#X obj 95 260 list trim;
#X obj 94 297 outlet;
#X obj 140 -59 f;
#X obj 170 -59 + 1;
#X obj 155 -123 r onOff;
#X obj 155 -102 sel 0;
#X msg 156 -82 0;
#X obj 98 22 mod 2;
#X msg 96 88 0 3 7 2 6 10 8;
#X obj 92 62 select 0 1;
#X msg 109 121 3 10 0 7 1 5 15;
#X connect 0 0 4 0;
#X connect 1 0 2 0;
#X connect 2 0 3 0;
#X connect 4 0 5 0;
#X connect 4 0 9 0;
#X connect 5 0 4 1;
#X connect 6 0 7 0;
#X connect 7 0 8 0;
#X connect 8 0 4 1;
#X connect 9 0 11 0;
#X connect 10 0 1 0;
#X connect 11 0 10 0;
#X connect 11 1 12 0;
#X connect 12 0 1 0;
#X restore 419 126 pd i-III;
#X obj 757 80 spigot;
#N canvas 421 284 925 539 I-II7-IV7 0;
#X obj 91 -117 inlet;
#X obj 93 278 list prepend scale;
#X obj 93 315 list trim;
#X obj 92 352 outlet;
#X obj 91 7 f;
#X obj 121 7 + 1;
#X obj 106 -57 r onOff;
#X obj 106 -36 sel 0;
#X msg 107 -16 0;
#X obj 92 53 mod 3;
#X msg 92 147 0 7 4 2 10 12 6;
#X obj 90 117 select 0 1 2;
#X msg 123 173 2 6 0 9 12 14 8;
#X msg 135 205 5 9 0 3 12 15 17;
#X connect 0 0 4 0;
#X connect 1 0 2 0;
#X connect 2 0 3 0;
#X connect 4 0 5 0;
#X connect 4 0 9 0;
#X connect 5 0 4 1;
#X connect 6 0 7 0;
#X connect 7 0 8 0;
#X connect 8 0 4 1;
#X connect 9 0 11 0;
#X connect 10 0 1 0;
#X connect 11 0 10 0;
#X connect 11 1 12 0;
#X connect 11 2 13 0;
#X connect 12 0 1 0;
#X connect 13 0 1 0;
#X restore 757 128 pd I-II7-IV7;
#X obj 794 37 == 4;
#X obj 871 81 spigot;
#X obj 908 38 == 5;
#X obj 565 -88 random 6;
#N canvas 421 284 925 539 I 0;
#X obj 91 -117 inlet;
#X obj 93 278 list prepend scale;
#X obj 93 315 list trim;
#X obj 92 352 outlet;
#X obj 91 7 f;
#X obj 121 7 + 1;
#X obj 106 -57 r onOff;
#X obj 106 -36 sel 0;
#X msg 107 -16 0;
#X obj 90 117 select 0 1 2;
#X msg 92 144 0 3 10 6 5 7 6 12;
#X msg 106 175 0 -2 3 5 6 12 10;
#X obj 92 53 mod 2;
#X connect 0 0 4 0;
#X connect 1 0 2 0;
#X connect 2 0 3 0;
#X connect 4 0 5 0;
#X connect 4 0 12 0;
#X connect 5 0 4 1;
#X connect 6 0 7 0;
#X connect 7 0 8 0;
#X connect 8 0 4 1;
#X connect 9 0 10 0;
#X connect 9 1 11 0;
#X connect 10 0 1 0;
#X connect 11 0 1 0;
#X connect 12 0 9 0;
#X restore 871 129 pd I;
#X obj 336 198 s \$0-theScale;
#X msg 367 -152 5 1 1 2;
#X obj 668 -160 s \$0-stopped;
#X obj 670 -128 r \$0-stopped;
#X obj 572 -120 r \$0-stopped;
#X obj 136 156 change;
#X obj 136 180 t b f;
#X floatatom 210 -177 5 0 0 0 - - -;
#X obj 349 -3 t b f;
#X obj 450 -27 r \$0-thePattern;
#X obj 450 -1 t b f;
#X obj 573 -30 r \$0-thePattern;
#X obj 573 -4 t b f;
#X obj 674 -28 r \$0-thePattern;
#X obj 674 -2 t b f;
#X obj 790 -30 r \$0-thePattern;
#X obj 790 -4 t b f;
#X obj 891 -28 r \$0-thePattern;
#X obj 894 -5 t b f;
#X floatatom 487 -85 5 0 0 0 - - -;
#X obj 218 -93 bng 15 250 50 0 empty empty empty 17 7 0 10 -262144
-1 -1;
#X obj 217 -305 r \$0-theScale;
#X obj 408 -297 random 2;
#X obj 405 -198 s \$0-chordSelection;
#X obj 406 -324 loadbang;
#X obj 476 -358 r onOff;
#X obj 476 -337 sel 0;
#X floatatom 463 -265 5 0 0 0 - - -;
#X connect 0 0 38 0;
#X connect 1 0 3 0;
#X connect 2 0 16 0;
#X connect 4 0 16 0;
#X connect 6 0 15 0;
#X connect 7 0 23 0;
#X connect 8 0 39 0;
#X connect 9 0 7 1;
#X connect 10 0 6 1;
#X connect 11 0 6 0;
#X connect 11 0 7 0;
#X connect 11 0 13 0;
#X connect 11 0 19 0;
#X connect 11 0 24 0;
#X connect 11 0 27 0;
#X connect 11 0 51 0;
#X connect 12 0 32 0;
#X connect 13 0 22 0;
#X connect 14 0 13 1;
#X connect 15 0 31 0;
#X connect 16 0 33 0;
#X connect 17 0 18 0;
#X connect 17 0 1 0;
#X connect 17 0 29 0;
#X connect 18 0 16 0;
#X connect 19 0 21 0;
#X connect 20 0 19 1;
#X connect 21 0 31 0;
#X connect 22 0 31 0;
#X connect 23 0 31 0;
#X connect 24 0 25 0;
#X connect 25 0 31 0;
#X connect 26 0 24 1;
#X connect 27 0 30 0;
#X connect 28 0 27 1;
#X connect 29 0 5 0;
#X connect 29 0 50 0;
#X connect 30 0 31 0;
#X connect 32 0 11 1;
#X connect 34 0 1 0;
#X connect 35 0 29 0;
#X connect 36 0 37 0;
#X connect 39 0 6 0;
#X connect 39 1 10 0;
#X connect 40 0 41 0;
#X connect 41 0 7 0;
#X connect 41 1 9 0;
#X connect 42 0 43 0;
#X connect 43 0 13 0;
#X connect 43 1 14 0;
#X connect 44 0 45 0;
#X connect 45 0 19 0;
#X connect 45 1 20 0;
#X connect 46 0 47 0;
#X connect 47 0 24 0;
#X connect 47 1 26 0;
#X connect 48 0 49 0;
#X connect 49 0 27 0;
#X connect 49 1 28 0;
#X connect 53 0 58 0;
#X connect 55 0 53 0;
#X connect 56 0 57 0;
#X connect 57 0 53 0;
#X restore 725 12 pd scales;
#X obj 545 -122 noise~;
#X obj 545 -94 s~ theNoise;
#X obj 319 -22 r onOff;
#X obj 321 12 print onOff;
#N canvas 395 188 1034 602 patternloader 1;
#X obj 393 150 loadbang;
#X obj 401 231 timer;
#X obj 426 177 r onOff;
#X obj 427 200 sel 1;
#X obj 398 262 mod 6;
#X obj 397 288 sel 0 1 2 3 4 5;
#X msg 395 317 test1.txt;
#X msg 411 344 test2.txt;
#X msg 424 373 test3.txt;
#X msg 438 401 test4.txt;
#X msg 453 432 test5.txt;
#X obj 384 467 list prepend read;
#X obj 381 500 list trim;
#X obj 378 530 s \$0-loadpattern;
#X connect 0 0 1 0;
#X connect 1 0 4 0;
#X connect 2 0 3 0;
#X connect 3 0 1 1;
#X connect 4 0 5 0;
#X connect 5 0 6 0;
#X connect 5 1 7 0;
#X connect 5 2 8 0;
#X connect 5 3 9 0;
#X connect 5 4 10 0;
#X connect 6 0 11 0;
#X connect 7 0 11 0;
#X connect 8 0 11 0;
#X connect 9 0 11 0;
#X connect 10 0 11 0;
#X connect 11 0 12 0;
#X connect 12 0 13 0;
#X restore 622 452 pd patternloader;
#X connect 0 0 1 0;
#X connect 0 1 1 0;
#X connect 16 0 15 0;
#X connect 19 0 20 0;
#X connect 21 0 22 0;
