#N canvas 147 52 1268 785 10;
#X obj 35 -69 adc~;
#X obj 66 48 s~ input;
#N canvas 344 23 903 680 clock 0;
#X msg 156 109 play;
#X obj 280 263 s~ metro;
#X obj 152 268 route clock;
#X obj 117 -400 r onOff;
#X obj 117 -207 sel 0 1;
#X msg 256 146 stop;
#X obj 153 385 s \$0-clock;
#X obj 152 301 t f f;
#X obj 183 330 sel 0;
#X obj 319 104 r \$0-detectedTempo;
#X obj 227 107 t b b;
#X msg 209 170 reset;
#X obj 185 355 print newRep;
#X obj 296 -78 random 100;
#X obj 296 -58 * 0.01;
#X obj 292 35 int;
#X obj 290 80 s \$0-detectedTempo;
#X obj 180 -62 random 2;
#X msg 291 57 tempo \$1;
#X msg 180 -40 swing \$1;
#X obj 181 -15 s \$0-initSwing;
#X obj 441 137 r \$0-initSwing;
#X obj 301 -210 r setNewTempo;
#X obj 425 71 s detectedTempo;
#X obj 366 203 r setTempo;
#X msg 366 230 tempo \$1;
#X obj 368 259 s \$0-detectedTempo;
#X obj 240 -249 loadbang;
#X obj 238 -219 timer;
#X obj 231 -194 f;
#X obj 138 -180 t b b b b b;
#X obj 230 -168 mod 200;
#X msg 230 -149 seed \$1;
#X msg 318 174 divisions 2;
#X obj 484 175 loadbang;
#X obj 319 132 t b a;
#X obj 293 9 + 80;
#N canvas 695 279 450 300 inv 0;
#X obj 98 49 inlet;
#X obj 100 88 swap 1;
#X obj 102 115 -;
#X obj 97 145 outlet;
#X connect 0 0 1 0;
#X connect 1 0 2 0;
#X connect 1 1 2 1;
#X connect 2 0 3 0;
#X restore 336 -142 pd inv;
#X obj 298 -111 spigot;
#X obj 335 -173 r lockTempo;
#X msg 437 -167 0;
#X obj 436 -189 loadbang;
#X obj 294 -20 * 200;
#X obj 283 381 s clock;
#X obj 470 -129 r minTempo;
#X obj 400 -129 r maxTempo;
#X obj 399 -38 -;
#X obj 417 -66 t b f f;
#X obj 470 -94 change;
#X obj 397 -99 change;
#X obj 396 -12 t b f;
#X obj 625 24 r divisions;
#X msg 621 138 divisions \$1;
#X obj 719 28 r beats;
#X msg 714 142 beats \$1;
#X obj 789 28 r measures;
#X msg 781 142 measures \$1;
#X floatatom 246 319 5 0 0 0 - - -;
#X obj 624 57 change;
#X obj 717 58 change;
#X obj 786 58 change;
#X obj 623 86 t b f;
#X obj 715 84 t b f;
#X obj 786 83 t b f;
#X obj 574 211 r swing;
#X msg 574 239 \$1 swing;
#X obj 578 284 print swing;
#X obj 154 240 birdClock 8 4 2 120 1;
#X connect 0 0 67 0;
#X connect 2 0 7 0;
#X connect 2 0 57 0;
#X connect 3 0 4 0;
#X connect 4 0 10 0;
#X connect 4 1 30 0;
#X connect 5 0 67 0;
#X connect 7 0 6 0;
#X connect 7 1 8 0;
#X connect 7 1 43 0;
#X connect 9 0 35 0;
#X connect 10 0 11 0;
#X connect 10 1 5 0;
#X connect 11 0 67 0;
#X connect 13 0 14 0;
#X connect 14 0 42 0;
#X connect 15 0 18 0;
#X connect 15 0 23 0;
#X connect 17 0 19 0;
#X connect 18 0 16 0;
#X connect 19 0 20 0;
#X connect 22 0 38 0;
#X connect 24 0 25 0;
#X connect 25 0 26 0;
#X connect 25 0 67 1;
#X connect 27 0 28 0;
#X connect 28 0 29 1;
#X connect 29 0 31 0;
#X connect 30 0 0 0;
#X connect 30 1 17 0;
#X connect 30 2 38 0;
#X connect 30 3 29 0;
#X connect 30 4 28 1;
#X connect 31 0 32 0;
#X connect 32 0 13 0;
#X connect 33 0 67 1;
#X connect 35 0 33 0;
#X connect 35 1 67 1;
#X connect 36 0 15 0;
#X connect 37 0 38 1;
#X connect 38 0 13 0;
#X connect 39 0 37 0;
#X connect 40 0 37 0;
#X connect 41 0 40 0;
#X connect 42 0 36 0;
#X connect 44 0 48 0;
#X connect 45 0 49 0;
#X connect 46 0 50 0;
#X connect 47 0 46 0;
#X connect 47 1 46 1;
#X connect 47 2 36 1;
#X connect 48 0 47 0;
#X connect 49 0 46 0;
#X connect 50 0 38 0;
#X connect 50 1 42 1;
#X connect 51 0 58 0;
#X connect 52 0 67 1;
#X connect 53 0 59 0;
#X connect 54 0 67 1;
#X connect 55 0 60 0;
#X connect 56 0 67 1;
#X connect 58 0 61 0;
#X connect 59 0 62 0;
#X connect 60 0 63 0;
#X connect 61 0 0 0;
#X connect 61 1 52 0;
#X connect 62 0 0 0;
#X connect 62 1 54 0;
#X connect 63 0 0 0;
#X connect 63 1 56 0;
#X connect 64 0 65 0;
#X connect 65 0 67 1;
#X connect 67 0 2 0;
#X connect 67 1 1 0;
#X restore 812 -36 pd clock;
#N canvas 338 54 911 714 drums 0;
#N canvas 265 46 1440 752 kick 0;
#X obj 515 585 soundfiler;
#X obj 151 26 inlet;
#X obj 143 716 outlet~;
#X obj 515 611 t b;
#X obj 515 642 \$0;
#N canvas 399 41 502 429 patterns 0;
#X obj 72 17 inlet;
#X obj 72 42 sel 0 1 2 3 4 5 6 7 8;
#X obj 107 419 outlet;
#X msg 72 72 100 5 5 5 5 10 5 15;
#X msg 92 120 100 50 5 5 5 5 65 5;
#X msg 109 145 100 5 90 5 5 5 70 5;
#X msg 125 168 100 5 5 90 90 5 5 5;
#X msg 140 189 100 1 1 1 90 1 1 1;
#X msg 157 212 100 2 2 2;
#X msg 175 235 90 10 1 10 90 10 1 90 1 90 1 10 90 90 1 25;
#X text 264 337 kick patterns;
#X msg 192 266 100 10 1 50 90 1 1 80 90 1 1 80 90 1 80 80 90;
#X msg 206 288 90 5 90 5 5 90 5 90;
#X connect 0 0 1 0;
#X connect 1 0 3 0;
#X connect 1 1 4 0;
#X connect 1 2 5 0;
#X connect 1 3 6 0;
#X connect 1 4 7 0;
#X connect 1 5 8 0;
#X connect 1 6 9 0;
#X connect 1 7 11 0;
#X connect 1 8 12 0;
#X connect 3 0 2 0;
#X connect 4 0 2 0;
#X connect 5 0 2 0;
#X connect 6 0 2 0;
#X connect 7 0 2 0;
#X connect 8 0 2 0;
#X connect 9 0 2 0;
#X connect 11 0 2 0;
#X connect 12 0 2 0;
#X restore 217 79 pd patterns;
#X obj 217 33 inlet;
#X obj 142 673 *~;
#X obj 150 252 t b b b;
#X obj 152 441 del;
#X obj 177 479 * 0.01;
#X obj 177 420 random 45;
#X obj 177 451 + 70;
#X obj 217 55 route pattern sample;
#X obj 275 103 s \$0-kickSample;
#X obj 613 376 \$0;
#X obj 602 329 \$0;
#X obj 639 467 \$0;
#X obj 628 420 \$0;
#X obj 150 132 wrandom;
#X obj 37 580 s \$0-kickHits;
#X obj 205 232 r \$0-clock;
#X obj 205 255 mod 8;
#X obj 282 233 r \$0-accent;
#X obj 205 280 == 0;
#X obj 205 312 sel 0 1;
#X msg 245 341 90;
#X msg 204 342 60;
#X obj 23 13 table \$0-kickArray0;
#X obj 25 33 table \$0-kickArray1;
#X obj 26 55 table \$0-kickArray2;
#X obj 28 75 table \$0-kickArray3;
#X msg 602 353 read -resize Kick-2.wav \$1-kickArray0;
#X msg 613 400 read -resize Kick-3.wav \$1-kickArray1;
#X msg 628 444 read -resize Kick-4.wav \$1-kickArray2;
#X msg 639 491 read -resize Kick-5.wav \$1-kickArray3;
#X obj 151 522 tabplay~ \$0-kickArray0;
#X obj 299 440 \$0;
#X obj 299 416 route 0 1 2 3;
#X obj 312 486 \$0;
#X obj 327 534 \$0;
#X obj 340 580 \$0;
#X msg 298 466 set \$1-kickArray0;
#X msg 311 512 set \$1-kickArray1;
#X msg 331 554 set \$1-kickArray2;
#X msg 339 606 set \$1-kickArray3;
#X obj 301 372 r \$0-changeKick;
#X obj 673 588 soundfiler;
#X obj 673 614 t b;
#X obj 673 645 \$0;
#X obj 832 586 soundfiler;
#X obj 832 612 t b;
#X obj 832 643 \$0;
#X obj 990 589 soundfiler;
#X obj 990 615 t b;
#X obj 990 646 \$0;
#X msg 515 669 \; \$1-kickArray0 normalize 1;
#X msg 673 672 \; \$1-kickArray1 normalize 1;
#X msg 832 670 \; \$1-kickArray2 normalize 1;
#X msg 990 673 \; \$1-kickArray3 normalize 1;
#X obj 601 288 loadbang;
#X obj 295 322 random 4;
#X obj 170 640 *~;
#X obj 174 587 lop~ 1;
#X obj 954 70 block~ 1024 1 2;
#X obj 214 451 random 10;
#N canvas 603 144 450 300 mdb 0;
#X obj 63 42 inlet;
#X obj 66 79 spigot;
#X obj 66 103 t b b;
#X msg 99 133 0;
#X msg 133 53 1;
#X obj 133 21 loadbang;
#X obj 72 162 outlet;
#X msg 194 64 1;
#X obj 197 25 inlet;
#X connect 0 0 1 0;
#X connect 1 0 2 0;
#X connect 2 0 6 0;
#X connect 2 1 3 0;
#X connect 3 0 1 1;
#X connect 4 0 1 1;
#X connect 5 0 4 0;
#X connect 7 0 1 1;
#X connect 8 0 7 0;
#X restore 154 191 pd mdb;
#X obj 507 -10 r \$0-clock;
#X obj 508 15 t f b f;
#X obj 531 70 random 100;
#X obj 532 93 <;
#X obj 510 126 spigot;
#X obj 602 -59 r notes;
#X obj 605 -12 list prepend read;
#X obj 604 11 list trim;
#X obj 605 -34 route 4;
#X obj 547 39 mm_pattern;
#X connect 0 0 3 0;
#X connect 1 0 19 0;
#X connect 3 0 4 0;
#X connect 3 0 15 0;
#X connect 4 0 56 0;
#X connect 5 0 19 1;
#X connect 6 0 13 0;
#X connect 7 0 2 0;
#X connect 8 0 9 0;
#X connect 8 1 11 0;
#X connect 8 2 61 0;
#X connect 8 2 65 0;
#X connect 9 0 36 0;
#X connect 9 0 20 0;
#X connect 10 0 63 0;
#X connect 11 0 12 0;
#X connect 12 0 10 0;
#X connect 13 0 5 0;
#X connect 13 1 14 0;
#X connect 15 0 33 0;
#X connect 16 0 32 0;
#X connect 17 0 35 0;
#X connect 18 0 34 0;
#X connect 21 0 22 0;
#X connect 22 0 24 0;
#X connect 23 0 24 1;
#X connect 24 0 25 0;
#X connect 25 0 27 0;
#X connect 25 1 26 0;
#X connect 26 0 12 1;
#X connect 27 0 12 1;
#X connect 32 0 0 0;
#X connect 33 0 47 0;
#X connect 34 0 50 0;
#X connect 35 0 53 0;
#X connect 36 0 7 0;
#X connect 36 1 66 1;
#X connect 37 0 42 0;
#X connect 38 0 37 0;
#X connect 38 1 39 0;
#X connect 38 2 40 0;
#X connect 38 3 41 0;
#X connect 39 0 43 0;
#X connect 40 0 44 0;
#X connect 41 0 45 0;
#X connect 42 0 36 0;
#X connect 43 0 36 0;
#X connect 44 0 36 0;
#X connect 45 0 36 0;
#X connect 46 0 38 0;
#X connect 47 0 48 0;
#X connect 48 0 49 0;
#X connect 48 0 18 0;
#X connect 49 0 57 0;
#X connect 50 0 51 0;
#X connect 51 0 52 0;
#X connect 51 0 17 0;
#X connect 52 0 58 0;
#X connect 53 0 54 0;
#X connect 54 0 55 0;
#X connect 55 0 59 0;
#X connect 60 0 16 0;
#X connect 61 0 38 0;
#X connect 62 0 7 1;
#X connect 63 0 62 1;
#X connect 63 0 62 0;
#X connect 65 0 9 1;
#X connect 66 0 8 0;
#X connect 67 0 68 0;
#X connect 68 0 71 0;
#X connect 68 1 69 0;
#X connect 68 2 76 0;
#X connect 69 0 70 0;
#X connect 70 0 71 1;
#X connect 71 0 66 0;
#X connect 72 0 75 0;
#X connect 73 0 74 0;
#X connect 74 0 76 1;
#X connect 75 0 73 0;
#X connect 76 0 70 1;
#X connect 76 1 70 1;
#X restore 177 227 pd kick;
#X obj 176 687 throw~ outputR;
#X obj 243 723 throw~ outputL;
#N canvas 0 23 1440 752 sn 0;
#X obj 720 193 \$0;
#X obj 731 473 soundfiler;
#X obj 150 15 inlet;
#X obj 150 663 outlet~;
#X obj 731 502 t b;
#X obj 731 533 \$0;
#N canvas 916 26 502 429 patterns 0;
#X obj 72 17 inlet;
#X obj 71 41 sel 0 1 2 3 4 5 6 7 8;
#X obj 114 327 outlet;
#X msg 72 70 0 5 5 5 95 15 5 15;
#X msg 103 118 0 5 5 5 95 15 5 15;
#X msg 86 93 0 5 5 5 95 50 5 50;
#X msg 119 141 0 5 5 95 95 5 5 15;
#X msg 134 162 0 1 95 95 1 1 10 20;
#X msg 151 185 1 1 1 1 95 10 1 10;
#X text 227 355 snare patterns;
#X msg 192 236 99 80 80 80 99 80 80 80 99 80 80 80 99 80 80 80;
#X msg 174 211 1 5 90 5 1 5 90 40;
#X msg 200 261 90 5 90 5 90 5 90 5;
#X connect 0 0 1 0;
#X connect 1 0 3 0;
#X connect 1 1 5 0;
#X connect 1 2 4 0;
#X connect 1 3 6 0;
#X connect 1 4 7 0;
#X connect 1 5 8 0;
#X connect 1 6 11 0;
#X connect 1 7 10 0;
#X connect 1 8 12 0;
#X connect 3 0 2 0;
#X connect 4 0 2 0;
#X connect 5 0 2 0;
#X connect 6 0 2 0;
#X connect 7 0 2 0;
#X connect 8 0 2 0;
#X connect 10 0 2 0;
#X connect 11 0 2 0;
#X connect 12 0 2 0;
#X restore 220 61 pd patterns;
#X obj 220 15 inlet;
#X obj 149 614 *~;
#X obj 154 210 t b b b;
#X obj 151 365 del;
#X obj 177 349 * 0.01;
#X obj 177 297 random 45;
#X obj 177 321 + 60;
#X obj 220 37 route pattern sample;
#X obj 280 83 s \$0-snareSample;
#X obj 738 282 \$0;
#X obj 750 325 \$0;
#X obj 765 369 \$0;
#X obj 153 114 wrandom;
#X obj 225 151 r \$0-clock;
#X obj 225 174 mod 8;
#X obj 302 152 r \$0-accent;
#X obj 225 199 == 0;
#X obj 225 231 sel 0 1;
#X msg 224 261 50;
#X msg 265 260 80;
#X obj 6 36 table \$0-snareArray1;
#X obj 7 59 table \$0-snareArray2;
#X obj 7 82 table \$0-snareArray3;
#X obj 6 13 table \$0-snareArray0;
#X msg 722 260 read -resize Snare-5.wav \$1-snareArray0;
#X msg 737 304 read -resize Snare.wav \$1-snareArray1;
#X msg 749 347 read -resize Clap-4.wav \$1-snareArray2;
#X msg 764 391 read -resize Snare-2.wav \$1-snareArray3;
#X obj 289 389 \$0;
#X obj 291 321 r \$0-changeSnare;
#X msg 288 415 set \$1-snareArray0;
#X obj 289 365 route 0 1 2 3;
#X obj 302 435 \$0;
#X msg 301 461 set \$1-snareArray1;
#X obj 317 483 \$0;
#X obj 330 529 \$0;
#X msg 316 509 set \$1-snareArray2;
#X msg 329 555 set \$1-snareArray3;
#X obj 720 160 loadbang;
#X obj 149 528 tabplay~ \$0-snareArray0;
#X obj 900 471 soundfiler;
#X obj 900 500 t b;
#X obj 900 531 \$0;
#X obj 1068 470 soundfiler;
#X obj 1068 499 t b;
#X obj 1068 530 \$0;
#X obj 1237 468 soundfiler;
#X obj 1237 497 t b;
#X obj 1237 528 \$0;
#X msg 731 560 \; \$1-snareArray0 normalize 1;
#X msg 900 558 \; \$1-snareArray1 normalize 1;
#X msg 1068 557 \; \$1-snareArray2 normalize 1;
#X msg 1237 555 \; \$1-snareArray3 normalize 1;
#X obj 339 288 random 4;
#X obj 168 404 s \$0-snareHits;
#X obj 167 554 lop~ 1;
#X obj 168 581 *~;
#X obj 934 50 block~ 1024 1 2;
#X obj 214 321 random 12;
#N canvas 603 144 450 300 mdb 0;
#X obj 63 42 inlet;
#X obj 66 79 spigot;
#X obj 66 103 t b b;
#X msg 99 133 0;
#X msg 133 53 1;
#X obj 133 21 loadbang;
#X obj 72 162 outlet;
#X msg 194 64 1;
#X obj 197 25 inlet;
#X connect 0 0 1 0;
#X connect 1 0 2 0;
#X connect 2 0 6 0;
#X connect 2 1 3 0;
#X connect 3 0 1 1;
#X connect 4 0 1 1;
#X connect 5 0 4 0;
#X connect 7 0 1 1;
#X connect 8 0 7 0;
#X restore 154 170 pd mdb;
#X obj 517 0 r \$0-clock;
#X obj 518 25 t f b f;
#X obj 541 80 random 100;
#X obj 542 103 <;
#X obj 520 136 spigot;
#X obj 612 -49 r notes;
#X obj 615 -2 list prepend read;
#X obj 614 21 list trim;
#X obj 557 49 mm_pattern;
#X obj 615 -24 route 5;
#X connect 0 0 31 0;
#X connect 1 0 4 0;
#X connect 2 0 19 0;
#X connect 4 0 5 0;
#X connect 4 0 16 0;
#X connect 5 0 56 0;
#X connect 6 0 19 1;
#X connect 7 0 14 0;
#X connect 8 0 3 0;
#X connect 9 0 10 0;
#X connect 9 1 12 0;
#X connect 9 2 60 0;
#X connect 9 2 65 0;
#X connect 10 0 61 0;
#X connect 10 0 46 0;
#X connect 11 0 62 0;
#X connect 12 0 13 0;
#X connect 13 0 11 0;
#X connect 14 0 6 0;
#X connect 14 1 15 0;
#X connect 16 0 32 0;
#X connect 17 0 33 0;
#X connect 18 0 34 0;
#X connect 20 0 21 0;
#X connect 21 0 23 0;
#X connect 22 0 23 1;
#X connect 23 0 24 0;
#X connect 24 0 25 0;
#X connect 24 1 26 0;
#X connect 25 0 13 1;
#X connect 26 0 13 1;
#X connect 31 0 1 0;
#X connect 32 0 47 0;
#X connect 33 0 50 0;
#X connect 34 0 53 0;
#X connect 35 0 37 0;
#X connect 36 0 38 0;
#X connect 37 0 46 0;
#X connect 38 0 35 0;
#X connect 38 1 39 0;
#X connect 38 2 41 0;
#X connect 38 3 42 0;
#X connect 39 0 40 0;
#X connect 40 0 46 0;
#X connect 41 0 43 0;
#X connect 42 0 44 0;
#X connect 43 0 46 0;
#X connect 44 0 46 0;
#X connect 45 0 0 0;
#X connect 46 0 8 0;
#X connect 46 1 66 1;
#X connect 47 0 48 0;
#X connect 48 0 49 0;
#X connect 48 0 17 0;
#X connect 49 0 57 0;
#X connect 50 0 51 0;
#X connect 51 0 52 0;
#X connect 51 0 18 0;
#X connect 52 0 58 0;
#X connect 53 0 54 0;
#X connect 54 0 55 0;
#X connect 55 0 59 0;
#X connect 60 0 38 0;
#X connect 62 0 63 1;
#X connect 62 0 63 0;
#X connect 63 0 8 1;
#X connect 65 0 10 1;
#X connect 66 0 9 0;
#X connect 67 0 68 0;
#X connect 68 0 71 0;
#X connect 68 1 69 0;
#X connect 68 2 75 0;
#X connect 69 0 70 0;
#X connect 70 0 71 1;
#X connect 71 0 66 0;
#X connect 72 0 76 0;
#X connect 73 0 74 0;
#X connect 74 0 75 1;
#X connect 75 0 70 1;
#X connect 75 1 70 1;
#X connect 76 0 73 0;
#X restore 269 224 pd sn;
#X msg 190 119 pattern \$1;
#X obj 268 546 lop~ 1;
#N canvas 16 23 1440 752 perc 0;
#X obj 738 563 soundfiler;
#X obj 328 46 inlet;
#X obj 362 591 outlet~;
#X obj 738 592 t b;
#X obj 738 623 \$0;
#N canvas 29 45 502 429 patterns 0;
#X obj 72 17 inlet;
#X obj 71 41 sel 0 1 2 3 4 5 6 7 8;
#X obj 114 327 outlet;
#X msg 72 70 80 5 80 5 80 5 80 5;
#X msg 86 93 5 80 5 80 5 80 5 80;
#X msg 103 118 80 80 80 80 80 80 80 80;
#X msg 119 141 5 80 80 5 5 80 80 5;
#X msg 134 162 85 85 85 85;
#X msg 151 185 5 80 5 80;
#X msg 169 208 80 80 80 1 80 80 80 1 1 80 80 80 1 80 80 80;
#X text 195 377 percussion patterns;
#X msg 186 239 15 15 80 15;
#X msg 201 264 80 50 80 50 80 50 80 50;
#X connect 0 0 1 0;
#X connect 1 0 3 0;
#X connect 1 1 4 0;
#X connect 1 2 5 0;
#X connect 1 3 6 0;
#X connect 1 4 7 0;
#X connect 1 5 8 0;
#X connect 1 6 9 0;
#X connect 1 7 11 0;
#X connect 1 8 12 0;
#X connect 3 0 2 0;
#X connect 4 0 2 0;
#X connect 5 0 2 0;
#X connect 6 0 2 0;
#X connect 7 0 2 0;
#X connect 8 0 2 0;
#X connect 9 0 2 0;
#X connect 11 0 2 0;
#X connect 12 0 2 0;
#X restore 398 138 pd patterns;
#X obj 398 88 inlet;
#X obj 327 557 *~;
#X obj 330 277 t b b b;
#X obj 330 416 del;
#X obj 356 400 * 0.01;
#X obj 356 348 random 45;
#X obj 356 372 + 55;
#X obj 398 114 route pattern sample;
#X obj 455 163 s \$0-percSample;
#X obj 735 372 \$0;
#X obj 748 415 \$0;
#X obj 763 458 \$0;
#X obj 777 504 \$0;
#X obj 331 191 wrandom;
#X obj 414 196 r \$0-clock;
#X obj 414 219 mod 8;
#X obj 491 197 r \$0-accent;
#X obj 414 244 == 0;
#X obj 414 276 sel 0 1;
#X msg 413 306 50;
#X msg 454 305 80;
#X obj 734 343 loadbang;
#X obj 22 42 table \$0-percArray0;
#X obj 22 65 table \$0-percArray1;
#X obj 23 88 table \$0-percArray2;
#X obj 23 111 table \$0-percArray3;
#X msg 735 394 read -resize Hat-6.aif \$1-percArray0;
#X msg 748 438 read -resize Hat-7.aif \$1-percArray1;
#X msg 763 480 read -resize Perc.wav \$1-percArray2;
#X msg 776 524 read -resize Tamb.wav \$1-percArray3;
#X obj 501 364 \$0;
#X obj 501 340 route 0 1 2 3;
#X obj 514 410 \$0;
#X obj 529 458 \$0;
#X obj 542 504 \$0;
#X obj 331 444 tabplay~ \$0-percArray0;
#X msg 500 390 set \$1-percArray0;
#X msg 513 436 set \$1-percArray1;
#X msg 528 486 set \$1-percArray2;
#X msg 541 530 set \$1-percArray3;
#X obj 503 296 r \$0-changePerc;
#X obj 899 564 soundfiler;
#X obj 899 593 t b;
#X obj 899 624 \$0;
#X obj 1057 561 soundfiler;
#X obj 1057 590 t b;
#X obj 1057 621 \$0;
#X obj 1218 562 soundfiler;
#X obj 1218 591 t b;
#X obj 1218 622 \$0;
#X msg 738 650 \; \$1-percArray0 normalize 1;
#X msg 899 651 \; \$1-percArray1 normalize 1;
#X msg 1057 648 \; \$1-percArray2 normalize 1;
#X msg 1218 649 \; \$1-percArray3 normalize 1;
#X obj 223 447 s \$0-percHits;
#X obj 944 60 block~ 1024 1 2;
#X obj 351 508 *~;
#X obj 349 467 lop~ 1;
#N canvas 603 144 450 300 mdb 0;
#X obj 63 42 inlet;
#X obj 66 79 spigot;
#X obj 66 103 t b b;
#X msg 99 133 0;
#X msg 133 53 1;
#X obj 133 21 loadbang;
#X obj 72 162 outlet;
#X msg 194 64 1;
#X obj 197 25 inlet;
#X connect 0 0 1 0;
#X connect 1 0 2 0;
#X connect 2 0 6 0;
#X connect 2 1 3 0;
#X connect 3 0 1 1;
#X connect 4 0 1 1;
#X connect 5 0 4 0;
#X connect 7 0 1 1;
#X connect 8 0 7 0;
#X restore 330 234 pd mdb;
#X obj 393 372 random 5;
#X obj 527 10 r \$0-clock;
#X obj 528 35 t f b f;
#X obj 551 90 random 100;
#X obj 552 113 <;
#X obj 530 146 spigot;
#X obj 622 -39 r notes;
#X obj 625 8 list prepend read;
#X obj 624 31 list trim;
#X obj 567 59 mm_pattern;
#X obj 625 -14 route 6;
#X connect 0 0 3 0;
#X connect 1 0 19 0;
#X connect 3 0 4 0;
#X connect 3 0 16 0;
#X connect 4 0 56 0;
#X connect 5 0 19 1;
#X connect 6 0 13 0;
#X connect 7 0 2 0;
#X connect 8 0 9 0;
#X connect 8 1 11 0;
#X connect 8 2 65 0;
#X connect 9 0 41 0;
#X connect 9 0 60 0;
#X connect 10 0 63 0;
#X connect 11 0 12 0;
#X connect 12 0 10 0;
#X connect 13 0 5 0;
#X connect 13 1 14 0;
#X connect 15 0 32 0;
#X connect 16 0 33 0;
#X connect 17 0 34 0;
#X connect 18 0 35 0;
#X connect 20 0 21 0;
#X connect 21 0 23 0;
#X connect 22 0 23 1;
#X connect 23 0 24 0;
#X connect 24 0 25 0;
#X connect 24 1 26 0;
#X connect 25 0 12 1;
#X connect 26 0 12 1;
#X connect 27 0 15 0;
#X connect 32 0 0 0;
#X connect 33 0 47 0;
#X connect 34 0 50 0;
#X connect 35 0 53 0;
#X connect 36 0 42 0;
#X connect 37 0 36 0;
#X connect 37 1 38 0;
#X connect 37 2 39 0;
#X connect 37 3 40 0;
#X connect 38 0 43 0;
#X connect 39 0 44 0;
#X connect 40 0 45 0;
#X connect 41 0 7 0;
#X connect 41 1 64 1;
#X connect 42 0 41 0;
#X connect 43 0 41 0;
#X connect 44 0 41 0;
#X connect 45 0 41 0;
#X connect 46 0 37 0;
#X connect 47 0 48 0;
#X connect 48 0 49 0;
#X connect 48 0 17 0;
#X connect 49 0 57 0;
#X connect 50 0 51 0;
#X connect 51 0 52 0;
#X connect 51 0 18 0;
#X connect 52 0 58 0;
#X connect 53 0 54 0;
#X connect 54 0 55 0;
#X connect 55 0 59 0;
#X connect 62 0 7 1;
#X connect 63 0 62 1;
#X connect 63 0 62 0;
#X connect 64 0 8 0;
#X connect 65 0 9 1;
#X connect 66 0 67 0;
#X connect 67 0 70 0;
#X connect 67 1 68 0;
#X connect 67 2 74 0;
#X connect 68 0 69 0;
#X connect 69 0 70 1;
#X connect 70 0 64 0;
#X connect 71 0 75 0;
#X connect 72 0 73 0;
#X connect 73 0 74 1;
#X connect 74 0 69 1;
#X connect 74 1 69 1;
#X connect 75 0 72 0;
#X restore 116 225 pd perc;
#X msg 313 114 sample \$1;
#X obj 377 215 r \$0-detectedTempo;
#X obj 158 262 r \$0-detectedTempo;
#N canvas 501 222 450 300 toFuzz 0;
#X obj 75 -66 inlet~;
#X obj 76 197 throw~ toFuzz;
#X obj 76 167 *~;
#X obj 101 144 lop~ 1;
#X obj 154 44 random 100;
#X obj 152 67 * 0.01;
#X obj 152 91 *;
#X obj 37 36 r onOff;
#X obj 37 63 sel 0;
#X msg 36 90 0;
#X obj 152 -20 r randomize;
#X obj 154 13 t b;
#X connect 0 0 2 0;
#X connect 2 0 1 0;
#X connect 3 0 2 1;
#X connect 4 0 5 0;
#X connect 5 0 6 1;
#X connect 5 0 6 0;
#X connect 6 0 3 0;
#X connect 7 0 8 0;
#X connect 8 0 9 0;
#X connect 9 0 3 0;
#X connect 10 0 11 0;
#X connect 11 0 4 0;
#X restore 443 709 pd toFuzz;
#X obj 225 473 r drumsVolume;
#X obj 329 429 loadbang;
#X obj 390 245 r randomize;
#X obj 222 616 r randomize;
#X obj 180 284 r randomize;
#X obj 313 86 r drumSample;
#X obj 190 85 r drumPattern;
#X obj 107 151 r \$0-clock;
#X msg 316 488 0.25;
#X obj 295 306 mm_randFilter~;
#X obj 39 390 mm_randFilter~;
#X obj 176 650 birdPan~;
#X msg 360 403 0;
#X obj 326 646 *~;
#X obj 171 588 *~;
#N canvas 710 242 450 300 toTremelo 0;
#X obj 75 -66 inlet~;
#X obj 76 167 *~;
#X obj 101 144 lop~ 1;
#X obj 154 44 random 100;
#X obj 152 67 * 0.01;
#X obj 152 91 *;
#X obj 37 36 r onOff;
#X obj 37 63 sel 0;
#X obj 155 15 t b;
#X obj 156 -9 r randomize2;
#X obj 76 208 throw~ toTremelo;
#X msg 39 92 0;
#X connect 0 0 1 0;
#X connect 1 0 10 0;
#X connect 2 0 1 1;
#X connect 3 0 4 0;
#X connect 4 0 5 1;
#X connect 4 0 5 0;
#X connect 5 0 2 0;
#X connect 6 0 7 0;
#X connect 7 0 11 0;
#X connect 8 0 3 0;
#X connect 9 0 8 0;
#X connect 11 0 2 0;
#X restore 80 648 pd toTremelo;
#N canvas 710 242 450 300 toTremelo 0;
#X obj 75 -66 inlet~;
#X obj 76 167 *~;
#X obj 101 144 lop~ 1;
#X obj 154 44 random 100;
#X obj 152 67 * 0.01;
#X obj 152 91 *;
#X obj 37 36 r onOff;
#X obj 37 63 sel 0;
#X obj 155 15 t b;
#X obj 76 208 throw~ toTremelo;
#X msg 39 92 0;
#X obj 156 -9 r randomize3;
#X connect 0 0 1 0;
#X connect 1 0 9 0;
#X connect 2 0 1 1;
#X connect 3 0 4 0;
#X connect 4 0 5 1;
#X connect 4 0 5 0;
#X connect 5 0 2 0;
#X connect 6 0 7 0;
#X connect 7 0 10 0;
#X connect 8 0 3 0;
#X connect 10 0 2 0;
#X connect 11 0 8 0;
#X restore 439 680 pd toTremelo;
#N canvas 501 222 450 300 toFuzz 0;
#X obj 75 -66 inlet~;
#X obj 76 197 throw~ toFuzz;
#X obj 76 167 *~;
#X obj 101 144 lop~ 1;
#X obj 154 44 random 100;
#X obj 152 67 * 0.01;
#X obj 152 91 *;
#X obj 37 36 r onOff;
#X obj 37 63 sel 0;
#X msg 36 90 0;
#X obj 154 13 t b;
#X obj 152 -20 r randomize2;
#X connect 0 0 2 0;
#X connect 2 0 1 0;
#X connect 3 0 2 1;
#X connect 4 0 5 0;
#X connect 5 0 6 1;
#X connect 5 0 6 0;
#X connect 6 0 3 0;
#X connect 7 0 8 0;
#X connect 8 0 9 0;
#X connect 9 0 3 0;
#X connect 10 0 4 0;
#X connect 11 0 10 0;
#X restore 64 679 pd toFuzz;
#X obj 465 55 r drumPattern;
#X obj 465 79 t b;
#X obj 465 100 random 8;
#X obj 466 126 s \$0-accent;
#X obj 563 57 loadbang;
#X obj 370 340 r \$0-detectedTempo;
#X obj 381 365 r randomize1;
#X obj 91 464 mm_monoSyncDelay;
#X obj 197 420 r \$0-detectedTempo;
#X obj 176 393 r randomize2;
#X msg 475 362 feedback 0.6;
#X obj 489 329 loadbang;
#X obj 224 513 mm_xfade;
#X obj 162 310 r randomize1;
#X obj 169 333 r randomize3;
#X obj 305 346 *~ 0.5;
#X obj 753 137 samplerate~;
#X obj 755 160 == 44100;
#X obj 718 186 spigot;
#X obj 709 114 t b b;
#X obj 707 59 r onOff;
#X obj 708 82 sel 1;
#X obj 714 330 s sampleRate;
#X obj 319 512 f;
#X obj 348 468 r resetVolume;
#X obj 269 379 mm_monoSyncDelay;
#X obj 736 524 switch~;
#X obj 735 467 loadbang;
#X obj 718 269 random 2;
#X obj 716 297 + 1;
#X msg 738 498 1;
#X obj 328 249 bng 15 250 50 0 empty empty empty 17 7 0 10 -262144
-1 -1;
#X obj 779 208 r \$0-timer;
#X msg 792 262 seed \$1;
#X obj 791 238 mod 110;
#X obj 326 621 *~ 1;
#X obj 128 540 *~ 1;
#X obj 93 494 *~ 0.5;
#X obj 281 410 *~ 0.5;
#X obj 326 568 *~ 1.5;
#X obj 39 430 *~ 0.5;
#X obj 394 514 *~ 1.1;
#X obj 345 722 scope drumScope;
#X obj 19 639 scope percScope;
#X obj 393 636 scope kickScope;
#X obj 486 593 scope snareScope;
#X connect 0 0 68 0;
#X connect 3 0 20 0;
#X connect 3 0 54 0;
#X connect 3 0 70 0;
#X connect 4 0 3 1;
#X connect 4 0 0 1;
#X connect 4 0 6 1;
#X connect 5 0 24 1;
#X connect 5 0 25 1;
#X connect 6 0 21 0;
#X connect 6 0 36 0;
#X connect 6 0 65 0;
#X connect 7 0 3 1;
#X connect 7 0 0 1;
#X connect 7 0 6 1;
#X connect 8 0 20 1;
#X connect 9 0 21 1;
#X connect 11 0 41 0;
#X connect 11 0 52 1;
#X connect 12 0 19 0;
#X connect 13 0 20 1;
#X connect 14 0 22 1;
#X connect 15 0 21 1;
#X connect 15 0 20 1;
#X connect 15 0 54 1;
#X connect 16 0 7 0;
#X connect 17 0 4 0;
#X connect 18 0 6 0;
#X connect 18 0 0 0;
#X connect 18 0 3 0;
#X connect 19 0 41 0;
#X connect 19 0 52 1;
#X connect 20 0 44 0;
#X connect 21 0 69 0;
#X connect 22 0 1 0;
#X connect 22 0 71 0;
#X connect 22 1 2 0;
#X connect 22 1 71 0;
#X connect 23 0 41 0;
#X connect 24 0 10 0;
#X connect 24 0 27 0;
#X connect 24 0 2 0;
#X connect 24 0 1 0;
#X connect 24 0 71 0;
#X connect 25 0 26 0;
#X connect 25 0 28 0;
#X connect 25 0 22 0;
#X connect 25 0 72 0;
#X connect 29 0 30 0;
#X connect 30 0 31 0;
#X connect 31 0 32 0;
#X connect 33 0 31 0;
#X connect 34 0 54 1;
#X connect 35 0 54 1;
#X connect 36 0 66 0;
#X connect 37 0 36 1;
#X connect 38 0 36 1;
#X connect 39 0 36 1;
#X connect 39 0 54 1;
#X connect 40 0 39 0;
#X connect 41 2 5 0;
#X connect 42 0 21 1;
#X connect 42 0 20 1;
#X connect 43 0 21 1;
#X connect 43 0 20 1;
#X connect 43 0 36 1;
#X connect 44 0 70 0;
#X connect 45 0 46 0;
#X connect 46 0 47 1;
#X connect 47 0 57 0;
#X connect 48 0 47 0;
#X connect 48 1 45 0;
#X connect 49 0 50 0;
#X connect 50 0 48 0;
#X connect 52 0 41 0;
#X connect 53 0 52 0;
#X connect 54 0 67 0;
#X connect 56 0 59 0;
#X connect 57 0 58 0;
#X connect 58 0 51 0;
#X connect 59 0 55 0;
#X connect 60 0 20 1;
#X connect 61 0 63 0;
#X connect 62 0 57 0;
#X connect 63 0 62 0;
#X connect 64 0 24 0;
#X connect 65 0 25 0;
#X connect 66 0 65 0;
#X connect 67 0 70 0;
#X connect 68 0 64 0;
#X connect 68 0 73 0;
#X connect 69 0 65 0;
#X connect 70 0 24 0;
#X connect 70 0 74 0;
#X restore 811 -12 pd drums;
#N canvas 484 163 914 637 out 0;
#X obj 113 435 dac~;
#X obj 31 3 r~ toDacL;
#X obj -9 -26 r~ toDacR;
#X obj 161 307 hip~ 4;
#X obj 79 307 hip~ 4;
#X obj 158 329 clip~ -1 1;
#X obj 80 329 clip~ -1 1;
#X obj 186 127 r audioSwitch;
#X msg 186 196 \$1 30;
#X obj 188 225 vline~;
#X obj 191 252 *~;
#X obj 127 244 *~;
#X obj 42 194 *~;
#X obj 94 400 *~ 1.2;
#X obj 143 396 *~ 1.2;
#X connect 1 0 11 0;
#X connect 2 0 12 0;
#X connect 3 0 5 0;
#X connect 4 0 6 0;
#X connect 5 0 14 0;
#X connect 6 0 13 0;
#X connect 7 0 8 0;
#X connect 8 0 9 0;
#X connect 9 0 10 1;
#X connect 9 0 10 0;
#X connect 10 0 11 1;
#X connect 10 0 12 1;
#X connect 11 0 3 0;
#X connect 12 0 4 0;
#X connect 13 0 0 0;
#X connect 14 0 0 1;
#X restore 869 15 pd out;
#N canvas 805 219 556 476 taptempo 0;
#X obj 184 -192 r tapTempo;
#X obj 162 150 er_contAvg;
#X obj 185 16 timer;
#X obj 185 -8 t b b;
#X obj 211 58 > 1500;
#X obj 184 37 t f f;
#X obj 211 81 t f f;
#X obj 238 108 sel 1;
#X obj 162 129 spigot;
#N canvas 695 279 450 300 inv 0;
#X obj 98 49 inlet;
#X obj 100 88 swap 1;
#X obj 102 115 -;
#X obj 97 145 outlet;
#X connect 0 0 1 0;
#X connect 1 0 2 0;
#X connect 1 1 2 1;
#X connect 2 0 3 0;
#X restore 196 108 pd inv;
#X obj 162 176 swap 60000;
#X obj 181 200 /;
#X obj 183 228 int;
#X obj 317 266 s \$0-detectedTempo;
#X obj 67 -29 bng 15 250 50 0 empty empty empty 17 7 0 10 -262144 -1
-1;
#X obj 181 278 s detectedTempo;
#X msg 318 235 tempo \$1;
#N canvas 695 279 450 300 inv 0;
#X obj 98 49 inlet;
#X obj 100 88 swap 1;
#X obj 102 115 -;
#X obj 97 145 outlet;
#X connect 0 0 1 0;
#X connect 1 0 2 0;
#X connect 1 1 2 1;
#X connect 2 0 3 0;
#X restore 227 -86 pd inv;
#X obj 189 -55 spigot;
#X obj 226 -117 r lockTempo;
#X msg 288 -86 0;
#X obj 306 -115 loadbang;
#X connect 0 0 18 0;
#X connect 1 0 10 0;
#X connect 2 0 5 0;
#X connect 3 0 2 0;
#X connect 3 1 2 1;
#X connect 4 0 6 0;
#X connect 5 0 8 0;
#X connect 5 1 4 0;
#X connect 6 0 9 0;
#X connect 6 1 7 0;
#X connect 7 0 1 1;
#X connect 8 0 1 0;
#X connect 9 0 8 1;
#X connect 10 0 11 0;
#X connect 10 1 11 1;
#X connect 11 0 12 0;
#X connect 12 0 15 0;
#X connect 12 0 16 0;
#X connect 14 0 3 0;
#X connect 16 0 13 0;
#X connect 17 0 18 1;
#X connect 18 0 3 0;
#X connect 19 0 17 0;
#X connect 20 0 17 0;
#X connect 21 0 20 0;
#X restore 880 -61 pd taptempo;
#N canvas 80 22 1440 754 fx 0;
#X obj 246 -22 catch~ outputR;
#X obj 330 6 catch~ outputL;
#X obj 432 136 loadbang;
#X obj 565 695 s~ toDacL;
#X obj 209 703 s~ toDacR;
#X obj 337 76 r \$0-detectedTempo;
#X obj 29 -17 catch~ toFuzz;
#N canvas 420 196 721 606 fuzz 0;
#X obj 63 -146 inlet~;
#X obj 64 162 expr~ atan($v1);
#X obj 64 131 *~;
#X obj 102 -59 t f f b;
#X obj 99 98 vline~;
#X msg 101 74 \$2 \, \$1 \$3;
#X obj 192 -94 r \$0-detectedTempo;
#X obj 191 -47 swap 60000;
#X obj 210 -21 /;
#X obj 209 3 * 4;
#X obj 102 49 pack f f f;
#X obj 125 -20 f 10;
#X obj 110 -162 random 100;
#X obj 210 115 r \$0-clock;
#X obj 207 166 sel 0;
#X msg 206 190 randomize;
#X obj 114 265 throw~ outputL;
#X obj 66 300 throw~ outputR;
#X obj 192 -69 route tempo;
#X obj 109 -212 r randomize;
#X obj 110 -187 t b;
#X obj 111 -139 * 0.01;
#X obj 110 -114 *;
#X obj 104 -85 * 100;
#X obj 209 143 mod 16;
#X obj 62 232 birdPan~;
#X obj 63 195 *~ 0.055;
#X obj 359 270 scope fuzzScope;
#X connect 0 0 2 0;
#X connect 1 0 26 0;
#X connect 2 0 1 0;
#X connect 3 0 10 0;
#X connect 3 1 11 1;
#X connect 3 2 11 0;
#X connect 4 0 2 1;
#X connect 5 0 4 0;
#X connect 6 0 18 0;
#X connect 7 0 8 0;
#X connect 7 1 8 1;
#X connect 8 0 9 0;
#X connect 9 0 10 2;
#X connect 10 0 5 0;
#X connect 11 0 10 1;
#X connect 12 0 21 0;
#X connect 13 0 24 0;
#X connect 14 0 15 0;
#X connect 15 0 25 1;
#X connect 18 0 7 0;
#X connect 19 0 20 0;
#X connect 20 0 12 0;
#X connect 21 0 22 1;
#X connect 21 0 22 0;
#X connect 22 0 23 0;
#X connect 23 0 3 0;
#X connect 24 0 14 0;
#X connect 25 0 17 0;
#X connect 25 0 27 0;
#X connect 25 1 16 0;
#X connect 25 1 27 0;
#X connect 26 0 25 0;
#X restore 29 19 pd fuzz;
#X obj 479 73 r randomize;
#X obj 491 118 r randomize2;
#X obj 236 198 mm_stereoChorus;
#X obj 24 74 catch~ toTremelo;
#N canvas 154 77 721 606 tremelo 0;
#X obj 42 -199 inlet~;
#X obj 50 300 *~;
#X obj 122 -119 r \$0-detectedTempo;
#X obj 333 240 r \$0-clock;
#X obj 330 291 sel 0;
#X msg 329 315 randomize;
#X obj 103 411 throw~ outputL;
#X obj 55 441 throw~ outputR;
#X obj 120 -54 route tempo;
#X obj 332 268 mod 16;
#X obj 51 373 birdPan~;
#X obj 119 126 osc~;
#X obj 121 -25 / 60;
#X obj 120 38 * 1;
#X obj 120 70 t f b;
#X msg 144 100 0;
#X obj 154 9 t b f;
#X floatatom 166 -21 5 0 0 0 - - -;
#X obj 233 -90 r \$0-clock;
#X obj 232 -65 mod 32;
#X obj 232 -41 sel 0;
#X obj 119 150 +~ 1;
#X obj 118 174 *~ 0.5;
#X obj 117 264 pow~ 2;
#X obj 179 233 sig~;
#X obj 180 115 r \$0-clock;
#X obj 179 140 mod 32;
#X obj 179 164 sel 0;
#X obj 178 184 random 8;
#X obj 178 209 + 1;
#X obj 232 -18 random 8;
#X obj 232 7 + 1;
#X obj 50 334 *~ 1.2;
#X obj 301 395 scope tremeloScope;
#X connect 0 0 1 0;
#X connect 1 0 32 0;
#X connect 2 0 8 0;
#X connect 3 0 9 0;
#X connect 4 0 5 0;
#X connect 5 0 10 1;
#X connect 8 0 12 0;
#X connect 9 0 4 0;
#X connect 10 0 7 0;
#X connect 10 0 33 0;
#X connect 10 1 6 0;
#X connect 10 1 33 0;
#X connect 11 0 21 0;
#X connect 12 0 13 0;
#X connect 13 0 14 0;
#X connect 14 0 11 0;
#X connect 14 1 15 0;
#X connect 15 0 11 1;
#X connect 16 0 13 0;
#X connect 16 1 13 1;
#X connect 17 0 16 0;
#X connect 18 0 19 0;
#X connect 19 0 20 0;
#X connect 20 0 30 0;
#X connect 21 0 22 0;
#X connect 22 0 23 0;
#X connect 23 0 1 1;
#X connect 24 0 23 1;
#X connect 25 0 26 0;
#X connect 26 0 27 0;
#X connect 27 0 28 0;
#X connect 28 0 29 0;
#X connect 29 0 24 0;
#X connect 30 0 31 0;
#X connect 31 0 16 0;
#X connect 32 0 10 0;
#X restore 24 110 pd tremelo;
#X obj 224 356 mm_compressor;
#X obj 350 352 mm_compressor;
#X obj 492 97 r randomize1;
#X obj 493 141 r randomize3;
#N canvas 0 22 450 278 (subpatch) 0;
#X array array1 100 float 3;
#A 0 -3.89629e-05 -3.86288e-05 -3.84932e-05 -3.89189e-05 -4.02564e-05
-4.28198e-05 -4.58072e-05 -4.82176e-05 -4.89252e-05 -4.70028e-05 -4.1956e-05
-3.37832e-05 -2.26361e-05 -9.79505e-06 3.54509e-06 1.61527e-05 2.68821e-05
3.57876e-05 4.2069e-05 4.65599e-05 5.05392e-05 5.40161e-05 5.79609e-05
6.26689e-05 6.77576e-05 7.22616e-05 7.54571e-05 7.64447e-05 7.3521e-05
6.6174e-05 5.43658e-05 3.8555e-05 1.95516e-05 -8.39897e-07 -2.11855e-05
-3.97479e-05 -5.47803e-05 -6.55799e-05 -7.1681e-05 -7.2594e-05 -6.88145e-05
-6.18228e-05 -5.23938e-05 -4.07787e-05 -2.87299e-05 -1.6401e-05 -4.51773e-06
7.83099e-06 1.98388e-05 3.18239e-05 4.36443e-05 5.6003e-05 6.76981e-05
7.8561e-05 8.79076e-05 9.48336e-05 9.97215e-05 0.000101043 9.90232e-05
9.33738e-05 8.44852e-05 7.25573e-05 5.82113e-05 4.20663e-05 2.53026e-05
8.59656e-06 -7.52873e-06 -2.2031e-05 -3.44499e-05 -4.5027e-05 -5.39743e-05
-6.06028e-05 -6.62677e-05 -7.10955e-05 -7.55267e-05 -7.98909e-05 -8.40914e-05
-8.81032e-05 -9.12278e-05 -9.33391e-05 -9.37024e-05 -9.13715e-05 -8.61029e-05
-7.70898e-05 -6.38528e-05 -4.70727e-05 -2.69291e-05 -4.32781e-06 1.90879e-05
4.18384e-05 6.21207e-05 7.81785e-05 8.86768e-05 9.26771e-05 8.96407e-05
8.04412e-05 6.59003e-05 4.7522e-05 2.70143e-05 6.23735e-06;
#X coords 0 1 99 -1 200 140 1;
#X restore 986 -18 graph;
#X obj 344 434 hip~ 4;
#X obj 225 432 hip~ 4;
#X obj 227 508 clip~ -1 1;
#X obj 347 515 clip~ -1 1;
#X msg 435 181 switch 1 \, threshold 95 \, ratio 1.1;
#X obj 394 308 *~ 0.6;
#X obj 340 309 *~ 0.4;
#X obj 248 283 *~ 0.6;
#X obj 224 258 *~ 0.4;
#X obj 286 603 env~ 44100;
#X obj 345 476 *~ 1;
#X obj 224 467 *~ 1;
#X obj 361 707 s rms;
#X obj 328 642 clip 0 100;
#X obj 228 559 *~ 1.2;
#X obj 351 553 *~ 1.2;
#X connect 0 0 10 0;
#X connect 0 0 25 0;
#X connect 0 0 19 0;
#X connect 1 0 10 1;
#X connect 1 0 23 0;
#X connect 1 0 18 0;
#X connect 2 0 22 0;
#X connect 5 0 10 2;
#X connect 6 0 7 0;
#X connect 8 0 10 2;
#X connect 9 0 10 2;
#X connect 10 0 26 0;
#X connect 10 1 24 0;
#X connect 11 0 12 0;
#X connect 13 0 19 0;
#X connect 14 0 18 0;
#X connect 15 0 10 2;
#X connect 16 0 10 2;
#X connect 18 0 28 0;
#X connect 19 0 29 0;
#X connect 20 0 27 0;
#X connect 20 0 32 0;
#X connect 21 0 33 0;
#X connect 22 0 13 1;
#X connect 22 0 14 1;
#X connect 23 0 14 0;
#X connect 24 0 14 0;
#X connect 25 0 13 0;
#X connect 26 0 13 0;
#X connect 27 0 31 0;
#X connect 28 0 21 0;
#X connect 29 0 20 0;
#X connect 31 0 30 0;
#X connect 32 0 4 0;
#X connect 33 0 3 0;
#X connect 33 0 27 0;
#X restore 829 15 pd fx;
#N canvas 68 23 1440 755 bass 0;
#X obj 460 902 throw~ outputL;
#X obj 558 901 throw~ outputR;
#X obj 526 236 t f b;
#N canvas 710 242 450 300 toFuzz 0;
#X obj 75 -66 inlet~;
#X obj 76 197 throw~ toFuzz;
#X obj 76 167 *~;
#X obj 101 144 lop~ 1;
#X obj 154 44 random 100;
#X obj 152 91 *;
#X obj 99 22 r onOff;
#X obj 99 49 sel 0;
#X msg 98 76 0;
#X obj 155 18 t b;
#X obj 157 -7 r randomize2;
#X obj 152 67 * 0.0075;
#X connect 0 0 2 0;
#X connect 2 0 1 0;
#X connect 3 0 2 1;
#X connect 4 0 11 0;
#X connect 5 0 3 0;
#X connect 6 0 7 0;
#X connect 7 0 8 0;
#X connect 8 0 3 0;
#X connect 9 0 4 0;
#X connect 10 0 9 0;
#X connect 11 0 5 1;
#X connect 11 0 5 0;
#X restore 679 881 pd toFuzz;
#X obj 518 799 *~;
#X obj 694 700 lop~ 1;
#X obj 731 611 r bassVolume;
#X obj 826 611 loadbang;
#X obj 511 118 f;
#X obj 563 69 r \$0-kickHits;
#X obj 371 46 s \$0-note0;
#X obj 514 -42 +;
#X obj 530 -69 r \$0-theRoot;
#X obj 895 133 r randomize3;
#X obj 569 814 r randomize1;
#X obj 568 785 r \$0-detectedTempo;
#X obj 733 641 mm_xfade;
#X obj 522 759 hip~ 4;
#X msg 692 662 0;
#X obj 662 34 r \$0-randomNotes;
#X obj 523 5 spigot;
#N canvas 552 254 450 300 inv 0;
#X obj 93 21 inlet;
#X obj 91 56 swap 1;
#X obj 89 89 -;
#X obj 87 130 outlet;
#X connect 0 0 1 0;
#X connect 1 0 2 0;
#X connect 1 1 2 1;
#X connect 2 0 3 0;
#X restore 591 -12 pd inv;
#X obj 663 60 route 0;
#X obj 623 -84 r \$0-0shouldImprovise;
#X obj 511 141 t b b f;
#X obj 511 168 del;
#X obj 510 199 f;
#X obj 638 546 r \$0-detectedTempo;
#X obj 662 117 spigot;
#X obj 701 89 r \$0-0shouldImprovise;
#X obj 883 225 mm_rlist 7;
#X obj 883 249 list prepend randomlist;
#X obj 882 271 list trim;
#X obj 880 180 bng 15 250 50 0 empty empty empty 17 7 0 10 -262144
-1 -1;
#X obj 880 201 t b b b;
#X obj 873 107 r randomize1;
#X obj 985 79 r \$0-timer;
#X msg 987 176 seed \$1;
#X obj 986 154 mod 140;
#X obj 919 373 list;
#X obj 917 401 list trim;
#X obj 887 298 route randomlist;
#X obj 522 45 mod 12;
#X obj 523 69 + 24;
#X obj 370 16 mod 12;
#X obj 663 85 + 24;
#X floatatom 785 697 5 0 0 0 - - -;
#X floatatom 754 681 5 0 0 0 - - -;
#X obj 474 835 mm_stereoChorus;
#X msg 826 635 0.25;
#X obj 527 597 mm_bassosc3~;
#X obj 636 412 r onOff;
#X obj 635 456 sel 0;
#X msg 635 504 0;
#X obj 635 477 del 1000;
#X msg 848 673 0.25;
#X obj 851 697 f;
#X obj 880 653 r resetVolume;
#X obj 147 404 switch~;
#X obj 146 347 loadbang;
#X msg 149 378 1;
#X obj 508 364 * 12;
#X obj 483 385 +;
#X obj 481 275 t f b;
#X obj 508 305 random 3;
#X obj 507 331 - 1;
#X obj 469 451 <= 24;
#X obj 429 420 t f f;
#X obj 429 513 +;
#X obj 469 475 * 12;
#X obj 431 546 moses 24;
#X obj 524 722 mm_asr~;
#N canvas 470 107 702 469 renv 0;
#X obj 99 144 random 150;
#X obj 142 185 random 950;
#X obj 141 214 + 50;
#X obj 199 227 random 200;
#X obj 102 32 inlet;
#X obj 101 58 bang;
#X obj 96 404 outlet;
#X obj 96 348 pack f f f;
#X obj 100 100 trigger b b b;
#X msg 96 374 a \$1 \, s \$2 \, r \$3 \, v 0;
#X connect 0 0 7 0;
#X connect 1 0 2 0;
#X connect 2 0 7 1;
#X connect 3 0 7 2;
#X connect 4 0 5 0;
#X connect 5 0 8 0;
#X connect 7 0 9 0;
#X connect 8 0 0 0;
#X connect 8 1 1 0;
#X connect 8 2 3 0;
#X connect 9 0 6 0;
#X restore 568 692 pd renv;
#X obj 572 641 r randomize1;
#X obj 571 666 t b;
#X obj 445 -190 r \$0-clock;
#X obj 523 -160 r alterPattern0;
#X obj 527 -259 r notes;
#X obj 522 -215 list prepend read;
#X obj 521 -192 list trim;
#X obj 522 -237 route 0;
#X msg 627 -33 0;
#X obj 661 -59 loadbang;
#X obj 446 -97 mm_pattern;
#X obj 562 165 random 15;
#X obj 307 890 scope bassScope;
#X connect 2 0 63 0;
#X connect 2 1 71 1;
#X connect 4 0 3 0;
#X connect 4 0 48 0;
#X connect 4 0 48 1;
#X connect 5 0 4 1;
#X connect 6 0 16 0;
#X connect 6 0 56 1;
#X connect 7 0 49 0;
#X connect 7 0 55 0;
#X connect 8 0 24 0;
#X connect 9 0 8 0;
#X connect 11 0 20 0;
#X connect 11 0 44 0;
#X connect 12 0 11 1;
#X connect 13 0 33 0;
#X connect 14 0 48 2;
#X connect 15 0 48 2;
#X connect 16 0 47 0;
#X connect 16 2 46 0;
#X connect 16 2 5 0;
#X connect 17 0 4 0;
#X connect 18 0 5 0;
#X connect 19 0 22 0;
#X connect 20 0 42 0;
#X connect 21 0 20 1;
#X connect 22 0 45 0;
#X connect 23 0 21 0;
#X connect 24 0 25 0;
#X connect 24 1 84 0;
#X connect 24 2 26 1;
#X connect 25 0 26 0;
#X connect 26 0 2 0;
#X connect 27 0 50 1;
#X connect 28 0 8 1;
#X connect 29 0 28 1;
#X connect 30 0 31 0;
#X connect 31 0 32 0;
#X connect 32 0 41 0;
#X connect 32 0 50 1;
#X connect 33 0 34 0;
#X connect 34 0 30 0;
#X connect 34 1 39 0;
#X connect 35 0 33 0;
#X connect 36 0 38 0;
#X connect 37 0 30 1;
#X connect 38 0 37 0;
#X connect 39 0 40 0;
#X connect 41 0 39 1;
#X connect 42 0 43 0;
#X connect 43 0 8 1;
#X connect 43 0 8 0;
#X connect 44 0 10 0;
#X connect 45 0 28 0;
#X connect 48 0 0 0;
#X connect 48 0 85 0;
#X connect 48 1 1 0;
#X connect 48 1 85 0;
#X connect 49 0 16 0;
#X connect 50 0 71 0;
#X connect 51 0 52 0;
#X connect 52 0 54 0;
#X connect 53 0 50 0;
#X connect 54 0 53 0;
#X connect 55 0 56 1;
#X connect 56 0 16 0;
#X connect 57 0 56 0;
#X connect 59 0 60 0;
#X connect 60 0 58 0;
#X connect 61 0 62 1;
#X connect 62 0 67 0;
#X connect 63 0 62 0;
#X connect 63 1 64 0;
#X connect 64 0 65 0;
#X connect 65 0 61 0;
#X connect 66 0 69 0;
#X connect 67 0 68 0;
#X connect 67 1 66 0;
#X connect 68 0 70 0;
#X connect 69 0 68 1;
#X connect 70 1 50 0;
#X connect 71 0 17 0;
#X connect 72 0 71 2;
#X connect 73 0 74 0;
#X connect 74 0 72 0;
#X connect 75 0 83 0;
#X connect 76 0 83 1;
#X connect 77 0 80 0;
#X connect 78 0 79 0;
#X connect 79 0 83 1;
#X connect 80 0 78 0;
#X connect 81 0 21 0;
#X connect 82 0 81 0;
#X connect 83 1 11 0;
#X connect 84 0 25 1;
#X restore 878 -35 pd bass;
#X obj 637 -89 s onOff;
#X obj 638 -109 tgl 15 0 empty empty empty 17 7 0 10 -262144 -1 -1
0 1;
#N canvas 187 73 1440 754 synth 0;
#X obj 457 1498 throw~ outputL;
#X obj 621 1498 throw~ outputR;
#X obj 509 553 t f b;
#X obj 455 551 t f b;
#N canvas 710 242 450 300 toFuzz 0;
#X obj 75 -66 inlet~;
#X obj 76 197 throw~ toFuzz;
#X obj 76 167 *~;
#X obj 101 144 lop~ 1;
#X obj 154 44 random 100;
#X obj 152 67 * 0.01;
#X obj 152 91 *;
#X obj 37 36 r onOff;
#X obj 37 63 sel 0;
#X msg 36 90 0;
#X obj 155 15 t b;
#X obj 156 -9 r randomize2;
#X connect 0 0 2 0;
#X connect 2 0 1 0;
#X connect 3 0 2 1;
#X connect 4 0 5 0;
#X connect 5 0 6 1;
#X connect 5 0 6 0;
#X connect 6 0 3 0;
#X connect 7 0 8 0;
#X connect 8 0 9 0;
#X connect 9 0 3 0;
#X connect 10 0 4 0;
#X connect 11 0 10 0;
#X restore 882 1159 pd toFuzz;
#X obj 470 1153 r \$0-detectedTempo;
#X obj 587 1409 r \$0-detectedTempo;
#X obj 576 550 t f b;
#X obj 511 1335 r randomize;
#X obj 437 -147 mod 12;
#X obj 436 -115 s \$0-note1;
#X obj 591 130 s \$0-note3;
#X obj 495 976 r \$0-clock;
#X obj 495 1024 sel 0;
#X msg 495 1046 randomize;
#X obj 505 33 s \$0-note2;
#X obj 504 9 mod 12;
#X obj 590 127 mod 12;
#X obj 424 -171 +;
#X obj 440 -210 r \$0-theRoot;
#X obj 501 -16 +;
#X obj 513 -53 r \$0-theRoot;
#X obj 587 88 +;
#X obj 610 57 r \$0-theRoot;
#X obj 162 -52 route 1 2 3;
#X obj 164 -114 r \$0-randomNotes;
#X obj 439 178 spigot;
#X obj 509 220 spigot;
#X obj 571 223 spigot;
#N canvas 552 254 450 300 inv 0;
#X obj 93 21 inlet;
#X obj 91 56 swap 1;
#X obj 89 89 -;
#X obj 87 130 outlet;
#X connect 0 0 1 0;
#X connect 1 0 2 0;
#X connect 1 1 2 1;
#X connect 2 0 3 0;
#X restore 472 155 pd inv;
#N canvas 552 254 450 300 inv 0;
#X obj 93 21 inlet;
#X obj 91 56 swap 1;
#X obj 89 89 -;
#X obj 87 130 outlet;
#X connect 0 0 1 0;
#X connect 1 0 2 0;
#X connect 1 1 2 1;
#X connect 2 0 3 0;
#X restore 537 178 pd inv;
#N canvas 552 254 450 300 inv 0;
#X obj 93 21 inlet;
#X obj 91 56 swap 1;
#X obj 89 89 -;
#X obj 87 130 outlet;
#X connect 0 0 1 0;
#X connect 1 0 2 0;
#X connect 1 1 2 1;
#X connect 2 0 3 0;
#X restore 602 200 pd inv;
#X obj 479 1186 r randomize3;
#X floatatom 670 108 5 0 0 0 - - -;
#X obj 711 1170 r \$0-detectedTempo;
#X obj 626 1227 mm_randFilter~;
#X obj 769 1322 r \$0-detectedTempo;
#X obj 577 979 r \$0-clock;
#X obj 571 1027 sel 0;
#X msg 572 1051 randomize;
#X obj 663 977 r \$0-clock;
#X obj 663 1025 sel 0;
#X msg 663 1047 randomize;
#X obj 616 1073 birdPan~;
#X obj 874 106 r randomize;
#X obj 891 132 r randomize1;
#X obj 905 1337 r \$0-clock;
#X obj 904 1359 sel 0;
#X msg 714 1420 randomize;
#X obj 494 1003 mod 32;
#X obj 577 1002 mod 32;
#X obj 662 1004 mod 32;
#X obj 385 1210 mm_randFilter~;
#X obj 437 1086 birdPan~;
#X obj 528 1075 birdPan~;
#X obj 473 130 r \$0-1shouldImprovise;
#X obj 538 153 r \$0-2shouldImprovise;
#X obj 603 175 r \$0-3shouldImprovise;
#N canvas 710 242 450 300 toTremelo 0;
#X obj 75 -66 inlet~;
#X obj 76 167 *~;
#X obj 101 144 lop~ 1;
#X obj 154 44 random 100;
#X obj 152 67 * 0.01;
#X obj 152 91 *;
#X obj 155 15 t b;
#X obj 76 197 throw~ toTremelo;
#X obj 156 -9 r randomize3;
#X connect 0 0 1 0;
#X connect 1 0 7 0;
#X connect 2 0 1 1;
#X connect 3 0 4 0;
#X connect 4 0 5 1;
#X connect 4 0 5 0;
#X connect 5 0 2 0;
#X connect 6 0 3 0;
#X connect 8 0 6 0;
#X restore 660 960 pd toTremelo;
#N canvas 710 242 450 300 toTremelo 0;
#X obj 75 -66 inlet~;
#X obj 76 167 *~;
#X obj 101 144 lop~ 1;
#X obj 154 44 random 100;
#X obj 152 67 * 0.01;
#X obj 152 91 *;
#X obj 155 15 t b;
#X obj 76 197 throw~ toTremelo;
#X obj 156 -9 r randomize;
#X connect 0 0 1 0;
#X connect 1 0 7 0;
#X connect 2 0 1 1;
#X connect 3 0 4 0;
#X connect 4 0 5 1;
#X connect 4 0 5 0;
#X connect 5 0 2 0;
#X connect 6 0 3 0;
#X connect 8 0 6 0;
#X restore 568 958 pd toTremelo;
#N canvas 710 242 450 300 toTremelo 0;
#X obj 75 -66 inlet~;
#X obj 76 167 *~;
#X obj 101 144 lop~ 1;
#X obj 154 44 random 100;
#X obj 152 67 * 0.01;
#X obj 152 91 *;
#X obj 155 15 t b;
#X obj 76 197 throw~ toTremelo;
#X obj 156 -9 r randomize3;
#X connect 0 0 1 0;
#X connect 1 0 7 0;
#X connect 2 0 1 1;
#X connect 3 0 4 0;
#X connect 4 0 5 1;
#X connect 4 0 5 0;
#X connect 5 0 2 0;
#X connect 6 0 3 0;
#X connect 8 0 6 0;
#X restore 486 956 pd toTremelo;
#N canvas 710 242 450 300 toFuzz 0;
#X obj 75 -66 inlet~;
#X obj 76 197 throw~ toFuzz;
#X obj 76 167 *~;
#X obj 101 144 lop~ 1;
#X obj 154 44 random 100;
#X obj 152 67 * 0.01;
#X obj 152 91 *;
#X obj 37 36 r onOff;
#X obj 37 63 sel 0;
#X msg 36 90 0;
#X obj 155 15 t b;
#X obj 156 -9 r randomize;
#X connect 0 0 2 0;
#X connect 2 0 1 0;
#X connect 3 0 2 1;
#X connect 4 0 5 0;
#X connect 5 0 6 1;
#X connect 5 0 6 0;
#X connect 6 0 3 0;
#X connect 7 0 8 0;
#X connect 8 0 9 0;
#X connect 9 0 3 0;
#X connect 10 0 4 0;
#X connect 11 0 10 0;
#X restore 591 1125 pd toFuzz;
#N canvas 710 242 450 300 toFuzz 0;
#X obj 75 -66 inlet~;
#X obj 76 197 throw~ toFuzz;
#X obj 76 167 *~;
#X obj 101 144 lop~ 1;
#X obj 154 44 random 100;
#X obj 152 67 * 0.01;
#X obj 152 91 *;
#X obj 37 36 r onOff;
#X obj 37 63 sel 0;
#X msg 36 90 0;
#X obj 155 15 t b;
#X obj 156 -9 r randomize1;
#X connect 0 0 2 0;
#X connect 2 0 1 0;
#X connect 3 0 2 1;
#X connect 4 0 5 0;
#X connect 5 0 6 1;
#X connect 5 0 6 0;
#X connect 6 0 3 0;
#X connect 7 0 8 0;
#X connect 8 0 9 0;
#X connect 9 0 3 0;
#X connect 10 0 4 0;
#X connect 11 0 10 0;
#X restore 411 966 pd toFuzz;
#X obj 525 702 *~;
#X obj 592 709 *~;
#X obj 667 655 lop~ 1;
#X obj 667 589 r synthVolume;
#X obj 758 584 loadbang;
#X msg 760 607 0.25;
#X obj 436 718 *~;
#X obj 639 516 r \$0-detectedTempo;
#X obj 139 61 spigot;
#X obj 212 72 spigot;
#X obj 274 75 spigot;
#X obj 175 2 r \$0-1shouldImprovise;
#X obj 249 23 r \$0-2shouldImprovise;
#X obj 310 45 r \$0-3shouldImprovise;
#X obj 732 1302 r randomize1;
#X obj 720 1203 r randomize2;
#X floatatom 390 -44 5 0 0 0 - - -;
#X floatatom 527 71 5 0 0 0 - - -;
#X floatatom 709 139 5 0 0 0 - - -;
#X obj 873 215 mm_rlist 7;
#X obj 873 239 list prepend randomlist;
#X obj 873 263 list trim;
#X obj 882 288 list;
#X obj 913 338 list;
#X obj 870 170 bng 15 250 50 0 empty empty empty 17 7 0 10 -262144
-1 -1;
#X obj 870 191 t b b b;
#X obj 885 312 list trim;
#X obj 912 362 list trim;
#X obj 634 771 r \$0-detectedTempo;
#X obj 27 309 r \$0-detectedTempo;
#X obj 27 333 route tempo;
#X obj 27 358 swap 60000;
#X obj 28 379 /;
#X obj 27 402 * 2;
#X obj 29 439 s halfMS;
#X obj 499 1299 r \$0-detectedTempo;
#X obj 997 81 r \$0-timer;
#X msg 999 178 seed \$1;
#X obj 998 156 mod 125;
#X obj 438 326 t f b;
#X obj 465 382 + 3;
#X obj 464 403 * 12;
#X obj 442 476 +;
#X floatatom 440 517 5 0 0 0 - - -;
#X obj 463 430 t f f;
#X obj 536 451 f;
#X obj 518 413 t f b;
#X obj 517 513 +;
#X obj 535 475 t f f;
#X obj 597 499 f;
#X obj 584 448 t f b;
#X obj 582 522 +;
#X obj 145 99 s \$0-randomNote1;
#X obj 216 123 s \$0-randomNote2;
#X obj 281 150 s \$0-randomNote3;
#X obj 431 274 r \$0-randomNote1;
#X obj 530 376 r \$0-randomNote2;
#X obj 588 413 r \$0-randomNote3;
#N canvas 403 454 450 300 wr 0;
#X obj 85 42 inlet;
#X obj 84 72 random 100;
#X obj 84 99 moses 50;
#X obj 128 137 moses 85;
#X obj 50 137 moses 15;
#X obj 51 165 bng 15 250 50 0 empty empty empty 17 7 0 10 -262144 -1
-1;
#X obj 93 163 bng 15 250 50 0 empty empty empty 17 7 0 10 -262144 -1
-1;
#X obj 130 166 bng 15 250 50 0 empty empty empty 17 7 0 10 -262144
-1 -1;
#X obj 172 164 bng 15 250 50 0 empty empty empty 17 7 0 10 -262144
-1 -1;
#X msg 49 189 0;
#X msg 91 189 1;
#X msg 131 190 2;
#X msg 172 189 3;
#X obj 71 247 outlet;
#X connect 0 0 1 0;
#X connect 1 0 2 0;
#X connect 2 0 4 0;
#X connect 2 1 3 0;
#X connect 3 0 7 0;
#X connect 3 1 8 0;
#X connect 4 0 5 0;
#X connect 4 1 6 0;
#X connect 5 0 9 0;
#X connect 6 0 10 0;
#X connect 7 0 11 0;
#X connect 8 0 12 0;
#X connect 9 0 13 0;
#X connect 10 0 13 0;
#X connect 11 0 13 0;
#X connect 12 0 13 0;
#X restore 464 357 pd wr;
#X obj 476 710 *~;
#X obj 556 748 *~;
#X obj 640 716 *~;
#X obj 667 629 mm_xfade;
#X obj 395 -231 moses 1;
#X obj 502 -78 moses 1;
#X obj 580 35 moses 1;
#X obj 584 250 spigot;
#X obj 516 253 spigot;
#X obj 457 205 spigot;
#X obj 496 1450 mm_stereoChorus;
#X obj 422 1310 *~ 1;
#X obj 649 1302 *~ 1;
#X obj 418 664 *~ 0.85;
#X obj 472 665 *~ 0.85;
#X obj 525 658 *~ 0.85;
#X obj 554 679 *~ 0.85;
#X obj 593 662 *~ 0.85;
#X obj 652 676 *~ 0.85;
#X obj 343 459 r onOff;
#X obj 342 485 sel 0;
#X msg 343 567 0;
#X obj 346 533 del 1000;
#X msg 739 652 0.25;
#X obj 742 676 f;
#X obj 771 632 r resetVolume;
#X obj 625 1362 mm_monoSyncDelay;
#X obj 382 1364 mm_monoSyncDelay;
#X floatatom 804 1441 5 0 0 0 - - -;
#X obj 467 -381 r \$0-clock;
#X obj 541 -451 r notes;
#X obj 544 -406 list prepend read;
#X obj 543 -383 list trim;
#X obj 544 -428 route 1 2 3;
#X obj 545 -351 r alterPattern1;
#X obj 582 -325 list prepend read;
#X obj 581 -302 list trim;
#X obj 635 -238 list prepend read;
#X obj 634 -215 list trim;
#X obj 467 -346 t f f f;
#X obj 580 -265 r alterPattern2;
#X obj 633 -178 r alterPattern3;
#X obj 468 -288 mm_pattern;
#X obj 510 -237 mm_pattern;
#X obj 563 -150 mm_pattern;
#X obj 668 870 mm_asr~;
#N canvas 470 107 702 469 renv 0;
#X obj 99 144 random 150;
#X obj 142 185 random 950;
#X obj 141 214 + 50;
#X obj 199 227 random 200;
#X obj 102 32 inlet;
#X obj 101 58 bang;
#X obj 96 404 outlet;
#X obj 96 348 pack f f f;
#X obj 100 100 trigger b b b;
#X msg 96 374 a \$1 \, s \$2 \, r \$3 \, v 0;
#X connect 0 0 7 0;
#X connect 1 0 2 0;
#X connect 2 0 7 1;
#X connect 3 0 7 2;
#X connect 4 0 5 0;
#X connect 5 0 8 0;
#X connect 7 0 9 0;
#X connect 8 0 0 0;
#X connect 8 1 1 0;
#X connect 8 2 3 0;
#X connect 9 0 6 0;
#X restore 721 834 pd renv;
#X obj 725 783 r randomize1;
#X obj 724 808 t b;
#X obj 240 827 mm_asr~;
#N canvas 470 107 702 469 renv 0;
#X obj 99 144 random 150;
#X obj 142 185 random 950;
#X obj 141 214 + 50;
#X obj 199 227 random 200;
#X obj 102 32 inlet;
#X obj 101 58 bang;
#X obj 96 404 outlet;
#X obj 96 348 pack f f f;
#X obj 100 100 trigger b b b;
#X msg 96 374 a \$1 \, s \$2 \, r \$3 \, v 0;
#X connect 0 0 7 0;
#X connect 1 0 2 0;
#X connect 2 0 7 1;
#X connect 3 0 7 2;
#X connect 4 0 5 0;
#X connect 5 0 8 0;
#X connect 7 0 9 0;
#X connect 8 0 0 0;
#X connect 8 1 1 0;
#X connect 8 2 3 0;
#X connect 9 0 6 0;
#X restore 272 777 pd renv;
#X obj 275 751 t b;
#X obj 500 875 mm_asr~;
#N canvas 470 107 702 469 renv 0;
#X obj 99 144 random 150;
#X obj 142 185 random 950;
#X obj 141 214 + 50;
#X obj 199 227 random 200;
#X obj 102 32 inlet;
#X obj 101 58 bang;
#X obj 96 404 outlet;
#X obj 96 348 pack f f f;
#X obj 100 100 trigger b b b;
#X msg 96 374 a \$1 \, s \$2 \, r \$3 \, v 0;
#X connect 0 0 7 0;
#X connect 1 0 2 0;
#X connect 2 0 7 1;
#X connect 3 0 7 2;
#X connect 4 0 5 0;
#X connect 5 0 8 0;
#X connect 7 0 9 0;
#X connect 8 0 0 0;
#X connect 8 1 1 0;
#X connect 8 2 3 0;
#X connect 9 0 6 0;
#X restore 544 845 pd renv;
#X obj 547 819 t b;
#X obj 754 1496 scope synthScope;
#X obj 814 1056 scope synthScope1;
#X obj 794 1098 scope synthScope2;
#X obj 306 1060 scope synthScope3;
#X obj 276 726 r randomize1;
#X obj 548 794 r randomize1;
#X obj 592 613 mm_osc3~;
#X obj 525 610 mm_osc3~;
#X obj 461 611 mm_osc3~;
#X connect 2 0 184 0;
#X connect 2 1 174 1;
#X connect 3 0 185 0;
#X connect 3 1 171 1;
#X connect 5 0 52 1;
#X connect 6 0 132 2;
#X connect 7 0 183 0;
#X connect 7 1 167 1;
#X connect 8 0 52 1;
#X connect 8 0 132 2;
#X connect 8 0 149 1;
#X connect 9 0 10 0;
#X connect 9 0 26 0;
#X connect 12 0 49 0;
#X connect 13 0 14 0;
#X connect 14 0 53 1;
#X connect 16 0 15 0;
#X connect 16 0 80 0;
#X connect 16 0 27 0;
#X connect 17 0 11 0;
#X connect 17 0 28 0;
#X connect 18 0 9 0;
#X connect 18 0 79 0;
#X connect 19 0 18 1;
#X connect 20 0 16 0;
#X connect 21 0 20 1;
#X connect 22 0 17 0;
#X connect 22 0 81 0;
#X connect 23 0 22 1;
#X connect 24 0 71 0;
#X connect 24 1 72 0;
#X connect 24 2 73 0;
#X connect 25 0 24 0;
#X connect 26 0 102 0;
#X connect 27 0 109 0;
#X connect 28 0 113 0;
#X connect 29 0 26 1;
#X connect 29 0 131 1;
#X connect 30 0 27 1;
#X connect 30 0 130 1;
#X connect 31 0 28 1;
#X connect 31 0 129 1;
#X connect 32 0 52 1;
#X connect 32 0 132 2;
#X connect 32 0 149 1;
#X connect 34 0 35 1;
#X connect 35 0 148 0;
#X connect 36 0 148 1;
#X connect 37 0 50 0;
#X connect 38 0 39 0;
#X connect 39 0 54 1;
#X connect 40 0 51 0;
#X connect 41 0 42 0;
#X connect 42 0 43 1;
#X connect 43 0 52 0;
#X connect 43 0 133 0;
#X connect 43 1 35 0;
#X connect 43 1 134 0;
#X connect 44 0 87 0;
#X connect 45 0 87 0;
#X connect 46 0 47 0;
#X connect 47 0 48 0;
#X connect 48 0 132 2;
#X connect 49 0 13 0;
#X connect 50 0 38 0;
#X connect 51 0 41 0;
#X connect 52 0 149 0;
#X connect 53 0 52 0;
#X connect 53 0 133 0;
#X connect 53 1 35 0;
#X connect 53 1 134 0;
#X connect 54 0 52 0;
#X connect 54 0 133 0;
#X connect 54 1 35 0;
#X connect 54 1 134 0;
#X connect 55 0 29 0;
#X connect 56 0 30 0;
#X connect 57 0 31 0;
#X connect 63 0 174 0;
#X connect 64 0 167 0;
#X connect 65 0 64 1;
#X connect 65 0 63 1;
#X connect 65 0 69 1;
#X connect 65 0 122 1;
#X connect 65 0 123 1;
#X connect 65 0 124 1;
#X connect 66 0 125 0;
#X connect 66 0 146 1;
#X connect 67 0 68 0;
#X connect 68 0 125 0;
#X connect 68 0 145 0;
#X connect 69 0 171 0;
#X connect 70 0 183 1;
#X connect 70 0 184 1;
#X connect 70 0 185 1;
#X connect 71 0 115 0;
#X connect 72 0 116 0;
#X connect 73 0 117 0;
#X connect 74 0 71 1;
#X connect 75 0 72 1;
#X connect 76 0 73 1;
#X connect 77 0 35 1;
#X connect 77 0 132 2;
#X connect 77 0 148 1;
#X connect 78 0 35 1;
#X connect 78 0 132 2;
#X connect 78 0 148 1;
#X connect 82 0 83 0;
#X connect 83 0 84 0;
#X connect 84 0 85 1;
#X connect 84 0 185 1;
#X connect 85 0 86 1;
#X connect 85 0 89 0;
#X connect 86 0 90 0;
#X connect 87 0 88 0;
#X connect 88 0 82 0;
#X connect 88 1 85 0;
#X connect 88 2 86 0;
#X connect 89 0 184 1;
#X connect 90 0 183 1;
#X connect 92 0 93 0;
#X connect 93 0 94 0;
#X connect 94 0 95 0;
#X connect 94 1 95 1;
#X connect 95 0 96 0;
#X connect 96 0 97 0;
#X connect 98 0 149 1;
#X connect 99 0 101 0;
#X connect 100 0 82 1;
#X connect 101 0 100 0;
#X connect 102 0 105 0;
#X connect 102 1 121 0;
#X connect 103 0 104 0;
#X connect 104 0 107 0;
#X connect 105 0 106 0;
#X connect 105 0 3 0;
#X connect 107 0 105 1;
#X connect 107 1 108 1;
#X connect 108 0 111 0;
#X connect 109 0 110 0;
#X connect 109 1 108 0;
#X connect 110 0 2 0;
#X connect 111 0 110 1;
#X connect 111 1 112 1;
#X connect 112 0 114 1;
#X connect 113 0 114 0;
#X connect 113 1 112 0;
#X connect 114 0 7 0;
#X connect 118 0 102 0;
#X connect 119 0 109 0;
#X connect 120 0 113 0;
#X connect 121 0 103 0;
#X connect 122 0 60 0;
#X connect 122 0 53 0;
#X connect 122 0 62 0;
#X connect 123 0 59 0;
#X connect 123 0 54 0;
#X connect 123 0 61 0;
#X connect 124 0 43 0;
#X connect 124 0 4 0;
#X connect 124 0 58 0;
#X connect 125 2 65 0;
#X connect 126 0 131 0;
#X connect 126 1 18 0;
#X connect 127 0 130 0;
#X connect 127 1 20 0;
#X connect 128 0 129 0;
#X connect 128 1 22 0;
#X connect 129 0 183 0;
#X connect 130 0 184 0;
#X connect 131 0 185 0;
#X connect 132 0 0 0;
#X connect 132 0 177 0;
#X connect 132 1 1 0;
#X connect 132 1 177 0;
#X connect 133 0 132 0;
#X connect 134 0 132 1;
#X connect 135 0 69 0;
#X connect 136 0 122 0;
#X connect 137 0 63 0;
#X connect 138 0 123 0;
#X connect 139 0 64 0;
#X connect 140 0 124 0;
#X connect 141 0 142 0;
#X connect 142 0 144 0;
#X connect 143 0 183 0;
#X connect 143 0 184 0;
#X connect 143 0 185 0;
#X connect 144 0 143 0;
#X connect 145 0 146 1;
#X connect 146 0 125 0;
#X connect 147 0 146 0;
#X connect 148 0 132 1;
#X connect 149 0 132 0;
#X connect 151 0 161 0;
#X connect 152 0 155 0;
#X connect 153 0 154 0;
#X connect 154 0 164 1;
#X connect 155 0 153 0;
#X connect 155 1 157 0;
#X connect 155 2 159 0;
#X connect 156 0 164 1;
#X connect 157 0 158 0;
#X connect 158 0 165 1;
#X connect 159 0 160 0;
#X connect 160 0 166 1;
#X connect 161 0 164 0;
#X connect 161 1 165 0;
#X connect 161 2 166 0;
#X connect 162 0 165 1;
#X connect 163 0 166 1;
#X connect 164 1 126 0;
#X connect 165 1 127 0;
#X connect 166 1 128 0;
#X connect 167 0 58 0;
#X connect 167 0 43 0;
#X connect 167 0 4 0;
#X connect 167 0 178 0;
#X connect 168 0 167 2;
#X connect 169 0 170 0;
#X connect 170 0 168 0;
#X connect 171 0 62 0;
#X connect 171 0 60 0;
#X connect 171 0 53 0;
#X connect 171 0 180 0;
#X connect 172 0 171 2;
#X connect 173 0 172 0;
#X connect 174 0 59 0;
#X connect 174 0 54 0;
#X connect 174 0 61 0;
#X connect 174 0 179 0;
#X connect 175 0 174 2;
#X connect 176 0 175 0;
#X connect 181 0 173 0;
#X connect 182 0 176 0;
#X connect 183 0 139 0;
#X connect 183 1 140 0;
#X connect 184 0 137 0;
#X connect 184 1 138 0;
#X connect 185 0 135 0;
#X connect 185 1 136 0;
#X restore 932 -36 pd synth;
#X obj 545 -122 noise~;
#X obj 545 -94 s~ theNoise;
#N canvas 33 23 1332 748 randomness 0;
#X obj 29 355 s drumPattern;
#X obj 29 184 loadbang;
#X text 379 393 pattern 0-4;
#X obj -10 148 r randomize;
#X obj -9 171 t b;
#X obj 68 273 mod 200;
#X msg 69 296 seed \$1;
#X obj 1155 -204 loadbang;
#X obj 1146 -106 timer;
#X obj 1172 -137 sel 1;
#X obj 987 -121 r loadNewPattern;
#X obj 988 34 f;
#X obj 1020 35 + 1;
#X obj 1024 -53 sel 1;
#X msg 1024 -19 0;
#X obj 991 103 s loadNextPattern;
#X obj 1175 183 s patternNumber;
#X obj 684 -490 r \$0-clock;
#X obj 685 -448 t b;
#X obj 687 -320 f;
#X obj 729 -320 + 1;
#X obj 645 -107 sel 0;
#X obj 565 142 s randomize;
#X msg 565 93 randomize;
#X obj 527 -59 loadbang;
#X obj 739 -268 sel 0;
#X obj 751 -121 s loadNewPattern;
#X obj 721 -418 r onOff;
#X obj 723 -392 sel 1;
#X msg 725 -367 0;
#X obj 1171 -159 r onOff;
#X obj 1021 -93 r onOff;
#X obj 871 -147 mod 1024;
#X obj 872 -116 sel 0;
#X obj 842 28 s setNewTempo;
#X obj 880 -53 t b;
#X obj 878 6 random 12;
#X obj 878 48 s \$0-theRoot;
#X obj 997 262 loadbang;
#X text 735 -161 reconnect;
#X text 1014 85 reconnect;
#X msg 641 59 \$1 randomize;
#X obj 640 85 route 0 1 2 3;
#X obj 597 174 s randomize1;
#X obj 620 201 s randomize2;
#X obj 640 227 s randomize3;
#X text 644 38 reconnect;
#X obj 791 233 == 0;
#X obj 1147 118 t b f;
#X obj 687 -48 sel 0;
#X obj 685 -71 mod 256;
#X obj 1145 -82 mod 200;
#X msg 1145 -51 seed \$1;
#X obj 564 64 bng 15 250 50 0 empty empty empty 17 7 0 10 -262144 -1
-1;
#X obj 564 -1 r onOff;
#X obj 564 31 sel 0;
#X obj 789 76 until;
#X obj 788 103 f;
#X obj 817 105 + 1;
#X obj 790 185 t b f;
#X obj 791 257 list prepend;
#X obj 790 280 list trim;
#X obj 790 159 + 1;
#X obj 789 349 s \$0-1shouldImprovise;
#X obj 812 372 s \$0-2shouldImprovise;
#X obj 833 393 s \$0-3shouldImprovise;
#X obj 750 -146 sel 0;
#X obj 742 -22 s colorTheme;
#X obj 740 -97 random 100;
#X obj 29 323 random 8;
#X obj 739 -292 mod 64;
#X obj 790 321 route 1 2 3 0;
#X obj 862 420 s \$0-0shouldImprovise;
#X obj 738 -249 t b b;
#X obj 811 -225 random 100;
#X msg 932 -274 seed \$1;
#X obj 931 -300 mod 150;
#X msg 894 -180 seed \$1;
#X obj 893 -205 mod 130;
#X msg 971 -161 seed \$1;
#X obj 970 -187 mod 140;
#X msg 915 -38 seed \$1;
#X obj 914 -64 mod 125;
#X obj 1209 -94 s \$0-timer;
#X obj 546 -233 r \$0-timer;
#X msg 548 -136 seed \$1;
#X obj 547 -158 mod 110;
#X obj 813 -167 sel 1;
#X obj 742 -71 + 50;
#X obj 742 -44 * 0.01;
#X obj 69 249 r \$0-timer;
#X obj 727 21 s \$0-willRandomize;
#X obj 646 -128 mod 16;
#X msg 1001 286 0;
#X obj 641 20 random 16;
#X obj 46 462 s \$0-changePerc;
#X obj 28 438 s \$0-changeKick;
#X obj 13 411 s \$0-changeSnare;
#X obj 11 375 random 4;
#X obj 73 389 random 4;
#X obj 138 434 random 4;
#X obj 141 323 r randomize1;
#X obj 141 348 t b;
#X obj 166 396 t b;
#X obj 166 371 r randomize2;
#X obj 837 -84 random 100;
#X obj 834 -37 sel 1;
#X obj 836 -59 < 80;
#X obj 1142 -22 t b a;
#X obj 789 130 mod 4;
#X msg 789 53 4;
#X obj 745 -187 random 6;
#X obj 846 153 r \$0-timer;
#X obj 843 176 mod 60;
#X msg 848 198 seed \$1;
#X obj 813 -190 < 6;
#X obj 956 -10 bng 15 250 50 0 empty empty empty 17 7 0 10 -262144
-1 -1;
#X obj 1146 74 random 5;
#X obj 790 208 random 8;
#X connect 1 0 69 0;
#X connect 3 0 4 0;
#X connect 4 0 69 0;
#X connect 4 0 98 0;
#X connect 5 0 6 0;
#X connect 6 0 69 0;
#X connect 7 0 8 0;
#X connect 8 0 51 0;
#X connect 8 0 76 0;
#X connect 8 0 78 0;
#X connect 8 0 80 0;
#X connect 8 0 82 0;
#X connect 8 0 83 0;
#X connect 9 0 8 1;
#X connect 10 0 11 0;
#X connect 11 0 12 0;
#X connect 11 0 15 0;
#X connect 12 0 11 1;
#X connect 13 0 14 0;
#X connect 14 0 11 1;
#X connect 17 0 18 0;
#X connect 18 0 19 0;
#X connect 19 0 20 0;
#X connect 19 0 32 0;
#X connect 19 0 50 0;
#X connect 19 0 70 0;
#X connect 19 0 92 0;
#X connect 20 0 19 1;
#X connect 21 0 94 0;
#X connect 23 0 22 0;
#X connect 23 0 43 0;
#X connect 23 0 44 0;
#X connect 23 0 45 0;
#X connect 24 0 23 0;
#X connect 25 0 73 0;
#X connect 27 0 28 0;
#X connect 28 0 29 0;
#X connect 29 0 19 1;
#X connect 30 0 9 0;
#X connect 31 0 13 0;
#X connect 32 0 33 0;
#X connect 33 0 35 0;
#X connect 33 0 105 0;
#X connect 35 0 36 0;
#X connect 36 0 37 0;
#X connect 38 0 93 0;
#X connect 41 0 42 0;
#X connect 42 0 22 0;
#X connect 42 1 43 0;
#X connect 42 2 44 0;
#X connect 42 3 45 0;
#X connect 47 0 60 0;
#X connect 48 0 11 0;
#X connect 48 1 16 0;
#X connect 49 0 110 0;
#X connect 50 0 49 0;
#X connect 51 0 52 0;
#X connect 52 0 108 0;
#X connect 53 0 23 0;
#X connect 54 0 55 0;
#X connect 55 0 53 0;
#X connect 56 0 57 0;
#X connect 57 0 58 0;
#X connect 57 0 109 0;
#X connect 58 0 57 1;
#X connect 59 0 118 0;
#X connect 59 1 60 1;
#X connect 60 0 61 0;
#X connect 61 0 71 0;
#X connect 62 0 59 0;
#X connect 66 0 26 0;
#X connect 68 0 88 0;
#X connect 69 0 0 0;
#X connect 70 0 25 0;
#X connect 71 0 63 0;
#X connect 71 1 64 0;
#X connect 71 2 65 0;
#X connect 71 3 72 0;
#X connect 73 0 68 0;
#X connect 73 0 111 0;
#X connect 73 1 74 0;
#X connect 74 0 115 0;
#X connect 75 0 74 0;
#X connect 76 0 75 0;
#X connect 77 0 111 0;
#X connect 78 0 77 0;
#X connect 79 0 68 0;
#X connect 80 0 79 0;
#X connect 81 0 36 0;
#X connect 82 0 81 0;
#X connect 84 0 86 0;
#X connect 85 0 94 0;
#X connect 86 0 85 0;
#X connect 87 0 117 0;
#X connect 88 0 89 0;
#X connect 89 0 67 0;
#X connect 90 0 5 0;
#X connect 92 0 21 0;
#X connect 93 0 63 0;
#X connect 93 0 64 0;
#X connect 93 0 65 0;
#X connect 93 0 72 0;
#X connect 94 0 41 0;
#X connect 94 0 91 0;
#X connect 98 0 97 0;
#X connect 99 0 96 0;
#X connect 100 0 95 0;
#X connect 101 0 102 0;
#X connect 102 0 99 0;
#X connect 103 0 100 0;
#X connect 104 0 103 0;
#X connect 105 0 107 0;
#X connect 106 0 34 0;
#X connect 106 0 35 0;
#X connect 107 0 106 0;
#X connect 108 0 117 0;
#X connect 108 1 117 0;
#X connect 109 0 62 0;
#X connect 110 0 56 0;
#X connect 111 0 66 0;
#X connect 112 0 113 0;
#X connect 113 0 114 0;
#X connect 114 0 118 0;
#X connect 115 0 87 0;
#X connect 116 0 36 0;
#X connect 117 0 48 0;
#X connect 118 0 47 0;
#X restore 830 38 pd randomness;
#N canvas 476 85 697 664 improvise 0;
#X obj 69 13 r \$0-note0;
#X obj 91 81 r \$0-note1;
#X obj 90 101 change;
#X obj 126 172 change;
#X obj 127 152 r \$0-note2;
#X obj 90 122 t b f;
#X obj 126 196 t b f;
#X obj 150 245 change;
#X obj 150 269 t b f;
#X obj 151 225 r \$0-note3;
#X obj 77 326 pack f f f f;
#X obj 70 35 change;
#X obj 41 426 s \$0-theChord;
#X obj 138 597 randomPlayer;
#X obj 140 464 r \$0-clock;
#X floatatom 167 505 5 0 0 0 - - -;
#X obj 208 510 list trim;
#X obj 209 488 list prepend chord set;
#X obj 352 303 loadbang;
#X obj 352 402 hradio 15 1 0 8 empty empty empty 0 -8 0 10 -262144
-1 -1 4;
#X obj 453 254 r randomize;
#X obj 460 279 t b;
#X obj 138 631 s \$0-randomNotes;
#X obj 165 344 list prepend set;
#X obj 166 366 list trim;
#X msg 167 389 8 0 0 0;
#X obj 58 511 sel 0;
#X msg 345 457 probs 80 80 80 80;
#X msg 345 481 probs 90 70 90 70;
#X msg 345 504 probs 20 90 80 20;
#X msg 344 533 probs 10 90 90 90;
#X obj 59 484 mod 2;
#X obj 354 428 select 0 1 2 3 4 5 6 7;
#X obj 458 350 random 8;
#X msg 363 581 probs 20 70 20 70;
#X msg 363 604 probs 10 90 80 80;
#X msg 363 557 probs 100 10 10 10;
#X msg 362 633 probs 1 100 1 100;
#X connect 0 0 11 0;
#X connect 1 0 2 0;
#X connect 2 0 5 0;
#X connect 3 0 6 0;
#X connect 4 0 3 0;
#X connect 5 0 10 0;
#X connect 5 1 10 1;
#X connect 6 0 10 0;
#X connect 6 1 10 2;
#X connect 7 0 8 0;
#X connect 8 0 10 0;
#X connect 8 1 10 3;
#X connect 9 0 7 0;
#X connect 10 0 12 0;
#X connect 10 0 23 0;
#X connect 11 0 10 0;
#X connect 13 0 22 0;
#X connect 14 0 15 0;
#X connect 14 0 31 0;
#X connect 14 0 13 0;
#X connect 16 0 13 1;
#X connect 17 0 16 0;
#X connect 18 0 19 0;
#X connect 19 0 32 0;
#X connect 20 0 21 0;
#X connect 21 0 33 0;
#X connect 23 0 24 0;
#X connect 24 0 25 0;
#X connect 25 0 17 0;
#X connect 26 0 25 0;
#X connect 27 0 13 1;
#X connect 28 0 13 1;
#X connect 29 0 13 1;
#X connect 30 0 13 1;
#X connect 31 0 26 0;
#X connect 32 0 27 0;
#X connect 32 1 28 0;
#X connect 32 2 29 0;
#X connect 32 3 30 0;
#X connect 32 4 36 0;
#X connect 32 5 34 0;
#X connect 32 6 35 0;
#X connect 32 7 37 0;
#X connect 33 0 19 0;
#X connect 34 0 13 1;
#X connect 35 0 13 1;
#X connect 36 0 13 1;
#X connect 37 0 13 1;
#X restore 832 61 pd improvise;
#N canvas 162 83 1345 755 sample 0;
#X msg 511 229 play;
#X obj 503 -46 r \$0-clock;
#X obj 681 273 r \$0-detectedTempo;
#X obj 671 876 r \$0-clock;
#X obj 668 927 sel 0;
#N canvas 342 65 1099 724 samples 0;
#X obj 401 461 s \$0-toSampler;
#X msg 477 180 beats 2 \, sample gospel1.aif;
#X msg 179 185 beats 4 \, sample rasta8.wav;
#X msg 217 269 beats 2 \, sample rasta9.aif;
#X msg 214 291 beats 4 \, sample rasta10.wav;
#X msg 248 312 beats 4 \, sample rasta11.aif;
#X msg 232 333 beats 2 \, sample rasta13.aif;
#X msg 163 206 beats 2 \, sample rasta14.aif;
#X msg 200 228 beats 2 \, sample rasta4.aif;
#X msg 194 249 beats 4 \, sample rasta16.wav;
#X msg 224 357 beats 6 \, sample rasta21.aif;
#X msg 208 378 beats 2 \, sample rasta18.aif;
#X msg 205 399 beats 2 \, sample rasta19.aif;
#X msg 199 425 beats 1 \, sample rasta20.aif;
#X obj 132 457 s \$0-toSampler;
#X msg 466 229 beats 8 \, sample rap1.wav;
#X msg 479 252 beats 8 \, sample rap2.wav;
#X msg 487 281 beats 8 \, sample other1.aif;
#X msg 499 305 beats 2 \, sample african1.wav;
#X msg 509 330 beats 4 \, sample african2.wav;
#X msg 518 353 beats 2 \, sample african3.wav;
#X msg 548 377 beats 4 \, sample african4.wav;
#X msg 560 403 beats 2 \, sample african5.wav;
#X obj 162 148 sel 0 1 2 3 4 5 6 7 8 9 10 11;
#X obj 281 501 r \$0-toSampler;
#X obj 282 632 outlet;
#X obj 144 -86 t b a;
#X obj 284 -138 loadbang;
#X obj 282 587 list append 0;
#X obj 283 609 list trim;
#X obj 290 113 s \$0-sampleCount;
#X obj 354 559 r \$0-sampleCount;
#X obj 272 -7 f;
#X obj 308 -7 + 1;
#X obj 270 17 mod 3;
#X msg 286 -106 1;
#X msg 209 -77 1;
#X obj 269 38 t b f f;
#X obj 312 63 sel 2;
#X msg 315 85 0;
#X obj 272 -60 metro 100;
#X msg 442 207 beats 4 \, sample eastern1.wav;
#X obj 362 -142 r loadNewSamples;
#X msg 596 431 beats 2 \, sample ah_60_2_60.wav;
#X msg 609 454 beats 4 \, sample ah_60_4_60.wav;
#X obj 441 149 sel 12 13 14 15 16 17 18 19 20 21 22 23;
#X obj 690 179 sel 24 25 26;
#X msg 709 222 beats 4 \, sample ooh_60_1_60.wav;
#X msg 722 258 beats 8 \, sample ooh_60_2_60.wav;
#X msg 736 303 beats 8 \, sample ooh_60_4_60.wav;
#X obj 161 109 random 27;
#X obj 556 -223 r \$0-timer;
#X msg 558 -126 seed \$1;
#X obj 557 -148 mod 150;
#X connect 1 0 0 0;
#X connect 2 0 14 0;
#X connect 3 0 14 0;
#X connect 4 0 14 0;
#X connect 5 0 14 0;
#X connect 6 0 14 0;
#X connect 7 0 14 0;
#X connect 8 0 14 0;
#X connect 9 0 14 0;
#X connect 10 0 14 0;
#X connect 11 0 14 0;
#X connect 12 0 14 0;
#X connect 13 0 14 0;
#X connect 15 0 0 0;
#X connect 16 0 0 0;
#X connect 17 0 0 0;
#X connect 18 0 0 0;
#X connect 19 0 0 0;
#X connect 20 0 0 0;
#X connect 21 0 0 0;
#X connect 22 0 0 0;
#X connect 23 0 7 0;
#X connect 23 1 2 0;
#X connect 23 2 9 0;
#X connect 23 3 8 0;
#X connect 23 4 4 0;
#X connect 23 5 3 0;
#X connect 23 6 6 0;
#X connect 23 7 5 0;
#X connect 23 8 10 0;
#X connect 23 9 11 0;
#X connect 23 10 12 0;
#X connect 23 11 13 0;
#X connect 23 12 45 0;
#X connect 24 0 28 0;
#X connect 26 0 36 0;
#X connect 26 1 50 0;
#X connect 27 0 35 0;
#X connect 28 0 29 0;
#X connect 29 0 25 0;
#X connect 31 0 28 1;
#X connect 32 0 33 0;
#X connect 32 0 34 0;
#X connect 33 0 32 1;
#X connect 34 0 37 0;
#X connect 35 0 40 0;
#X connect 36 0 40 0;
#X connect 37 0 50 0;
#X connect 37 1 30 0;
#X connect 37 2 38 0;
#X connect 38 0 39 0;
#X connect 39 0 40 0;
#X connect 40 0 32 0;
#X connect 41 0 0 0;
#X connect 42 0 35 0;
#X connect 43 0 0 0;
#X connect 44 0 0 0;
#X connect 45 0 41 0;
#X connect 45 1 1 0;
#X connect 45 2 15 0;
#X connect 45 3 16 0;
#X connect 45 4 17 0;
#X connect 45 5 18 0;
#X connect 45 6 19 0;
#X connect 45 7 20 0;
#X connect 45 8 21 0;
#X connect 45 9 22 0;
#X connect 45 10 43 0;
#X connect 45 11 44 0;
#X connect 45 12 46 0;
#X connect 46 0 47 0;
#X connect 46 1 48 0;
#X connect 46 2 49 0;
#X connect 47 0 0 0;
#X connect 48 0 0 0;
#X connect 49 0 0 0;
#X connect 50 0 23 0;
#X connect 51 0 53 0;
#X connect 52 0 26 0;
#X connect 53 0 52 0;
#X restore 623 250 pd samples;
#X obj 511 191 wrandom;
#X obj 555 67 t b b;
#X obj 557 151 list-rot;
#N canvas 501 222 450 300 toFuzz 0;
#X obj 75 -66 inlet~;
#X obj 76 197 throw~ toFuzz;
#X obj 76 167 *~;
#X obj 101 144 lop~ 1;
#X obj 154 44 random 100;
#X obj 152 67 * 0.01;
#X obj 152 91 *;
#X obj 37 36 r onOff;
#X obj 37 63 sel 0;
#X msg 36 90 0;
#X obj 155 -36 r randomize3;
#X obj 157 0 t b;
#X obj 151 116 * 0.33;
#X connect 0 0 2 0;
#X connect 2 0 1 0;
#X connect 3 0 2 1;
#X connect 4 0 5 0;
#X connect 5 0 6 1;
#X connect 5 0 6 0;
#X connect 6 0 12 0;
#X connect 7 0 8 0;
#X connect 8 0 9 0;
#X connect 9 0 3 0;
#X connect 10 0 11 0;
#X connect 11 0 4 0;
#X connect 12 0 3 0;
#X restore 414 1043 pd toFuzz;
#X obj 670 904 mod 32;
#X obj 654 804 r randomize2;
#N canvas 471 139 1017 596 vocoder 0;
#X obj 207 297 phasor~;
#X obj 115 -110 mtof;
#X obj 193 -294 r \$0-note1;
#X obj 270 -294 r \$0-note2;
#X obj 384 340 inlet~;
#X obj 351 568 outlet~;
#X floatatom 415 370 5 0 0 0 - - -;
#X obj 351 532 hip~ 4;
#X obj 195 -256 change;
#X obj 279 296 phasor~;
#X obj 206 -109 mtof;
#X obj 271 -267 change;
#X obj 353 296 phasor~;
#X obj 307 -97 mtof;
#X obj 408 -263 change;
#X obj 410 -287 r \$0-note3;
#X floatatom 330 342 5 0 0 0 - - -;
#X floatatom 230 337 5 0 0 0 - - -;
#X obj 113 -260 change;
#X obj 114 -294 r \$0-note0;
#X obj 111 -227 t f b;
#X obj 143 -159 * 12;
#X obj 109 -190 + 60;
#X obj 113 -136 +;
#X obj 203 -228 t f b;
#X obj 235 -160 * 12;
#X obj 201 -191 + 60;
#X obj 205 -137 +;
#X obj 305 -227 t f b;
#X obj 337 -143 * 12;
#X obj 303 -174 + 60;
#X obj 307 -120 +;
#X obj 408 -214 t f b;
#X obj 440 -146 * 12;
#X obj 406 -177 + 60;
#X obj 410 -123 +;
#X obj 410 296 phasor~;
#X obj 410 -101 mtof;
#X obj 206 273 lop~ 20;
#X obj 275 271 lop~ 20;
#X obj 352 270 lop~ 20;
#X obj 410 273 lop~ 20;
#X obj 143 -182 - 2;
#X obj 143 -204 random 5;
#X obj 235 -205 random 5;
#X obj 235 -183 - 2;
#X obj 337 -188 random 5;
#X obj 337 -166 - 2;
#X obj 440 -191 random 5;
#X obj 440 -169 - 2;
#X obj -198 87 change;
#X obj -184 -27 r \$0-note1;
#X obj -175 -4 r \$0-note2;
#X obj -168 18 r \$0-note3;
#X obj -200 -52 r \$0-note0;
#X obj -197 110 t f b;
#X obj -170 166 + 3;
#X obj -171 187 * 12;
#X obj -193 260 +;
#X obj -172 214 t f f;
#N canvas 403 454 450 300 wr 0;
#X obj 85 42 inlet;
#X obj 84 72 random 100;
#X obj 84 99 moses 50;
#X obj 128 137 moses 85;
#X obj 50 137 moses 15;
#X obj 51 165 bng 15 250 50 0 empty empty empty 17 7 0 10 -262144 -1
-1;
#X obj 93 163 bng 15 250 50 0 empty empty empty 17 7 0 10 -262144 -1
-1;
#X obj 130 166 bng 15 250 50 0 empty empty empty 17 7 0 10 -262144
-1 -1;
#X obj 172 164 bng 15 250 50 0 empty empty empty 17 7 0 10 -262144
-1 -1;
#X msg 49 189 0;
#X msg 91 189 1;
#X msg 131 190 2;
#X msg 172 189 3;
#X obj 71 247 outlet;
#X connect 0 0 1 0;
#X connect 1 0 2 0;
#X connect 2 0 4 0;
#X connect 2 1 3 0;
#X connect 3 0 7 0;
#X connect 3 1 8 0;
#X connect 4 0 5 0;
#X connect 4 1 6 0;
#X connect 5 0 9 0;
#X connect 6 0 10 0;
#X connect 7 0 11 0;
#X connect 8 0 12 0;
#X connect 9 0 13 0;
#X connect 10 0 13 0;
#X connect 11 0 13 0;
#X connect 12 0 13 0;
#X restore -171 141 pd wr;
#X obj -194 286 mtof;
#X obj -180 314 * 2;
#X obj -162 371 * 3;
#X obj -139 388 * 0.5;
#X obj -136 425 s \$0-monoVocoder3;
#X obj -162 408 s \$0-monoVocoder2;
#X obj -174 335 s \$0-monoVocoder1;
#X obj -150 314 s \$0-monoVocoder0;
#X obj 113 -87 s \$0-polyVocoder0;
#X obj 207 -68 s \$0-polyVocoder1;
#X obj 310 -68 s \$0-polyVocoder2;
#X obj 424 -74 s \$0-polyVocoder3;
#X obj 110 141 spigot;
#X obj 137 163 spigot;
#N canvas 461 105 450 300 inv 0;
#X obj 163 0 inlet;
#X obj 163 39 swap 1;
#X obj 166 64 -;
#X obj 164 100 outlet;
#X connect 0 0 1 0;
#X connect 1 0 2 0;
#X connect 1 1 2 1;
#X connect 2 0 3 0;
#X restore 167 139 pd inv;
#X obj 145 83 r vocoderStyle;
#X obj 143 107 t f f;
#X msg 149 59 1;
#X obj 147 32 loadbang;
#X obj 236 139 spigot;
#X obj 263 161 spigot;
#N canvas 461 105 450 300 inv 0;
#X obj 163 0 inlet;
#X obj 163 39 swap 1;
#X obj 166 64 -;
#X obj 164 100 outlet;
#X connect 0 0 1 0;
#X connect 1 0 2 0;
#X connect 1 1 2 1;
#X connect 2 0 3 0;
#X restore 293 137 pd inv;
#X obj 271 81 r vocoderStyle;
#X obj 269 105 t f f;
#X msg 275 57 1;
#X obj 273 30 loadbang;
#X obj 364 138 spigot;
#X obj 391 160 spigot;
#N canvas 461 105 450 300 inv 0;
#X obj 163 0 inlet;
#X obj 163 39 swap 1;
#X obj 166 64 -;
#X obj 164 100 outlet;
#X connect 0 0 1 0;
#X connect 1 0 2 0;
#X connect 1 1 2 1;
#X connect 2 0 3 0;
#X restore 421 136 pd inv;
#X obj 399 80 r vocoderStyle;
#X obj 397 104 t f f;
#X msg 403 56 1;
#X obj 401 29 loadbang;
#X obj 489 138 spigot;
#X obj 516 160 spigot;
#N canvas 461 105 450 300 inv 0;
#X obj 163 0 inlet;
#X obj 163 39 swap 1;
#X obj 166 64 -;
#X obj 164 100 outlet;
#X connect 0 0 1 0;
#X connect 1 0 2 0;
#X connect 1 1 2 1;
#X connect 2 0 3 0;
#X restore 546 136 pd inv;
#X obj 524 80 r vocoderStyle;
#X obj 522 104 t f f;
#X msg 528 56 1;
#X obj 526 29 loadbang;
#X obj 107 -21 r \$0-polyVocoder0;
#X obj 130 6 r \$0-monoVocoder0;
#X obj 234 6 r \$0-polyVocoder1;
#X obj 265 -22 r \$0-monoVocoder1;
#X obj 375 -19 r \$0-polyVocoder2;
#X obj 394 2 r \$0-monoVocoder2;
#X obj 503 -24 r \$0-polyVocoder3;
#X obj 528 -2 r \$0-monoVocoder3;
#X obj -187 -274 r \$0-clock;
#X obj -189 -244 sel 0;
#X obj -191 -220 random 2;
#X obj -191 -194 s vocoderStyle;
#X obj 353 479 mm_vocoder~;
#X obj 486 432 r onOff;
#X obj 485 456 t b;
#X obj 333 391 *~ 0.25;
#X obj 351 509 lop~ 8000;
#X msg 426 420 20;
#X connect 0 0 116 0;
#X connect 1 0 69 0;
#X connect 2 0 8 0;
#X connect 3 0 11 0;
#X connect 4 0 113 1;
#X connect 6 0 113 2;
#X connect 7 0 5 0;
#X connect 8 0 24 0;
#X connect 9 0 116 0;
#X connect 10 0 70 0;
#X connect 11 0 28 0;
#X connect 12 0 116 0;
#X connect 13 0 71 0;
#X connect 14 0 32 0;
#X connect 15 0 14 0;
#X connect 18 0 20 0;
#X connect 19 0 18 0;
#X connect 20 0 22 0;
#X connect 20 1 43 0;
#X connect 21 0 23 1;
#X connect 22 0 23 0;
#X connect 23 0 1 0;
#X connect 24 0 26 0;
#X connect 24 1 44 0;
#X connect 25 0 27 1;
#X connect 26 0 27 0;
#X connect 27 0 10 0;
#X connect 28 0 30 0;
#X connect 28 1 46 0;
#X connect 29 0 31 1;
#X connect 30 0 31 0;
#X connect 31 0 13 0;
#X connect 32 0 34 0;
#X connect 32 1 48 0;
#X connect 33 0 35 1;
#X connect 34 0 35 0;
#X connect 35 0 37 0;
#X connect 36 0 116 0;
#X connect 37 0 72 0;
#X connect 38 0 0 0;
#X connect 39 0 9 0;
#X connect 40 0 12 0;
#X connect 41 0 36 0;
#X connect 42 0 21 0;
#X connect 43 0 42 0;
#X connect 44 0 45 0;
#X connect 45 0 25 0;
#X connect 46 0 47 0;
#X connect 47 0 29 0;
#X connect 48 0 49 0;
#X connect 49 0 33 0;
#X connect 50 0 55 0;
#X connect 51 0 50 0;
#X connect 52 0 50 0;
#X connect 53 0 50 0;
#X connect 54 0 50 0;
#X connect 55 0 58 0;
#X connect 55 1 60 0;
#X connect 56 0 57 0;
#X connect 57 0 59 0;
#X connect 58 0 61 0;
#X connect 59 0 58 1;
#X connect 60 0 56 0;
#X connect 61 0 62 0;
#X connect 61 0 63 0;
#X connect 61 0 64 0;
#X connect 61 0 68 0;
#X connect 62 0 67 0;
#X connect 63 0 66 0;
#X connect 64 0 65 0;
#X connect 73 0 38 0;
#X connect 74 0 38 0;
#X connect 75 0 74 1;
#X connect 76 0 77 0;
#X connect 77 0 73 1;
#X connect 77 1 75 0;
#X connect 78 0 77 0;
#X connect 79 0 78 0;
#X connect 80 0 39 0;
#X connect 81 0 39 0;
#X connect 82 0 81 1;
#X connect 83 0 84 0;
#X connect 84 0 80 1;
#X connect 84 1 82 0;
#X connect 85 0 84 0;
#X connect 86 0 85 0;
#X connect 87 0 40 0;
#X connect 88 0 40 0;
#X connect 89 0 88 1;
#X connect 90 0 91 0;
#X connect 91 0 87 1;
#X connect 91 1 89 0;
#X connect 92 0 91 0;
#X connect 93 0 92 0;
#X connect 94 0 41 0;
#X connect 95 0 41 0;
#X connect 96 0 95 1;
#X connect 97 0 98 0;
#X connect 98 0 94 1;
#X connect 98 1 96 0;
#X connect 99 0 98 0;
#X connect 100 0 99 0;
#X connect 101 0 73 0;
#X connect 102 0 74 0;
#X connect 103 0 80 0;
#X connect 104 0 81 0;
#X connect 105 0 87 0;
#X connect 106 0 88 0;
#X connect 107 0 94 0;
#X connect 108 0 95 0;
#X connect 109 0 110 0;
#X connect 110 0 111 0;
#X connect 111 0 112 0;
#X connect 113 0 117 0;
#X connect 114 0 115 0;
#X connect 115 0 113 3;
#X connect 116 0 113 0;
#X connect 117 0 7 0;
#X connect 118 0 113 2;
#X restore 508 699 pd vocoder;
#X obj 554 -8 r randomize;
#X obj 640 19 loadbang;
#X obj 549 242 bng 15 250 50 0 empty empty empty 17 7 0 10 -262144
-1 -1;
#X msg 667 953 randomize;
#X obj 585 177 list prepend set;
#X obj 587 200 list trim;
#X obj 606 95 random 16;
#X obj 588 38 bng 15 250 50 0 empty empty empty 17 7 0 10 -262144 -1
-1;
#X msg 556 118 15 1 1 1 15 1 1 1 75 1 1 1 15 1 1 1;
#N canvas 710 242 450 300 toTremelo 0;
#X obj 75 -66 inlet~;
#X obj 76 167 *~;
#X obj 101 144 lop~ 1;
#X obj 154 44 random 100;
#X obj 152 67 * 0.01;
#X obj 152 91 *;
#X obj 155 15 t b;
#X obj 76 197 throw~ toTremelo;
#X obj 156 -9 r randomize1;
#X connect 0 0 1 0;
#X connect 1 0 7 0;
#X connect 2 0 1 1;
#X connect 3 0 4 0;
#X connect 4 0 5 1;
#X connect 4 0 5 0;
#X connect 5 0 2 0;
#X connect 6 0 3 0;
#X connect 8 0 6 0;
#X restore 332 986 pd toTremelo;
#X obj 701 -32 r \$0-timer;
#X obj 699 -9 mod 70;
#X msg 699 15 seed \$1;
#X obj 663 839 r randomize1;
#X obj 522 986 birdPan~;
#X msg 551 469 slice;
#X obj 744 352 bng 15 250 50 0 empty empty empty 17 7 0 10 -262144
-1 -1;
#X obj 746 332 r \$0-snareHits;
#X obj 513 533 mm_sample_slicer1~;
#X obj 743 377 f;
#X obj 778 380 + 1;
#X obj 742 404 mod 2;
#X obj 741 426 sel 0;
#X obj 522 953 mm_monoSyncDelay;
#X obj 512 608 *~ 2;
#X obj 631 1089 throw~ outputR;
#X obj 493 1084 throw~ outputL;
#X obj 514 810 *~;
#X obj 545 784 lop~ 20;
#X obj 543 735 r samplerVolume;
#X obj 684 727 loadbang;
#X msg 685 750 0.25;
#X obj 509 749 *~ 4;
#X obj 699 1012 scope samplerScope;
#X connect 0 0 31 0;
#X connect 1 0 6 0;
#X connect 2 0 31 1;
#X connect 2 0 36 1;
#X connect 3 0 10 0;
#X connect 4 0 16 0;
#X connect 5 0 31 1;
#X connect 6 0 0 0;
#X connect 6 0 15 0;
#X connect 7 0 21 0;
#X connect 7 1 19 0;
#X connect 8 0 6 1;
#X connect 8 0 17 0;
#X connect 10 0 4 0;
#X connect 11 0 36 1;
#X connect 12 0 45 0;
#X connect 13 0 7 0;
#X connect 14 0 7 0;
#X connect 16 0 27 1;
#X connect 17 0 18 0;
#X connect 18 0 21 0;
#X connect 19 0 8 1;
#X connect 20 0 7 0;
#X connect 21 0 8 0;
#X connect 23 0 24 0;
#X connect 24 0 25 0;
#X connect 25 0 19 0;
#X connect 26 0 36 1;
#X connect 27 0 39 0;
#X connect 27 0 46 0;
#X connect 27 1 38 0;
#X connect 27 1 46 0;
#X connect 28 0 31 0;
#X connect 29 0 32 0;
#X connect 30 0 29 0;
#X connect 31 0 37 0;
#X connect 32 0 33 0;
#X connect 32 0 34 0;
#X connect 33 0 32 1;
#X connect 34 0 35 0;
#X connect 35 0 28 0;
#X connect 36 0 27 0;
#X connect 37 0 12 0;
#X connect 40 0 36 0;
#X connect 40 0 9 0;
#X connect 40 0 22 0;
#X connect 41 0 40 1;
#X connect 42 0 41 0;
#X connect 43 0 44 0;
#X connect 44 0 41 0;
#X connect 45 0 40 0;
#X restore 873 -11 pd sample player;
#X obj 74 102 r audioSwitch;
#X obj 109 358 switch~;
#X obj 242 -70 s outputVolume;
#X obj 68 10 *~;
#X obj 88 -11 lop~ 1;
#X obj 90 -92 r inputVolume;
#X obj 110 -67 loadbang;
#X msg 109 -44 1;
#X msg 242 -95 1;
#X obj 342 -70 s synthVolume;
#X msg 342 -95 0;
#X obj 240 -19 s bassVolume;
#X msg 240 -41 0;
#X obj 346 -21 s drumsVolume;
#X msg 345 -43 0;
#X obj 544 12 s playSampler1;
#X obj 545 -11 bng 15 250 50 0 empty empty empty 17 7 0 10 -262144
-1 -1;
#X obj 545 -37 s playSampler2;
#X obj 545 -60 bng 15 250 50 0 empty empty empty 17 7 0 10 -262144
-1 -1;
#X msg 378 -93 0.25;
#X msg 279 -41 0.25;
#X msg 384 -42 0.25;
#X obj 847 589 s alterPattern1;
#X obj 861 632 s alterPattern2;
#X obj 883 678 s alterPattern3;
#X msg 882 656 offset \$1;
#X obj 1174 534 s alterPattern0;
#X obj 1175 556 s alterPattern1;
#X obj 1176 578 s alterPattern2;
#X obj 1178 600 s alterPattern3;
#X msg 1170 508 reverse;
#X obj 1170 479 r reverse;
#X obj 1063 532 s alterPattern0;
#X obj 1064 554 s alterPattern1;
#X obj 1065 576 s alterPattern2;
#X obj 1067 598 s alterPattern3;
#X msg 1059 506 rate \$1;
#X obj 1059 477 r rate;
#X msg 848 567 offset \$1;
#X msg 862 611 offset \$1;
#X obj 1155 59 r loadNextPattern;
#X obj 1137 126 random 100;
#X obj 1136 87 t b;
#X obj 1136 177 sel 0 1;
#X obj 1155 203 t b b;
#X msg 1142 353 1;
#X obj 1184 453 s rate;
#X msg 1165 333 0.5;
#X msg 1185 357 2;
#X obj 1232 298 s reverse;
#X obj 826 361 list-enumerate;
#X obj 822 235 random 100;
#X obj 822 276 sel 0 1;
#X obj 826 417 * 0.2;
#X obj 826 439 int;
#X obj 826 460 - 2;
#X obj 852 446 * 0.2;
#X obj 852 468 int;
#X obj 852 489 - 2;
#X obj 878 471 * 0.2;
#X obj 878 493 int;
#X obj 878 514 - 2;
#X obj 823 317 s \$0-offsetZero;
#X msg 823 297 0;
#X obj 898 160 r \$0-timer;
#X msg 898 212 seed \$1;
#X obj 897 190 mod 100;
#X obj 1139 -20 r \$0-timer;
#X msg 1139 32 seed \$1;
#X obj 1138 10 mod 110;
#X msg 707 531 sparse \$1;
#X msg 696 564 sparse \$1;
#X msg 672 591 sparse \$1;
#X obj 897 538 r \$0-offsetZero;
#X obj 669 411 random 100;
#X obj 668 469 sel 0 1;
#X obj 666 296 r \$0-clock;
#X obj 668 326 sel 0;
#X obj 738 296 r \$0-timer;
#X msg 738 348 seed \$1;
#X obj 826 384 route 1 2 3;
#X obj 737 326 mod 120;
#X msg 666 504 0;
#X obj 827 339 mm_rlist 3;
#X obj 1160 275 random 2;
#X obj 1160 298 sel 0 1;
#X obj 1231 275 sel 1;
#X msg 699 503 1;
#X obj 1221 231 random 6;
#X obj 240 48 s samplerVolume;
#X msg 240 18 0;
#X msg 276 19 0.25;
#X obj 62 422 s audioOn;
#X obj 67 383 t b;
#X obj 1221 171 mod 120;
#X msg 1221 191 seed \$1;
#X obj 823 127 r loadNextPattern;
#X obj 821 154 t b;
#X text 96 -119 reconnect this;
#X obj 266 143 r \$0-clock;
#X obj 761 190 print nextPattern;
#X obj 438 70 r \$0-timer;
#X msg 438 122 seed \$1;
#X obj 438 95 mod 100;
#X obj 266 388 sel 0;
#X obj 490 139 r loadNextPattern;
#X obj 257 569 s clockBang;
#X obj 435 186 random 4;
#X obj 263 454 timer;
#X obj 265 420 t b b;
#X obj 264 481 * 0.001;
#X obj 435 212 + 1;
#X obj 434 245 * 8;
#X obj 264 307 mod 8;
#X obj 372 514 r rms;
#X obj 266 518 t f b;
#X obj 301 647 s rootMeanSquare;
#X obj 372 546 / 100;
#X obj 373 589 *;
#X obj 301 618 f 0.5;
#N canvas 967 22 450 300 scope 0;
#X obj 43 30 r~ toDacL;
#X obj 115 36 r~ toDacR;
#X obj 43 83 scope scopeArray;
#X connect 0 0 2 0;
#X connect 1 0 2 0;
#X restore 813 -64 pd scope;
#X obj 74 127 t b f f;
#X obj 113 158 == 0;
#X obj 102 187 * 30;
#X obj 72 281 f;
#X obj 68 220 del;
#X obj 341 424 s interval;
#X obj 335 333 sel 0;
#X obj 338 357 t b b;
#X obj 340 388 timer;
#X obj 334 307 mod 16;
#X obj 421 392 s beat;
#X obj 311 184 s clock;
#X obj 1226 254 > 6;
#X obj 822 256 < 10;
#X obj 669 439 < 25;
#X obj 1137 152 < 10;
#X connect 0 0 19 0;
#X connect 0 1 19 0;
#X connect 9 0 8 0;
#X connect 11 0 12 0;
#X connect 16 0 137 0;
#X connect 19 0 1 0;
#X connect 20 0 19 1;
#X connect 21 0 20 0;
#X connect 22 0 23 0;
#X connect 23 0 20 0;
#X connect 24 0 18 0;
#X connect 26 0 25 0;
#X connect 28 0 27 0;
#X connect 30 0 29 0;
#X connect 32 0 31 0;
#X connect 34 0 33 0;
#X connect 35 0 25 0;
#X connect 36 0 27 0;
#X connect 37 0 29 0;
#X connect 41 0 40 0;
#X connect 46 0 42 0;
#X connect 46 0 43 0;
#X connect 46 0 44 0;
#X connect 46 0 45 0;
#X connect 47 0 46 0;
#X connect 52 0 48 0;
#X connect 52 0 49 0;
#X connect 52 0 50 0;
#X connect 52 0 51 0;
#X connect 53 0 52 0;
#X connect 54 0 38 0;
#X connect 55 0 39 0;
#X connect 56 0 58 0;
#X connect 57 0 152 0;
#X connect 58 0 57 0;
#X connect 59 0 61 0;
#X connect 59 1 60 0;
#X connect 60 0 100 0;
#X connect 60 1 104 0;
#X connect 61 0 62 0;
#X connect 63 0 62 0;
#X connect 64 0 62 0;
#X connect 66 0 96 0;
#X connect 67 0 150 0;
#X connect 68 0 79 0;
#X connect 68 1 99 0;
#X connect 69 0 70 0;
#X connect 70 0 71 0;
#X connect 71 0 54 0;
#X connect 72 0 73 0;
#X connect 73 0 74 0;
#X connect 74 0 55 0;
#X connect 75 0 76 0;
#X connect 76 0 77 0;
#X connect 77 0 41 0;
#X connect 79 0 78 0;
#X connect 80 0 82 0;
#X connect 81 0 67 0;
#X connect 82 0 81 0;
#X connect 83 0 85 0;
#X connect 83 0 110 0;
#X connect 84 0 57 0;
#X connect 85 0 84 0;
#X connect 86 0 38 0;
#X connect 87 0 39 0;
#X connect 88 0 40 0;
#X connect 89 0 54 0;
#X connect 89 0 55 0;
#X connect 89 0 41 0;
#X connect 90 0 151 0;
#X connect 91 0 98 0;
#X connect 91 1 103 0;
#X connect 92 0 93 0;
#X connect 93 0 90 0;
#X connect 94 0 97 0;
#X connect 95 0 90 0;
#X connect 96 0 69 0;
#X connect 96 1 72 0;
#X connect 96 2 75 0;
#X connect 97 0 95 0;
#X connect 98 0 86 0;
#X connect 98 0 87 0;
#X connect 98 0 88 0;
#X connect 99 0 66 0;
#X connect 100 0 101 0;
#X connect 101 0 63 0;
#X connect 101 1 64 0;
#X connect 102 0 65 0;
#X connect 103 0 86 0;
#X connect 103 0 87 0;
#X connect 103 0 88 0;
#X connect 104 0 149 0;
#X connect 106 0 105 0;
#X connect 107 0 105 0;
#X connect 109 0 108 0;
#X connect 110 0 111 0;
#X connect 111 0 104 0;
#X connect 112 0 113 0;
#X connect 113 0 67 0;
#X connect 113 0 116 0;
#X connect 115 0 129 0;
#X connect 115 0 146 0;
#X connect 115 0 148 0;
#X connect 117 0 119 0;
#X connect 118 0 123 0;
#X connect 119 0 118 0;
#X connect 120 0 125 0;
#X connect 121 0 123 0;
#X connect 123 0 127 0;
#X connect 124 0 126 0;
#X connect 125 0 124 0;
#X connect 125 1 124 1;
#X connect 126 0 131 0;
#X connect 127 0 128 0;
#X connect 128 0 129 1;
#X connect 129 0 120 0;
#X connect 130 0 133 0;
#X connect 131 0 122 0;
#X connect 131 1 135 0;
#X connect 133 0 134 1;
#X connect 133 0 134 0;
#X connect 134 0 135 1;
#X connect 135 0 132 0;
#X connect 137 0 141 0;
#X connect 137 1 140 1;
#X connect 137 2 138 0;
#X connect 138 0 139 0;
#X connect 139 0 141 1;
#X connect 140 0 17 0;
#X connect 140 0 109 0;
#X connect 141 0 140 0;
#X connect 143 0 144 0;
#X connect 144 0 145 0;
#X connect 144 1 145 1;
#X connect 145 0 142 0;
#X connect 146 0 143 0;
#X connect 146 0 147 0;
#X connect 149 0 102 0;
#X connect 150 0 68 0;
#X connect 151 0 91 0;
#X connect 152 0 59 0;
