#N canvas 94 61 1268 785 10;
#N canvas 344 23 903 680 clock 0;
#X msg 156 109 play;
#X obj 280 263 s~ metro;
#X obj 152 268 route clock;
#X obj 117 -400 r onOff;
#X obj 117 -207 sel 0 1;
#X msg 256 146 stop;
#X obj 153 385 s \$0-clock;
#X obj 151 300 t f f;
#X obj 183 330 sel 0;
#X obj 319 104 r \$0-detectedTempo;
#X obj 227 107 t b b;
#X msg 209 170 reset;
#X obj 185 355 print newRep;
#X obj 296 -78 random 100;
#X obj 296 -58 * 0.01;
#X obj 292 35 int;
#X obj 290 80 s \$0-detectedTempo;
#X obj 180 -62 random 2;
#X msg 291 57 tempo \$1;
#X msg 180 -40 swing \$1;
#X obj 181 -15 s \$0-initSwing;
#X obj 441 137 r \$0-initSwing;
#X obj 301 -210 r setNewTempo;
#X obj 425 71 s detectedTempo;
#X obj 366 203 r setTempo;
#X msg 366 230 tempo \$1;
#X obj 368 259 s \$0-detectedTempo;
#X obj 240 -249 loadbang;
#X obj 238 -219 timer;
#X obj 231 -194 f;
#X obj 138 -180 t b b b b b;
#X obj 230 -168 mod 200;
#X msg 230 -149 seed \$1;
#X obj 484 175 loadbang;
#X obj 319 132 t b a;
#X obj 293 9 + 80;
#N canvas 695 279 450 300 inv 0;
#X obj 98 49 inlet;
#X obj 100 88 swap 1;
#X obj 102 115 -;
#X obj 97 145 outlet;
#X connect 0 0 1 0;
#X connect 1 0 2 0;
#X connect 1 1 2 1;
#X connect 2 0 3 0;
#X restore 336 -142 pd inv;
#X obj 298 -111 spigot;
#X obj 335 -173 r lockTempo;
#X msg 437 -167 0;
#X obj 436 -189 loadbang;
#X obj 294 -20 * 200;
#X obj 410 369 s clock;
#X obj 470 -129 r minTempo;
#X obj 400 -129 r maxTempo;
#X obj 399 -38 -;
#X obj 417 -66 t b f f;
#X obj 470 -94 change;
#X obj 397 -99 change;
#X obj 396 -12 t b f;
#X obj 625 24 r divisions;
#X msg 621 138 divisions \$1;
#X obj 719 28 r beats;
#X msg 714 142 beats \$1;
#X obj 789 28 r measures;
#X msg 781 142 measures \$1;
#X floatatom 246 319 5 0 0 0 - - -;
#X obj 624 57 change;
#X obj 717 58 change;
#X obj 786 58 change;
#X obj 623 86 t b f;
#X obj 715 84 t b f;
#X obj 786 83 t b f;
#X obj 574 211 r swing;
#X msg 574 239 \$1 swing;
#X obj 578 284 print swing;
#X obj 154 240 birdClock 8 4 2 120 1;
#X obj 357 336 change;
#X obj 318 157 f 2;
#X msg 356 169 divisions \$1;
#X connect 0 0 66 0;
#X connect 2 0 7 0;
#X connect 2 0 56 0;
#X connect 3 0 4 0;
#X connect 4 0 10 0;
#X connect 4 1 30 0;
#X connect 5 0 66 0;
#X connect 7 0 6 0;
#X connect 7 1 8 0;
#X connect 7 1 67 0;
#X connect 9 0 34 0;
#X connect 10 0 11 0;
#X connect 10 1 5 0;
#X connect 11 0 66 0;
#X connect 13 0 14 0;
#X connect 14 0 41 0;
#X connect 15 0 18 0;
#X connect 15 0 23 0;
#X connect 17 0 19 0;
#X connect 18 0 16 0;
#X connect 19 0 20 0;
#X connect 22 0 37 0;
#X connect 24 0 25 0;
#X connect 25 0 26 0;
#X connect 25 0 66 1;
#X connect 27 0 28 0;
#X connect 28 0 29 1;
#X connect 29 0 31 0;
#X connect 30 0 0 0;
#X connect 30 1 17 0;
#X connect 30 2 37 0;
#X connect 30 3 29 0;
#X connect 30 4 28 1;
#X connect 31 0 32 0;
#X connect 32 0 13 0;
#X connect 34 0 68 0;
#X connect 34 1 66 1;
#X connect 35 0 15 0;
#X connect 36 0 37 1;
#X connect 37 0 13 0;
#X connect 38 0 36 0;
#X connect 39 0 36 0;
#X connect 40 0 39 0;
#X connect 41 0 35 0;
#X connect 43 0 47 0;
#X connect 44 0 48 0;
#X connect 45 0 49 0;
#X connect 46 0 45 0;
#X connect 46 1 45 1;
#X connect 46 2 35 1;
#X connect 47 0 46 0;
#X connect 48 0 45 0;
#X connect 49 0 37 0;
#X connect 49 1 41 1;
#X connect 50 0 57 0;
#X connect 51 0 66 1;
#X connect 52 0 58 0;
#X connect 53 0 66 1;
#X connect 54 0 59 0;
#X connect 55 0 66 1;
#X connect 57 0 60 0;
#X connect 58 0 61 0;
#X connect 59 0 62 0;
#X connect 60 0 0 0;
#X connect 60 1 51 0;
#X connect 60 1 68 1;
#X connect 61 0 0 0;
#X connect 61 1 53 0;
#X connect 62 0 0 0;
#X connect 62 1 55 0;
#X connect 63 0 64 0;
#X connect 64 0 66 1;
#X connect 66 0 2 0;
#X connect 66 1 1 0;
#X connect 67 0 42 0;
#X connect 68 0 69 0;
#X restore 813 -9 pd clock;
#N canvas 338 54 911 714 drums 0;
#N canvas 265 46 1440 752 kick 0;
#X obj 515 585 soundfiler;
#X obj 151 26 inlet;
#X obj 143 716 outlet~;
#X obj 515 611 t b;
#X obj 515 642 \$0;
#N canvas 399 41 502 429 patterns 0;
#X obj 72 17 inlet;
#X obj 72 42 sel 0 1 2 3 4 5 6 7 8;
#X obj 107 419 outlet;
#X msg 72 72 100 5 5 5 5 10 5 15;
#X msg 92 120 100 50 5 5 5 5 65 5;
#X msg 109 145 100 5 90 5 5 5 70 5;
#X msg 125 168 100 5 5 90 90 5 5 5;
#X msg 140 189 100 1 1 1 90 1 1 1;
#X msg 157 212 100 2 2 2;
#X msg 175 235 90 10 1 10 90 10 1 90 1 90 1 10 90 90 1 25;
#X text 264 337 kick patterns;
#X msg 192 266 100 10 1 50 90 1 1 80 90 1 1 80 90 1 80 80 90;
#X msg 206 288 90 5 90 5 5 90 5 90;
#X connect 0 0 1 0;
#X connect 1 0 3 0;
#X connect 1 1 4 0;
#X connect 1 2 5 0;
#X connect 1 3 6 0;
#X connect 1 4 7 0;
#X connect 1 5 8 0;
#X connect 1 6 9 0;
#X connect 1 7 11 0;
#X connect 1 8 12 0;
#X connect 3 0 2 0;
#X connect 4 0 2 0;
#X connect 5 0 2 0;
#X connect 6 0 2 0;
#X connect 7 0 2 0;
#X connect 8 0 2 0;
#X connect 9 0 2 0;
#X connect 11 0 2 0;
#X connect 12 0 2 0;
#X restore 217 79 pd patterns;
#X obj 217 33 inlet;
#X obj 142 673 *~;
#X obj 150 252 t b b b;
#X obj 152 441 del;
#X obj 177 479 * 0.01;
#X obj 177 420 random 45;
#X obj 177 451 + 70;
#X obj 217 55 route pattern sample;
#X obj 275 103 s \$0-kickSample;
#X obj 613 376 \$0;
#X obj 602 329 \$0;
#X obj 639 467 \$0;
#X obj 628 420 \$0;
#X obj 150 132 wrandom;
#X obj 37 580 s \$0-kickHits;
#X obj 208 180 r \$0-clock;
#X obj 205 255 mod 8;
#X obj 282 233 r \$0-accent;
#X obj 205 280 == 0;
#X obj 205 312 sel 0 1;
#X msg 245 341 90;
#X msg 204 342 60;
#X obj 23 13 table \$0-kickArray0;
#X obj 25 33 table \$0-kickArray1;
#X obj 26 55 table \$0-kickArray2;
#X obj 28 75 table \$0-kickArray3;
#X msg 602 353 read -resize Kick-2.wav \$1-kickArray0;
#X msg 613 400 read -resize Kick-3.wav \$1-kickArray1;
#X msg 628 444 read -resize Kick-4.wav \$1-kickArray2;
#X msg 639 491 read -resize Kick-5.wav \$1-kickArray3;
#X obj 151 522 tabplay~ \$0-kickArray0;
#X obj 299 440 \$0;
#X obj 299 416 route 0 1 2 3;
#X obj 312 486 \$0;
#X obj 327 534 \$0;
#X obj 340 580 \$0;
#X msg 298 466 set \$1-kickArray0;
#X msg 311 512 set \$1-kickArray1;
#X msg 331 554 set \$1-kickArray2;
#X msg 339 606 set \$1-kickArray3;
#X obj 301 372 r \$0-changeKick;
#X obj 673 588 soundfiler;
#X obj 673 614 t b;
#X obj 673 645 \$0;
#X obj 832 586 soundfiler;
#X obj 832 612 t b;
#X obj 832 643 \$0;
#X obj 990 589 soundfiler;
#X obj 990 615 t b;
#X obj 990 646 \$0;
#X msg 515 669 \; \$1-kickArray0 normalize 1;
#X msg 673 672 \; \$1-kickArray1 normalize 1;
#X msg 832 670 \; \$1-kickArray2 normalize 1;
#X msg 990 673 \; \$1-kickArray3 normalize 1;
#X obj 601 288 loadbang;
#X obj 295 322 random 4;
#X obj 170 640 *~;
#X obj 174 617 lop~ 1;
#X obj 954 70 block~ 1024 1 2;
#X obj 214 451 random 10;
#N canvas 603 144 450 300 mdb 0;
#X obj 63 42 inlet;
#X obj 66 79 spigot;
#X obj 66 103 t b b;
#X msg 99 133 0;
#X msg 133 53 1;
#X obj 133 21 loadbang;
#X obj 72 162 outlet;
#X msg 194 64 1;
#X obj 197 25 inlet;
#X connect 0 0 1 0;
#X connect 1 0 2 0;
#X connect 2 0 6 0;
#X connect 2 1 3 0;
#X connect 3 0 1 1;
#X connect 4 0 1 1;
#X connect 5 0 4 0;
#X connect 7 0 1 1;
#X connect 8 0 7 0;
#X restore 154 191 pd mdb;
#X obj 469 -28 r \$0-clock;
#X obj 470 -3 t f b f;
#X obj 494 62 random 100;
#X obj 494 94 <;
#X obj 447 131 spigot;
#X obj 574 -77 r notes;
#X obj 567 -30 list prepend read;
#X obj 566 -7 list trim;
#X obj 567 -52 route 4;
#X obj 511 26 mm_pattern;
#X obj 602 76 print kicknotes;
#X obj 598 45 length;
#X obj 242 213 r divisions;
#X connect 0 0 3 0;
#X connect 1 0 19 0;
#X connect 3 0 4 0;
#X connect 3 0 15 0;
#X connect 4 0 56 0;
#X connect 5 0 19 1;
#X connect 6 0 13 0;
#X connect 7 0 2 0;
#X connect 8 0 9 0;
#X connect 8 1 11 0;
#X connect 8 2 61 0;
#X connect 8 2 65 0;
#X connect 9 0 36 0;
#X connect 9 0 20 0;
#X connect 10 0 63 0;
#X connect 11 0 12 0;
#X connect 12 0 10 0;
#X connect 13 0 5 0;
#X connect 13 1 14 0;
#X connect 15 0 33 0;
#X connect 16 0 32 0;
#X connect 17 0 35 0;
#X connect 18 0 34 0;
#X connect 21 0 22 0;
#X connect 22 0 24 0;
#X connect 23 0 24 1;
#X connect 24 0 25 0;
#X connect 25 0 27 0;
#X connect 25 1 26 0;
#X connect 26 0 12 1;
#X connect 27 0 12 1;
#X connect 32 0 0 0;
#X connect 33 0 47 0;
#X connect 34 0 50 0;
#X connect 35 0 53 0;
#X connect 36 0 7 0;
#X connect 36 1 66 1;
#X connect 37 0 42 0;
#X connect 38 0 37 0;
#X connect 38 1 39 0;
#X connect 38 2 40 0;
#X connect 38 3 41 0;
#X connect 39 0 43 0;
#X connect 40 0 44 0;
#X connect 41 0 45 0;
#X connect 42 0 36 0;
#X connect 43 0 36 0;
#X connect 44 0 36 0;
#X connect 45 0 36 0;
#X connect 46 0 38 0;
#X connect 47 0 48 0;
#X connect 48 0 49 0;
#X connect 48 0 18 0;
#X connect 49 0 57 0;
#X connect 50 0 51 0;
#X connect 51 0 52 0;
#X connect 51 0 17 0;
#X connect 52 0 58 0;
#X connect 53 0 54 0;
#X connect 54 0 55 0;
#X connect 55 0 59 0;
#X connect 60 0 16 0;
#X connect 61 0 38 0;
#X connect 62 0 7 1;
#X connect 63 0 62 1;
#X connect 63 0 62 0;
#X connect 65 0 9 1;
#X connect 66 0 8 0;
#X connect 67 0 68 0;
#X connect 68 0 71 0;
#X connect 68 1 69 0;
#X connect 68 2 76 0;
#X connect 69 0 70 0;
#X connect 70 0 71 1;
#X connect 71 0 66 0;
#X connect 72 0 75 0;
#X connect 73 0 74 0;
#X connect 74 0 76 1;
#X connect 74 0 78 0;
#X connect 75 0 73 0;
#X connect 76 0 70 1;
#X connect 76 1 70 1;
#X connect 78 0 77 0;
#X connect 79 0 22 1;
#X restore 177 227 pd kick;
#X obj 176 687 throw~ outputR;
#X obj 243 723 throw~ outputL;
#N canvas 0 23 1440 752 sn 0;
#X obj 720 193 \$0;
#X obj 731 473 soundfiler;
#X obj 150 15 inlet;
#X obj 150 663 outlet~;
#X obj 731 502 t b;
#X obj 731 533 \$0;
#N canvas 916 26 502 429 patterns 0;
#X obj 72 17 inlet;
#X obj 71 41 sel 0 1 2 3 4 5 6 7 8;
#X obj 114 327 outlet;
#X msg 72 70 0 5 5 5 95 15 5 15;
#X msg 103 118 0 5 5 5 95 15 5 15;
#X msg 86 93 0 5 5 5 95 50 5 50;
#X msg 119 141 0 5 5 95 95 5 5 15;
#X msg 134 162 0 1 95 95 1 1 10 20;
#X msg 151 185 1 1 1 1 95 10 1 10;
#X text 227 355 snare patterns;
#X msg 192 236 99 80 80 80 99 80 80 80 99 80 80 80 99 80 80 80;
#X msg 174 211 1 5 90 5 1 5 90 40;
#X msg 200 261 90 5 90 5 90 5 90 5;
#X connect 0 0 1 0;
#X connect 1 0 3 0;
#X connect 1 1 5 0;
#X connect 1 2 4 0;
#X connect 1 3 6 0;
#X connect 1 4 7 0;
#X connect 1 5 8 0;
#X connect 1 6 11 0;
#X connect 1 7 10 0;
#X connect 1 8 12 0;
#X connect 3 0 2 0;
#X connect 4 0 2 0;
#X connect 5 0 2 0;
#X connect 6 0 2 0;
#X connect 7 0 2 0;
#X connect 8 0 2 0;
#X connect 10 0 2 0;
#X connect 11 0 2 0;
#X connect 12 0 2 0;
#X restore 220 61 pd patterns;
#X obj 220 15 inlet;
#X obj 149 614 *~;
#X obj 154 210 t b b b;
#X obj 151 365 del;
#X obj 177 349 * 0.01;
#X obj 177 297 random 45;
#X obj 177 321 + 60;
#X obj 220 37 route pattern sample;
#X obj 280 83 s \$0-snareSample;
#X obj 738 282 \$0;
#X obj 750 325 \$0;
#X obj 765 369 \$0;
#X obj 153 114 wrandom;
#X obj 225 113 r \$0-clock;
#X obj 225 174 mod 8;
#X obj 302 152 r \$0-accent;
#X obj 225 199 == 0;
#X obj 225 231 sel 0 1;
#X msg 224 261 50;
#X msg 265 260 80;
#X obj 6 36 table \$0-snareArray1;
#X obj 7 59 table \$0-snareArray2;
#X obj 7 82 table \$0-snareArray3;
#X obj 6 13 table \$0-snareArray0;
#X msg 722 260 read -resize Snare-5.wav \$1-snareArray0;
#X msg 737 304 read -resize Snare.wav \$1-snareArray1;
#X msg 749 347 read -resize Clap-4.wav \$1-snareArray2;
#X msg 764 391 read -resize Snare-2.wav \$1-snareArray3;
#X obj 289 389 \$0;
#X obj 291 321 r \$0-changeSnare;
#X msg 288 415 set \$1-snareArray0;
#X obj 289 365 route 0 1 2 3;
#X obj 302 435 \$0;
#X msg 301 461 set \$1-snareArray1;
#X obj 317 483 \$0;
#X obj 330 529 \$0;
#X msg 316 509 set \$1-snareArray2;
#X msg 329 555 set \$1-snareArray3;
#X obj 720 160 loadbang;
#X obj 149 528 tabplay~ \$0-snareArray0;
#X obj 900 471 soundfiler;
#X obj 900 500 t b;
#X obj 900 531 \$0;
#X obj 1068 470 soundfiler;
#X obj 1068 499 t b;
#X obj 1068 530 \$0;
#X obj 1237 468 soundfiler;
#X obj 1237 497 t b;
#X obj 1237 528 \$0;
#X msg 731 560 \; \$1-snareArray0 normalize 1;
#X msg 900 558 \; \$1-snareArray1 normalize 1;
#X msg 1068 557 \; \$1-snareArray2 normalize 1;
#X msg 1237 555 \; \$1-snareArray3 normalize 1;
#X obj 339 288 random 4;
#X obj 168 404 s \$0-snareHits;
#X obj 167 554 lop~ 1;
#X obj 168 581 *~;
#X obj 934 50 block~ 1024 1 2;
#X obj 214 321 random 12;
#N canvas 603 144 450 300 mdb 0;
#X obj 63 42 inlet;
#X obj 66 79 spigot;
#X obj 66 103 t b b;
#X msg 99 133 0;
#X msg 133 53 1;
#X obj 133 21 loadbang;
#X obj 72 162 outlet;
#X msg 194 64 1;
#X obj 197 25 inlet;
#X connect 0 0 1 0;
#X connect 1 0 2 0;
#X connect 2 0 6 0;
#X connect 2 1 3 0;
#X connect 3 0 1 1;
#X connect 4 0 1 1;
#X connect 5 0 4 0;
#X connect 7 0 1 1;
#X connect 8 0 7 0;
#X restore 154 170 pd mdb;
#X obj 517 0 r \$0-clock;
#X obj 518 25 t f b f;
#X obj 541 80 random 100;
#X obj 542 103 <;
#X obj 520 136 spigot;
#X obj 612 -49 r notes;
#X obj 615 -2 list prepend read;
#X obj 614 21 list trim;
#X obj 557 49 mm_pattern;
#X obj 615 -24 route 5;
#X obj 701 98 print snare_notes;
#X obj 660 62 length;
#X obj 258 139 r divisions;
#X connect 0 0 31 0;
#X connect 1 0 4 0;
#X connect 2 0 19 0;
#X connect 4 0 5 0;
#X connect 4 0 16 0;
#X connect 5 0 56 0;
#X connect 6 0 19 1;
#X connect 7 0 14 0;
#X connect 8 0 3 0;
#X connect 9 0 10 0;
#X connect 9 1 12 0;
#X connect 9 2 60 0;
#X connect 9 2 65 0;
#X connect 10 0 61 0;
#X connect 10 0 46 0;
#X connect 11 0 62 0;
#X connect 12 0 13 0;
#X connect 13 0 11 0;
#X connect 14 0 6 0;
#X connect 14 1 15 0;
#X connect 16 0 32 0;
#X connect 17 0 33 0;
#X connect 18 0 34 0;
#X connect 20 0 21 0;
#X connect 21 0 23 0;
#X connect 22 0 23 1;
#X connect 23 0 24 0;
#X connect 24 0 25 0;
#X connect 24 1 26 0;
#X connect 25 0 13 1;
#X connect 26 0 13 1;
#X connect 31 0 1 0;
#X connect 32 0 47 0;
#X connect 33 0 50 0;
#X connect 34 0 53 0;
#X connect 35 0 37 0;
#X connect 36 0 38 0;
#X connect 37 0 46 0;
#X connect 38 0 35 0;
#X connect 38 1 39 0;
#X connect 38 2 41 0;
#X connect 38 3 42 0;
#X connect 39 0 40 0;
#X connect 40 0 46 0;
#X connect 41 0 43 0;
#X connect 42 0 44 0;
#X connect 43 0 46 0;
#X connect 44 0 46 0;
#X connect 45 0 0 0;
#X connect 46 0 8 0;
#X connect 46 1 66 1;
#X connect 47 0 48 0;
#X connect 48 0 49 0;
#X connect 48 0 17 0;
#X connect 49 0 57 0;
#X connect 50 0 51 0;
#X connect 51 0 52 0;
#X connect 51 0 18 0;
#X connect 52 0 58 0;
#X connect 53 0 54 0;
#X connect 54 0 55 0;
#X connect 55 0 59 0;
#X connect 60 0 38 0;
#X connect 62 0 63 1;
#X connect 62 0 63 0;
#X connect 63 0 8 1;
#X connect 65 0 10 1;
#X connect 66 0 9 0;
#X connect 67 0 68 0;
#X connect 68 0 71 0;
#X connect 68 1 69 0;
#X connect 68 2 75 0;
#X connect 69 0 70 0;
#X connect 70 0 71 1;
#X connect 71 0 66 0;
#X connect 72 0 76 0;
#X connect 73 0 74 0;
#X connect 74 0 75 1;
#X connect 74 0 78 0;
#X connect 75 0 70 1;
#X connect 75 1 70 1;
#X connect 76 0 73 0;
#X connect 78 0 77 0;
#X connect 79 0 21 1;
#X restore 269 224 pd sn;
#X msg 190 119 pattern \$1;
#X obj 268 546 lop~ 1;
#N canvas 16 23 1440 752 perc 0;
#X obj 738 563 soundfiler;
#X obj 328 46 inlet;
#X obj 362 591 outlet~;
#X obj 738 592 t b;
#X obj 738 623 \$0;
#N canvas 29 45 502 429 patterns 0;
#X obj 72 17 inlet;
#X obj 71 41 sel 0 1 2 3 4 5 6 7 8;
#X obj 114 327 outlet;
#X msg 72 70 80 5 80 5 80 5 80 5;
#X msg 86 93 5 80 5 80 5 80 5 80;
#X msg 103 118 80 80 80 80 80 80 80 80;
#X msg 119 141 5 80 80 5 5 80 80 5;
#X msg 134 162 85 85 85 85;
#X msg 151 185 5 80 5 80;
#X msg 169 208 80 80 80 1 80 80 80 1 1 80 80 80 1 80 80 80;
#X text 195 377 percussion patterns;
#X msg 186 239 15 15 80 15;
#X msg 201 264 80 50 80 50 80 50 80 50;
#X connect 0 0 1 0;
#X connect 1 0 3 0;
#X connect 1 1 4 0;
#X connect 1 2 5 0;
#X connect 1 3 6 0;
#X connect 1 4 7 0;
#X connect 1 5 8 0;
#X connect 1 6 9 0;
#X connect 1 7 11 0;
#X connect 1 8 12 0;
#X connect 3 0 2 0;
#X connect 4 0 2 0;
#X connect 5 0 2 0;
#X connect 6 0 2 0;
#X connect 7 0 2 0;
#X connect 8 0 2 0;
#X connect 9 0 2 0;
#X connect 11 0 2 0;
#X connect 12 0 2 0;
#X restore 398 138 pd patterns;
#X obj 398 88 inlet;
#X obj 327 557 *~;
#X obj 330 277 t b b b;
#X obj 330 416 del;
#X obj 356 400 * 0.01;
#X obj 356 348 random 45;
#X obj 356 372 + 55;
#X obj 398 114 route pattern sample;
#X obj 455 163 s \$0-percSample;
#X obj 735 372 \$0;
#X obj 748 415 \$0;
#X obj 763 458 \$0;
#X obj 777 504 \$0;
#X obj 331 191 wrandom;
#X obj 414 18 r \$0-clock;
#X obj 414 233 mod 8;
#X obj 491 197 r \$0-accent;
#X obj 414 258 == 0;
#X obj 414 290 sel 0 1;
#X msg 413 320 50;
#X msg 454 319 80;
#X obj 734 343 loadbang;
#X obj 22 42 table \$0-percArray0;
#X obj 22 65 table \$0-percArray1;
#X obj 23 88 table \$0-percArray2;
#X obj 23 111 table \$0-percArray3;
#X msg 735 394 read -resize Hat-6.aif \$1-percArray0;
#X msg 748 438 read -resize Hat-7.aif \$1-percArray1;
#X msg 763 480 read -resize Perc.wav \$1-percArray2;
#X msg 776 524 read -resize Tamb.wav \$1-percArray3;
#X obj 501 364 \$0;
#X obj 501 340 route 0 1 2 3;
#X obj 514 410 \$0;
#X obj 529 458 \$0;
#X obj 542 504 \$0;
#X obj 331 444 tabplay~ \$0-percArray0;
#X msg 500 390 set \$1-percArray0;
#X msg 513 436 set \$1-percArray1;
#X msg 528 486 set \$1-percArray2;
#X msg 541 530 set \$1-percArray3;
#X obj 503 296 r \$0-changePerc;
#X obj 899 564 soundfiler;
#X obj 899 593 t b;
#X obj 899 624 \$0;
#X obj 1057 561 soundfiler;
#X obj 1057 590 t b;
#X obj 1057 621 \$0;
#X obj 1218 562 soundfiler;
#X obj 1218 591 t b;
#X obj 1218 622 \$0;
#X msg 738 650 \; \$1-percArray0 normalize 1;
#X msg 899 651 \; \$1-percArray1 normalize 1;
#X msg 1057 648 \; \$1-percArray2 normalize 1;
#X msg 1218 649 \; \$1-percArray3 normalize 1;
#X obj 223 447 s \$0-percHits;
#X obj 944 60 block~ 1024 1 2;
#X obj 351 508 *~;
#X obj 349 467 lop~ 1;
#N canvas 603 144 450 300 mdb 0;
#X obj 63 42 inlet;
#X obj 66 79 spigot;
#X obj 66 103 t b b;
#X msg 99 133 0;
#X msg 133 53 1;
#X obj 133 21 loadbang;
#X obj 72 162 outlet;
#X msg 194 64 1;
#X obj 197 25 inlet;
#X connect 0 0 1 0;
#X connect 1 0 2 0;
#X connect 2 0 6 0;
#X connect 2 1 3 0;
#X connect 3 0 1 1;
#X connect 4 0 1 1;
#X connect 5 0 4 0;
#X connect 7 0 1 1;
#X connect 8 0 7 0;
#X restore 330 234 pd mdb;
#X obj 393 372 random 5;
#X obj 527 10 r \$0-clock;
#X obj 528 35 t f b f;
#X obj 551 90 random 100;
#X obj 552 113 <;
#X obj 530 146 spigot;
#X obj 622 -39 r notes;
#X obj 625 8 list prepend read;
#X obj 624 31 list trim;
#X obj 567 59 mm_pattern;
#X obj 625 -14 route 6;
#X obj 778 198 print percnotes;
#X obj 730 152 length;
#X obj 431 200 r divisions;
#X connect 0 0 3 0;
#X connect 1 0 19 0;
#X connect 3 0 4 0;
#X connect 3 0 16 0;
#X connect 4 0 56 0;
#X connect 5 0 19 1;
#X connect 6 0 13 0;
#X connect 7 0 2 0;
#X connect 8 0 9 0;
#X connect 8 1 11 0;
#X connect 8 2 65 0;
#X connect 9 0 41 0;
#X connect 9 0 60 0;
#X connect 10 0 63 0;
#X connect 11 0 12 0;
#X connect 12 0 10 0;
#X connect 13 0 5 0;
#X connect 13 1 14 0;
#X connect 15 0 32 0;
#X connect 16 0 33 0;
#X connect 17 0 34 0;
#X connect 18 0 35 0;
#X connect 20 0 21 0;
#X connect 21 0 23 0;
#X connect 22 0 23 1;
#X connect 23 0 24 0;
#X connect 24 0 25 0;
#X connect 24 1 26 0;
#X connect 25 0 12 1;
#X connect 26 0 12 1;
#X connect 27 0 15 0;
#X connect 32 0 0 0;
#X connect 33 0 47 0;
#X connect 34 0 50 0;
#X connect 35 0 53 0;
#X connect 36 0 42 0;
#X connect 37 0 36 0;
#X connect 37 1 38 0;
#X connect 37 2 39 0;
#X connect 37 3 40 0;
#X connect 38 0 43 0;
#X connect 39 0 44 0;
#X connect 40 0 45 0;
#X connect 41 0 7 0;
#X connect 41 1 64 1;
#X connect 42 0 41 0;
#X connect 43 0 41 0;
#X connect 44 0 41 0;
#X connect 45 0 41 0;
#X connect 46 0 37 0;
#X connect 47 0 48 0;
#X connect 48 0 49 0;
#X connect 48 0 17 0;
#X connect 49 0 57 0;
#X connect 50 0 51 0;
#X connect 51 0 52 0;
#X connect 51 0 18 0;
#X connect 52 0 58 0;
#X connect 53 0 54 0;
#X connect 54 0 55 0;
#X connect 55 0 59 0;
#X connect 62 0 7 1;
#X connect 63 0 62 1;
#X connect 63 0 62 0;
#X connect 64 0 8 0;
#X connect 65 0 9 1;
#X connect 66 0 67 0;
#X connect 67 0 70 0;
#X connect 67 1 68 0;
#X connect 67 2 74 0;
#X connect 68 0 69 0;
#X connect 69 0 70 1;
#X connect 70 0 64 0;
#X connect 71 0 75 0;
#X connect 72 0 73 0;
#X connect 73 0 74 1;
#X connect 73 0 77 0;
#X connect 74 0 69 1;
#X connect 74 1 69 1;
#X connect 75 0 72 0;
#X connect 77 0 76 0;
#X connect 78 0 21 1;
#X restore 116 225 pd perc;
#X msg 313 114 sample \$1;
#X obj 377 215 r \$0-detectedTempo;
#X obj 158 262 r \$0-detectedTempo;
#N canvas 501 222 450 300 toFuzz 0;
#X obj 75 -66 inlet~;
#X obj 76 197 throw~ toFuzz;
#X obj 76 167 *~;
#X obj 101 144 lop~ 1;
#X obj 154 44 random 100;
#X obj 152 67 * 0.01;
#X obj 152 91 *;
#X obj 37 36 r onOff;
#X obj 37 63 sel 0;
#X msg 36 90 0;
#X obj 152 -20 r randomize;
#X obj 154 13 t b;
#X connect 0 0 2 0;
#X connect 2 0 1 0;
#X connect 3 0 2 1;
#X connect 4 0 5 0;
#X connect 5 0 6 1;
#X connect 5 0 6 0;
#X connect 6 0 3 0;
#X connect 7 0 8 0;
#X connect 8 0 9 0;
#X connect 9 0 3 0;
#X connect 10 0 11 0;
#X connect 11 0 4 0;
#X restore 443 709 pd toFuzz;
#X obj 225 473 r drumsVolume;
#X obj 329 429 loadbang;
#X obj 390 245 r randomize;
#X obj 222 616 r randomize;
#X obj 180 284 r randomize;
#X obj 313 86 r drumSample;
#X obj 190 85 r drumPattern;
#X obj 107 151 r \$0-clock;
#X msg 316 488 0.25;
#X obj 295 306 mm_randFilter~;
#X obj 39 390 mm_randFilter~;
#X obj 176 650 birdPan~;
#X msg 360 403 0;
#X obj 326 646 *~;
#X obj 171 588 *~;
#N canvas 710 242 450 300 toTremelo 0;
#X obj 75 -66 inlet~;
#X obj 76 167 *~;
#X obj 101 144 lop~ 1;
#X obj 154 44 random 100;
#X obj 152 67 * 0.01;
#X obj 152 91 *;
#X obj 37 36 r onOff;
#X obj 37 63 sel 0;
#X obj 155 15 t b;
#X obj 156 -9 r randomize2;
#X obj 76 208 throw~ toTremelo;
#X msg 39 92 0;
#X connect 0 0 1 0;
#X connect 1 0 10 0;
#X connect 2 0 1 1;
#X connect 3 0 4 0;
#X connect 4 0 5 1;
#X connect 4 0 5 0;
#X connect 5 0 2 0;
#X connect 6 0 7 0;
#X connect 7 0 11 0;
#X connect 8 0 3 0;
#X connect 9 0 8 0;
#X connect 11 0 2 0;
#X restore 80 648 pd toTremelo;
#N canvas 710 242 450 300 toTremelo 0;
#X obj 75 -66 inlet~;
#X obj 76 167 *~;
#X obj 101 144 lop~ 1;
#X obj 154 44 random 100;
#X obj 152 67 * 0.01;
#X obj 152 91 *;
#X obj 37 36 r onOff;
#X obj 37 63 sel 0;
#X obj 155 15 t b;
#X obj 76 208 throw~ toTremelo;
#X msg 39 92 0;
#X obj 156 -9 r randomize3;
#X connect 0 0 1 0;
#X connect 1 0 9 0;
#X connect 2 0 1 1;
#X connect 3 0 4 0;
#X connect 4 0 5 1;
#X connect 4 0 5 0;
#X connect 5 0 2 0;
#X connect 6 0 7 0;
#X connect 7 0 10 0;
#X connect 8 0 3 0;
#X connect 10 0 2 0;
#X connect 11 0 8 0;
#X restore 439 680 pd toTremelo;
#N canvas 501 222 450 300 toFuzz 0;
#X obj 75 -66 inlet~;
#X obj 76 197 throw~ toFuzz;
#X obj 76 167 *~;
#X obj 101 144 lop~ 1;
#X obj 154 44 random 100;
#X obj 152 67 * 0.01;
#X obj 152 91 *;
#X obj 37 36 r onOff;
#X obj 37 63 sel 0;
#X msg 36 90 0;
#X obj 154 13 t b;
#X obj 152 -20 r randomize2;
#X connect 0 0 2 0;
#X connect 2 0 1 0;
#X connect 3 0 2 1;
#X connect 4 0 5 0;
#X connect 5 0 6 1;
#X connect 5 0 6 0;
#X connect 6 0 3 0;
#X connect 7 0 8 0;
#X connect 8 0 9 0;
#X connect 9 0 3 0;
#X connect 10 0 4 0;
#X connect 11 0 10 0;
#X restore 64 679 pd toFuzz;
#X obj 465 55 r drumPattern;
#X obj 465 79 t b;
#X obj 465 100 random 8;
#X obj 466 126 s \$0-accent;
#X obj 563 57 loadbang;
#X obj 370 340 r \$0-detectedTempo;
#X obj 381 365 r randomize1;
#X obj 91 464 mm_monoSyncDelay;
#X obj 197 420 r \$0-detectedTempo;
#X obj 176 393 r randomize2;
#X msg 475 362 feedback 0.6;
#X obj 489 329 loadbang;
#X obj 224 513 mm_xfade;
#X obj 162 310 r randomize1;
#X obj 169 333 r randomize3;
#X obj 305 346 *~ 0.5;
#X obj 753 137 samplerate~;
#X obj 755 160 == 44100;
#X obj 718 186 spigot;
#X obj 709 114 t b b;
#X obj 707 59 r onOff;
#X obj 708 82 sel 1;
#X obj 714 330 s sampleRate;
#X obj 319 512 f;
#X obj 348 468 r resetVolume;
#X obj 269 379 mm_monoSyncDelay;
#X obj 736 524 switch~;
#X obj 735 467 loadbang;
#X obj 718 269 random 2;
#X obj 716 297 + 1;
#X msg 738 498 1;
#X obj 328 249 bng 15 250 50 0 empty empty empty 17 7 0 10 -262144
-1 -1;
#X obj 779 208 r \$0-timer;
#X msg 792 262 seed \$1;
#X obj 791 238 mod 110;
#X obj 329 592 *~ 1;
#X obj 128 540 *~ 1;
#X obj 93 494 *~ 0.5;
#X obj 281 410 *~ 0.5;
#X obj 326 568 *~ 1.5;
#X obj 39 430 *~ 0.5;
#X obj 394 514 *~ 1.1;
#X msg 653 607 0.5;
#X obj 407 562 *~ 0.5;
#X obj 358 619 *~ 0.5;
#X obj 423 645 mm_reverb;
#X obj 422 439 t b;
#X msg 455 593 0.4;
#X connect 0 0 68 0;
#X connect 3 0 20 0;
#X connect 3 0 54 0;
#X connect 3 0 70 0;
#X connect 4 0 3 1;
#X connect 4 0 0 1;
#X connect 4 0 6 1;
#X connect 5 0 24 1;
#X connect 5 0 25 1;
#X connect 6 0 21 0;
#X connect 6 0 36 0;
#X connect 6 0 65 0;
#X connect 7 0 3 1;
#X connect 7 0 0 1;
#X connect 7 0 6 1;
#X connect 8 0 20 1;
#X connect 9 0 21 1;
#X connect 11 0 41 0;
#X connect 11 0 52 1;
#X connect 12 0 19 0;
#X connect 13 0 20 1;
#X connect 14 0 22 1;
#X connect 15 0 21 1;
#X connect 15 0 20 1;
#X connect 15 0 54 1;
#X connect 16 0 7 0;
#X connect 17 0 4 0;
#X connect 18 0 6 0;
#X connect 18 0 0 0;
#X connect 18 0 3 0;
#X connect 19 0 41 0;
#X connect 19 0 52 1;
#X connect 20 0 44 0;
#X connect 21 0 69 0;
#X connect 22 0 1 0;
#X connect 22 0 74 0;
#X connect 22 1 2 0;
#X connect 22 1 74 1;
#X connect 23 0 41 0;
#X connect 24 0 10 0;
#X connect 24 0 27 0;
#X connect 24 0 2 0;
#X connect 24 0 1 0;
#X connect 25 0 26 0;
#X connect 25 0 28 0;
#X connect 25 0 22 0;
#X connect 29 0 30 0;
#X connect 30 0 31 0;
#X connect 31 0 32 0;
#X connect 33 0 31 0;
#X connect 34 0 54 1;
#X connect 34 0 75 0;
#X connect 35 0 54 1;
#X connect 36 0 66 0;
#X connect 37 0 36 1;
#X connect 38 0 36 1;
#X connect 39 0 36 1;
#X connect 39 0 54 1;
#X connect 40 0 39 0;
#X connect 41 2 5 0;
#X connect 42 0 21 1;
#X connect 42 0 20 1;
#X connect 43 0 21 1;
#X connect 43 0 20 1;
#X connect 43 0 36 1;
#X connect 44 0 70 0;
#X connect 45 0 46 0;
#X connect 46 0 47 1;
#X connect 47 0 57 0;
#X connect 48 0 47 0;
#X connect 48 1 45 0;
#X connect 49 0 50 0;
#X connect 50 0 48 0;
#X connect 52 0 41 0;
#X connect 53 0 52 0;
#X connect 54 0 67 0;
#X connect 56 0 59 0;
#X connect 57 0 58 0;
#X connect 58 0 51 0;
#X connect 59 0 55 0;
#X connect 60 0 20 1;
#X connect 61 0 63 0;
#X connect 62 0 57 0;
#X connect 63 0 62 0;
#X connect 64 0 24 0;
#X connect 64 0 73 0;
#X connect 65 0 25 0;
#X connect 66 0 65 0;
#X connect 67 0 70 0;
#X connect 68 0 64 0;
#X connect 69 0 65 0;
#X connect 70 0 24 0;
#X connect 70 0 72 0;
#X connect 71 0 74 3;
#X connect 72 0 74 1;
#X connect 72 0 74 0;
#X connect 73 0 74 1;
#X connect 73 0 74 0;
#X connect 74 0 2 0;
#X connect 74 1 1 0;
#X connect 75 0 76 0;
#X connect 76 0 74 2;
#X restore 812 15 pd drums;
#N canvas 68 23 1440 755 bass 0;
#X obj 471 904 throw~ outputL;
#X obj 569 903 throw~ outputR;
#X obj 500 439 t f b;
#N canvas 710 242 450 300 toFuzz 0;
#X obj 75 -66 inlet~;
#X obj 76 197 throw~ toFuzz;
#X obj 76 167 *~;
#X obj 101 144 lop~ 1;
#X obj 154 44 random 100;
#X obj 152 91 *;
#X obj 99 22 r onOff;
#X obj 99 49 sel 0;
#X msg 98 76 0;
#X obj 155 18 t b;
#X obj 157 -7 r randomize2;
#X obj 152 67 * 0.0075;
#X obj 71 -8 *~ 0.5;
#X connect 0 0 12 0;
#X connect 2 0 1 0;
#X connect 3 0 2 1;
#X connect 4 0 11 0;
#X connect 5 0 3 0;
#X connect 6 0 7 0;
#X connect 7 0 8 0;
#X connect 8 0 3 0;
#X connect 9 0 4 0;
#X connect 10 0 9 0;
#X connect 11 0 5 1;
#X connect 11 0 5 0;
#X connect 12 0 2 0;
#X restore 690 883 pd toFuzz;
#X obj 534 802 *~;
#X obj 705 702 lop~ 1;
#X obj 742 613 r bassVolume;
#X obj 837 613 loadbang;
#X obj 511 118 f;
#X obj 563 69 r \$0-kickHits;
#X obj 436 39 s \$0-note0;
#X obj 514 -42 +;
#X obj 530 -69 r \$0-theRoot;
#X obj 895 133 r randomize3;
#X obj 580 816 r randomize1;
#X obj 579 787 r \$0-detectedTempo;
#X obj 744 643 mm_xfade;
#X msg 703 664 0;
#X obj 662 34 r \$0-randomNotes;
#X obj 523 5 spigot;
#N canvas 552 254 450 300 inv 0;
#X obj 93 21 inlet;
#X obj 91 56 swap 1;
#X obj 89 89 -;
#X obj 87 130 outlet;
#X connect 0 0 1 0;
#X connect 1 0 2 0;
#X connect 1 1 2 1;
#X connect 2 0 3 0;
#X restore 634 -41 pd inv;
#X obj 663 60 route 0;
#X obj 666 -113 r \$0-0shouldImprovise;
#X obj 511 141 t b b f;
#X obj 511 172 del;
#X obj 510 199 f;
#X obj 638 546 r \$0-detectedTempo;
#X obj 662 117 spigot;
#X obj 701 89 r \$0-0shouldImprovise;
#X obj 883 225 mm_rlist 7;
#X obj 883 249 list prepend randomlist;
#X obj 882 271 list trim;
#X obj 880 180 bng 15 250 50 0 empty empty empty 17 7 0 10 -262144
-1 -1;
#X obj 880 201 t b b b;
#X obj 873 107 r randomize1;
#X obj 985 79 r \$0-timer;
#X msg 987 176 seed \$1;
#X obj 986 154 mod 140;
#X obj 919 373 list;
#X obj 917 401 list trim;
#X obj 887 298 route randomlist;
#X obj 522 45 mod 12;
#X obj 523 69 + 24;
#X obj 435 9 mod 12;
#X obj 663 85 + 24;
#X floatatom 796 699 5 0 0 0 - - -;
#X floatatom 765 683 5 0 0 0 - - -;
#X obj 485 837 mm_stereoChorus;
#X msg 837 637 0.25;
#X obj 538 599 mm_bassosc3~;
#X obj 636 412 r onOff;
#X obj 635 456 sel 0;
#X msg 635 504 0;
#X obj 635 477 del 1000;
#X msg 859 675 0.25;
#X obj 862 699 f;
#X obj 891 655 r resetVolume;
#X obj 147 404 switch~;
#X obj 146 347 loadbang;
#X msg 149 378 1;
#X obj 431 546 moses 24;
#X obj 536 704 mm_asr~;
#N canvas 470 107 702 469 renv 0;
#X obj 99 144 random 150;
#X obj 142 185 random 950;
#X obj 141 214 + 50;
#X obj 199 227 random 200;
#X obj 102 32 inlet;
#X obj 101 58 bang;
#X obj 96 404 outlet;
#X obj 96 348 pack f f f;
#X obj 100 100 trigger b b b;
#X msg 96 374 a \$1 \, s \$2 \, r \$3 \, v 0;
#X connect 0 0 7 0;
#X connect 1 0 2 0;
#X connect 2 0 7 1;
#X connect 3 0 7 2;
#X connect 4 0 5 0;
#X connect 5 0 8 0;
#X connect 7 0 9 0;
#X connect 8 0 0 0;
#X connect 8 1 1 0;
#X connect 8 2 3 0;
#X connect 9 0 6 0;
#X restore 580 674 pd renv;
#X obj 584 623 r randomize1;
#X obj 583 648 t b;
#X obj 445 -190 r \$0-clock;
#X obj 523 -160 r alterPattern0;
#X obj 527 -259 r notes;
#X obj 522 -215 list prepend read;
#X obj 521 -192 list trim;
#X obj 522 -237 route 0;
#X msg 670 -62 0;
#X obj 704 -88 loadbang;
#X obj 446 -97 mm_pattern;
#X obj 562 165 random 15;
#X obj 442 582 + 24;
#X obj 510 227 t f b;
#X obj 552 268 random 10;
#X obj 693 324 < 3;
#X obj 753 361 sel 0 1;
#X obj 503 407 +;
#X msg 589 375 12;
#X msg 546 352 0;
#X obj 555 302 moses 7;
#X obj 548 329 t b;
#X obj 593 327 moses 9;
#X obj 590 352 t b;
#X obj 637 353 t b;
#X msg 636 377 24;
#X obj 539 734 hip~ 40;
#N canvas 353 281 450 300 comp 0;
#X obj 214 409 loadbang;
#X obj 189 461 mm_compressor;
#X obj 182 387 inlet~;
#X obj 191 514 outlet~;
#X msg 217 432 switch 1 \, threshold 95 8;
#X connect 0 0 4 0;
#X connect 1 0 3 0;
#X connect 2 0 1 0;
#X connect 4 0 1 1;
#X restore 537 770 pd comp;
#X connect 2 0 60 0;
#X connect 2 1 61 1;
#X connect 4 0 3 0;
#X connect 4 0 47 0;
#X connect 4 0 47 1;
#X connect 5 0 4 1;
#X connect 6 0 16 0;
#X connect 6 0 55 1;
#X connect 7 0 48 0;
#X connect 7 0 54 0;
#X connect 8 0 23 0;
#X connect 9 0 8 0;
#X connect 11 0 19 0;
#X connect 11 0 43 0;
#X connect 12 0 11 1;
#X connect 13 0 32 0;
#X connect 14 0 47 2;
#X connect 15 0 47 2;
#X connect 16 0 46 0;
#X connect 16 2 45 0;
#X connect 16 2 5 0;
#X connect 17 0 5 0;
#X connect 18 0 21 0;
#X connect 19 0 41 0;
#X connect 20 0 19 1;
#X connect 21 0 44 0;
#X connect 22 0 20 0;
#X connect 23 0 24 0;
#X connect 23 1 74 0;
#X connect 23 2 25 1;
#X connect 24 0 25 0;
#X connect 25 0 76 0;
#X connect 26 0 49 1;
#X connect 27 0 8 1;
#X connect 28 0 27 1;
#X connect 29 0 30 0;
#X connect 30 0 31 0;
#X connect 31 0 40 0;
#X connect 31 0 49 1;
#X connect 32 0 33 0;
#X connect 33 0 29 0;
#X connect 33 1 38 0;
#X connect 34 0 32 0;
#X connect 35 0 37 0;
#X connect 36 0 29 1;
#X connect 37 0 36 0;
#X connect 38 0 39 0;
#X connect 40 0 38 1;
#X connect 41 0 42 0;
#X connect 42 0 8 1;
#X connect 42 0 8 0;
#X connect 43 0 10 0;
#X connect 44 0 27 0;
#X connect 47 0 0 0;
#X connect 47 1 1 0;
#X connect 48 0 16 0;
#X connect 49 0 61 0;
#X connect 50 0 51 0;
#X connect 51 0 53 0;
#X connect 52 0 49 0;
#X connect 53 0 52 0;
#X connect 54 0 55 1;
#X connect 55 0 16 0;
#X connect 56 0 55 0;
#X connect 58 0 59 0;
#X connect 59 0 57 0;
#X connect 60 0 75 0;
#X connect 60 1 49 0;
#X connect 61 0 89 0;
#X connect 62 0 61 2;
#X connect 63 0 64 0;
#X connect 64 0 62 0;
#X connect 65 0 73 0;
#X connect 66 0 73 1;
#X connect 67 0 70 0;
#X connect 68 0 69 0;
#X connect 69 0 73 1;
#X connect 70 0 68 0;
#X connect 71 0 20 0;
#X connect 72 0 71 0;
#X connect 73 1 11 0;
#X connect 74 0 24 1;
#X connect 75 0 49 0;
#X connect 76 0 80 0;
#X connect 76 1 77 0;
#X connect 77 0 83 0;
#X connect 80 0 2 0;
#X connect 81 0 80 1;
#X connect 82 0 80 1;
#X connect 83 0 84 0;
#X connect 83 1 85 0;
#X connect 84 0 82 0;
#X connect 85 0 86 0;
#X connect 85 1 87 0;
#X connect 86 0 81 0;
#X connect 87 0 88 0;
#X connect 88 0 80 1;
#X connect 89 0 90 0;
#X connect 90 0 4 0;
#X restore 879 -8 pd bass;
#N canvas 187 73 1440 754 synth 0;
#X obj 457 1498 throw~ outputL;
#X obj 621 1498 throw~ outputR;
#X obj 509 553 t f b;
#X obj 455 551 t f b;
#N canvas 710 242 450 300 toFuzz 0;
#X obj 75 -66 inlet~;
#X obj 76 197 throw~ toFuzz;
#X obj 76 167 *~;
#X obj 101 144 lop~ 1;
#X obj 154 44 random 100;
#X obj 152 67 * 0.01;
#X obj 152 91 *;
#X obj 37 36 r onOff;
#X obj 37 63 sel 0;
#X msg 36 90 0;
#X obj 155 15 t b;
#X obj 156 -9 r randomize2;
#X connect 0 0 2 0;
#X connect 2 0 1 0;
#X connect 3 0 2 1;
#X connect 4 0 5 0;
#X connect 5 0 6 1;
#X connect 5 0 6 0;
#X connect 6 0 3 0;
#X connect 7 0 8 0;
#X connect 8 0 9 0;
#X connect 9 0 3 0;
#X connect 10 0 4 0;
#X connect 11 0 10 0;
#X restore 882 1159 pd toFuzz;
#X obj 470 1153 r \$0-detectedTempo;
#X obj 587 1409 r \$0-detectedTempo;
#X obj 576 550 t f b;
#X obj 511 1335 r randomize;
#X obj 437 -147 mod 12;
#X obj 436 -115 s \$0-note1;
#X obj 591 130 s \$0-note3;
#X obj 495 976 r \$0-clock;
#X obj 495 1024 sel 0;
#X msg 495 1046 randomize;
#X obj 505 33 s \$0-note2;
#X obj 504 9 mod 12;
#X obj 590 127 mod 12;
#X obj 424 -171 +;
#X obj 440 -210 r \$0-theRoot;
#X obj 501 -16 +;
#X obj 513 -53 r \$0-theRoot;
#X obj 587 88 +;
#X obj 610 57 r \$0-theRoot;
#X obj 162 -52 route 1 2 3;
#X obj 164 -114 r \$0-randomNotes;
#X obj 439 178 spigot;
#X obj 509 220 spigot;
#X obj 571 223 spigot;
#N canvas 552 254 450 300 inv 0;
#X obj 93 21 inlet;
#X obj 91 56 swap 1;
#X obj 89 89 -;
#X obj 87 130 outlet;
#X connect 0 0 1 0;
#X connect 1 0 2 0;
#X connect 1 1 2 1;
#X connect 2 0 3 0;
#X restore 472 155 pd inv;
#N canvas 552 254 450 300 inv 0;
#X obj 93 21 inlet;
#X obj 91 56 swap 1;
#X obj 89 89 -;
#X obj 87 130 outlet;
#X connect 0 0 1 0;
#X connect 1 0 2 0;
#X connect 1 1 2 1;
#X connect 2 0 3 0;
#X restore 537 178 pd inv;
#N canvas 552 254 450 300 inv 0;
#X obj 93 21 inlet;
#X obj 91 56 swap 1;
#X obj 89 89 -;
#X obj 87 130 outlet;
#X connect 0 0 1 0;
#X connect 1 0 2 0;
#X connect 1 1 2 1;
#X connect 2 0 3 0;
#X restore 602 200 pd inv;
#X obj 479 1186 r randomize3;
#X floatatom 670 108 5 0 0 0 - - -;
#X obj 711 1170 r \$0-detectedTempo;
#X obj 638 1209 mm_randFilter~;
#X obj 769 1322 r \$0-detectedTempo;
#X obj 577 979 r \$0-clock;
#X obj 571 1027 sel 0;
#X msg 572 1051 randomize;
#X obj 663 977 r \$0-clock;
#X obj 663 1025 sel 0;
#X msg 663 1047 randomize;
#X obj 616 1073 birdPan~;
#X obj 874 106 r randomize;
#X obj 891 132 r randomize1;
#X obj 905 1337 r \$0-clock;
#X obj 904 1359 sel 0;
#X msg 714 1420 randomize;
#X obj 494 1003 mod 32;
#X obj 577 1002 mod 32;
#X obj 662 1004 mod 32;
#X obj 385 1210 mm_randFilter~;
#X obj 437 1086 birdPan~;
#X obj 528 1075 birdPan~;
#X obj 473 130 r \$0-1shouldImprovise;
#X obj 538 153 r \$0-2shouldImprovise;
#X obj 603 175 r \$0-3shouldImprovise;
#N canvas 710 242 450 300 toTremelo 0;
#X obj 75 -66 inlet~;
#X obj 76 167 *~;
#X obj 101 144 lop~ 1;
#X obj 154 44 random 100;
#X obj 152 67 * 0.01;
#X obj 152 91 *;
#X obj 155 15 t b;
#X obj 76 197 throw~ toTremelo;
#X obj 156 -9 r randomize3;
#X connect 0 0 1 0;
#X connect 1 0 7 0;
#X connect 2 0 1 1;
#X connect 3 0 4 0;
#X connect 4 0 5 1;
#X connect 4 0 5 0;
#X connect 5 0 2 0;
#X connect 6 0 3 0;
#X connect 8 0 6 0;
#X restore 660 960 pd toTremelo;
#N canvas 710 242 450 300 toTremelo 0;
#X obj 75 -66 inlet~;
#X obj 76 167 *~;
#X obj 101 144 lop~ 1;
#X obj 154 44 random 100;
#X obj 152 67 * 0.01;
#X obj 152 91 *;
#X obj 155 15 t b;
#X obj 76 197 throw~ toTremelo;
#X obj 156 -9 r randomize;
#X connect 0 0 1 0;
#X connect 1 0 7 0;
#X connect 2 0 1 1;
#X connect 3 0 4 0;
#X connect 4 0 5 1;
#X connect 4 0 5 0;
#X connect 5 0 2 0;
#X connect 6 0 3 0;
#X connect 8 0 6 0;
#X restore 568 958 pd toTremelo;
#N canvas 710 242 450 300 toTremelo 0;
#X obj 75 -66 inlet~;
#X obj 76 167 *~;
#X obj 101 144 lop~ 1;
#X obj 154 44 random 100;
#X obj 152 67 * 0.01;
#X obj 152 91 *;
#X obj 155 15 t b;
#X obj 76 197 throw~ toTremelo;
#X obj 156 -9 r randomize3;
#X connect 0 0 1 0;
#X connect 1 0 7 0;
#X connect 2 0 1 1;
#X connect 3 0 4 0;
#X connect 4 0 5 1;
#X connect 4 0 5 0;
#X connect 5 0 2 0;
#X connect 6 0 3 0;
#X connect 8 0 6 0;
#X restore 486 956 pd toTremelo;
#N canvas 710 242 450 300 toFuzz 0;
#X obj 75 -66 inlet~;
#X obj 76 197 throw~ toFuzz;
#X obj 76 167 *~;
#X obj 101 144 lop~ 1;
#X obj 154 44 random 100;
#X obj 152 67 * 0.01;
#X obj 152 91 *;
#X obj 37 36 r onOff;
#X obj 37 63 sel 0;
#X msg 36 90 0;
#X obj 155 15 t b;
#X obj 156 -9 r randomize;
#X connect 0 0 2 0;
#X connect 2 0 1 0;
#X connect 3 0 2 1;
#X connect 4 0 5 0;
#X connect 5 0 6 1;
#X connect 5 0 6 0;
#X connect 6 0 3 0;
#X connect 7 0 8 0;
#X connect 8 0 9 0;
#X connect 9 0 3 0;
#X connect 10 0 4 0;
#X connect 11 0 10 0;
#X restore 591 1125 pd toFuzz;
#N canvas 710 242 450 300 toFuzz 0;
#X obj 75 -66 inlet~;
#X obj 76 197 throw~ toFuzz;
#X obj 76 167 *~;
#X obj 101 144 lop~ 1;
#X obj 154 44 random 100;
#X obj 152 67 * 0.01;
#X obj 152 91 *;
#X obj 37 36 r onOff;
#X obj 37 63 sel 0;
#X msg 36 90 0;
#X obj 155 15 t b;
#X obj 156 -9 r randomize1;
#X connect 0 0 2 0;
#X connect 2 0 1 0;
#X connect 3 0 2 1;
#X connect 4 0 5 0;
#X connect 5 0 6 1;
#X connect 5 0 6 0;
#X connect 6 0 3 0;
#X connect 7 0 8 0;
#X connect 8 0 9 0;
#X connect 9 0 3 0;
#X connect 10 0 4 0;
#X connect 11 0 10 0;
#X restore 411 966 pd toFuzz;
#X obj 525 702 *~;
#X obj 592 709 *~;
#X obj 667 655 lop~ 1;
#X obj 667 589 r synthVolume;
#X obj 758 584 loadbang;
#X msg 760 607 0.25;
#X obj 436 718 *~;
#X obj 639 516 r \$0-detectedTempo;
#X obj 139 61 spigot;
#X obj 212 72 spigot;
#X obj 274 75 spigot;
#X obj 175 2 r \$0-1shouldImprovise;
#X obj 249 23 r \$0-2shouldImprovise;
#X obj 310 45 r \$0-3shouldImprovise;
#X obj 732 1302 r randomize1;
#X obj 720 1203 r randomize2;
#X floatatom 390 -44 5 0 0 0 - - -;
#X floatatom 527 71 5 0 0 0 - - -;
#X floatatom 709 139 5 0 0 0 - - -;
#X obj 873 215 mm_rlist 7;
#X obj 873 239 list prepend randomlist;
#X obj 873 263 list trim;
#X obj 882 288 list;
#X obj 913 338 list;
#X obj 870 170 bng 15 250 50 0 empty empty empty 17 7 0 10 -262144
-1 -1;
#X obj 870 191 t b b b;
#X obj 885 312 list trim;
#X obj 912 362 list trim;
#X obj 634 771 r \$0-detectedTempo;
#X obj 27 309 r \$0-detectedTempo;
#X obj 27 333 route tempo;
#X obj 27 358 swap 60000;
#X obj 28 379 /;
#X obj 27 402 * 2;
#X obj 29 439 s halfMS;
#X obj 499 1299 r \$0-detectedTempo;
#X obj 997 81 r \$0-timer;
#X msg 999 178 seed \$1;
#X obj 998 156 mod 125;
#X obj 438 326 t f b;
#X obj 465 382 + 3;
#X obj 464 403 * 12;
#X obj 442 476 +;
#X floatatom 440 517 5 0 0 0 - - -;
#X obj 463 430 t f f;
#X obj 536 451 f;
#X obj 518 413 t f b;
#X obj 517 513 +;
#X obj 535 475 t f f;
#X obj 597 499 f;
#X obj 584 448 t f b;
#X obj 582 522 +;
#X obj 145 99 s \$0-randomNote1;
#X obj 216 123 s \$0-randomNote2;
#X obj 281 150 s \$0-randomNote3;
#X obj 431 274 r \$0-randomNote1;
#X obj 530 376 r \$0-randomNote2;
#X obj 588 413 r \$0-randomNote3;
#N canvas 403 454 450 300 wr 0;
#X obj 85 42 inlet;
#X obj 84 72 random 100;
#X obj 84 99 moses 50;
#X obj 128 137 moses 85;
#X obj 50 137 moses 15;
#X obj 51 165 bng 15 250 50 0 empty empty empty 17 7 0 10 -262144 -1
-1;
#X obj 93 163 bng 15 250 50 0 empty empty empty 17 7 0 10 -262144 -1
-1;
#X obj 130 166 bng 15 250 50 0 empty empty empty 17 7 0 10 -262144
-1 -1;
#X obj 172 164 bng 15 250 50 0 empty empty empty 17 7 0 10 -262144
-1 -1;
#X msg 49 189 0;
#X msg 91 189 1;
#X msg 131 190 2;
#X msg 172 189 3;
#X obj 71 247 outlet;
#X connect 0 0 1 0;
#X connect 1 0 2 0;
#X connect 2 0 4 0;
#X connect 2 1 3 0;
#X connect 3 0 7 0;
#X connect 3 1 8 0;
#X connect 4 0 5 0;
#X connect 4 1 6 0;
#X connect 5 0 9 0;
#X connect 6 0 10 0;
#X connect 7 0 11 0;
#X connect 8 0 12 0;
#X connect 9 0 13 0;
#X connect 10 0 13 0;
#X connect 11 0 13 0;
#X connect 12 0 13 0;
#X restore 464 357 pd wr;
#X obj 476 710 *~;
#X obj 556 748 *~;
#X obj 640 716 *~;
#X obj 667 629 mm_xfade;
#X obj 395 -231 moses 1;
#X obj 502 -78 moses 1;
#X obj 580 35 moses 1;
#X obj 584 250 spigot;
#X obj 516 253 spigot;
#X obj 457 205 spigot;
#X obj 496 1450 mm_stereoChorus;
#X obj 343 459 r onOff;
#X obj 342 485 sel 0;
#X msg 343 567 0;
#X obj 346 533 del 1000;
#X msg 739 652 0.25;
#X obj 742 676 f;
#X obj 771 632 r resetVolume;
#X obj 625 1362 mm_monoSyncDelay;
#X obj 382 1364 mm_monoSyncDelay;
#X floatatom 804 1441 5 0 0 0 - - -;
#X obj 467 -381 r \$0-clock;
#X obj 541 -451 r notes;
#X obj 544 -406 list prepend read;
#X obj 543 -383 list trim;
#X obj 544 -428 route 1 2 3;
#X obj 545 -351 r alterPattern1;
#X obj 582 -325 list prepend read;
#X obj 581 -302 list trim;
#X obj 635 -238 list prepend read;
#X obj 634 -215 list trim;
#X obj 467 -346 t f f f;
#X obj 580 -265 r alterPattern2;
#X obj 633 -178 r alterPattern3;
#X obj 468 -288 mm_pattern;
#X obj 510 -237 mm_pattern;
#X obj 563 -150 mm_pattern;
#X obj 668 870 mm_asr~;
#N canvas 470 107 702 469 renv 0;
#X obj 99 144 random 150;
#X obj 142 185 random 950;
#X obj 141 214 + 50;
#X obj 199 227 random 200;
#X obj 102 32 inlet;
#X obj 101 58 bang;
#X obj 96 404 outlet;
#X obj 96 348 pack f f f;
#X obj 100 100 trigger b b b;
#X msg 96 374 a \$1 \, s \$2 \, r \$3 \, v 0;
#X connect 0 0 7 0;
#X connect 1 0 2 0;
#X connect 2 0 7 1;
#X connect 3 0 7 2;
#X connect 4 0 5 0;
#X connect 5 0 8 0;
#X connect 7 0 9 0;
#X connect 8 0 0 0;
#X connect 8 1 1 0;
#X connect 8 2 3 0;
#X connect 9 0 6 0;
#X restore 721 834 pd renv;
#X obj 725 783 r randomize1;
#X obj 724 808 t b;
#X obj 412 868 mm_asr~;
#N canvas 470 107 702 469 renv 0;
#X obj 99 144 random 150;
#X obj 142 185 random 950;
#X obj 141 214 + 50;
#X obj 199 227 random 200;
#X obj 102 32 inlet;
#X obj 101 58 bang;
#X obj 96 404 outlet;
#X obj 96 348 pack f f f;
#X obj 100 100 trigger b b b;
#X msg 96 374 a \$1 \, s \$2 \, r \$3 \, v 0;
#X connect 0 0 7 0;
#X connect 1 0 2 0;
#X connect 2 0 7 1;
#X connect 3 0 7 2;
#X connect 4 0 5 0;
#X connect 5 0 8 0;
#X connect 7 0 9 0;
#X connect 8 0 0 0;
#X connect 8 1 1 0;
#X connect 8 2 3 0;
#X connect 9 0 6 0;
#X restore 444 818 pd renv;
#X obj 447 792 t b;
#X obj 500 875 mm_asr~;
#N canvas 470 107 702 469 renv 0;
#X obj 99 144 random 150;
#X obj 142 185 random 950;
#X obj 141 214 + 50;
#X obj 199 227 random 200;
#X obj 102 32 inlet;
#X obj 101 58 bang;
#X obj 96 404 outlet;
#X obj 96 348 pack f f f;
#X obj 100 100 trigger b b b;
#X msg 96 374 a \$1 \, s \$2 \, r \$3 \, v 0;
#X connect 0 0 7 0;
#X connect 1 0 2 0;
#X connect 2 0 7 1;
#X connect 3 0 7 2;
#X connect 4 0 5 0;
#X connect 5 0 8 0;
#X connect 7 0 9 0;
#X connect 8 0 0 0;
#X connect 8 1 1 0;
#X connect 8 2 3 0;
#X connect 9 0 6 0;
#X restore 544 845 pd renv;
#X obj 547 819 t b;
#X obj 448 767 r randomize1;
#X obj 548 794 r randomize1;
#X obj 461 611 mm_osc3~;
#X obj 472 665 *~ 1;
#X obj 554 679 *~ 1;
#X obj 652 676 *~ 1;
#X obj 592 613 mm_osc3~;
#X obj 525 610 mm_osc3~;
#X obj 585 1241 *~ 0.3;
#X obj 422 1310 *~ 0.3;
#N canvas 353 281 450 300 comp 0;
#X obj 214 409 loadbang;
#X obj 189 461 mm_compressor;
#X obj 182 387 inlet~;
#X obj 191 514 outlet~;
#X msg 217 432 switch 1 \, threshold 95 8;
#X connect 0 0 4 0;
#X connect 1 0 3 0;
#X connect 2 0 1 0;
#X connect 4 0 1 1;
#X restore 428 639 pd comp;
#N canvas 353 281 450 300 comp 0;
#X obj 214 409 loadbang;
#X obj 189 461 mm_compressor;
#X obj 182 387 inlet~;
#X obj 191 514 outlet~;
#X msg 217 432 switch 1 \, threshold 95 8;
#X connect 0 0 4 0;
#X connect 1 0 3 0;
#X connect 2 0 1 0;
#X connect 4 0 1 1;
#X restore 521 637 pd comp;
#N canvas 353 281 450 300 comp 0;
#X obj 214 409 loadbang;
#X obj 189 461 mm_compressor;
#X obj 182 387 inlet~;
#X obj 191 514 outlet~;
#X msg 217 432 switch 1 \, threshold 95 8;
#X connect 0 0 4 0;
#X connect 1 0 3 0;
#X connect 2 0 1 0;
#X connect 4 0 1 1;
#X restore 594 638 pd comp;
#X msg 961 1182 0.1;
#X obj 960 1133 t b;
#X obj 418 664 *~ 0.6;
#X obj 525 658 *~ 0.6;
#X obj 593 662 *~ 0.6;
#X obj 828 1275 mm_reverb;
#X connect 2 0 176 0;
#X connect 2 1 166 1;
#X connect 3 0 171 0;
#X connect 3 1 163 1;
#X connect 5 0 52 1;
#X connect 6 0 132 2;
#X connect 7 0 175 0;
#X connect 7 1 159 1;
#X connect 8 0 52 1;
#X connect 8 0 132 2;
#X connect 8 0 141 1;
#X connect 9 0 10 0;
#X connect 9 0 26 0;
#X connect 12 0 49 0;
#X connect 13 0 14 0;
#X connect 14 0 53 1;
#X connect 16 0 15 0;
#X connect 16 0 80 0;
#X connect 16 0 27 0;
#X connect 17 0 11 0;
#X connect 17 0 28 0;
#X connect 18 0 9 0;
#X connect 18 0 79 0;
#X connect 19 0 18 1;
#X connect 20 0 16 0;
#X connect 21 0 20 1;
#X connect 22 0 17 0;
#X connect 22 0 81 0;
#X connect 23 0 22 1;
#X connect 24 0 71 0;
#X connect 24 1 72 0;
#X connect 24 2 73 0;
#X connect 25 0 24 0;
#X connect 26 0 102 0;
#X connect 27 0 109 0;
#X connect 28 0 113 0;
#X connect 29 0 26 1;
#X connect 29 0 131 1;
#X connect 30 0 27 1;
#X connect 30 0 130 1;
#X connect 31 0 28 1;
#X connect 31 0 129 1;
#X connect 32 0 52 1;
#X connect 32 0 132 2;
#X connect 32 0 141 1;
#X connect 34 0 35 1;
#X connect 34 0 183 0;
#X connect 35 0 140 0;
#X connect 36 0 140 1;
#X connect 37 0 50 0;
#X connect 38 0 39 0;
#X connect 39 0 54 1;
#X connect 40 0 51 0;
#X connect 41 0 42 0;
#X connect 42 0 43 1;
#X connect 43 0 52 0;
#X connect 43 0 178 0;
#X connect 43 0 187 0;
#X connect 43 1 35 0;
#X connect 43 1 177 0;
#X connect 43 1 187 1;
#X connect 44 0 87 0;
#X connect 45 0 87 0;
#X connect 46 0 47 0;
#X connect 47 0 48 0;
#X connect 48 0 132 2;
#X connect 49 0 13 0;
#X connect 50 0 38 0;
#X connect 51 0 41 0;
#X connect 52 0 141 0;
#X connect 53 0 52 0;
#X connect 53 0 178 0;
#X connect 53 0 187 0;
#X connect 53 1 35 0;
#X connect 53 1 177 0;
#X connect 53 1 187 1;
#X connect 54 0 52 0;
#X connect 54 0 178 0;
#X connect 54 0 187 0;
#X connect 54 1 35 0;
#X connect 54 1 177 0;
#X connect 54 1 187 1;
#X connect 55 0 29 0;
#X connect 56 0 30 0;
#X connect 57 0 31 0;
#X connect 63 0 166 0;
#X connect 64 0 159 0;
#X connect 65 0 64 1;
#X connect 65 0 63 1;
#X connect 65 0 69 1;
#X connect 65 0 122 1;
#X connect 65 0 123 1;
#X connect 65 0 124 1;
#X connect 66 0 125 0;
#X connect 66 0 138 1;
#X connect 67 0 68 0;
#X connect 68 0 125 0;
#X connect 68 0 137 0;
#X connect 69 0 163 0;
#X connect 70 0 171 1;
#X connect 70 0 175 1;
#X connect 70 0 176 1;
#X connect 71 0 115 0;
#X connect 72 0 116 0;
#X connect 73 0 117 0;
#X connect 74 0 71 1;
#X connect 75 0 72 1;
#X connect 76 0 73 1;
#X connect 77 0 35 1;
#X connect 77 0 132 2;
#X connect 77 0 140 1;
#X connect 78 0 35 1;
#X connect 78 0 132 2;
#X connect 78 0 140 1;
#X connect 82 0 83 0;
#X connect 83 0 84 0;
#X connect 84 0 85 1;
#X connect 84 0 171 1;
#X connect 85 0 86 1;
#X connect 85 0 89 0;
#X connect 86 0 90 0;
#X connect 87 0 88 0;
#X connect 88 0 82 0;
#X connect 88 1 85 0;
#X connect 88 2 86 0;
#X connect 89 0 176 1;
#X connect 90 0 175 1;
#X connect 92 0 93 0;
#X connect 93 0 94 0;
#X connect 94 0 95 0;
#X connect 94 1 95 1;
#X connect 95 0 96 0;
#X connect 96 0 97 0;
#X connect 98 0 141 1;
#X connect 99 0 101 0;
#X connect 100 0 82 1;
#X connect 101 0 100 0;
#X connect 102 0 105 0;
#X connect 102 1 121 0;
#X connect 103 0 104 0;
#X connect 104 0 107 0;
#X connect 105 0 106 0;
#X connect 105 0 3 0;
#X connect 107 0 105 1;
#X connect 107 1 108 1;
#X connect 108 0 111 0;
#X connect 109 0 110 0;
#X connect 109 1 108 0;
#X connect 110 0 2 0;
#X connect 111 0 110 1;
#X connect 111 1 112 1;
#X connect 112 0 114 1;
#X connect 113 0 114 0;
#X connect 113 1 112 0;
#X connect 114 0 7 0;
#X connect 118 0 102 0;
#X connect 119 0 109 0;
#X connect 120 0 113 0;
#X connect 121 0 103 0;
#X connect 122 0 60 0;
#X connect 122 0 53 0;
#X connect 122 0 62 0;
#X connect 123 0 59 0;
#X connect 123 0 54 0;
#X connect 123 0 61 0;
#X connect 124 0 43 0;
#X connect 124 0 4 0;
#X connect 124 0 58 0;
#X connect 125 2 65 0;
#X connect 126 0 131 0;
#X connect 126 1 18 0;
#X connect 127 0 130 0;
#X connect 127 1 20 0;
#X connect 128 0 129 0;
#X connect 128 1 22 0;
#X connect 129 0 175 0;
#X connect 130 0 176 0;
#X connect 131 0 171 0;
#X connect 132 0 0 0;
#X connect 132 1 1 0;
#X connect 133 0 134 0;
#X connect 134 0 136 0;
#X connect 135 0 171 0;
#X connect 135 0 175 0;
#X connect 135 0 176 0;
#X connect 136 0 135 0;
#X connect 137 0 138 1;
#X connect 138 0 125 0;
#X connect 139 0 138 0;
#X connect 140 0 132 1;
#X connect 141 0 132 0;
#X connect 143 0 153 0;
#X connect 144 0 147 0;
#X connect 145 0 146 0;
#X connect 146 0 156 1;
#X connect 147 0 145 0;
#X connect 147 1 149 0;
#X connect 147 2 151 0;
#X connect 148 0 156 1;
#X connect 149 0 150 0;
#X connect 150 0 157 1;
#X connect 151 0 152 0;
#X connect 152 0 158 1;
#X connect 153 0 156 0;
#X connect 153 1 157 0;
#X connect 153 2 158 0;
#X connect 154 0 157 1;
#X connect 155 0 158 1;
#X connect 156 1 126 0;
#X connect 157 1 127 0;
#X connect 158 1 128 0;
#X connect 159 0 58 0;
#X connect 159 0 43 0;
#X connect 159 0 4 0;
#X connect 160 0 159 2;
#X connect 161 0 162 0;
#X connect 162 0 160 0;
#X connect 163 0 62 0;
#X connect 163 0 60 0;
#X connect 163 0 53 0;
#X connect 164 0 163 2;
#X connect 165 0 164 0;
#X connect 166 0 59 0;
#X connect 166 0 54 0;
#X connect 166 0 61 0;
#X connect 167 0 166 2;
#X connect 168 0 167 0;
#X connect 169 0 165 0;
#X connect 170 0 168 0;
#X connect 171 0 179 0;
#X connect 171 1 172 0;
#X connect 172 0 122 0;
#X connect 173 0 123 0;
#X connect 174 0 124 0;
#X connect 175 0 181 0;
#X connect 175 1 174 0;
#X connect 176 0 180 0;
#X connect 176 1 173 0;
#X connect 177 0 132 1;
#X connect 178 0 132 0;
#X connect 179 0 184 0;
#X connect 180 0 185 0;
#X connect 181 0 186 0;
#X connect 182 0 187 2;
#X connect 183 0 182 0;
#X connect 184 0 69 0;
#X connect 185 0 63 0;
#X connect 186 0 64 0;
#X connect 187 0 0 0;
#X connect 187 1 1 0;
#X restore 877 16 pd synth;
#X obj 545 -122 noise~;
#X obj 545 -94 s~ theNoise;
#N canvas 33 23 1332 748 randomness 0;
#X obj 29 355 s drumPattern;
#X obj 29 184 loadbang;
#X text 379 393 pattern 0-4;
#X obj -10 148 r randomize;
#X obj -9 171 t b;
#X obj 68 273 mod 200;
#X msg 69 296 seed \$1;
#X obj 1155 -204 loadbang;
#X obj 1146 -106 timer;
#X obj 1172 -137 sel 1;
#X obj 987 -121 r loadNewPattern;
#X obj 988 34 f;
#X obj 1020 35 + 1;
#X obj 1024 -53 sel 1;
#X msg 1024 -19 0;
#X obj 991 103 s loadNextPattern;
#X obj 1175 183 s patternNumber;
#X obj 684 -490 r \$0-clock;
#X obj 685 -448 t b;
#X obj 687 -320 f;
#X obj 729 -320 + 1;
#X obj 645 -107 sel 0;
#X obj 565 142 s randomize;
#X msg 565 93 randomize;
#X obj 527 -59 loadbang;
#X obj 739 -268 sel 0;
#X obj 751 -121 s loadNewPattern;
#X obj 721 -418 r onOff;
#X obj 723 -392 sel 1;
#X msg 725 -367 0;
#X obj 1171 -159 r onOff;
#X obj 1021 -93 r onOff;
#X obj 871 -147 mod 1024;
#X obj 872 -116 sel 0;
#X obj 842 28 s setNewTempo;
#X obj 880 -53 t b;
#X obj 878 6 random 12;
#X obj 878 48 s \$0-theRoot;
#X obj 997 262 loadbang;
#X text 735 -161 reconnect;
#X text 1014 85 reconnect;
#X msg 641 59 \$1 randomize;
#X obj 640 85 route 0 1 2 3;
#X obj 597 174 s randomize1;
#X obj 620 201 s randomize2;
#X obj 640 227 s randomize3;
#X text 644 38 reconnect;
#X obj 791 233 == 0;
#X obj 1147 118 t b f;
#X obj 687 -48 sel 0;
#X obj 685 -71 mod 256;
#X obj 1145 -82 mod 200;
#X msg 1145 -51 seed \$1;
#X obj 564 64 bng 15 250 50 0 empty empty empty 17 7 0 10 -262144 -1
-1;
#X obj 564 -1 r onOff;
#X obj 564 31 sel 0;
#X obj 789 76 until;
#X obj 788 103 f;
#X obj 817 105 + 1;
#X obj 790 185 t b f;
#X obj 791 257 list prepend;
#X obj 790 280 list trim;
#X obj 790 159 + 1;
#X obj 789 349 s \$0-1shouldImprovise;
#X obj 812 372 s \$0-2shouldImprovise;
#X obj 833 393 s \$0-3shouldImprovise;
#X obj 750 -146 sel 0;
#X obj 742 -22 s colorTheme;
#X obj 740 -97 random 100;
#X obj 29 323 random 8;
#X obj 739 -292 mod 64;
#X obj 790 321 route 1 2 3 0;
#X obj 862 420 s \$0-0shouldImprovise;
#X obj 738 -249 t b b;
#X obj 811 -225 random 100;
#X msg 932 -274 seed \$1;
#X obj 931 -300 mod 150;
#X msg 894 -180 seed \$1;
#X obj 893 -205 mod 130;
#X msg 971 -161 seed \$1;
#X obj 970 -187 mod 140;
#X msg 915 -38 seed \$1;
#X obj 914 -64 mod 125;
#X obj 1209 -94 s \$0-timer;
#X obj 546 -233 r \$0-timer;
#X msg 548 -136 seed \$1;
#X obj 547 -158 mod 110;
#X obj 813 -167 sel 1;
#X obj 742 -71 + 50;
#X obj 742 -44 * 0.01;
#X obj 69 249 r \$0-timer;
#X obj 727 21 s \$0-willRandomize;
#X obj 646 -128 mod 16;
#X msg 1001 286 0;
#X obj 641 20 random 16;
#X obj 46 462 s \$0-changePerc;
#X obj 28 438 s \$0-changeKick;
#X obj 13 411 s \$0-changeSnare;
#X obj 11 375 random 4;
#X obj 73 389 random 4;
#X obj 138 434 random 4;
#X obj 141 323 r randomize1;
#X obj 141 348 t b;
#X obj 166 396 t b;
#X obj 166 371 r randomize2;
#X obj 837 -84 random 100;
#X obj 834 -37 sel 1;
#X obj 836 -59 < 80;
#X obj 1142 -22 t b a;
#X obj 789 130 mod 4;
#X msg 789 53 4;
#X obj 745 -187 random 6;
#X obj 846 153 r \$0-timer;
#X obj 843 176 mod 60;
#X msg 848 198 seed \$1;
#X obj 813 -190 < 6;
#X obj 956 -10 bng 15 250 50 0 empty empty empty 17 7 0 10 -262144
-1 -1;
#X obj 1146 74 random 5;
#X obj 790 208 random 8;
#X connect 1 0 69 0;
#X connect 3 0 4 0;
#X connect 4 0 69 0;
#X connect 4 0 98 0;
#X connect 5 0 6 0;
#X connect 6 0 69 0;
#X connect 7 0 8 0;
#X connect 8 0 51 0;
#X connect 8 0 76 0;
#X connect 8 0 78 0;
#X connect 8 0 80 0;
#X connect 8 0 82 0;
#X connect 8 0 83 0;
#X connect 9 0 8 1;
#X connect 10 0 11 0;
#X connect 11 0 12 0;
#X connect 11 0 15 0;
#X connect 12 0 11 1;
#X connect 13 0 14 0;
#X connect 14 0 11 1;
#X connect 17 0 18 0;
#X connect 18 0 19 0;
#X connect 19 0 20 0;
#X connect 19 0 32 0;
#X connect 19 0 50 0;
#X connect 19 0 70 0;
#X connect 19 0 92 0;
#X connect 20 0 19 1;
#X connect 21 0 94 0;
#X connect 23 0 22 0;
#X connect 23 0 43 0;
#X connect 23 0 44 0;
#X connect 23 0 45 0;
#X connect 24 0 23 0;
#X connect 25 0 73 0;
#X connect 27 0 28 0;
#X connect 28 0 29 0;
#X connect 29 0 19 1;
#X connect 30 0 9 0;
#X connect 31 0 13 0;
#X connect 32 0 33 0;
#X connect 33 0 35 0;
#X connect 33 0 105 0;
#X connect 35 0 36 0;
#X connect 36 0 37 0;
#X connect 38 0 93 0;
#X connect 41 0 42 0;
#X connect 42 0 22 0;
#X connect 42 1 43 0;
#X connect 42 2 44 0;
#X connect 42 3 45 0;
#X connect 47 0 60 0;
#X connect 48 0 11 0;
#X connect 48 1 16 0;
#X connect 49 0 110 0;
#X connect 50 0 49 0;
#X connect 51 0 52 0;
#X connect 52 0 108 0;
#X connect 53 0 23 0;
#X connect 54 0 55 0;
#X connect 55 0 53 0;
#X connect 56 0 57 0;
#X connect 57 0 58 0;
#X connect 57 0 109 0;
#X connect 58 0 57 1;
#X connect 59 0 118 0;
#X connect 59 1 60 1;
#X connect 60 0 61 0;
#X connect 61 0 71 0;
#X connect 62 0 59 0;
#X connect 66 0 26 0;
#X connect 68 0 88 0;
#X connect 69 0 0 0;
#X connect 70 0 25 0;
#X connect 71 0 63 0;
#X connect 71 1 64 0;
#X connect 71 2 65 0;
#X connect 71 3 72 0;
#X connect 73 0 68 0;
#X connect 73 0 111 0;
#X connect 73 1 74 0;
#X connect 74 0 115 0;
#X connect 75 0 74 0;
#X connect 76 0 75 0;
#X connect 77 0 111 0;
#X connect 78 0 77 0;
#X connect 79 0 68 0;
#X connect 80 0 79 0;
#X connect 81 0 36 0;
#X connect 82 0 81 0;
#X connect 84 0 86 0;
#X connect 85 0 94 0;
#X connect 86 0 85 0;
#X connect 87 0 117 0;
#X connect 88 0 89 0;
#X connect 89 0 67 0;
#X connect 90 0 5 0;
#X connect 92 0 21 0;
#X connect 93 0 63 0;
#X connect 93 0 64 0;
#X connect 93 0 65 0;
#X connect 93 0 72 0;
#X connect 94 0 41 0;
#X connect 94 0 91 0;
#X connect 98 0 97 0;
#X connect 99 0 96 0;
#X connect 100 0 95 0;
#X connect 101 0 102 0;
#X connect 102 0 99 0;
#X connect 103 0 100 0;
#X connect 104 0 103 0;
#X connect 105 0 107 0;
#X connect 106 0 34 0;
#X connect 106 0 35 0;
#X connect 107 0 106 0;
#X connect 108 0 117 0;
#X connect 108 1 117 0;
#X connect 109 0 62 0;
#X connect 110 0 56 0;
#X connect 111 0 66 0;
#X connect 112 0 113 0;
#X connect 113 0 114 0;
#X connect 114 0 118 0;
#X connect 115 0 87 0;
#X connect 116 0 36 0;
#X connect 117 0 48 0;
#X connect 118 0 47 0;
#X restore 830 54 pd randomness;
#N canvas 476 85 697 664 improvise 0;
#X obj 69 13 r \$0-note0;
#X obj 91 81 r \$0-note1;
#X obj 90 101 change;
#X obj 126 172 change;
#X obj 127 152 r \$0-note2;
#X obj 90 122 t b f;
#X obj 126 196 t b f;
#X obj 150 245 change;
#X obj 150 269 t b f;
#X obj 151 225 r \$0-note3;
#X obj 77 326 pack f f f f;
#X obj 70 35 change;
#X obj 41 426 s \$0-theChord;
#X obj 138 597 randomPlayer;
#X obj 140 464 r \$0-clock;
#X floatatom 167 505 5 0 0 0 - - -;
#X obj 208 510 list trim;
#X obj 209 488 list prepend chord set;
#X obj 352 303 loadbang;
#X obj 352 402 hradio 15 1 0 8 empty empty empty 0 -8 0 10 -262144
-1 -1 4;
#X obj 453 254 r randomize;
#X obj 460 279 t b;
#X obj 138 631 s \$0-randomNotes;
#X obj 165 344 list prepend set;
#X obj 166 366 list trim;
#X msg 167 389 8 0 0 0;
#X obj 58 511 sel 0;
#X msg 345 457 probs 80 80 80 80;
#X msg 345 481 probs 90 70 90 70;
#X msg 345 504 probs 20 90 80 20;
#X msg 344 533 probs 10 90 90 90;
#X obj 59 484 mod 2;
#X obj 354 428 select 0 1 2 3 4 5 6 7;
#X obj 458 350 random 8;
#X msg 363 581 probs 20 70 20 70;
#X msg 363 604 probs 10 90 80 80;
#X msg 363 557 probs 100 10 10 10;
#X msg 362 633 probs 1 100 1 100;
#X connect 0 0 11 0;
#X connect 1 0 2 0;
#X connect 2 0 5 0;
#X connect 3 0 6 0;
#X connect 4 0 3 0;
#X connect 5 0 10 0;
#X connect 5 1 10 1;
#X connect 6 0 10 0;
#X connect 6 1 10 2;
#X connect 7 0 8 0;
#X connect 8 0 10 0;
#X connect 8 1 10 3;
#X connect 9 0 7 0;
#X connect 10 0 12 0;
#X connect 10 0 23 0;
#X connect 11 0 10 0;
#X connect 13 0 22 0;
#X connect 14 0 15 0;
#X connect 14 0 31 0;
#X connect 14 0 13 0;
#X connect 16 0 13 1;
#X connect 17 0 16 0;
#X connect 18 0 19 0;
#X connect 19 0 32 0;
#X connect 20 0 21 0;
#X connect 21 0 33 0;
#X connect 23 0 24 0;
#X connect 24 0 25 0;
#X connect 25 0 17 0;
#X connect 26 0 25 0;
#X connect 27 0 13 1;
#X connect 28 0 13 1;
#X connect 29 0 13 1;
#X connect 30 0 13 1;
#X connect 31 0 26 0;
#X connect 32 0 27 0;
#X connect 32 1 28 0;
#X connect 32 2 29 0;
#X connect 32 3 30 0;
#X connect 32 4 36 0;
#X connect 32 5 34 0;
#X connect 32 6 35 0;
#X connect 32 7 37 0;
#X connect 33 0 19 0;
#X connect 34 0 13 1;
#X connect 35 0 13 1;
#X connect 36 0 13 1;
#X connect 37 0 13 1;
#X restore 832 77 pd improvise;
#X obj 167 -72 r audioSwitch;
#X obj 206 127 switch~;
#X obj 163 167 s audioOn;
#X obj 164 134 t b;
#X obj 166 -32 t b f f;
#X obj 207 -6 == 0;
#X obj 208 17 * 30;
#X obj 163 90 f;
#X obj 162 56 del;
#X obj 929 53 mm_out;
#X obj 645 24 r \$0-detectedTempo;
#X obj 645 47 mm_fx;
#X connect 4 0 5 0;
#X connect 8 0 12 0;
#X connect 11 0 10 0;
#X connect 12 0 16 0;
#X connect 12 1 15 1;
#X connect 12 2 13 0;
#X connect 13 0 14 0;
#X connect 14 0 16 1;
#X connect 15 0 9 0;
#X connect 15 0 11 0;
#X connect 16 0 15 0;
#X connect 18 0 19 0;
